<?xml version="1.0" encoding="utf-8"?>
<!-- Generator: Adobe Illustrator 24.1.2, SVG Export Plug-In . SVG Version: 6.00 Build 0)  -->
<svg version="1.1" id="Lag_1" xmlns="http://www.w3.org/2000/svg" xmlns:xlink="http://www.w3.org/1999/xlink" x="0px" y="0px"
	 viewBox="0 0 100 100" style="enable-background:new 0 0 100 100;" xml:space="preserve">
<style type="text/css">
	.st0{display:none;}
	.st1{display:inline;fill:#1B1B1B;}
	.st2{display:inline;fill:#FFFFFF;}
	.st3{fill:#FFFFFF;stroke:#FFFFFF;stroke-miterlimit:10;}
	.st4{fill:#1B1B1B;}
	.st5{fill:#FFFFFF;}
</style>
<g class="st0">
	<path class="st1" d="M49.7,5.4c26,0.2,45.5,19.6,45.4,45.5c0,25.7-19.5,45.4-45.7,45.2C23.9,95.8,4.8,76.7,4.6,51.2
		C4.3,25,24.1,5.8,49.7,5.4z M73.6,32.6C66,32.8,58,31.1,52.4,38c0,11,0,21.8,0,32.6c1,0.2,1.7,0.5,2.4,0.5c1.1,0,2.2-0.1,3.3-0.1
		c1.1-7.9,1.1-7.9,6.6-11.4c3.2,3.7,6.5,7.5,9.7,11.1c2.2,0,4.7,0,8.9,0c-3.6-4.4-6.2-7.6-9.6-11.7c7.1-1.2,8.5-6.4,10.4-11.2
		C83.1,40.8,77.9,37,73.6,32.6z M37.5,73.6c1.3-1.4,2.4-2.8,3.8-4.1c4.5-4.2,6.7-9.1,6.3-15.5c-0.4-6.3-0.1-12.6-0.1-18.8
		c-3.4,0-5.9,0-9.2,0c0,5.3,0,10.4,0,15.6c-5-0.5-9.9,1.8-13.2-3.3c-0.2-3.8-0.4-7.8-0.6-11.9c0-0.3-0.5-0.5-0.3-0.3c-3,0-5.5,0-8,0
		c-0.4,12.1,1,17.3,6.6,21.1c4.6,3.1,9.7,5.7,15.9,1c-0.2,5.7-4.8,7.2-6.8,10.5C33.6,69.6,35.5,71.5,37.5,73.6z"/>
	<path class="st2" d="M73.6,32.6c4.3,4.4,9.4,8.2,10.4,15.1c-1.9,4.8-3.3,10-10.4,11.2c3.4,4.1,6,7.4,9.6,11.7c-4.2,0-6.7,0-8.9,0
		c-3.2-3.6-6.5-7.4-9.7-11.1c-5.5,3.5-5.5,3.5-6.6,11.4c-1.1,0.1-2.2,0.2-3.3,0.1c-0.7,0-1.4-0.3-2.4-0.5c0-10.7,0-21.6,0-32.6
		C58,31.1,66,32.8,73.6,32.6z M74.5,42c-5.6,0-10.3,0-15,0c0,3.9,0,7.4,0,10.7c4.6,0,8.6,0,12.1,0C75.7,49.8,75,46.1,74.5,42z"/>
	<path class="st2" d="M37.5,73.6c-2.1-2.1-3.9-3.9-5.7-5.7c1.9-3.3,6.6-4.8,6.8-10.5c-6.1,4.7-11.2,2.1-15.9-1
		c-5.6-3.8-7-9-6.6-21.1c2.5,0,5,0,8,0c-0.2-0.2,0.3,0.1,0.3,0.3c0.3,4,0.4,8.1,0.6,11.9c3.3,5.1,8.2,2.8,13.2,3.3
		c0-5.2,0-10.3,0-15.6c3.3,0,5.8,0,9.2,0c0,6.3-0.3,12.6,0.1,18.8c0.4,6.4-1.8,11.3-6.3,15.5C40,70.8,38.8,72.2,37.5,73.6z"/>
	<path class="st1" d="M74.5,42c0.5,4.1,1.3,7.8-2.9,10.7c-3.5,0-7.5,0-12.1,0c0-3.3,0-6.8,0-10.7C64.1,42,68.9,42,74.5,42z"/>
</g>
<circle class="st3" cx="50" cy="50" r="48.3"/>
<g>
	<path class="st4" d="M43.7,5.4c4.1,0,8.3,0,12.4,0c0.2,0.2,0.4,0.4,0.6,0.5C57.8,5.9,58.9,6,60,6.3c3.6,0.8,6.9,2.1,10.2,3.6
		c1.3,0.6,2.6,1.5,3.8,2.2c2.1,1.2,4.1,2.5,5.9,4.1c3.8,3.5,7.4,7.2,9.6,11.9c2.2,2.6,3,5.9,4.1,9c0.9,2.4,1.7,4.8,1.5,7.5
		c0,0.1,0.3,0.2,0.5,0.4c0,4.1,0,8.3,0,12.4c-0.2,0.2-0.4,0.4-0.5,0.6c-0.1,1.1-0.2,2.2-0.4,3.4c-0.8,3.6-2.1,6.9-3.6,10.2
		c-0.6,1.3-1.5,2.6-2.2,3.8c-1.2,2.1-2.5,4.1-4.1,5.9c-3.5,3.8-7.2,7.4-11.9,9.6c-2.6,2.2-5.9,3-9,4.1c-2.4,0.9-4.8,1.7-7.5,1.5
		c-0.1,0-0.2,0.3-0.4,0.5c-4.1,0-8.3,0-12.4,0c-0.2-0.2-0.4-0.4-0.6-0.5c-1.1-0.1-2.2-0.2-3.4-0.4c-3.6-0.8-6.9-2.1-10.2-3.6
		c-1.3-0.6-2.6-1.5-3.8-2.2c-2.1-1.2-4.1-2.5-5.9-4.1c-3.8-3.5-7.4-7.2-9.6-11.9c-2.2-2.6-3-5.9-4.1-9c-0.9-2.4-1.7-4.8-1.5-7.5
		c0-0.1-0.3-0.2-0.5-0.4c0-4.1,0-8.3,0-12.4c0.2-0.2,0.4-0.4,0.5-0.6c0.1-1.1,0.2-2.2,0.4-3.4c0.8-3.6,2.1-6.9,3.6-10.2
		c0.6-1.3,1.5-2.6,2.2-3.8c1.2-2.1,2.5-4.1,4.1-5.9c3.5-3.8,7.2-7.4,11.9-9.6c2.6-2.2,5.9-3,9-4.1c2.4-0.9,4.8-1.7,7.5-1.5
		C43.4,5.8,43.5,5.5,43.7,5.4z M49.4,42c0,2.3,0,4.6,0,6.9c0,0.7-0.5,1.6,0.4,2.1c1.2-0.5,0.5-1.5,0.5-2.2c0.1-5,0-10,0-15
		c0-0.5-0.2-1.1,0.4-1.5c0.9-0.6,1.7-1.2,2.6-1.8c2-1.4,4.2-1.4,6.5-1.5c3-0.1,5.8,2.7,5.8,5.7c0,2.6-0.9,4.9-2.1,7
		c-1.1,2.1-2.6,4-4,6c-0.6,0.9-1.2,1.9-1.9,2.8c-0.1,0.1-0.1,0.2-0.2,0.3c0.2,0.1,0.5,0.2,0.6,0.1c0.3-0.1,0.8-0.2,1-0.5
		c1.2-1.6,2.3-3.1,3.4-4.8c1.5-2.4,2.9-4.8,3.7-7.5c0.3-0.9,0.6-1.8,0.7-2.8c0.1-0.5,0.3-0.7,0.8-0.6c1.4,0.2,3.4,2,3.5,3.5
		c0.2,1.9,0,3.9-1.1,5.5c-1.5,2.1-2.8,4.4-4.7,6.2c-0.2,0.2-0.2,0.6-0.3,1c0.4,0,0.8,0.1,1.1,0c0.3-0.1,0.5-0.4,0.7-0.6
		c1.7-2.4,3.6-4.6,4.7-7.3c0.7-1.5,1.3-3,0.6-4.9c-0.9-2.6-1.7-3.8-4.3-4.2c-0.9-0.1-1.4-0.3-1.5-1.3c-0.1-0.9-1.5-2.5-2-3
		c-1.5-1.6-3.5-1.6-5.4-1.9c-1.7-0.3-3.3,0.4-4.8,1c-0.9,0.4-1,0.4-1.1-0.7c-0.1-1.2-0.8-1.9-1.6-2.7c-1.7,0.2-1.2-1.1-1.3-2
		c0-0.4,0-0.8,0-1.2c0-0.1-0.2-0.2-0.4-0.2c-0.2,0-0.5,0.2-0.6,0.3c0,0.8,0,1.6,0,2.4c0,0.5-0.2,0.7-0.7,0.7c-0.3,0-0.7,0.2-1,0.5
		c-0.8,0.7-1.2,1.5-1.2,2.6c0,0.9-0.1,0.9-0.9,0.5c-1.6-0.8-3.4-1.3-5.2-1.2c-0.6,0-1.1,0.4-1.7,0.4c-2.9,0.1-4.4,1.9-5.4,4.3
		c-0.4,0.9-0.6,1.3-1.6,1.5c-1.7,0.3-3.3,1.1-4,2.9c-0.3,0.8-0.2,1.6-0.6,2.4c-0.2,0.5,0,1.2,0.1,1.8c1.1,3.6,3.5,6.5,5.7,9.5
		c0.2,0.2,0.5,0.4,0.7,0.5c0.3,0.1,0.6-0.1,0.9-0.1c-0.1-0.3,0-0.6-0.2-0.8c-1.7-1.7-2.9-3.7-4.2-5.6c-1.2-1.7-1.8-3.5-1.7-5.5
		c0.1-1.7,1.7-3.7,3.4-4.1c0.4-0.1,0.8-0.1,1,0.6c0.4,1.4,0.6,2.9,1.2,4.3c1.7,4,4.2,7.3,6.6,10.8c0.2,0.3,0.6,0.4,1,0.5
		c0.1,0.1,0.3,0,0.5,0c0-0.2,0-0.4-0.1-0.5c-0.7-1.1-1.5-2.1-2.2-3.2c-2-3.2-4.4-6.2-5.3-10c-0.4-1.4-0.6-2.9-0.2-4.1
		c0.4-1.3,1-2.7,2.6-3.5c1.4-0.7,2.8-0.6,4.2-0.7c3.2-0.3,5.6,1.5,8,3.2c0.5,0.4,0.3,0.9,0.3,1.3C49.4,36.5,49.4,39.3,49.4,42z
		 M46.5,74.9c0,2,0,4,0,6c0,0.7,0.4,0.8,0.9,0.7c0.5,0,1.1,0.2,1.1-0.8c-0.1-3.2,0-6.3,0-9.5c0-0.4,0.1-0.7,0.2-1.1
		c0.1,0.3,0.2,0.7,0.3,1c1.1,3.1,2.3,6.2,3.3,9.4c0.3,0.9,0.5,1.1,1.3,1.1c1.4,0,1.4,0,1.9-1.5c0.1-0.2,0.1-0.4,0.2-0.6
		c0.9-3,2.2-6,2.9-9.1c0-0.1,0.2-0.2,0.3-0.2c0,0,0.2,0.1,0.2,0.2c0,0.4,0,0.8,0,1.2c0,3.1,0,6.2,0,9.3c0,0.7,0.4,0.8,0.9,0.7
		c0.5,0,1.1,0.2,1.1-0.8c0-4,0-7.9,0-11.9c0-0.5-0.1-0.7-0.7-0.7c-0.3,0-0.6,0-1,0c-1.7,0-1.6,0-2.2,1.8c-0.9,2.9-1.9,5.9-2.9,8.8
		c-0.1,0.2-0.3,0.3-0.5,0.3c-0.2,0-0.4-0.2-0.4-0.4c-0.8-3.1-1.8-6.2-2.9-9.3c-0.2-0.4-0.4-1.1-0.6-1.1c-1-0.1-2-0.1-3-0.1
		c-0.1,0.6-0.2,1.2-0.2,1.8C46.5,71.7,46.5,73.3,46.5,74.9z M32.7,74.8c0,0.8,0,1.6,0,2.4c0.1,1.5,0.1,2.9,0.2,4.4
		c1.7,0,3.3,0.1,5,0c0.6-0.1,1.3-0.3,1.9-0.5c1.9-0.6,4.1-3,3.9-4.6c-0.1-1,0-2.1,0-3.1c0-1.9-2.1-4.3-4-4.7c-1-0.2-1.9-0.4-2.9-0.5
		c-1-0.1-2.1,0-3.1,0c-0.7,0-1,0.1-1,0.9C32.7,71,32.7,72.9,32.7,74.8z M49.9,53.5c-5,0-10,0-15,0c-0.4,0-1.1-0.4-1.2,0.6
		c-0.1,1.1,0.7,0.8,1.2,0.8c10,0,20,0,30,0c0.3,0,0.7,0.1,0.9,0c0.1,0,0.3-0.4,0.2-0.6c0-0.3-0.1-0.7-0.3-0.8c-0.2-0.1-0.6,0-0.9,0
		C59.8,53.5,54.9,53.5,49.9,53.5z M50.1,56.3c-5.1,0-10.2,0-15.2,0c-0.6,0-1.3-0.3-1.2,0.8c0.1,1,0.8,0.6,1.2,0.6c10,0,20,0,30,0
		c0.2,0,0.5,0.1,0.7,0c0.2-0.1,0.4-0.4,0.5-0.6c0.1-0.5,0-0.9-0.7-0.9C60.2,56.4,55.2,56.3,50.1,56.3z M49.6,60.6
		c5.1,0,10.2,0,15.2,0c0.6,0,1.3,0.3,1.2-0.8c-0.1-1-0.8-0.6-1.2-0.6c-10,0-20,0-30,0c-0.2,0-0.5-0.1-0.7,0
		c-0.2,0.1-0.4,0.3-0.5,0.6c-0.2,0.8,0.3,0.8,0.9,0.8C39.6,60.6,44.6,60.6,49.6,60.6z M64.6,74.8c0,2.1,0,4.1,0,6.2
		c0,0.8,0.5,0.6,1,0.6c0.4,0,1,0.2,1-0.6c0-4,0-8.1,0-12.1c0-0.8-0.5-0.6-1-0.6c-0.4,0-1-0.2-1,0.6C64.6,70.8,64.6,72.8,64.6,74.8z
		 M49.4,17c0,0.6,0.1,1.3,0.1,2c0,0.1,0.3,0.2,0.4,0.2c0.1,0,0.4-0.1,0.4-0.2c0-1.3,0-2.6,0-4c0-0.1-0.3-0.2-0.4-0.2
		c-0.1,0-0.4,0.1-0.4,0.2C49.4,15.7,49.4,16.3,49.4,17z M46.3,21.1c0.6-0.4,1.7,0.6,2.1-0.6c-0.6-0.8-1.4-0.4-2.1-0.3
		c-0.7,0-1.7-0.6-2.2,0.5C44.7,21.5,45.6,20.9,46.3,21.1z M53.4,21.1c0.7-0.3,1.6,0.4,2.2-0.4c-0.4-1.2-1.4-0.5-2.2-0.5
		c-0.7,0-1.5-0.5-2.1,0.3C51.7,21.7,52.8,20.7,53.4,21.1z"/>
	<path class="st3" d="M49.4,42c0-2.8,0-5.6,0-8.3c0-0.4,0.2-0.9-0.3-1.3c-2.4-1.7-4.7-3.5-8-3.2c-1.4,0.1-2.8,0-4.2,0.7
		c-1.6,0.8-2.2,2.2-2.6,3.5c-0.4,1.2-0.2,2.7,0.2,4.1c1,3.8,3.4,6.7,5.3,10c0.7,1.1,1.5,2.1,2.2,3.2c0.1,0.1,0.1,0.3,0.1,0.5
		c-0.2,0-0.3,0.1-0.5,0c-0.3-0.1-0.8-0.2-1-0.5c-2.4-3.5-5-6.9-6.6-10.8c-0.6-1.4-0.8-2.8-1.2-4.3c-0.2-0.7-0.6-0.7-1-0.6
		c-1.7,0.4-3.3,2.4-3.4,4.1c-0.1,2,0.5,3.8,1.7,5.5c1.3,1.9,2.6,3.9,4.2,5.6c0.2,0.2,0.1,0.5,0.2,0.8c-0.3,0-0.6,0.2-0.9,0.1
		c-0.3-0.1-0.6-0.3-0.7-0.5c-2.2-3-4.6-5.9-5.7-9.5c-0.2-0.6-0.4-1.3-0.1-1.8c0.4-0.8,0.3-1.6,0.6-2.4c0.7-1.8,2.3-2.6,4-2.9
		c1-0.2,1.2-0.6,1.6-1.5c0.9-2.3,2.5-4.2,5.4-4.3c0.6,0,1.1-0.4,1.7-0.4c1.8-0.1,3.6,0.4,5.2,1.2c0.8,0.4,0.9,0.4,0.9-0.5
		c0-1.1,0.5-1.9,1.2-2.6c0.3-0.2,0.6-0.4,1-0.5c0.5,0,0.7-0.2,0.7-0.7c0-0.8,0-1.6,0-2.4c0-0.1,0.4-0.2,0.6-0.3
		c0.1,0,0.3,0.1,0.4,0.2c0,0.4,0,0.8,0,1.2c0.1,0.9-0.4,2.2,1.3,2c0.8,0.8,1.5,1.5,1.6,2.7c0.1,1.1,0.1,1,1.1,0.7
		c1.5-0.6,3.1-1.3,4.8-1c1.9,0.3,3.9,0.3,5.4,1.9c0.5,0.5,1.9,2.1,2,3c0.1,1,0.6,1.2,1.5,1.3c2.6,0.4,3.4,1.6,4.3,4.2
		c0.7,1.9,0.1,3.4-0.6,4.9c-1.2,2.7-3.1,4.9-4.7,7.3c-0.2,0.3-0.4,0.6-0.7,0.6c-0.3,0.1-0.7,0-1.1,0c0.1-0.3,0.1-0.8,0.3-1
		c1.9-1.8,3.2-4.1,4.7-6.2c1.1-1.6,1.3-3.5,1.1-5.5c-0.2-1.4-2.1-3.3-3.5-3.5c-0.4-0.1-0.7,0.1-0.8,0.6c-0.2,0.9-0.5,1.9-0.7,2.8
		c-0.8,2.7-2.2,5.1-3.7,7.5c-1,1.7-2.2,3.2-3.4,4.8c-0.2,0.3-0.6,0.4-1,0.5c-0.2,0.1-0.4-0.1-0.6-0.1c0.1-0.1,0.1-0.2,0.2-0.3
		c0.6-0.9,1.2-1.9,1.9-2.8c1.3-2,2.9-3.9,4-6c1.1-2.2,2-4.4,2.1-7c0-3-2.8-5.8-5.8-5.7c-2.3,0.1-4.6,0.1-6.5,1.5
		c-0.9,0.6-1.7,1.2-2.6,1.8c-0.6,0.4-0.4,1-0.4,1.5c0,5,0,10,0,15c0,0.7,0.6,1.7-0.5,2.2c-0.8-0.6-0.3-1.4-0.4-2.1
		C49.3,46.7,49.4,44.4,49.4,42z"/>
	<path class="st3" d="M46.5,74.9c0-1.6,0-3.2,0-4.8c0-0.6,0.1-1.2,0.2-1.8c1,0,2-0.1,3,0.1c0.3,0,0.5,0.7,0.6,1.1
		c1.1,3,2,6.2,2.9,9.3c0,0.2,0.3,0.4,0.4,0.4c0.2,0,0.4-0.2,0.5-0.3c1-2.9,1.9-5.9,2.9-8.8c0.6-1.8,0.6-1.8,2.2-1.8c0.3,0,0.6,0,1,0
		c0.5,0,0.7,0.2,0.7,0.7c0,4,0,7.9,0,11.9c0,1-0.6,0.7-1.1,0.8c-0.5,0-0.9,0-0.9-0.7c0-3.1,0-6.2,0-9.3c0-0.4,0-0.8,0-1.2
		c0-0.1-0.1-0.2-0.2-0.2c-0.1,0-0.3,0.1-0.3,0.2c-0.7,3.1-2,6-2.9,9.1c-0.1,0.2-0.1,0.4-0.2,0.6c-0.5,1.5-0.5,1.5-1.9,1.5
		c-0.8,0-1-0.1-1.3-1.1c-0.9-3.2-2.1-6.2-3.3-9.4c-0.1-0.3-0.2-0.7-0.3-1c-0.1,0.4-0.2,0.7-0.2,1.1c0,3.2,0,6.4,0,9.5
		c0,1-0.6,0.7-1.1,0.8c-0.5,0-0.9,0-0.9-0.7C46.6,78.9,46.5,76.9,46.5,74.9z"/>
	<path class="st3" d="M32.7,74.8c0-1.9,0-3.8,0-5.7c0-0.8,0.3-0.9,1-0.9c1,0,2.1,0,3.1,0c1,0.1,1.9,0.3,2.9,0.5c1.9,0.4,4,2.7,4,4.7
		c0,1-0.1,2.1,0,3.1c0.2,1.6-1.9,4-3.9,4.6c-0.6,0.2-1.3,0.4-1.9,0.5c-1.6,0.2-3.3,0-5,0c-0.1-1.5-0.2-2.9-0.2-4.4
		C32.7,76.4,32.7,75.6,32.7,74.8z M34.6,75c0,1.3,0,2.7,0,4c0,0.2,0.3,0.7,0.4,0.6c1.3-0.1,2.7,0.3,3.9-0.3c2-0.9,2.9-2.5,2.8-4.8
		c-0.1-2.6-1.9-4.5-4.5-4.5c-0.6,0-1.3,0-1.9,0c-0.6,0-0.9,0.1-0.8,0.8C34.6,72.3,34.6,73.6,34.6,75z"/>
	<path class="st5" d="M49.9,53.5c5,0,10,0,15,0c0.3,0,0.7-0.1,0.9,0C66,53.6,66,54,66,54.3c0,0.2-0.1,0.5-0.2,0.6
		c-0.3,0.1-0.6,0-0.9,0c-10,0-20,0-30,0c-0.6,0-1.3,0.3-1.2-0.8c0.1-1,0.8-0.6,1.2-0.6C39.9,53.5,44.9,53.5,49.9,53.5z"/>
	<path class="st5" d="M50.1,56.3c5.1,0,10.2,0,15.2,0c0.7,0,0.8,0.3,0.7,0.9c0,0.2-0.3,0.5-0.5,0.6c-0.2,0.1-0.5,0-0.7,0
		c-10,0-20,0-30,0c-0.4,0-1.1,0.4-1.2-0.6c-0.1-1.1,0.7-0.8,1.2-0.8C39.9,56.3,45,56.3,50.1,56.3z"/>
	<path class="st5" d="M49.6,60.6c-5,0-10,0-15,0c-0.6,0-1.1,0-0.9-0.8c0.1-0.2,0.3-0.5,0.5-0.6c0.2-0.1,0.5,0,0.7,0c10,0,20,0,30,0
		c0.4,0,1.1-0.4,1.2,0.6c0.1,1.1-0.7,0.8-1.2,0.8C59.8,60.6,54.7,60.6,49.6,60.6z"/>
	<path class="st3" d="M64.6,74.8c0-2,0-4,0-5.9c0-0.8,0.5-0.6,1-0.6c0.4,0,1-0.2,1,0.6c0,4,0,8.1,0,12.1c0,0.8-0.5,0.6-1,0.6
		c-0.4,0-1,0.2-1-0.6C64.6,78.9,64.6,76.9,64.6,74.8z"/>
	<path class="st3" d="M49.4,17c0-0.7,0.1-1.3,0.1-1.9c0-0.1,0.3-0.2,0.4-0.2c0.1,0,0.4,0.1,0.4,0.2c0,1.3,0,2.6,0,4
		c0,0.1-0.3,0.2-0.4,0.2c-0.1,0-0.4-0.1-0.4-0.2C49.4,18.3,49.4,17.6,49.4,17z"/>
	<path class="st3" d="M46.3,21.1c-0.7-0.3-1.6,0.4-2.2-0.4c0.5-1.2,1.4-0.5,2.2-0.5c0.7,0,1.5-0.5,2.1,0.3
		C48,21.7,46.9,20.7,46.3,21.1z"/>
	<path class="st3" d="M53.4,21.1c-0.6-0.4-1.7,0.6-2.1-0.6c0.6-0.8,1.4-0.4,2.1-0.3c0.7,0,1.7-0.6,2.2,0.5
		C55,21.5,54.1,20.9,53.4,21.1z"/>
	<path class="st4" d="M35.1,75c0-1.2,0-2.4,0-3.5c0-0.6,0.2-0.7,0.7-0.7c0.6,0,1.1,0,1.7,0c2.2,0,3.8,1.7,3.9,3.9
		c0.1,2-0.7,3.3-2.5,4.1c-1.1,0.5-2.3,0.1-3.4,0.2c-0.1,0-0.3-0.4-0.3-0.6C35,77.3,35.1,76.1,35.1,75z"/>
</g>
</svg>
