<?xml version="1.0" encoding="utf-8"?>
<!-- Generator: Adobe Illustrator 24.1.2, SVG Export Plug-In . SVG Version: 6.00 Build 0)  -->
<svg version="1.1" id="Lag_1" xmlns="http://www.w3.org/2000/svg" xmlns:xlink="http://www.w3.org/1999/xlink" x="0px" y="0px"
	 viewBox="0 0 100 100" style="enable-background:new 0 0 100 100;" xml:space="preserve">
<style type="text/css">
	.st0{fill:#1B1B1B;}
	.st1{fill:#FFFFFF;}
	.st2{display:none;}
	.st3{display:inline;fill:#1B1B1B;}
	.st4{display:inline;fill:#FFFFFF;}
</style>
<g>
	<path class="st0" d="M49.8,0.6C77.9,0.8,99,21.7,99,49.7c0,27.8-21.1,49.1-49.4,48.8C22,98.3,1.3,77.7,1.1,50.1
		C0.8,21.8,22.1,1,49.8,0.6z M75.7,30c-8.2,0.2-16.9-1.6-22.9,5.9c0,11.9,0,23.6,0,35.2c1.1,0.3,1.8,0.6,2.6,0.6
		c1.2,0,2.4-0.1,3.5-0.2C60,62.9,60,62.9,66,59.1c3.5,4,7.1,8.1,10.5,12c2.3,0,5,0,9.6,0c-3.9-4.7-6.7-8.2-10.4-12.7
		c7.6-1.3,9.2-6.9,11.2-12.1C85.9,38.8,80.3,34.7,75.7,30z M36.7,74.3c1.4-1.5,2.6-3,4.1-4.4c4.9-4.6,7.3-9.9,6.9-16.8
		c-0.4-6.8-0.1-13.6-0.1-20.4c-3.7,0-6.4,0-10,0c0,5.8,0,11.3,0,16.9c-5.4-0.6-10.7,2-14.3-3.6c-0.2-4.1-0.4-8.4-0.7-12.8
		c0-0.3-0.6-0.5-0.4-0.4c-3.2,0-6,0-8.7,0c-0.5,13.1,1,18.7,7.1,22.8c5,3.4,10.5,6.2,17.1,1.1c-0.2,6.2-5.2,7.7-7.3,11.4
		C32.4,70,34.4,72.1,36.7,74.3z"/>
	<path class="st1" d="M75.7,30c4.6,4.7,10.2,8.9,11.2,16.3c-2,5.2-3.6,10.8-11.2,12.1c3.6,4.5,6.5,8,10.4,12.7c-4.6,0-7.3,0-9.6,0
		c-3.4-3.9-7-8-10.5-12c-6,3.8-6,3.8-7.1,12.4c-1.2,0.1-2.3,0.2-3.5,0.2c-0.7,0-1.5-0.3-2.6-0.6c0-11.6,0-23.3,0-35.2
		C58.8,28.4,67.5,30.2,75.7,30z M76.6,40.2c-6,0-11.2,0-16.2,0c0,4.2,0,8,0,11.5c4.9,0,9.3,0,13.1,0C78,48.6,77.1,44.6,76.6,40.2z"
		/>
	<path class="st1" d="M36.7,74.3c-2.3-2.3-4.3-4.3-6.2-6.2c2.1-3.6,7.1-5.1,7.3-11.4c-6.6,5.1-12.1,2.3-17.1-1.1
		c-6.1-4.1-7.6-9.7-7.1-22.8c2.7,0,5.4,0,8.7,0c-0.2-0.2,0.3,0.1,0.4,0.4c0.3,4.4,0.5,8.7,0.7,12.8c3.6,5.5,8.8,3,14.3,3.6
		c0-5.7,0-11.2,0-16.9c3.6,0,6.3,0,10,0c0,6.8-0.3,13.6,0.1,20.4c0.4,6.9-2,12.2-6.9,16.8C39.3,71.3,38,72.8,36.7,74.3z"/>
	<path class="st0" d="M76.6,40.2c0.5,4.4,1.4,8.4-3.2,11.5c-3.8,0-8.1,0-13.1,0c0-3.5,0-7.3,0-11.5C65.4,40.2,70.6,40.2,76.6,40.2z"
		/>
</g>
<g class="st2">
	<path class="st3" d="M43.3,0.5c4.5,0,8.9,0,13.4,0C56.9,0.7,57.1,1,57.4,1c1.2,0.1,2.4,0.2,3.7,0.5c3.8,0.8,7.4,2.3,11,3.8
		C73.5,6,74.8,7,76.2,7.8c2.2,1.3,4.4,2.7,6.3,4.5c4.1,3.8,8,7.7,10.4,12.9c2.4,2.8,3.3,6.4,4.5,9.7c0.9,2.6,1.8,5.2,1.6,8.1
		c0,0.1,0.3,0.3,0.5,0.4c0,4.5,0,8.9,0,13.4c-0.2,0.2-0.5,0.4-0.5,0.7c-0.1,1.2-0.2,2.4-0.5,3.7c-0.8,3.8-2.3,7.4-3.8,11
		c-0.6,1.5-1.6,2.8-2.4,4.1c-1.3,2.2-2.7,4.4-4.5,6.3c-3.8,4.1-7.7,8-12.9,10.4c-2.8,2.4-6.4,3.3-9.7,4.5c-2.6,0.9-5.2,1.8-8.1,1.6
		c-0.1,0-0.3,0.3-0.4,0.5c-4.5,0-8.9,0-13.4,0c-0.2-0.2-0.4-0.5-0.7-0.5c-1.2-0.1-2.4-0.2-3.7-0.5c-3.8-0.8-7.4-2.3-11-3.8
		c-1.5-0.6-2.8-1.6-4.1-2.4c-2.2-1.3-4.4-2.7-6.3-4.5C13.4,84,9.5,80,7.1,74.9c-2.4-2.8-3.3-6.4-4.5-9.7c-0.9-2.6-1.8-5.2-1.6-8.1
		c0-0.1-0.3-0.3-0.5-0.4c0-4.5,0-8.9,0-13.4C0.7,43.1,1,42.9,1,42.6c0.1-1.2,0.2-2.4,0.5-3.7c0.8-3.8,2.3-7.4,3.8-11
		C6,26.5,7,25.2,7.8,23.8c1.3-2.2,2.7-4.4,4.5-6.3c3.8-4.1,7.7-8,12.9-10.4c2.8-2.4,6.4-3.3,9.7-4.5c2.6-0.9,5.2-1.8,8.1-1.6
		C43,1,43.2,0.7,43.3,0.5z M49.5,40.2c0,2.5,0,5,0,7.5c0,0.8-0.5,1.7,0.4,2.3c1.2-0.5,0.6-1.6,0.6-2.4c0.1-5.4,0-10.8,0-16.2
		c0-0.6-0.3-1.2,0.4-1.6c0.9-0.6,1.9-1.3,2.8-1.9c2.2-1.5,4.6-1.5,7.1-1.6c3.3-0.1,6.3,2.9,6.3,6.1c0,2.8-1,5.3-2.2,7.6
		c-1.2,2.3-2.9,4.3-4.3,6.5c-0.7,1-1.3,2-2,3c-0.1,0.1-0.1,0.2-0.2,0.4c0.2,0.1,0.5,0.2,0.7,0.2c0.4-0.1,0.8-0.3,1-0.5
		c1.3-1.7,2.5-3.4,3.6-5.2c1.6-2.6,3.2-5.2,4-8.1c0.3-1,0.6-2,0.8-3c0.1-0.6,0.3-0.7,0.8-0.6c1.6,0.2,3.7,2.2,3.8,3.7
		c0.2,2.1,0,4.2-1.2,5.9c-1.6,2.3-3,4.7-5,6.7c-0.2,0.2-0.2,0.7-0.3,1c0.4,0,0.8,0.1,1.2,0c0.3-0.1,0.5-0.4,0.7-0.7
		c1.8-2.6,3.9-5,5.1-7.9c0.7-1.7,1.4-3.2,0.6-5.3c-1-2.8-1.8-4.1-4.7-4.5c-1-0.1-1.5-0.3-1.7-1.4c-0.1-1-1.6-2.7-2.1-3.3
		c-1.6-1.7-3.8-1.7-5.9-2c-1.8-0.3-3.5,0.5-5.2,1.1c-1,0.4-1.1,0.5-1.2-0.7c-0.1-1.3-0.9-2.1-1.7-2.9c-1.9,0.2-1.3-1.2-1.4-2.2
		c0-0.4,0-0.9,0-1.3c0-0.1-0.3-0.3-0.4-0.2c-0.2,0-0.6,0.2-0.6,0.3c-0.1,0.9-0.1,1.7,0,2.6c0,0.5-0.2,0.7-0.7,0.8
		c-0.4,0-0.8,0.2-1.1,0.5c-0.8,0.7-1.3,1.6-1.3,2.8c0,1-0.1,1-1,0.6c-1.8-0.9-3.7-1.4-5.6-1.3c-0.6,0-1.2,0.5-1.8,0.5
		c-3.1,0.1-4.8,2.1-5.8,4.6c-0.4,1-0.6,1.5-1.7,1.6c-1.9,0.3-3.5,1.1-4.3,3.1c-0.3,0.8-0.2,1.7-0.7,2.6c-0.3,0.5,0,1.3,0.2,1.9
		c1.2,3.9,3.8,7.1,6.2,10.3c0.2,0.2,0.5,0.5,0.8,0.6c0.3,0.1,0.6-0.1,1-0.1c-0.1-0.3,0-0.7-0.2-0.9c-1.8-1.8-3.1-4-4.6-6.1
		c-1.3-1.8-1.9-3.7-1.8-6c0.1-1.9,1.8-4,3.6-4.4c0.5-0.1,0.8-0.1,1.1,0.7c0.4,1.5,0.7,3.1,1.3,4.6c1.8,4.3,4.5,7.9,7.1,11.7
		c0.2,0.3,0.7,0.4,1.1,0.5c0.1,0.1,0.3,0,0.5,0c0-0.2,0-0.4-0.1-0.5c-0.8-1.1-1.6-2.2-2.3-3.4c-2.1-3.5-4.7-6.7-5.7-10.8
		c-0.4-1.5-0.6-3.1-0.2-4.4c0.4-1.4,1.1-2.9,2.8-3.7c1.6-0.7,3-0.7,4.6-0.8c3.5-0.3,6,1.7,8.6,3.5c0.5,0.4,0.3,0.9,0.3,1.4
		C49.5,34.2,49.5,37.2,49.5,40.2z M46.4,75.8c0,2.1,0,4.3,0,6.4c0,0.8,0.4,0.8,0.9,0.8c0.6,0,1.2,0.2,1.2-0.8c-0.1-3.4,0-6.9,0-10.3
		c0-0.4,0.1-0.8,0.2-1.2c0.1,0.4,0.2,0.7,0.3,1.1c1.2,3.4,2.5,6.7,3.5,10.1c0.3,1,0.5,1.2,1.4,1.2c1.5,0,1.5,0,2.1-1.6
		c0.1-0.2,0.1-0.5,0.2-0.7c1-3.3,2.3-6.4,3.1-9.8c0-0.1,0.2-0.2,0.3-0.2c0,0,0.2,0.1,0.2,0.2c0,0.4,0,0.9,0,1.3c0,3.3,0,6.7,0,10
		c0,0.8,0.4,0.8,0.9,0.8c0.6,0,1.2,0.2,1.2-0.8c-0.1-4.3,0-8.6,0-12.9c0-0.5-0.1-0.8-0.7-0.7c-0.3,0-0.7,0-1,0c-1.8,0-1.8,0-2.4,1.9
		c-1,3.2-2.1,6.4-3.1,9.5c-0.1,0.2-0.3,0.4-0.5,0.4c-0.2,0-0.4-0.2-0.5-0.4c-0.9-3.4-1.9-6.8-3.1-10c-0.2-0.4-0.4-1.2-0.7-1.2
		c-1.1-0.2-2.2-0.1-3.3-0.1c-0.1,0.7-0.2,1.3-0.2,2C46.4,72.3,46.4,74,46.4,75.8z M31.5,75.6c0,0.9,0,1.7,0,2.6
		c0.1,1.6,0.2,3.2,0.2,4.8c1.8,0,3.6,0.1,5.4,0c0.7-0.1,1.4-0.3,2.1-0.5c2.1-0.6,4.4-3.3,4.2-5c-0.1-1.1,0-2.2,0-3.3
		c0-2.1-2.3-4.7-4.4-5c-1-0.2-2.1-0.4-3.1-0.5c-1.1-0.1-2.2,0-3.3,0c-0.7,0-1.1,0.1-1.1,0.9C31.5,71.5,31.5,73.6,31.5,75.6z
		 M50,52.6c-5.4,0-10.8,0-16.2,0c-0.5,0-1.2-0.5-1.3,0.6c-0.1,1.2,0.7,0.9,1.3,0.9c10.8,0,21.6,0,32.4,0c0.3,0,0.7,0.1,1,0
		c0.1,0,0.3-0.4,0.3-0.6c0-0.3-0.1-0.7-0.3-0.9c-0.3-0.2-0.7,0-1,0C60.8,52.6,55.4,52.6,50,52.6z M50.3,55.7c-5.5,0-11,0-16.5,0
		c-0.6,0-1.4-0.3-1.3,0.9c0.1,1.1,0.9,0.6,1.3,0.6c10.8,0,21.6,0,32.4,0c0.3,0,0.6,0.1,0.8,0c0.2-0.1,0.5-0.4,0.5-0.6
		c0.1-0.6,0-0.9-0.8-0.9C61.2,55.7,55.7,55.7,50.3,55.7z M49.7,60.3c5.5,0,11,0,16.5,0c0.6,0,1.4,0.3,1.3-0.9
		c-0.1-1.1-0.9-0.6-1.3-0.6c-10.8,0-21.6,0-32.4,0c-0.3,0-0.6-0.1-0.8,0c-0.2,0.1-0.5,0.4-0.5,0.6c-0.2,0.9,0.3,0.9,1,0.9
		C38.9,60.3,44.3,60.3,49.7,60.3z M66,75.6c0,2.2,0,4.5,0,6.7c0,0.9,0.6,0.7,1,0.7c0.5,0,1,0.2,1-0.7c0-4.4,0-8.7,0-13.1
		c0-0.9-0.6-0.7-1-0.7c-0.5,0-1.1-0.2-1,0.7C66,71.4,66,73.5,66,75.6z M49.5,13.1c0,0.7,0.1,1.4,0.1,2.2c0,0.1,0.3,0.2,0.4,0.2
		c0.1,0,0.4-0.1,0.4-0.2c0-1.4,0-2.9,0-4.3c0-0.1-0.3-0.2-0.4-0.2c-0.1,0-0.4,0.1-0.4,0.2C49.5,11.7,49.5,12.4,49.5,13.1z
		 M46.2,17.6c0.7-0.5,1.8,0.6,2.3-0.7c-0.6-0.9-1.6-0.4-2.3-0.4c-0.8,0-1.8-0.7-2.3,0.6C44.5,18,45.4,17.3,46.2,17.6z M53.8,17.6
		c0.8-0.3,1.7,0.4,2.4-0.5c-0.5-1.3-1.6-0.5-2.3-0.6c-0.7,0-1.7-0.5-2.3,0.3C52,18.2,53.1,17.1,53.8,17.6z"/>
	<path class="st4" d="M49.5,40.2c0-3,0-6,0-9c0-0.5,0.2-1-0.3-1.4C46.5,28,44,26,40.5,26.3c-1.6,0.1-3,0.1-4.6,0.8
		c-1.7,0.8-2.4,2.4-2.8,3.7c-0.4,1.3-0.2,2.9,0.2,4.4c1,4.1,3.6,7.3,5.7,10.8c0.7,1.2,1.6,2.3,2.3,3.4c0.1,0.1,0.1,0.4,0.1,0.5
		c-0.2,0-0.4,0.1-0.5,0c-0.4-0.1-0.9-0.2-1.1-0.5c-2.6-3.8-5.4-7.4-7.1-11.7c-0.6-1.5-0.9-3.1-1.3-4.6c-0.2-0.8-0.6-0.8-1.1-0.7
		c-1.9,0.4-3.6,2.6-3.6,4.4c-0.1,2.2,0.5,4.1,1.8,6c1.5,2.1,2.8,4.3,4.6,6.1c0.2,0.2,0.1,0.6,0.2,0.9c-0.3,0.1-0.7,0.2-1,0.1
		c-0.3-0.1-0.6-0.3-0.8-0.6c-2.4-3.2-5-6.4-6.2-10.3c-0.2-0.6-0.4-1.5-0.2-1.9c0.4-0.8,0.3-1.7,0.7-2.6c0.8-1.9,2.5-2.8,4.3-3.1
		c1.1-0.2,1.3-0.6,1.7-1.6c1-2.5,2.7-4.6,5.8-4.6c0.6,0,1.2-0.4,1.8-0.5c2-0.1,3.9,0.4,5.6,1.3c0.9,0.4,1,0.4,1-0.6
		c0-1.2,0.5-2.1,1.3-2.8c0.3-0.3,0.7-0.5,1.1-0.5c0.6,0,0.7-0.2,0.7-0.8c0-0.9,0-1.7,0-2.6c0-0.1,0.4-0.2,0.6-0.3
		c0.1,0,0.4,0.1,0.4,0.2c0,0.4,0,0.9,0,1.3c0.1,1-0.5,2.4,1.4,2.2c0.8,0.8,1.6,1.6,1.7,2.9c0.1,1.2,0.1,1.1,1.2,0.7
		c1.7-0.7,3.4-1.4,5.2-1.1c2,0.3,4.2,0.3,5.9,2c0.5,0.6,2,2.2,2.1,3.3c0.1,1.1,0.7,1.3,1.7,1.4c2.8,0.4,3.7,1.7,4.7,4.5
		c0.7,2.1,0.1,3.6-0.6,5.3c-1.3,2.9-3.3,5.3-5.1,7.9c-0.2,0.3-0.4,0.6-0.7,0.7c-0.4,0.1-0.8,0-1.2,0c0.1-0.4,0.1-0.8,0.3-1
		c2-2,3.4-4.4,5-6.7c1.2-1.7,1.5-3.8,1.2-5.9c-0.2-1.5-2.3-3.5-3.8-3.7c-0.5-0.1-0.7,0.1-0.8,0.6c-0.2,1-0.5,2-0.8,3
		c-0.9,2.9-2.4,5.5-4,8.1c-1.1,1.8-2.4,3.5-3.6,5.2c-0.2,0.3-0.7,0.4-1,0.5c-0.2,0.1-0.5-0.1-0.7-0.2c0.1-0.1,0.1-0.2,0.2-0.4
		c0.7-1,1.3-2,2-3c1.5-2.1,3.1-4.2,4.3-6.5c1.2-2.3,2.2-4.8,2.2-7.6c0-3.2-3-6.3-6.3-6.1c-2.5,0.1-4.9,0.1-7.1,1.6
		c-0.9,0.6-1.9,1.3-2.8,1.9c-0.6,0.4-0.4,1.1-0.4,1.6c0,5.4,0,10.8,0,16.2c0,0.8,0.7,1.8-0.6,2.4c-0.9-0.6-0.4-1.6-0.4-2.3
		C49.4,45.2,49.5,42.7,49.5,40.2z"/>
	<path class="st4" d="M46.4,75.8c0-1.7,0-3.4,0-5.1c0-0.7,0.1-1.3,0.2-2c1.1,0,2.2-0.1,3.3,0.1c0.3,0,0.5,0.8,0.7,1.2
		c1.2,3.3,2.2,6.7,3.1,10c0,0.2,0.3,0.4,0.5,0.4c0.2,0,0.5-0.2,0.5-0.4c1.1-3.2,2.1-6.3,3.1-9.5c0.6-1.9,0.6-1.9,2.4-1.9
		c0.3,0,0.7,0,1,0c0.6,0,0.7,0.2,0.7,0.7c0,4.3,0,8.6,0,12.9c0,1-0.6,0.8-1.2,0.8c-0.6,0-1,0-0.9-0.8c0-3.3,0-6.7,0-10
		c0-0.4,0-0.9,0-1.3c0-0.1-0.1-0.2-0.2-0.2c-0.1,0-0.3,0.1-0.3,0.2c-0.8,3.4-2.2,6.5-3.1,9.8c-0.1,0.2-0.1,0.5-0.2,0.7
		c-0.6,1.6-0.6,1.6-2.1,1.6c-0.9,0-1.1-0.1-1.4-1.2c-1-3.4-2.3-6.8-3.5-10.1c-0.1-0.3-0.2-0.7-0.3-1.1c-0.1,0.4-0.2,0.8-0.2,1.2
		c0,3.4,0,6.9,0,10.3c0,1-0.6,0.8-1.2,0.8c-0.6,0-1,0-0.9-0.8C46.4,80.1,46.4,77.9,46.4,75.8z"/>
	<path class="st4" d="M31.5,75.6c0-2.1,0-4.1,0-6.2c0-0.9,0.3-1,1.1-0.9c1.1,0.1,2.2-0.1,3.3,0c1,0.1,2.1,0.3,3.1,0.5
		c2.1,0.4,4.3,2.9,4.4,5c0,1.1-0.1,2.2,0,3.3c0.2,1.7-2.1,4.4-4.2,5c-0.7,0.2-1.4,0.4-2.1,0.5c-1.8,0.2-3.6,0.1-5.4,0
		c-0.1-1.6-0.2-3.2-0.2-4.8C31.4,77.3,31.5,76.5,31.5,75.6z M33.5,75.8c0,1.5,0,2.9,0,4.4c0,0.2,0.3,0.7,0.4,0.7
		c1.4-0.1,2.9,0.4,4.2-0.3c2.2-1,3.2-2.7,3.1-5.1c-0.1-2.8-2.1-4.8-4.8-4.8c-0.7,0-1.4,0-2.1,0c-0.6,0-0.9,0.1-0.9,0.8
		C33.6,72.9,33.5,74.3,33.5,75.8z"/>
	<path class="st4" d="M50,52.6c5.4,0,10.8,0,16.2,0c0.3,0,0.8-0.1,1,0c0.2,0.1,0.3,0.6,0.3,0.9c0,0.2-0.1,0.6-0.3,0.6
		c-0.3,0.1-0.7,0-1,0c-10.8,0-21.6,0-32.4,0c-0.6,0-1.4,0.3-1.3-0.9c0.1-1.1,0.9-0.6,1.3-0.6C39.2,52.6,44.6,52.6,50,52.6z"/>
	<path class="st4" d="M50.3,55.7c5.5,0,11,0,16.5,0c0.8,0,0.9,0.4,0.8,0.9c-0.1,0.2-0.3,0.5-0.5,0.6c-0.2,0.1-0.5,0-0.8,0
		c-10.8,0-21.6,0-32.4,0c-0.5,0-1.2,0.5-1.3-0.6c-0.1-1.2,0.7-0.9,1.3-0.9C39.3,55.7,44.8,55.7,50.3,55.7z"/>
	<path class="st4" d="M49.7,60.3c-5.4,0-10.8,0-16.2,0c-0.7,0-1.2,0-1-0.9c0.1-0.2,0.3-0.5,0.5-0.6c0.2-0.1,0.5,0,0.8,0
		c10.8,0,21.6,0,32.4,0c0.5,0,1.2-0.5,1.3,0.6c0.1,1.2-0.7,0.9-1.3,0.9C60.7,60.3,55.2,60.3,49.7,60.3z"/>
	<path class="st4" d="M66,75.6c0-2.1,0-4.3,0-6.4c0-0.9,0.6-0.7,1-0.7c0.5,0,1-0.2,1,0.7c0,4.4,0,8.7,0,13.1c0,0.9-0.6,0.7-1,0.7
		c-0.5,0-1.1,0.2-1-0.7C66,80.1,66,77.9,66,75.6z"/>
	<path class="st4" d="M49.5,13.1c0-0.7,0.1-1.4,0.1-2.1c0-0.1,0.3-0.2,0.4-0.2c0.1,0,0.4,0.1,0.4,0.2c0,1.4,0,2.9,0,4.3
		c0,0.1-0.3,0.2-0.4,0.2c-0.1,0-0.4-0.1-0.4-0.2C49.5,14.6,49.5,13.8,49.5,13.1z"/>
	<path class="st4" d="M46.2,17.6c-0.8-0.3-1.7,0.4-2.4-0.5c0.5-1.3,1.6-0.5,2.3-0.6c0.7,0,1.7-0.5,2.3,0.4
		C48,18.2,46.8,17.2,46.2,17.6z"/>
	<path class="st4" d="M53.8,17.6c-0.7-0.5-1.8,0.6-2.3-0.7c0.6-0.9,1.6-0.4,2.3-0.3c0.8,0,1.8-0.7,2.3,0.6
		C55.5,18,54.6,17.3,53.8,17.6z"/>
	<path class="st3" d="M33.5,75.8c0-1.5,0-2.9,0-4.4c0-0.7,0.3-0.9,0.9-0.8c0.7,0,1.4,0,2.1,0c2.8,0,4.7,2.1,4.8,4.8
		c0.1,2.5-0.9,4.1-3.1,5.1c-1.4,0.6-2.8,0.2-4.2,0.3c-0.1,0-0.4-0.5-0.4-0.7C33.5,78.7,33.5,77.3,33.5,75.8z"/>
</g>
</svg>
