<?xml version="1.0" encoding="utf-8"?>
<!-- Generator: Adobe Illustrator 24.1.2, SVG Export Plug-In . SVG Version: 6.00 Build 0)  -->
<svg version="1.1" id="Lag_1" xmlns="http://www.w3.org/2000/svg" xmlns:xlink="http://www.w3.org/1999/xlink" x="0px" y="0px"
	 viewBox="0 0 120 120" style="enable-background:new 0 0 120 120;" xml:space="preserve">
<style type="text/css">
	.st0{fill:#66B3DD;}
</style>
<g>
	<g>
		<path class="st0" d="M52.39,38.67c0.05,0.31,0.1,0.62,0.14,0.93c-0.09-0.66-0.18-1.33-0.27-1.99c0.36,2.97,0.23,5.93-0.16,8.89
			c0.09-0.66,0.18-1.33,0.27-1.99c-1.67,11.81-6.89,23.82-2.95,35.78c1.23,3.73,3.1,7.05,6.41,9.3c3.69,2.51,8.88,2.31,12.57-0.07
			c6.18-3.98,7.92-12.26,8.08-19.13c0.08-3.44-0.37-7.01-1.28-10.33c-0.96-3.52-2.66-6.77-4.1-10.11c0.25,0.6,0.5,1.19,0.76,1.79
			c-0.84-1.99-1.46-3.99-1.77-6.13c0.09,0.66,0.18,1.33,0.27,1.99c-0.4-3.12-0.25-6.26-0.07-9.39c0.22-3.92-3.61-7.67-7.5-7.5
			c-4.25,0.19-7.26,3.3-7.5,7.5c-0.24,4.23-0.27,8.35,0.53,12.54c0.76,3.99,2.78,7.6,4.36,11.3c-0.25-0.6-0.5-1.19-0.76-1.79
			c1.03,2.48,1.74,5.03,2.1,7.69c-0.09-0.66-0.18-1.33-0.27-1.99c0.3,2.51,0.3,5.01-0.01,7.52c0.09-0.66,0.18-1.33,0.27-1.99
			c-0.3,2.14-0.77,4.27-1.6,6.28c0.25-0.6,0.5-1.19,0.76-1.79c-0.17,0.37-0.34,0.74-0.55,1.1c-0.15,0.26-0.88,1.27-0.12,0.24
			c0.93-1.25-0.15,0.18-0.22,0.08c-0.11-0.14,1.79-1.13,0.23-0.36c0.6-0.25,1.19-0.5,1.79-0.76c-0.48,0.19-0.94,0.32-1.45,0.39
			c0.66-0.09,1.33-0.18,1.99-0.27c-0.25,0.02-0.5,0.02-0.75,0c0.66,0.09,1.33,0.18,1.99,0.27c-0.38-0.06-0.7-0.14-1.06-0.26
			c0.6,0.25,1.19,0.5,1.79,0.76c-0.83-0.38-0.73-0.75,0.32,0.43c-0.05-0.05-0.72-0.78-0.76-0.78c0.38,0.03,1.12,1.67,0.34,0.28
			c-0.18-0.33-0.34-0.66-0.5-1c0.25,0.6,0.5,1.19,0.76,1.79c-0.73-1.74-1.2-3.55-1.48-5.42c0.09,0.66,0.18,1.33,0.27,1.99
			c-0.41-3.09-0.29-6.19,0.11-9.28c-0.09,0.66-0.18,1.33-0.27,1.99c0.67-4.89,2.02-9.64,3-14.47c0.6-2.97,1.08-5.99,1.29-9.01
			c0.22-3.04-0.06-6-0.54-9.01c-0.27-1.74-2-3.63-3.45-4.48c-1.61-0.94-3.98-1.34-5.78-0.76c-1.81,0.59-3.57,1.71-4.48,3.45
			C52.14,34.79,52.06,36.57,52.39,38.67L52.39,38.67z"/>
	</g>
</g>
<g>
	<g>
		<path d="M59.01,27.49c0.89,9.64-0.62,19.07-4.08,28.08c-3.08,8.02-6.84,16.08-5.55,24.9c0.53,3.65,1.99,7.19,4.53,9.9
			c2.56,2.73,6.45,4.56,10.15,3.15c3.19-1.22,5.33-4.25,6.29-7.44c1.19-3.95,0.24-8.1-1-11.92c-0.77-2.39-1.67-4.75-2.28-7.2
			c-0.64-2.6-0.93-5.25-0.99-7.92c-0.12-5.45,0.68-10.86,1.5-16.23c0.29-1.89-2.6-2.7-2.89-0.8c-1.32,8.64-2.65,17.58-0.41,26.19
			c1.69,6.47,6.65,15.06,0.97,20.98c-2.54,2.64-6,2.11-8.56-0.26c-2.54-2.36-3.9-5.65-4.39-9.04c-1.17-8.08,2.52-15.74,5.36-23.07
			c3.63-9.37,5.27-19.26,4.35-29.3C61.83,25.58,58.83,25.56,59.01,27.49L59.01,27.49z"/>
	</g>
</g>
</svg>
