<?xml version="1.0" encoding="utf-8"?>
<!-- Generator: Adobe Illustrator 24.1.2, SVG Export Plug-In . SVG Version: 6.00 Build 0)  -->
<svg version="1.1" id="Lag_1" xmlns="http://www.w3.org/2000/svg" xmlns:xlink="http://www.w3.org/1999/xlink" x="0px" y="0px"
	 viewBox="0 0 120 120" style="enable-background:new 0 0 120 120;" xml:space="preserve">
<style type="text/css">
	.st0{fill:#66B3DD;}
</style>
<g>
	<g>
		<path class="st0" d="M55.59,81.84c4.9-8.16,9.79-16.31,14.69-24.47c-4.32,0-8.63,0-12.95,0c1.39,2.35,2.68,4.74,3.75,7.25
			c-0.25-0.6-0.5-1.19-0.76-1.79c0.96,2.34,1.69,4.74,2.04,7.25c-0.09-0.66-0.18-1.33-0.27-1.99c0.22,1.84,0.24,3.68,0.01,5.52
			c0.09-0.66,0.18-1.33,0.27-1.99c-0.21,1.4-0.55,2.75-1.07,4.07c0.25-0.6,0.5-1.19,0.76-1.79c-0.22,0.52-0.46,1.03-0.73,1.53
			c4.32,0,8.63,0,12.95,0c-0.11-0.14-0.2-0.3-0.28-0.46c0.25,0.6,0.5,1.19,0.76,1.79c-0.1-0.27-0.17-0.52-0.22-0.8
			c0.09,0.66,0.18,1.33,0.27,1.99c-0.1-0.83-0.04-1.66-0.08-2.49c-0.11-2.28-0.65-4.27-2.05-6.09c-1.7-2.2-4.44-3.59-7.27-3.49
			c-2.42,0.09-4.52,1.12-6.59,2.28c-5.95,3.37-14.84,8.31-12.56,16.53c1.22,4.41,5.36,6.64,9.49,7.69c3.25,0.82,6.5,0.92,9.77,0.25
			c6.45-1.32,11.28-7.11,12.41-13.44c1.26-7.07-0.91-14.05-1.87-21.03c0.09,0.66,0.18,1.33,0.27,1.99
			c-1.17-8.71-1.51-17.51-1.02-26.29c0.22-3.92-3.61-7.67-7.5-7.5c-4.25,0.19-7.26,3.3-7.5,7.5c-0.35,6.34-0.29,12.69,0.23,19.01
			c0.29,3.59,0.74,7.16,1.26,10.72c0.46,3.16,1.14,6.28,1.6,9.44c-0.09-0.66-0.18-1.33-0.27-1.99c0.25,1.92,0.37,3.85,0.12,5.78
			c0.09-0.66,0.18-1.33,0.27-1.99c-0.17,1.13-0.46,2.21-0.89,3.27c0.25-0.6,0.5-1.19,0.76-1.79c-0.2,0.46-0.42,0.9-0.68,1.33
			c-0.13,0.21-0.26,0.42-0.41,0.62c0.81-1.02,0.97-1.23,0.47-0.66c-0.17,0.18-0.34,0.35-0.53,0.52c-0.58,0.49-0.37,0.33,0.63-0.48
			c-0.42,0.11-0.92,0.54-1.33,0.73c0.6-0.25,1.19-0.5,1.79-0.76c-0.83,0.34-1.67,0.55-2.55,0.68c0.66-0.09,1.33-0.18,1.99-0.27
			c-1.04,0.11-2.06,0.1-3.1-0.01c0.66,0.09,1.33,0.18,1.99,0.27c-1.44-0.19-2.82-0.57-4.17-1.09c0.6,0.25,1.19,0.5,1.79,0.76
			c-0.28-0.12-0.56-0.3-0.85-0.4c-0.33-0.2-0.23-0.11,0.31,0.27c0.51,0.33,0.93,0.76,1.25,1.28c0.25,0.6,0.5,1.19,0.76,1.79
			c-0.03-0.12-0.07-0.23-0.1-0.35c0.09,0.66,0.18,1.33,0.27,1.99c-0.04-0.23-0.04-0.46,0-0.69c-0.09,0.66-0.18,1.33-0.27,1.99
			c0.03-0.11,0.06-0.22,0.09-0.34c-0.25,0.6-0.5,1.19-0.76,1.79c0.08-0.23,0.19-0.45,0.33-0.65c-0.81,0.99-0.95,1.2-0.42,0.63
			c1-1.01-1.45,0.99-0.24,0.15c0.96-0.67,1.92-1.35,2.9-1.99c1.85-1.21,3.78-2.46,5.81-3.37c-0.6,0.25-1.19,0.5-1.79,0.76
			c0.26-0.11,0.53-0.18,0.8-0.21c-0.66,0.09-1.33,0.18-1.99,0.27c0.13,0,0.27,0,0.4,0c-0.66-0.09-1.33-0.18-1.99-0.27
			c0.13,0.03,0.26,0.07,0.39,0.1c-0.6-0.25-1.19-0.5-1.79-0.76c0.68,0.37,0.39,0.05-0.87-0.98c-1.02-1.25-1.35-1.54-1-0.88
			c-0.25-0.6-0.5-1.19-0.76-1.79c0.09,0.25,0.14,0.47,0.18,0.73c-0.09-0.66-0.18-1.33-0.27-1.99c0.26,2.75-0.03,5.52,1.63,7.95
			c1.52,2.23,3.69,3.71,6.48,3.71c2.55,0,5.26-1.41,6.48-3.71c3.01-5.69,3.51-11.91,2.34-18.17c-1-5.34-3.6-10.39-6.34-15.03
			c-2.89-4.89-10.05-4.83-12.95,0c-4.9,8.16-9.79,16.31-14.69,24.47c-2.02,3.37-0.86,8.38,2.69,10.26
			C48.95,86.45,53.43,85.43,55.59,81.84L55.59,81.84z"/>
	</g>
</g>
<g>
	<g>
		<path d="M61.73,31.64c-0.81,5.16-1.8,10.31-3.54,15.25c-1.78,5.04-4.5,9.35-7.85,13.47c-3.21,3.94-6.52,7.97-7.76,13.01
			c-1.11,4.51-0.27,9.29,3.07,12.65c2.87,2.89,6.93,4.35,10.85,5.12c4.41,0.86,9.5,1.44,13.82-0.1c4.44-1.58,7.31-5.49,8.18-10.06
			c1.06-5.51-0.52-11.13-1.93-16.43c-3.22-12.16-7.54-24.33-7.04-37.08c0.08-1.93-2.92-1.93-3,0c-0.41,10.46,2.34,20.65,5.14,30.63
			c1.4,4.99,2.99,10.02,3.83,15.14c0.73,4.47,0.49,9.75-3,13.08c-3.3,3.15-8.49,2.82-12.69,2.32c-3.67-0.44-7.53-1.36-10.6-3.51
			c-3.54-2.49-4.76-6.62-3.8-10.76c1.11-4.76,4.3-8.52,7.31-12.23c3.4-4.19,6.17-8.56,8.05-13.64c1.92-5.18,2.98-10.62,3.83-16.06
			C64.92,30.54,62.03,29.73,61.73,31.64L61.73,31.64z"/>
	</g>
</g>
</svg>
