<?xml version="1.0" encoding="utf-8"?>
<!-- Generator: Adobe Illustrator 24.1.2, SVG Export Plug-In . SVG Version: 6.00 Build 0)  -->
<svg version="1.1" id="Lag_1" xmlns="http://www.w3.org/2000/svg" xmlns:xlink="http://www.w3.org/1999/xlink" x="0px" y="0px"
	 viewBox="0 0 120 120" style="enable-background:new 0 0 120 120;" xml:space="preserve">
<style type="text/css">
	.st0{fill:#66B3DD;}
</style>
<g>
	<g>
		<path class="st0" d="M54.13,29.6c0.41,1.52,0.73,3.06,0.95,4.62c-0.09-0.66-0.18-1.33-0.27-1.99c0.42,3.28,0.41,6.57-0.03,9.84
			c0.09-0.66,0.18-1.33,0.27-1.99c-0.45,3.13-1.28,6.16-2.5,9.08c0.25-0.6,0.5-1.19,0.76-1.79c-2.24,5.2-5.96,9.53-8.38,14.62
			c-1.68,3.54-3.06,7.39-2.98,11.37c0.09,4.35,1.87,8.6,5.28,11.39c5.65,4.63,13.06,6.62,20.25,5.32
			c6.87-1.25,12.32-7.29,13.37-14.1c0.6-3.88,0.47-7.69-0.61-11.5c-1.09-3.88-2.94-7.51-4.5-11.21c0.25,0.6,0.5,1.19,0.76,1.79
			c-1.3-3.12-2.21-6.28-2.67-9.64c0.09,0.66,0.18,1.33,0.27,1.99c-0.4-3.22-0.49-6.46-0.56-9.7c-0.08-3.75-2.79-6.87-6.5-7.37
			c-1.6-0.21-3.39-0.01-4.78,0.89c-1.75,1.13-2.67,2.57-3.45,4.48c-2.97,7.34-4.7,14.97-5.61,22.82c-0.42,3.61-0.6,7.25-0.52,10.88
			c0.07,3.21,0.55,6.38,2.93,8.78c2.97,3,7.29,3.41,10.97,1.54c3.5-1.78,4.8-6.99,2.69-10.26c-2.31-3.58-6.51-4.6-10.26-2.69
			c-0.09,0.04-0.17,0.09-0.26,0.13c0.6-0.25,1.19-0.5,1.79-0.76c-0.09,0.02-0.19,0.04-0.28,0.06c0.66-0.09,1.33-0.18,1.99-0.27
			c-0.1,0-0.19,0-0.29-0.01c0.66,0.09,1.33,0.18,1.99,0.27c-0.1-0.02-0.19-0.04-0.29-0.06c0.6,0.25,1.19,0.5,1.79,0.76
			c-0.47-0.23-0.39-0.13,0.24,0.29c0.52,0.35,0.96,0.8,1.31,1.34c0.25,0.6,0.5,1.19,0.76,1.79c-0.14-0.4-0.22-0.74-0.28-1.16
			c0.09,0.66,0.18,1.33,0.27,1.99c-0.37-4.71,0.02-9.56,0.65-14.22c-0.09,0.66-0.18,1.33-0.27,1.99c0.92-6.6,2.64-13.04,5.14-19.22
			c-4.91-0.66-9.82-1.33-14.73-1.99c0.1,4.83,0.31,9.67,1.28,14.43c0.95,4.65,3.1,8.92,4.95,13.26c-0.25-0.6-0.5-1.19-0.76-1.79
			c1.02,2.43,1.94,4.91,2.34,7.53c-0.09-0.66-0.18-1.33-0.27-1.99c0.21,1.56,0.24,3.11,0.06,4.67c0.09-0.66,0.18-1.33,0.27-1.99
			c-0.17,1.16-0.45,2.28-0.9,3.37c0.25-0.6,0.5-1.19,0.76-1.79c-0.21,0.47-0.44,0.93-0.72,1.37c-0.7,1.13,0.46-0.39,0.47-0.54
			c-0.01,0.18-0.47,0.53-0.58,0.64c-0.17,0.17-0.35,0.32-0.52,0.48c-0.63,0.61,1.55-1.03,0.52-0.42c-0.51,0.3-1.01,0.58-1.55,0.81
			c0.6-0.25,1.19-0.5,1.79-0.76c-0.88,0.35-1.78,0.58-2.72,0.72c0.66-0.09,1.33-0.18,1.99-0.27c-1.33,0.16-2.65,0.14-3.99-0.03
			c0.66,0.09,1.33,0.18,1.99,0.27c-1.59-0.24-3.13-0.67-4.62-1.27c0.6,0.25,1.19,0.5,1.79,0.76c-0.32-0.14-3.47-1.59-3.36-1.82
			c0.03-0.05,1.41,1.22,0.61,0.45c-0.23-0.22-0.45-0.46-0.68-0.67c-0.62-0.57,0.93,1.54,0.36,0.48c-0.18-0.34-0.38-0.66-0.54-1
			c0.25,0.6,0.5,1.19,0.76,1.79c-0.28-0.7-0.45-1.38-0.55-2.12c0.09,0.66,0.18,1.33,0.27,1.99c-0.08-0.9-0.05-1.77,0.06-2.66
			c-0.09,0.66-0.18,1.33-0.27,1.99c0.25-1.63,0.72-3.18,1.35-4.71c-0.25,0.6-0.5,1.19-0.76,1.79c1.4-3.25,3.4-6.17,5.29-9.14
			c2.19-3.45,4.02-7.09,5.32-10.98c2.66-7.96,2.78-16.84,0.59-24.92c-1.02-3.79-5.38-6.48-9.23-5.24
			C55.49,21.63,53.04,25.54,54.13,29.6L54.13,29.6z"/>
	</g>
</g>
<g>
	<g>
		<path d="M58.41,25.98c-0.33,5.79-1.28,11.52-2.87,17.1c-1.59,5.6-3.9,10.83-6.46,16.04c-2.39,4.87-4.7,9.85-5.35,15.29
			c-0.6,5.04,0.33,10.27,3.57,14.3c2.95,3.67,7.52,5.92,12.1,6.75c4.6,0.84,9.92,0.57,13.49-2.83c3.48-3.32,4.09-8.59,3.14-13.09
			c-1.17-5.49-4.31-10.47-6.55-15.57c-5.06-11.54-8.72-24.45-6.04-37.07c0.4-1.88-2.49-2.69-2.89-0.8
			c-2.22,10.46-0.44,21.16,3.06,31.13c1.79,5.09,4.01,10,6.36,14.85c2.09,4.32,4.35,9.17,3.17,14.08
			c-2.37,9.88-16.31,7.41-22.06,2.19c-8.26-7.5-3.48-19.4,0.59-27.72c2.63-5.37,5.05-10.77,6.7-16.53
			c1.69-5.9,2.69-11.99,3.04-18.12C61.52,24.05,58.52,24.06,58.41,25.98L58.41,25.98z"/>
	</g>
</g>
</svg>
