<?xml version="1.0" encoding="utf-8"?>
<!-- Generator: Adobe Illustrator 24.1.2, SVG Export Plug-In . SVG Version: 6.00 Build 0)  -->
<svg version="1.1" id="Lag_1" xmlns="http://www.w3.org/2000/svg" xmlns:xlink="http://www.w3.org/1999/xlink" x="0px" y="0px"
	 viewBox="0 0 120 120" style="enable-background:new 0 0 120 120;" xml:space="preserve">
<style type="text/css">
	.st0{fill:#66B3DD;}
</style>
<g>
	<g>
		<path class="st0" d="M54.22,43.41c0.24,0.9,0.43,1.8,0.55,2.72c-0.09-0.66-0.18-1.33-0.27-1.99c0.25,2.15,0.18,4.29-0.09,6.44
			c0.09-0.66,0.18-1.33,0.27-1.99c-0.87,6.23-3.29,12.11-4.2,18.33c-0.57,3.93-0.72,7.52-0.12,11.46c0.54,3.53,2.01,7.47,4.52,10.09
			c3.77,3.93,9.84,3.94,14.21,0.99c3.35-2.26,5.82-5.75,6.78-9.71c1.76-7.27-1.34-14.31-3.22-21.21c-1.98-7.29-3.47-14.7-4.49-22.18
			c0.09,0.66,0.18,1.33,0.27,1.99c-0.15-1.11-0.29-2.23-0.42-3.35c-0.24-2.05-0.68-3.78-2.2-5.3c-1.3-1.3-3.44-2.28-5.3-2.2
			c-1.94,0.09-3.95,0.72-5.3,2.2c-1.25,1.37-2.42,3.37-2.2,5.3c0.82,7.05,1.94,14.06,3.54,20.98c0.72,3.13,1.53,6.24,2.42,9.33
			c0.9,3.12,2.04,6.21,2.55,9.43c-0.09-0.66-0.18-1.33-0.27-1.99c0.18,1.32,0.23,2.64,0.08,3.97c0.09-0.66,0.18-1.33,0.27-1.99
			c-0.14,0.95-0.4,1.85-0.76,2.73c0.25-0.6,0.5-1.19,0.76-1.79c-0.2,0.43-0.44,0.84-0.66,1.26c-0.61,1.16,1.31-1.45,0.22-0.27
			c-0.11,0.13-0.24,0.25-0.36,0.37c-0.56,0.5-0.32,0.33,0.73-0.52c-0.4,0.19-0.77,0.48-1.18,0.67c0.6-0.25,1.19-0.5,1.79-0.76
			c-0.55,0.22-1.09,0.36-1.67,0.44c0.66-0.09,1.33-0.18,1.99-0.27c-0.24,0.02-0.47,0.02-0.71,0c0.66,0.09,1.33,0.18,1.99,0.27
			c-0.23-0.03-0.46-0.09-0.67-0.19c0.6,0.25,1.19,0.5,1.79,0.76c0.69,0.41,0.96,1.23,1.56,1.63c-0.22-0.15-0.39-0.63-0.52-0.85
			c-0.29-0.52-0.54-1.06-0.78-1.61c0.25,0.6,0.5,1.19,0.76,1.79c-0.53-1.36-0.88-2.75-1.09-4.19c0.09,0.66,0.18,1.33,0.27,1.99
			c-0.28-2.29-0.2-4.58,0.09-6.87c-0.09,0.66-0.18,1.33-0.27,1.99c0.65-4.74,2.2-9.25,3.32-13.88c1.43-5.92,2.09-12.05,0.48-18
			c-1.03-3.79-5.38-6.48-9.23-5.24C55.57,35.44,53.11,39.35,54.22,43.41L54.22,43.41z"/>
	</g>
</g>
<g>
	<g>
		<path d="M58.46,23.92c0.7,10.88-0.4,21.82-3.34,32.32c-1.44,5.16-3.73,10.12-4.75,15.39c-1,5.18-0.87,10.55,0.41,15.67
			c1.1,4.39,2.98,8.6,7.86,9.51c2.02,0.38,4.06,0.24,6.08-0.08c2.13-0.34,4.38-0.81,6.35-1.71c4.67-2.15,4.84-8.46,4.24-12.85
			c-0.74-5.34-2.84-10.39-4.17-15.6c-3.03-11.89-3.82-24.27-2.46-36.46c0.21-1.92-2.79-1.9-3,0c-1.13,10.12-0.75,20.35,1.07,30.37
			c0.9,4.92,2.24,9.71,3.72,14.48c1.43,4.61,2.95,9.68,1.56,14.49c-0.73,2.51-2.59,3.13-4.92,3.72c-1.85,0.47-3.73,0.85-5.64,0.88
			c-1.7,0.02-3.54-0.24-4.9-1.36c-1.66-1.38-2.24-3.75-2.77-5.75c-1.26-4.79-1.45-9.88-0.48-14.74c0.99-4.97,3.12-9.64,4.51-14.49
			c3.14-10.94,4.36-22.43,3.64-33.79C61.34,22,58.34,21.99,58.46,23.92L58.46,23.92z"/>
	</g>
</g>
</svg>
