<?xml version="1.0" encoding="utf-8"?>
<!-- Generator: Adobe Illustrator 24.1.2, SVG Export Plug-In . SVG Version: 6.00 Build 0)  -->
<svg version="1.1" id="Lag_1" xmlns="http://www.w3.org/2000/svg" xmlns:xlink="http://www.w3.org/1999/xlink" x="0px" y="0px"
	 viewBox="0 0 800 800" style="enable-background:new 0 0 800 800;" xml:space="preserve">
<style type="text/css">
	.st0{fill:#1E1E1C;}
</style>
<rect x="-1.7" y="-1.6" class="st0" width="458.2" height="2.3"/>
<rect x="-1.7" y="36.7" class="st0" width="458.2" height="2.3"/>
<rect x="-1.7" y="74.9" class="st0" width="458.2" height="2.3"/>
<rect x="-1.7" y="113.1" class="st0" width="458.2" height="2.3"/>
<rect x="-1.7" y="151.3" class="st0" width="458.2" height="2.3"/>
<rect x="-1.7" y="189.6" class="st0" width="458.2" height="2.3"/>
<rect x="-1.7" y="227.8" class="st0" width="458.2" height="2.3"/>
<rect x="-1.7" y="266" class="st0" width="458.2" height="2.3"/>
<rect x="-1.7" y="304.3" class="st0" width="458.2" height="2.3"/>
<rect x="-1.7" y="342.5" class="st0" width="458.2" height="2.3"/>
<rect x="-1.7" y="380.7" class="st0" width="458.2" height="2.3"/>
<rect x="-1.7" y="418.9" class="st0" width="458.2" height="2.3"/>
<rect x="-1.7" y="457.2" class="st0" width="458.2" height="2.3"/>
<rect x="-1.7" y="495.4" class="st0" width="458.2" height="2.3"/>
<rect x="-1.7" y="533.6" class="st0" width="458.2" height="2.3"/>
<rect x="-1.7" y="571.8" class="st0" width="458.2" height="2.3"/>
<rect x="-401.1" y="398.6" transform="matrix(4.494278e-11 -1 1 4.494278e-11 -399.5184 399.9158)" class="st0" width="802.6" height="2.3"/>
<rect x="-363.2" y="398.6" transform="matrix(4.493923e-11 -1 1 4.493923e-11 -361.5818 437.8525)" class="st0" width="802.6" height="2.3"/>
<rect x="-325.2" y="398.6" transform="matrix(4.494544e-11 -1 1 4.494544e-11 -323.6451 475.7891)" class="st0" width="802.6" height="2.3"/>
<rect x="-287.3" y="398.6" transform="matrix(4.494189e-11 -1 1 4.494189e-11 -285.7084 513.7258)" class="st0" width="802.6" height="2.3"/>
<rect x="-249.3" y="398.6" transform="matrix(4.494011e-11 -1 1 4.494011e-11 -247.7718 551.6625)" class="st0" width="802.6" height="2.3"/>
<rect x="-211.4" y="398.6" transform="matrix(4.493923e-11 -1 1 4.493923e-11 -209.8351 589.5991)" class="st0" width="802.6" height="2.3"/>
<rect x="-173.5" y="398.6" transform="matrix(4.494189e-11 -1 1 4.494189e-11 -171.8984 627.5358)" class="st0" width="802.6" height="2.3"/>
<rect x="-135.5" y="398.6" transform="matrix(4.494189e-11 -1 1 4.494189e-11 -133.9618 665.4725)" class="st0" width="802.6" height="2.3"/>
<rect x="-97.6" y="398.6" transform="matrix(4.494011e-11 -1 1 4.494011e-11 -96.0251 703.4091)" class="st0" width="802.6" height="2.3"/>
<rect x="-59.7" y="398.6" transform="matrix(4.494011e-11 -1 1 4.494011e-11 -58.0885 741.3458)" class="st0" width="802.6" height="2.3"/>
<rect x="-21.7" y="398.6" transform="matrix(4.494011e-11 -1 1 4.494011e-11 -20.1518 779.2824)" class="st0" width="802.6" height="2.3"/>
<rect x="16.2" y="398.6" transform="matrix(4.493834e-11 -1 1 4.493834e-11 17.7849 817.2191)" class="st0" width="802.6" height="2.3"/>
<rect x="54.1" y="398.6" transform="matrix(4.494544e-11 -1 1 4.494544e-11 55.7215 855.1558)" class="st0" width="802.6" height="2.3"/>
<rect x="-1.7" y="607.6" class="st0" width="458.2" height="2.3"/>
<rect x="-1.7" y="645.8" class="st0" width="458.2" height="2.3"/>
<rect x="-1.7" y="684" class="st0" width="458.2" height="2.3"/>
<rect x="-1.7" y="722.3" class="st0" width="458.2" height="2.3"/>
<rect x="-1.7" y="760.5" class="st0" width="458.2" height="2.3"/>
<rect x="-1.7" y="798.7" class="st0" width="458.2" height="2.3"/>
<rect x="453.4" y="-1.6" class="st0" width="344.4" height="2.3"/>
<rect x="453.4" y="36.7" class="st0" width="344.4" height="2.3"/>
<rect x="453.4" y="74.9" class="st0" width="344.4" height="2.3"/>
<rect x="453.4" y="113.1" class="st0" width="344.4" height="2.3"/>
<rect x="453.4" y="151.3" class="st0" width="344.4" height="2.3"/>
<rect x="453.4" y="189.6" class="st0" width="344.4" height="2.3"/>
<rect x="453.4" y="227.8" class="st0" width="344.4" height="2.3"/>
<rect x="453.4" y="266" class="st0" width="344.4" height="2.3"/>
<rect x="453.4" y="304.3" class="st0" width="344.4" height="2.3"/>
<rect x="453.4" y="342.5" class="st0" width="344.4" height="2.3"/>
<rect x="453.4" y="380.7" class="st0" width="344.4" height="2.3"/>
<rect x="453.4" y="418.9" class="st0" width="344.4" height="2.3"/>
<rect x="453.4" y="457.2" class="st0" width="344.4" height="2.3"/>
<rect x="453.4" y="495.4" class="st0" width="344.4" height="2.3"/>
<rect x="453.4" y="533.6" class="st0" width="344.4" height="2.3"/>
<rect x="453.4" y="571.8" class="st0" width="344.4" height="2.3"/>
<rect x="53.9" y="398.6" transform="matrix(4.494278e-11 -1 1 4.494278e-11 55.5024 854.9366)" class="st0" width="802.6" height="2.3"/>
<rect x="91.9" y="398.6" transform="matrix(4.493834e-11 -1 1 4.493834e-11 93.439 892.8732)" class="st0" width="802.6" height="2.3"/>
<rect x="129.8" y="398.6" transform="matrix(4.494278e-11 -1 1 4.494278e-11 131.3757 930.8099)" class="st0" width="802.6" height="2.3"/>
<rect x="167.7" y="398.6" transform="matrix(4.494011e-11 -1 1 4.494011e-11 169.3124 968.7466)" class="st0" width="802.6" height="2.3"/>
<rect x="205.7" y="398.6" transform="matrix(4.494278e-11 -1 1 4.494278e-11 207.249 1006.6832)" class="st0" width="802.6" height="2.3"/>
<rect x="243.6" y="398.6" transform="matrix(4.494011e-11 -1 1 4.494011e-11 245.1857 1044.6199)" class="st0" width="802.6" height="2.3"/>
<rect x="281.5" y="398.6" transform="matrix(4.494011e-11 -1 1 4.494011e-11 283.1223 1082.5565)" class="st0" width="802.6" height="2.3"/>
<rect x="319.5" y="398.6" transform="matrix(4.494278e-11 -1 1 4.494278e-11 321.059 1120.4933)" class="st0" width="802.6" height="2.3"/>
<rect x="357.4" y="398.6" transform="matrix(4.494011e-11 -1 1 4.494011e-11 358.9957 1158.4299)" class="st0" width="802.6" height="2.3"/>
<rect x="397.6" y="398.6" transform="matrix(4.493834e-11 -1 1 4.493834e-11 399.2038 1198.6381)" class="st0" width="802.6" height="2.3"/>
<rect x="453.4" y="607.6" class="st0" width="344.4" height="2.3"/>
<rect x="453.4" y="645.8" class="st0" width="344.4" height="2.3"/>
<rect x="453.4" y="684" class="st0" width="344.4" height="2.3"/>
<rect x="453.4" y="722.3" class="st0" width="344.4" height="2.3"/>
<rect x="453.4" y="760.5" class="st0" width="344.4" height="2.3"/>
<rect x="453.4" y="798.7" class="st0" width="344.4" height="2.3"/>
</svg>
