<?xml version="1.0" encoding="utf-8"?>
<!-- Generator: Adobe Illustrator 24.1.2, SVG Export Plug-In . SVG Version: 6.00 Build 0)  -->
<svg version="1.1" id="Lag_1" xmlns="http://www.w3.org/2000/svg" xmlns:xlink="http://www.w3.org/1999/xlink" x="0px" y="0px"
	 viewBox="0 0 1200 800" style="enable-background:new 0 0 1200 800;" xml:space="preserve">
<style type="text/css">
	.st0{fill:#FFFFFF;}
	.st1{fill:#FFFFFF;stroke:#FFFFFF;stroke-width:5;stroke-miterlimit:10;}
	.st2{fill:#66B3DD;}
</style>
<g id="Lag_1_1_">
	<g>
		<path class="st0" d="M633.1,307.1c5.3,0.8,8.2-2.7,11.3-5.9c0.6-0.6,1.1-1.6,1.1-2.4c-0.1-2-0.3-4-0.8-5.9c-0.3-0.9-1.3-1.7-2-2.5
			c-2.9,0.6-6.1-1.1-8.4,1.8c-1.5-3.9,2-4.5,4-6.2c-2.3-5.3-4.3-10.7-7-15.7c-1.5-2.7-2.8-6.1-6.3-7.3c-1.6-2.2-4-3.6-6.4-4.6
			c-2.1-0.9-4.3-2.1-6.7-1.8c-1,0.1-1.8-0.3-2.6-0.8c-1.4-0.9-2.9-1.5-4.4-2.2c-0.1-2.2-2.6-2-3.6-3.4c-1-1.4-2.5-2.5-3.7-3.9
			c-0.3-0.3-0.3-0.9-0.5-1.6c-3.8,2.1-7.3,4.3-11,6.1c-5.5,2.6-11.2,5.1-16.8,7.5c-3.4,1.5-6.8,2.9-10.3,4.1c-1.2,0.4-1.6,1-2.2,1.9
			c-3.1,5.3-6,10.8-8.6,16.3c-1.3,2.7-2.3,5.5-3.9,7.9c-1.2,1.8-1.4,3.4-0.7,5.3c0.1,0.2-0.1,0.5-0.2,0.8c-0.9,1.1-2.1-1.6-2.9,0.2
			c-0.5-0.5-1-0.9-1.6-1.5c-3.4,3.1-5.2,7.1-5.2,12c0,1.6,0.4,3.1,1.6,3.8c1.2,0.7,2.8,1.1,4.2,0.9c2.5-0.4,5.2-0.5,7.5-2
			c0.3-0.2,0.8,0,1.3,0c0.9,1,0.7,2-0.3,2.8c-1.3,1.1-1.1,2-0.2,3.5c2.6,3.7,5.1,7.5,7.3,11.5c2.2,3.9,5.7,6.1,9.5,8
			c3.2,1.6,6.6,1.9,10.1,1.7c0.5,0,1.1,0,1.7,0c1.8,0.1,3.7,1.9,3.8,3.6c0,1.4,0.7,3-0.8,4.2c0.3,2.3-0.6,4.5-0.8,6.7
			c-0.2,2.5,0,5-0.8,7.5c-0.7,2.2-0.7,4.6-1.1,7.1c-3.7-0.9-1.6-4-2.5-5.8c-4,2.2-8,4.4-12.1,6.5c-3.1,1.5-6.3,2.8-9.5,4
			c-3.5,1.3-7,2.4-10.6,3.5c-2.9,0.9-5.9,1.2-8.8,1.6c-0.9,0.1-2,1.4-3.1,0.1c-0.1-0.1-0.7-0.1-0.8,0c-1.5,2.3-3.9,1.5-6,1.6
			c-0.3,0-0.6-0.1-0.8,0c-2.1,1.5-4.3,0.6-6.3-0.1c-2.8-1-5.6-0.7-8.3-0.8c-2.6-1.8-4.3-4.4-5.5-7.2c-0.7-1.8-1.6-3.7-1.6-5.5
			c0-3.2-0.3-6.4,0.5-9.6c0.9-3.6,2.7-6.5,4.9-9.2c3.6-4.5,8.7-5.7,14.2-5.9c0-1.2,0-2.4,0-3.8c-3-3-6.2-8.3-7.2-12.2
			c-0.2-0.6-0.1-1.3-0.1-2c0-2.1,0-4.1,0-6.2c0-2.1,0.6-4,1.5-6c1.4-3.4,3.1-6.5,5.2-9.5c0.5-0.8,1.1-1.5,1.8-2.2
			c3.7-3.6,7.5-7.1,11.5-11c0-6,0-12.5,0-19c0-2.4,0.3-4.8,0.8-7.1c1.2-4.9,2.5-9.7,4.9-14.1c2.7-5,5.3-10.1,9.7-13.8
			c5.5-4.6,11.4-8.3,18.3-10.9c7.1-2.7,14.2-2.1,21.4-2.3c0.4,0,0.8,0.1,1.1,0.3c1.4,1.1,3.1,1.2,4.8,1.5c2.5,0.4,4.4,2.3,6.3,3.8
			c1.7,1.3,3.2,1.4,4.8,0.6c2.4-1,4.8-1.3,7.3-1.3c4.1,0.1,8.3,0.1,12.4,0c1.4-0.1,2.6,0.4,3.8,0.9c1.4,0.6,2.6,1.5,4.3,1.7
			c1.2,0.2,2.2,1.4,3.2,2.3c2.2,2.1,4.5,4.1,6.4,6.5c2.3,2.8,7.6,10.3,9.2,15.2c1.1,3.3,2.5,6.4,3.4,9.7c0.8,3,1.4,6,2.3,9
			c0.6,2.1,0.4,4.4,1.5,6.4c0.3,0.6,0.1,1.6,0.1,2.4c0,3-0.2,6.1,0.1,9.1c0.2,2.6-1,5-0.9,7.5c0,0.6-0.8,1.2-0.7,1.7
			c0.6,4.8-1.2,9.4-0.9,14.2c0.2,3.7,1.5,6.9,3.9,9.6c3,3.5,6.2,6.8,9.3,10.2c1.9,2,1.9,4.8,2.5,7.3c0.4,1.5,0.2,3.1,0.7,4.7
			c0.5,1.4-0.3,3.4-1,4.9c-0.6,1.3-0.2,3.1-2,3.7c-0.3,2.2-2.7,2.9-3.5,4.7c-0.8,1.7-2.4,2.7-4,3.7c-1.7,1.1-3,2.8-4.4,4.3
			c-1.4,1.5-2.9,2.7-4.9,3.2c-0.9,0.2-1.8,0.5-3.7,0.3c-1.8-0.2-3.4,0.5-5,0.8c-2.3,0.4-4.8-0.4-7.1,0.9c-2-0.9-4.1,0.7-5.9-0.1
			c-2.9-1.3-6.1-1.9-8.8-3.6c-3.3-2.1-6.4-4.4-9-7.3c-1.3-1.5-2.9-2.7-3.5-4.8c-0.2-0.7-1.2-1.2-2.1-2.2c-0.5,2.4,0,4.3-1,6
			c-0.3,0.5,0.3,1.5,0.5,2.2c0.4,2,0.8,4-0.8,5.7c-1.6-1.1-2.2-2.4-2.3-4.4c-0.2-1.9-0.8-3.9-0.7-5.9c0.1-1-0.3-2,0.1-2.9
			c1.1-2.7,0.9-5.6,2-8.3c0.8-2,0.5-4.3,1.9-6.3c1.4-1.9,2.3-3.8,5.1-3.8c1.6,0,3.1-1.2,4.6-1.8c1.5-0.6,3.3-1.6,4.6-2.8
			c4-3.6,7.3-7.7,10.1-12.4c1.1-1.9,1.6-3.6,1.5-5.6C633.1,308.7,633.1,308,633.1,307.1z"/>
	</g>
	<g>
		<path class="st0" d="M590.8,327.7c-1.9,0-3.8,0-5.7,0c-0.8,0-1.5-0.1-1.9-0.9c-0.3-0.9,0-1.9,0.8-2.5c1.2-0.9,2.6-1.1,4-1.1
			c1.8,0,3.6-0.6,5.5-0.2c1,0.2,2.2-0.4,3.3-0.4c1.4,0,1.9,0.4,2,1.8c0,0.4,0,0.8,0,1.1c-0.1,1.9-0.4,2.2-2.2,2.2
			C594.7,327.8,592.7,327.8,590.8,327.7C590.8,327.8,590.8,327.8,590.8,327.7z"/>
	</g>
	<g>
		<path class="st0" d="M583.2,289.9c-2.5,0.2-4.7,0.4-6.8,0.5c-0.2,2.5-0.3,4.8-0.5,7.2c0,0.3,0.1,0.8,0,1c-0.5,0.7-0.2,1.8-1.4,2
			c-1.5,0.2-1.1-1.1-1.4-1.8c-0.8-1.8-1.7-3.7-0.9-5.8c0.2-0.6-0.1-1.3-0.1-2.2c-1.1,0.2-2.3,0.1-3.3,0.3c-2.2,0.4-3.6,0.3-6,0.4
			c-1.3,0.1-2.7,0.1-4,0.1c-1.3,0-2,0.1-2-1c0-1,1.1-0.3,2-0.5c1.7-0.4,3.6-0.2,5.3-0.4c5.2-0.7,10.1-0.5,15.3-1.1
			c0.5-0.1,1.5-0.4,2-0.4c1.2,0,1.7-0.6,2,1C583.6,289.6,583.2,288.9,583.2,289.9z"/>
		<g>
			<path class="st0" d="M583.2,288.4c-2.3,0.2-4.5,0.4-6.8,0.5c-0.8,0.1-1.4,0.6-1.5,1.5c-0.1,1.9-0.3,3.8-0.4,5.8
				c0,0.7,0,1.5-0.2,2.2c-0.1,0.2-0.3,0.5-0.2,0.7c0,0.2,0,0.1,0.1,0c0.3,0.4,0.4,0.5,0.6,0.3c0.4-0.4-1.1-3.1-1.2-3.6
				c-0.3-1-0.1-1.6,0.1-2.6c0.2-0.9,0-1.6-0.1-2.5c-0.1-1.1-0.9-1.6-1.9-1.5c-1,0.1-2,0.1-3.1,0.2c-0.8,0.1-1.6,0.2-2.4,0.3
				c-1.7,0.1-3.5,0.2-5.2,0.2c-0.9,0-1.7,0-2.6,0c0,0-0.7,0-0.7,0c0.6,0.4,0.7,0.7,0.1,1c-0.5,0.4-0.6,0.5-0.2,0.5
				c0.5,0.3,1.4,0,2-0.1c1-0.1,2-0.1,3-0.2c2-0.1,3.9-0.4,5.9-0.5c1.9-0.1,3.8-0.2,5.7-0.3c1.9-0.1,3.8-0.2,5.7-0.5
				c0.6-0.1,1.1-0.3,1.7-0.4c0.3,0,0.7,0,1-0.1c0.6-0.3-0.7,0-0.4-0.5c0.3-0.4,0.7-0.7,1-1c-1,0.3-1.3,1-1.4,2c-0.1,1.9,2.9,1.9,3,0
				c0,0.1-1,0.8-0.8,0.9c0.1,0,0.4-0.2,0.5-0.3c0.3-0.2,0.5-0.5,0.6-0.9c0.2-0.7-0.1-1.6-0.4-2.2c-0.8-1.2-2.1-1-3.3-0.9
				c-0.7,0.1-1.4,0.3-2.1,0.5c-1.2,0.2-2.4,0.2-3.5,0.3c-2.1,0.1-4.3,0.2-6.4,0.3c-2.2,0.1-4.4,0.5-6.6,0.6c-1,0-2.1,0.1-3.1,0.2
				c-0.8,0.1-1.4,0.1-2.2,0.1c-1.6,0-2.4,1.7-1.8,3.1c0.6,1.5,2.2,1.4,3.5,1.4c4.5,0,9-0.3,13.4-0.9c-0.6-0.5-1.3-1-1.9-1.5
				c0.1,0.5,0.3,1.2,0.2,1.7c-0.1,0.6-0.3,1.2-0.3,1.8c-0.1,1.3,0.3,2.5,0.8,3.7c0.3,0.8,0.5,1.6,0.8,2.4c0.3,0.9,1,1.5,2,1.6
				c2.1,0.2,3-1.5,3.5-3.2c0.1-0.5,0-1.1,0.1-1.7c0-0.7,0.1-1.4,0.1-2.1c0.1-1.5,0.2-3.1,0.3-4.6c-0.5,0.5-1,1-1.5,1.5
				c2.3-0.2,4.5-0.4,6.8-0.5C585.1,291.2,585.2,288.2,583.2,288.4z"/>
		</g>
	</g>
	<path class="st0" d="M600.4,274.9c-1.3,0.8-2.2,1.8-1.7,3.4c0,0.2,0,0.4,0,0.7c0,1-0.3,1.9-1.4,1.9c-1,0-1.4-0.9-1.3-1.9
		c0.2-4.6,2.2-8.1,6-10.6c0.5-0.4,1.2-0.5,1.8-0.8c4-2.2,8.3-0.2,10.8,2.8c1.1,1.4,2.7,2.8,2,4.9c-0.2,0.6-0.7,1.2-1.1,2
		c-1.3-1.4-2.1-2.4-3-3.4c-2.8-3.1-5.8-2.6-9.2-1.1"/>
	<path class="st0" d="M581.7,310c-0.6-2,0.6-2.7,1.6-3.2c4.1-2.1,8.5-3.2,13.1-2.7c1.5,0.2,2.6,1.6,2.3,3c-0.2,0.9-0.7,1.8-1.3,2.5
		c-0.7,0.9-1.5,0.1-2.3,0c-2.2-0.2-4.5-0.5-6.5,0C586.3,310.1,584,309.9,581.7,310z"/>
	<path class="st0" d="M608,295.5c0,1.5,0,3.1,0,4.6c0,1.1-0.3,2.2-1.5,2.6c-0.9,0.3-2-0.6-2.5-2.1c-0.5-1.5-1-3-0.3-4.7
		c0.5-1,0.1-2.4,0.3-3.5c0.2-1.4,0.5-2.7,1-4c0.3-0.9,1.2-0.9,1.9-0.3c0.8,0.7,1.3,1.4,1.2,2.5C608,292.2,608,293.9,608,295.5
		C608,295.5,608,295.5,608,295.5z"/>
</g>
<g id="Lag_2_1_">
	<g>
		<path class="st0" d="M522.2,383.9c-1,9-1,18.1-0.4,27.2c0.5,9.1,1.5,18.2,2.5,27.4c1,9.1,2,18.3,2.5,27.5s0.5,18.5-0.6,27.7
			l-1.7-0.2c0.8-9.1,0.5-18.3-0.3-27.4c-0.8-9.1-2-18.2-3.3-27.3c-1.3-9.1-2.5-18.2-3.3-27.5c-0.8-9.2-1.1-18.6-0.4-27.9
			L522.2,383.9z"/>
	</g>
	<g>
		<g>
			<path class="st0" d="M524.8,491.9c-6,3.6-13,8.2-13.4,16c-0.1,1.6,0.2,3.3,1.9,4c1.5,0.6,3.5,0.4,5.1,0.1c3.6-0.7,6.8-3,9.7-5.1
				c-0.6-0.8-1.2-1.6-1.8-2.4c-2.4,3-4.1,6.4-4.9,10.1c-0.4,1.8-0.6,3.8-0.6,5.6c0,1.6,0.1,3.9,2.2,4c1.5,0,3.3-1.5,4.4-2.4
				c1.3-1.1,2.4-2.4,3.4-3.8c2-2.9,3.4-6.1,4.7-9.3c-1-0.3-1.9-0.5-2.9-0.8c-1.2,3.8-2.1,7.7-2.5,11.7c-0.2,1.5-0.4,3.5,1.2,4.4
				c1.5,0.8,3.3-0.1,4.7-0.9c5.7-3.2,8.7-9.5,11.1-15.3c0.7-1.8-2.2-2.6-2.9-0.8c-1.9,4.5-4.1,9.4-8.1,12.5c-0.5,0.4-1,0.7-1.5,1
				c-0.4,0.3-1.2,0.5-1.6,0.8c-0.1,0-0.2,0.1-0.3,0.1c0.2,0.3,0.3,0.4,0.2,0.1c0.1-0.3,0-0.6,0.1-0.9c0.1-0.8,0.2-1.6,0.3-2.4
				c0.5-3.2,1.2-6.4,2.2-9.5c0.6-1.9-2.2-2.5-2.9-0.8c-2,4.7-4.3,10.2-8.9,12.9c-0.1,0.1-0.8,0.3-0.8,0.4c0.8,0.8,1.1,0.9,1,0.4
				c0-0.2,0-0.4,0-0.5c0-0.7,0-1.3,0-2c0-1.5,0.3-3,0.6-4.4c0.7-2.9,2.1-5.6,3.9-8c1-1.2-0.3-3.5-1.8-2.4c-2.2,1.6-4.6,3.4-7.2,4.3
				c-1.3,0.5-2.6,0.7-4,0.6c-0.8,0-1,0-1-0.8c0-0.8,0.1-1.5,0.3-2.2c1.4-5.8,6.9-9,11.6-11.8C527.9,493.5,526.4,490.9,524.8,491.9
				L524.8,491.9z"/>
		</g>
	</g>
	<g>
		<g>
			<path class="st0" d="M540.3,395.2c-0.2,11.1,0.8,22.2,1.7,33.2c0.9,11.1,2.2,22.3,2.1,33.5c-0.1,7.6-1,15.5,2.7,22.5
				c0.9,1.7,3.5,0.2,2.6-1.5c-3.2-6-2.5-13.1-2.3-19.7c0.1-5.3-0.2-10.6-0.6-15.8c-0.8-11.6-1.9-23.2-2.6-34.8
				c-0.3-5.8-0.6-11.5-0.5-17.3C543.3,393.3,540.3,393.3,540.3,395.2L540.3,395.2z"/>
		</g>
	</g>
	<g>
		<g>
			<path class="st0" d="M540,404.9c6.7-2.2,13.6-4.3,20.8-4.8c3.3-0.2,6.6-0.1,9.8,0.5c3.3,0.6,6.3,1.8,9.3,3.3
				c2.9,1.5,5.8,2.1,9.1,1.5c3.2-0.6,6.1-2,8.9-3.4c5.9-2.9,12-4.8,18.6-5.2c7.2-0.5,14.3,0.7,21,3.5c1.8,0.7,2.6-2.2,0.8-2.9
				c-12-5-26-4.9-37.9,0.2c-5.8,2.4-11.9,7.1-18.4,4.1c-3.1-1.4-6-2.9-9.3-3.6c-3.3-0.8-6.7-1-10.1-1c-8,0.2-15.8,2.5-23.3,5
				C537.3,402.6,538.1,405.5,540,404.9L540,404.9z"/>
		</g>
	</g>
	<g>
		<g>
			<path class="st0" d="M542.9,427.8c13.4,1.2,26.9,2.9,40.3,2.9c11.6-0.1,23-1.5,34.4-4c6.7-1.5,13.3-3.3,19.8-5
				c1.9-0.5,1.1-3.4-0.8-2.9c-11.2,3-22.5,6-34,7.6c-12.4,1.7-24.9,1.5-37.4,0.4c-7.5-0.6-14.9-1.3-22.4-2
				C541,424.7,541,427.7,542.9,427.8L542.9,427.8z"/>
		</g>
	</g>
	<g>
		<g>
			<path class="st0" d="M583.8,604.6c1.4-13.8,2.4-27.7,2.9-41.6c0.4-12.3,0.4-24.6,0.4-36.9c0-8.2-0.1-16.4,0-24.6c0-1.9-3-1.9-3,0
				c-0.1,26,0.5,52.1-1.1,78c-0.5,8.4-1.3,16.7-2.1,25C580.7,606.6,583.7,606.5,583.8,604.6L583.8,604.6z"/>
		</g>
	</g>
	<g>
		<g>
			<path class="st0" d="M605.1,504.1c-2,31.8-2.2,63.8-0.6,95.7c0.4,8.9,1,17.8,1.7,26.7c0.2,1.9,3.2,1.9,3,0
				c-2.6-31.8-3.4-63.8-2.4-95.6c0.3-8.9,0.7-17.8,1.3-26.8C608.2,502.2,605.2,502.2,605.1,504.1L605.1,504.1z"/>
		</g>
	</g>
	<g>
		<path class="st0" d="M659,385.5c-0.4,2.3-0.7,4.5-1.1,6.8l-0.9,6.8c-0.6,4.5-1.1,9.1-1.5,13.7c-1,9.1-1,18.3-1.2,27.5
			c0,4.6-0.2,9.1-0.5,13.7l-0.3,6.9l-0.2,6.9c-0.3,9.2-0.4,18.3-0.4,27.5l-1.3,0c-0.5-9.2-0.8-18.4-0.9-27.5l0-6.9l0.1-6.9
			c0-2.3,0.1-4.6,0.2-6.9c0.1-2.3,0.3-4.6,0.5-6.9c0.7-9.2,1.9-18.3,2.5-27.5l0.5-6.9c0.2-2.3,0.4-4.6,0.5-6.9
			c0.4-4.6,0.8-9.2,1.1-13.8L659,385.5z"/>
	</g>
	<g>
		<g>
			<path class="st0" d="M651.3,496.6c2.6,1.3,5.5,1.7,8.3,1.7c1.4,0,2.9-0.1,4.3-0.2c1.5-0.1,3.1-0.2,4.5,0.5
				c0.8,0.4,1.7,1.6,1.1,2.5c-0.5,0.9-2,1-2.9,1.3c-3.3,0.7-6.5,1.4-9.8,2.1c-1.8,0.4-1.2,2.8,0.4,3c3.1,0.3,7.5,0.8,8.9,4
				c0.4,0.9,0.5,1.9,0.5,2.8c0,0.3,0.1,1.2-0.1,1.5c0.3-0.5-0.9-0.2-1.3-0.2c-1.1,0-2.2-0.1-3.3-0.2c-1.1-0.2-2.2-0.6-3.3-0.6
				c-1.9,0.1-2.5,2.1-1.6,3.6c0.2,0.3,0.5,0.8,0.8,1c0.3,0.4,0.4,0.3,0.4-0.3c-0.2,0-0.4,0.1-0.7,0.1c-0.9,0.1-1.7,0.1-2.6,0
				c-3.7-0.3-7.1-2.3-9.4-5.2c-1.2-1.5-3.3,0.6-2.1,2.1c2.2,2.8,5.5,4.8,9,5.7c2.2,0.5,9.5,1.5,8.7-2.7c-0.1-0.6-0.8-1.8-1.4-2.1
				c0,0,0,0,0-0.1c-0.3-0.4-0.5-0.1-0.8,0.8c0.1,0.1,0.6,0.1,0.7,0.2c0.6,0.1,1.2,0.3,1.8,0.3c1.9,0.3,4.5,0.7,6.4,0.1
				c2-0.6,1.9-3,1.8-4.7c-0.1-1.9-0.7-3.7-1.9-5.3c-2.5-3.1-6.8-3.7-10.5-4c0.1,1,0.3,2,0.4,3c3.7-0.8,7.6-1.3,11.1-2.5
				c2.9-0.9,5-3.6,3.3-6.7c-1.8-3.3-5.6-3.3-8.8-3.1c-3.5,0.2-7.3,0.5-10.5-1.1C651.1,493.2,649.6,495.8,651.3,496.6L651.3,496.6z"
				/>
		</g>
	</g>
	<g>
		<g>
			<path class="st0" d="M544.1,470.1c1.8,10.1,3.2,20.2,4.1,30.4c1,10.2,1.6,20.4,2.3,30.7c1.4,20.5,2.8,41,4.2,61.5
				c0.8,11.6,1.5,23.2,2.2,34.7c0.1,1.9,3.1,1.9,3,0c-1.3-20.7-2.7-41.3-4.1-62c-1.4-20.5-2.6-41.1-4.3-61.6
				c-1-11.5-2.5-23-4.5-34.4C546.7,467.4,543.8,468.2,544.1,470.1L544.1,470.1z"/>
		</g>
	</g>
	<g>
		<g>
			<path class="st0" d="M635.5,408c0.2,28.1-1.1,56.2-2.5,84.3c-1.3,28.1-2.7,56.2-2.9,84.3c-0.1,15.7,0.1,31.5,0.8,47.2
				c0.1,1.9,3.1,1.9,3,0c-1.3-28.1-0.9-56.2,0.1-84.3c1-28.1,2.7-56.2,3.7-84.3c0.6-15.8,1-31.5,0.8-47.3
				C638.5,406,635.5,406,635.5,408L635.5,408z"/>
		</g>
	</g>
	<g>
		<g>
			<path class="st0" d="M638.7,407.5c0.1-1.6-0.2-3.3-0.5-4.9c-0.3-2.3-0.7-4.6-1.1-6.9c-0.4-2.2-0.8-4.5-1-6.7
				c-0.2-1.6-0.5-3.3-0.3-4.9c0.2-1.9-2.8-1.9-3,0c-0.2,1.6,0.1,3.2,0.3,4.8c0.3,2.4,0.7,4.7,1.1,7.1c0.4,2.3,0.8,4.6,1.1,6.9
				c0.2,1.6,0.5,3.2,0.4,4.8C635.7,409.5,638.7,409.5,638.7,407.5L638.7,407.5z"/>
		</g>
	</g>
	<g>
		<g>
			<path class="st0" d="M547.1,478.4c22.7,1.2,45.4,2.1,68,0.1c6.4-0.6,12.7-1.4,19-2.5c1.9-0.3,1.1-3.2-0.8-2.9
				c-22.2,3.9-44.8,4-67.2,3.2c-6.3-0.2-12.7-0.5-19-0.9C545.2,475.3,545.2,478.3,547.1,478.4L547.1,478.4z"/>
		</g>
	</g>
	<path class="st1" d="M519.7,384.1c0.1-5.5,3.3-10.8,8.2-13.4c3.3-1.8,7.1-2.3,10.8-2.7c4.1-0.5,8.2-1.1,12.3-1.6"/>
	<g>
		<g>
			<path class="st0" d="M659,385.7c1.2-7.4,0.5-16.4-4.3-22.4c-2.4-3-5.7-4.3-9.4-4.6c-4.4-0.3-8.8,0-13.2,0c-5.1,0-10.2,0-15.3,0.1
				c-1.9,0-1.9,3,0,3c5.3,0,10.6,0,15.8-0.1c2.6,0,5.3,0,7.9,0c2.3,0,4.7-0.2,7,0.4c4,1,6.3,4.5,7.6,8.3c1.5,4.7,1.8,9.8,1.1,14.6
				C655.8,386.8,658.7,387.6,659,385.7L659,385.7z"/>
		</g>
	</g>
	<g>
		<g>
			<path class="st0" d="M557,620.9c0.4,15.8,1.6,31.7,3.6,47.4c0.2,1.9,3.2,1.9,3,0c-2-15.7-3.2-31.5-3.6-47.4
				C560,618.9,557,618.9,557,620.9L557,620.9z"/>
		</g>
	</g>
	<g>
		<g>
			<path class="st0" d="M580.8,604.6c0,18.3,1.5,36.6,2,54.8c0.1,4.1,0.2,8.2,0,12.3c-0.1,1.9,2.9,1.9,3,0
				c0.3-8.1-0.1-16.3-0.5-24.4c-0.4-9.7-0.9-19.5-1.3-29.2c-0.2-4.5-0.3-9-0.3-13.5C583.8,602.7,580.8,602.7,580.8,604.6
				L580.8,604.6z"/>
		</g>
	</g>
	<g>
		<g>
			<path class="st0" d="M605.7,626.3c1.8,15.6,3.6,31.2,5.4,46.8c0.2,1.9,3.2,1.9,3,0c-1.8-15.6-3.6-31.2-5.4-46.8
				C608.5,624.4,605.5,624.4,605.7,626.3L605.7,626.3z"/>
		</g>
	</g>
	<g>
		<g>
			<path class="st0" d="M631.2,621.5c-0.4,17.4-0.5,34.9-0.2,52.3c0,1.9,3,1.9,3,0c-0.3-17.4-0.2-34.9,0.2-52.3
				C634.3,619.6,631.3,619.6,631.2,621.5L631.2,621.5z"/>
		</g>
	</g>
	<g>
		<g>
			<path class="st0" d="M582.1,673.5c0.4,3.1,0.8,6.1,1.3,9.2c0.3,2.3,0.6,4.6,0.3,6.9c-0.3,2.2-1.1,4.3-3,5.4c-2.2,1.4-5,1.6-7.5,2
				c-11.6,2-23.3,3.2-34.7,6.7c-2.5,0.8-6.2,2.1-8.6,0.5c-1.4-1-2.7-3.4-1.1-4.8c1.1-1-0.1-2.9-1.5-2.5c-0.8,0.2-1.9,0.2-2.5-0.5
				c-0.4-0.6,0.1-1.6,0.8-1.3c0.1-1,0.3-2,0.4-3c-0.8-0.1-1-1.3-1-2c0.1-1.4,0.9-2.2,2.1-2.7c1.6-0.7,3.5-0.7,5.2-0.7
				c1.9,0,3.8-0.1,5.8-0.3c7.1-0.8,13.8-3.9,19.5-8.2c2.7-2.1,5.3-4.7,6-8.2c0.4-1.9-2.5-2.7-2.9-0.8c-0.6,3.3-3.3,5.6-6,7.4
				c-3.1,2-6.5,4.1-9.9,5.3c-4.1,1.4-8.4,1.7-12.7,1.8c-3.4,0.1-7.8,0.5-9.3,4c-1.3,3-0.2,7,3.4,7.4c1.8,0.2,1.9-2.4,0.4-3
				c-2.7-1-5.3,1.9-4.7,4.5c0.6,2.8,3.9,3.8,6.3,3.1c-0.5-0.8-1-1.7-1.5-2.5c-1.8,1.6-1.9,4.1-1,6.2c1,2.3,3,3.9,5.5,4.3
				c3.3,0.6,6.5-0.6,9.5-1.5c3.3-1,6.7-1.8,10-2.5c6.8-1.4,13.7-2.3,20.5-3.4c5.6-0.9,12.4-1.3,14.8-7.4c1.1-2.8,1-5.9,0.6-8.8
				c-0.4-3.8-1-7.7-1.6-11.5C584.7,670.8,581.8,671.6,582.1,673.5L582.1,673.5z"/>
		</g>
	</g>
	<g>
		<g>
			<path class="st0" d="M612.4,673.8c-0.1,3.2-0.1,6.5,0,9.7c0.1,2.9,0.1,5.9,0.7,8.7c0.5,2.5,1.8,4.6,3.8,6.1
				c1.9,1.5,4.3,2.2,6.6,3c6.1,2,12.2,4.1,18.2,6.1c2.9,1,5.8,2,8.7,2.9c2.5,0.8,5.3,1.4,7.9,0.6c4.3-1.2,7-7.5,2.7-10.5
				c-1.4-1-3.2,1.3-1.8,2.4c1.5,1.2,3,2.4,4.9,2.6c1.6,0.2,3.4-0.3,4.5-1.7c2.1-2.7-1.1-7.2-4.2-5.1c-1.2,0.8-0.8,2.8,0.8,2.8
				c1.4,0,2.9-0.1,4.3-0.2c0.5,0,1-0.3,1.3-0.7c1.7-3.3-0.4-7-3.5-8.5c-2-1-4.2-1.2-6.3-1.4c-2.2-0.3-4.3-0.9-6.3-1.8
				c-3.9-1.9-7.3-4.8-10.7-7.5c-3.9-3.1-7.8-6.1-11.7-9.2c-1.5-1.2-3.6,0.9-2.1,2.1c3.6,2.8,7.2,5.6,10.8,8.5
				c3.2,2.5,6.3,5.1,9.7,7.3c3.4,2.1,6.9,3.3,10.8,3.8c1.8,0.2,4,0.4,5.5,1.7c1,0.8,2,2.4,1.3,3.7c0.4-0.3,0.9-0.5,1.3-0.7
				c-1.4,0-2.9,0.1-4.3,0.2c0.3,0.9,0.5,1.9,0.8,2.8c0.1-0.1,0.1-0.2,0.2,0c0.1,0.1,0.3,0.2,0.3,0.4c0,0.5-0.8,0.8-1.1,0.8
				c-1.5,0.3-2.8-0.9-3.9-1.8c-0.6,0.8-1.2,1.6-1.8,2.4c1.1,0.7,0.7,2.3,0.2,3.3c-1,1.8-3,2.1-4.9,1.9c-2.4-0.2-4.7-1.2-6.9-1.9
				c-2.6-0.9-5.1-1.7-7.7-2.6c-5-1.7-10-3.3-15-5c-2-0.7-4.1-1.3-5.9-2.4c-1.9-1.2-2.9-2.9-3.3-5.1c-0.5-2.7-0.5-5.5-0.6-8.2
				c-0.1-3.1-0.1-6.1,0-9.2C615.5,671.9,612.5,671.9,612.4,673.8L612.4,673.8z"/>
		</g>
	</g>
	<g>
		<g>
			<path class="st0" d="M592,461.9c-0.1,1.3-0.3,2.5-0.4,3.8c0,0.4,0.2,0.8,0.4,1.1c0.3,0.3,0.7,0.5,1.1,0.4c0.4,0,0.8-0.1,1.1-0.4
				c0.3-0.3,0.4-0.6,0.4-1.1c0.1-1.3,0.3-2.5,0.4-3.8c0-0.4-0.2-0.8-0.4-1.1c-0.3-0.3-0.7-0.5-1.1-0.4c-0.4,0-0.8,0.1-1.1,0.4
				C592.1,461.1,592,461.5,592,461.9L592,461.9z"/>
		</g>
	</g>
	<g>
		<g>
			<path class="st0" d="M546.2,481.9c9,9.1,20.3,15.7,32.7,19.1c7,1.9,14.4,3,21.6,3.5c6.8,0.5,13.9-0.1,20.2-3
				c6.9-3.2,10.9-9.2,14.7-15.6c1-1.7-1.6-3.2-2.6-1.5c-3.2,5.4-6.5,10.7-12.1,13.7c-5.6,3.1-12.1,3.8-18.4,3.5
				c-7-0.3-14.1-1.4-20.8-3c-5.9-1.4-11.5-3.7-16.9-6.6c-5.9-3.3-11.3-7.3-16.1-12.1C547,478.4,544.9,480.6,546.2,481.9L546.2,481.9
				z"/>
		</g>
	</g>
	<g>
		<g>
			<path class="st0" d="M549.2,484c5.2,3.9,10.2,8.3,16.2,10.9c6.1,2.6,12.5,5.1,18.9,6.8c6.5,1.7,13.3,2.6,20.1,2.4
				c6.5-0.2,12.7-1.7,18-5.7c5.8-4.4,10-10.3,13-16.9c0.8-1.8,0.9-4-0.7-5.5c-1.4-1.3-3.8-1.9-5.5-0.7c-4.1,2.8-8.3,5.4-12.6,7.8
				c-2.1,1.2-4.3,2.4-6.5,3.5c-0.2,0.1-1.4,0.6-0.8,0.3c-0.6,0.2-1.1,0.4-1.7,0.6c-0.6,0.2-1.2,0.3-1.8,0.4c0.1,0,0.6-0.1,0.1,0
				c-0.4,0-0.8,0.1-1.1,0.1c-2.5,0.2-4.9,0.1-7.4,0c-1.2,0-2.4-0.1-3.5-0.2c-0.5,0-1.1-0.1-1.7-0.2c-0.3,0-0.6-0.1-0.9-0.1
				c0.7,0.1-0.3-0.1-0.4-0.1c-5-0.8-9.8-2.4-14.6-3.8c-2.8-0.8-5.5-1.6-8.3-2.5c-1.3-0.4-2.5-0.8-3.8-1.3c-0.7-0.2-1.3-0.5-2-0.8
				c-0.9-0.4-0.4-0.2-0.2-0.1c-0.4-0.2-0.9-0.4-1.3-0.6c-0.4,2.7-0.7,5.5-1.1,8.2c0.5-0.1,1.1-0.2,1.6-0.3c0.8-0.1-0.6,0,0.2,0
				c0.2,0,0.5,0,0.7-0.1c1.2-0.1,2.5-0.1,3.7-0.1c1.1,0,2.2,0.1,3.2,0.1c0.6,0,1.2,0.1,1.8,0.2c0.2,0,0.5,0,0.7,0.1s1,0.1,0.4,0
				c4.7,0.6,9.3,1.7,13.9,2.4c5,0.8,9.9,1.1,14.9,1.1c4.4,0,8.8-0.1,13.2-0.8c5-0.7,9.5-2.5,13.4-5.7c1.4-1.1,1.6-3.4,0.9-4.9
				c-0.7-1.5-2.3-2.9-4.1-2.8c-14.3,1.1-28.7,2.6-42.9,0.8c-2.3-0.3-4.6,2.3-4.5,4.5c0.1,2.7,2,4.2,4.5,4.5
				c14.3,1.8,28.7,0.3,42.9-0.8c-1.1-2.6-2.1-5.1-3.2-7.7c0.7-0.5-0.3,0.2-0.5,0.3c-0.4,0.3-0.8,0.5-1.2,0.7s-0.8,0.4-1.2,0.6
				c-0.1,0.1-0.9,0.4-0.3,0.2c0.5-0.2-0.3,0.1-0.4,0.1c-1.8,0.6-3.6,1-5.5,1.4c-0.9,0.1-0.2,0,0,0c-0.3,0-0.5,0.1-0.8,0.1
				c-0.4,0-0.8,0.1-1.2,0.1c-1.1,0.1-2.1,0.1-3.2,0.2c-2.1,0.1-4.2,0.1-6.3,0.1c-2.3,0-4.6,0-6.9-0.2c-1.1-0.1-2.2-0.2-3.3-0.3
				c-0.3,0-0.6-0.1-0.9-0.1c0.1,0,0.6,0.1,0,0c-0.6-0.1-1.2-0.2-1.9-0.3c-4.6-0.7-9.1-1.7-13.7-2.4c-5.6-0.8-11.1-1-16.7,0.1
				c-3.7,0.7-4.5,6.6-1.1,8.2c4.9,2.3,10.2,3.9,15.4,5.4c5,1.5,10.1,3.2,15.3,4.2c5.4,1,10.9,1.4,16.4,1.3c2.7-0.1,5.5-0.4,8.1-1.3
				c2.6-0.9,5-2.2,7.3-3.5c5.2-2.8,10.2-5.9,15-9.2c-2-2-4.1-4.1-6.2-6.2c-1.2,2.6-2.6,5.2-4.2,7.6c-0.2,0.2-0.3,0.5-0.5,0.7
				c0.1-0.1-0.8,1.1-0.4,0.6c0.4-0.5-0.5,0.6-0.5,0.6c-0.2,0.2-0.4,0.4-0.6,0.7c-0.9,1-1.9,2-2.9,3c-0.3,0.2-0.5,0.4-0.8,0.7
				c-0.6,0.5,0.8-0.6-0.2,0.2c-0.5,0.4-1,0.7-1.5,1c-0.5,0.3-1,0.6-1.6,0.9c-0.3,0.2-0.6,0.3-0.9,0.5c-0.2,0.1-0.4,0.2-0.5,0.3
				c0.5-0.2,0.4-0.2,0,0c-1.2,0.4-2.4,0.8-3.7,1.1c-0.3,0.1-0.6,0.1-0.9,0.2c-1.5,0.3,0.8,0-0.7,0.1c-0.8,0.1-1.5,0.1-2.3,0.2
				c-3.1,0.1-6.2,0-9.3-0.3c-0.4,0-0.8-0.1-1.2-0.1c-0.9-0.1-0.4,0-0.2,0c-0.8-0.1-1.6-0.2-2.3-0.4c-1.6-0.3-3.1-0.6-4.7-1
				c-5.9-1.5-11.7-3.7-17.3-6c-0.3-0.1-0.6-0.2-0.8-0.3c0.7,0.3-0.5-0.2-0.6-0.3c-0.8-0.4-1.6-0.8-2.4-1.2c-1.5-0.9-2.9-1.8-4.3-2.9
				c-2.8-2.1-5.7-4.2-8.5-6.3c-1.9-1.4-5.1-0.4-6.2,1.6C546.3,480.2,547.2,482.5,549.2,484L549.2,484z"/>
		</g>
	</g>
	<g>
		<g>
			<path class="st0" d="M547.1,411c2-0.6,4.1-1.1,6.2-1.5c0.5-0.1,0.9-0.2,1.4-0.2c0.2,0,0.5-0.1,0.7-0.1c-0.7,0.1,0.1,0,0.2,0
				c1.1-0.1,2.2-0.2,3.3-0.3c2-0.1,4.1-0.2,6.1-0.1c0.5,0,1.1,0.1,1.6,0.1c0.2,0,0.5,0,0.7,0.1c-0.1,0-0.5-0.1,0,0
				c1,0.2,2,0.4,3,0.7c3.8,1,7.4,2.5,11.2,3.1c4.6,0.7,9.1,0.1,13.5-1.4c4-1.4,7.9-3.1,11.8-4.7c1.9-0.8,3.9-1.6,5.9-2.1
				c0.5-0.1,0.9-0.2,1.3-0.3c0.3-0.1,0.6-0.1,0.9-0.2c0,0,0.8-0.1,0.3,0c-0.5,0,0.3,0,0.3,0c0.2,0,0.5,0,0.7,0
				c0.6,0,1.2-0.1,1.8-0.1c1,0,2,0,3,0.1c0.5,0,0.9,0.1,1.4,0.1c-0.1,0-0.6-0.1,0,0c0.4,0.1,0.8,0.1,1.2,0.2c2,0.4,4,0.8,5.9,1.4
				c0.5,0.1,0.9,0.3,1.4,0.4c0.5,0.1-0.2-0.1-0.3-0.1c0.2,0.2,0.3,0.3,0.1,0c-0.1-0.2-0.4-0.3-0.5-0.6c-0.3-0.5-0.4-1.4-0.3-1.9
				c0.1-0.3,0.2-0.5,0.3-0.7c0.1-0.1,0.8-0.6,0.4-0.4c-0.5,0.2,0.3-0.1,0.3-0.1c-0.1,0.1-0.7,0.1-0.2,0.1c0.6,0-1.3-0.2-0.3,0
				c-1.3-0.2-2.6-0.5-3.8-0.6c-8.6-1.1-17.2,1-25.3,3.8c-1.9,0.6-3.8,1.4-5.7,2c-0.9,0.3-1.9,0.6-2.9,0.9c-0.5,0.1-1,0.3-1.6,0.4
				c-0.2,0-1.5,0.2-0.8,0.2c-1,0.1-2,0.1-3,0.1c-0.5,0-0.9-0.1-1.4-0.1c-0.8-0.1,0.6,0.1-0.2,0c-0.3-0.1-0.6-0.1-0.9-0.2
				c-2.1-0.4-4.2-0.9-6.2-1.4c-8.4-2.1-17-4.3-25.7-3.5c-4.5,0.4-11,1-12.7,5.9c-0.7,1.8-0.6,4.3-0.6,6.2c0,2.1,0.2,4.3,1,6.3
				c1,2.5,2.5,4.9,5.3,5.4c3.2,0.6,6-1.2,7.3-4.1c0.5-1.2,0.7-2.4,0.6-3.6c0-0.5-0.1-0.9-0.2-1.4c0-0.2,0-0.5-0.1-0.7
				c0-0.2,0-0.5,0-0.7c0,0.1,0,0.3-0.1,0.4c-0.3,0.4-0.4,0.8-0.9,1c-1.2,0.6-1.6,0.2-2.7-0.4c-0.9-0.5-1.3-0.5-1.5-1.3
				c-0.2-0.9-0.1-0.6-0.1-0.3c0,0,0-0.9,0-0.4c0,0.3,0,0,0.1-0.1c-0.1,0.3-0.3,0.5-0.4,0.8c-1.2,2.6-1.6,5.3-0.2,7.9
				c1.3,2.3,3.8,3.8,6.4,4c2.5,0.1,5-1.2,6.5-3.1c1.7-2.1,1.9-4.7,1.3-7.3c-0.1-0.5-0.3-1-0.4-1.5c-0.1-0.5-0.2-1.2-0.1-0.3
				c0-0.3-0.2-0.4,0,0c0.3,0.8-0.3-0.5-0.1,0.2c0.1,0.3-0.2,0.3,0,0c-0.4,0.5-0.9,1.1-1.5,1.3c-1.7-0.7-3.4-1.4-5.1-2.1
				c-0.3-0.6,0,0.1,0,0.2c0.1,0.3,0.2,0.6,0.3,0.9c0.1,0.2,0.1,0.4,0.2,0.7c0,0.1,0.2,1,0.1,0.5c-0.1-0.5,0,0.4,0,0.5
				c0,0.2,0,0.5,0,0.7c0,0.6,0,1.2-0.1,1.8c-0.1,2.9,0.9,5.9,3.6,7.2c2.8,1.4,6.1,0.8,8.5-1.2c2.2-1.9,2.9-4.9,2.9-7.6
				c0-0.4,0-0.9,0-1.3c0-0.8,0,0,0,0.2c-0.2,0.5-0.8,1.2-1.2,1.4c-0.4,0.1-0.7,0.1-1.1,0.2c-0.8,0.4-1.6,0.2-2.2-0.5
				c-0.1-0.1-0.2-0.4-0.3-0.5c-0.4-0.4,0.1,0.6,0,0c-0.2-0.6,0,0.5,0,0.6c0,0.5,0,1,0,1.6c0,0.7,0.2-0.6,0,0.1
				c-0.1,0.3-0.1,0.6-0.2,0.9c-0.4,1.5-0.7,3-0.2,4.5c1.3,4,5.6,5,9.1,3.3c2.3-1.1,3.9-3.3,4.8-5.6c0.5-1.2,0.6-2.6,0.6-3.9
				c0-0.3,0-0.6,0-0.8c0-0.3,0-0.3-0.1,0.2c0-0.1,0.1-0.3,0.1-0.4c-0.5,0.8-0.6,1.4-1.7,1.6c-1-0.3-2-0.5-3-0.8
				c-0.1-0.1-0.2-0.3-0.4-0.4c-0.5-0.9-0.1-0.5-0.1-0.2c0,1,0-0.7,0,0c0,0.6,0,1.2,0,1.9c0-0.2,0.2-0.8,0,0
				c-0.1,0.3-0.1,0.5-0.2,0.8c-0.1,0.3-0.2,0.5-0.3,0.8c0.3-0.7-0.1,0.2-0.2,0.4c-0.9,1.6-0.9,4.2,0.7,5.5c2.5,2,5.7,2.4,8.5,0.5
				c2.8-1.9,3.6-4.8,3.8-7.9c0-0.5,0-1.1,0.1-1.7c-0.1,0.6-0.1,0.6,0,0.1c-2.6,2.3-4.5,2.6-5.7,0.9c-0.2-0.6-0.2-0.6-0.1-0.1
				c0.1,0.3,0.2,0.6,0.2,0.9c0.1,0.6,0.3,1.2,0.3,1.8c-0.1-0.9,0.1,0.9,0.1,1c0,0.5,0,1,0.1,1.5c0.1,1.7,0.6,3.3,1.8,4.6
				c2.7,2.8,7.3,1.8,9.1-1.5c1.2-2.2,1.4-4.9,1.9-7.3c0-0.3,0.1-0.6,0.2-0.8c0.2-0.5,0.2-0.5,0-0.1c0.3-0.5,0.3-0.5,0,0
				c-0.2,0.2-0.5,0.3-0.7,0.4c-0.7,0.2-1.3,0.1-1.9-0.3c-0.5-0.5-0.6-0.5-0.3-0.2c-0.4-0.5-0.5-0.6-0.2-0.2
				c-0.2-0.6-0.3-0.7-0.1-0.2c0.1,0.4,0.2,0.8,0.3,1.2c0.1,0.5,0.1,0.4,0-0.2c0,0.3,0.1,0.6,0.1,0.9c0,0.6,0,1.1,0.1,1.7
				c0,0.5,0,0.6,0,0.1c0,0.3-0.1,0.6-0.2,0.8c1.8-1,3.7-2.1,5.5-3.1c0.7,1,1.4,2,2,3c-0.7,1.3-1.5,2.6-2.2,3.9
				c2.4-1.1,4.5-3.2,5.6-5.6c0.7-1.5,1-2.9,1.2-4.5c0-0.3,0-0.6,0.1-0.8c-0.1,0.3-0.2,0.8,0,0.2c0.1-0.2,0.4-0.9,0.1-0.4
				c-0.2,0.4-0.4,0.8-0.8,1.1c-2-0.5-4.1-1.1-6.2-1.6c0.1,0.1,0.5,1.1,0.3,0.6c-0.2-0.5,0.1,0.3,0.1,0.4c0.1,0.3,0.2,0.7,0.2,1
				c-0.1-0.6,0-0.2,0,0.2c0,0.3,0,0.5,0,0.8c0,0.5,0.2-0.6,0,0.2c-0.1,0.3-0.1,0.5-0.2,0.8c0,0.1-0.5,1.3-0.1,0.4
				c-0.7,1.5-0.9,3.1,0,4.5c0.8,1.3,2.3,2.3,3.9,2.2c5.5-0.3,9-4.8,9.5-10.1c0.1-0.9,0-1.8-0.1-2.7c0-0.4,0.2-1.1-0.1,0.1
				c-5.2-2.1-7.4-1.9-6.7,0.5c-0.1-0.8-0.1-0.8-0.1-0.1c0,1,0,2.1-0.1,3.1c0.1-0.8-0.1,0.4-0.1,0.6c-0.1,0.6-0.3,1.2-0.4,1.7
				c-0.6,2.1,0.5,3.9,2.1,5.1c2.4,1.8,6,1.1,8-1c1.9-1.9,2.2-4.3,2.5-6.9c0.1-1.1,0.3-2.1,0.4-3.2c0-0.3,0.1-0.6,0.1-0.9
				c-0.1,0.5-0.1,0.6,0,0.3c0-0.2,0.1-0.3,0.1-0.5c-1.7,2.4-3.3,2.9-4.9,1.5c-0.6-1.1-0.7-1.4-0.5-0.6c0-0.1,0-0.3,0-0.4
				c0,0.2,0,1.9,0,1.1c-0.1,1-0.4,2-0.6,3c-0.3,1.4-0.7,2.8-0.3,4.2c0.6,2.1,2.6,3.6,4.8,3.7c2.4,0.1,4.7-1.1,6.4-2.8
				c3.4-3.4,3.7-8.2,3.3-12.7c-1.9,1.5-3.8,2.9-5.7,4.3c0.7,0.1,0-0.1-0.3-0.3c-0.2-0.2-0.2-0.2,0,0c0.2,0.2,0.2,0.1-0.1-0.2
				c0.1,0.2,0.2,0.4,0.4,0.6c-0.5-0.7-0.1-0.2,0,0.2c0.1,0.2,0.2,1,0.1,0.4c0,0.4,0,0.8,0.1,1.2c0,0.7,0.1,1.3,0.1,2
				c0.3,2.5,1.7,4.9,4.3,5.5c1.9,0.4,3.9-0.1,5.5-1.2c2.6-1.8,4.4-4.5,5-7.6c0.1-0.4,0.4-1.3,0.3-1.6c-0.1,0.4-0.3,0.7-0.6,0.9
				c-0.6,0.9-1.5,0.9-2.6-0.1c-1.3,0.3-2.1-0.1-2.4-1c0,0.1,0.1,0.2,0.1,0.3c0.2,1.5,0.8,2.9,1.2,4.4c0.6,2.3,3.2,3.9,5.5,3.1
				c2.3-0.8,3.8-3.1,3.1-5.5c-0.9-3.4-1.5-8.1-5.6-9.1c-2.6-0.6-5.3,0.7-6.6,2.9c-0.9,1.4-0.8,2.9-1.3,4.4c-0.1,0.3-0.5,0.8,0,0.1
				c-0.2,0.2-0.3,0.5-0.5,0.8c-0.2,0.4,0.5-0.5-0.1,0.1c-0.1,0.1-0.3,0.3-0.4,0.4c-0.2,0.2-0.2,0.2,0.2-0.1c-0.8,0.3,0.5,0,0,0.1
				c-1.7,0.5-0.4,1.4,3.8,2.9c0-0.1,0-0.3,0-0.5c0-0.9-0.1-1.7-0.2-2.6c-0.4-4-2.3-8.2-6.6-9.1c-2.6-0.6-6,1.3-5.7,4.3
				c0.1,1,0.2,2.1,0.2,3.1c0,0.2-0.1,1.9,0,1c-0.1,0.5-0.3,1-0.4,1.5c-0.1,0.3-0.1,0.2,0.1-0.3c-0.1,0.2-0.2,0.4-0.3,0.6
				c-0.4,0.8,0.3-0.6-0.3,0.3c-0.2,0.2-0.2,0.2,0.3-0.1c-0.2,0.1-0.4,0.3-0.6,0.4c0.6-0.2,0.6-0.2,0.1-0.1c-0.8,0.2-0.4,0.2,1.1,0
				c0.9,0.7,1.8,1.4,2.7,2.1c0-0.1-0.1-0.2-0.2-0.2c0.2,0.8,0.4,1.5,0.6,2.3c0,0.4-0.2,0.8,0,0.1c0.1-0.3,0.1-0.6,0.2-0.9
				c0.2-0.7,0.3-1.4,0.5-2c0.3-1.5,0.5-3,0.4-4.6c-0.2-1.9-0.8-3.7-2.2-5c-1.5-1.4-3.8-2.1-5.8-1.6s-3.4,2-4.1,3.9
				c-0.5,1.3-0.5,2.7-0.7,4c-0.1,0.7-0.2,1.4-0.3,2c0,0.3-0.1,0.6-0.1,0.9c0,0.4-0.1,0.5,0,0.1c-0.1,0.3-0.1,0.5-0.2,0.8
				c-0.1,0.6-0.1,0.2,0.1-0.2c0.3-0.5,0.6-0.5,1.2-0.7c0.5-0.3,0.9-0.2,1.4,0c0.8,0.3,0.9,0.3,0.4,0c0.7,1.7,1.4,3.4,2.1,5.1
				c0.8-2.7,1.2-5.6,1-8.5c-0.1-1.7-0.6-3.5-1.9-4.7c-1.7-1.6-4.4-2.1-6.4-0.9c-1.6,1-2.5,2.5-2.8,4.3c-0.2,1.1,0,2.2,0,3.4
				c0,0.1-0.1,1.2,0,0.6c0.1-0.5-0.1,0.3-0.1,0.4c0,0.1-0.3,0.8-0.1,0.4c0.2-0.5-0.3,0.4-0.3,0.5c0.2-0.3,0.4-0.4,0-0.1
				c-0.4,0.4-0.2,0.1,0.1,0c-0.8,0.4,0.5,0,0,0.1c-0.3,0-1,0.1,0,0c1.3,2.3,2.6,4.5,3.9,6.8c2.1-4.4,2.1-9.2-0.2-13.5
				c-1.2-2.2-4.1-2.7-6.2-1.6c-1.6,0.9-2.7,2.4-3.2,4c-0.2,0.6-0.3,1.3-0.3,1.9c0,0.4-0.1,0.7-0.1,1.1c-0.1,0.9,0.1,0,0,0
				c0.1,0.1-0.6,1.7-0.1,0.6c-0.1,0.3-0.3,0.5-0.4,0.8c0,0.1-0.5,0.7-0.2,0.3c0.4-0.5-0.3,0.3-0.4,0.4c-0.2,0.2-0.3,0.3-0.5,0.5
				c0.5-0.4,0.3-0.2-0.1,0c-0.3,0.1-0.5,0.3-0.8,0.4c-1.3,0.6-2.4,2.5-2.2,3.9c0.3,2.6,1.7,5.1,4.6,5.7c2.4,0.5,4.8-0.7,5.5-3.1
				c0.6-2.1,0.5-4.2,0.3-6.3c-0.3-2.1-0.7-4.2-2-5.9c-1.7-2.1-4.2-3.2-6.9-2.6c-2.8,0.6-4.7,3-5.6,5.7c-0.6,2-0.8,4-1.2,6
				c0,0.1-0.1,0.6-0.2,0.6c0,0,0.4-0.8,0.2-0.4c-0.3,0.4,0.3-0.3,0.3-0.3c0.9,0.1,1.8,0.3,2.6,0.4c1.5-0.5,2.4-0.3,2.7,0.6
				c0.2,0.4,0.2,1.2,0.1,0.3c0-0.6,0-1.1-0.1-1.7c-0.2-2.2-0.5-4.5-1.4-6.5c-1.2-2.8-4.1-4.8-7.2-3.7c-3.3,1.1-4.1,4.4-4.3,7.5
				c0,0.3,0,0.6,0,0.8c0,0.1-0.2,0.9,0,0.4c0.1-0.5-0.1,0.2-0.1,0.2c-0.2,0.5-0.2,0.3,0,0c0,0,0.6-0.6,0.2-0.3c-0.4,0.4,0.7-0.4,0,0
				c1.1-0.6,2-0.2,3,0.5c0.2,1.8,0.5,3.6,0.7,5.5c2.4-4.4,3.8-13-2.1-15.4c-3.6-1.5-7.6,0.9-8.5,4.6c-0.3,1.3-0.3,2.7-0.3,4.1
				c0,0.5,0-0.4,0-0.3s-0.2,0.6-0.2,0.7c0.1-0.6,0.3-0.5,0-0.1c-0.2,0.4-0.7,0.8-0.1,0.2c-0.1,0.1-0.3,0.2-0.4,0.4
				c-0.4,0.5,0.6-0.4,0.1-0.1c-0.4,0.3,0.4-0.1,0.6-0.1c1.6-0.2,3.8,3.3,3.1,3.4c0,0.1,0,0.2,0,0.2c0-0.2,0.1-0.4,0.1-0.5
				c0.1-0.3,0.1-0.5,0.2-0.8c0.2-0.9,0.3-1.8,0.4-2.7c0.3-2.8-0.1-6.1-2.2-8.2c-2.8-2.7-7.5-2.5-9.7,0.9c-0.8,1.2-1,2.7-1.1,4.1
				c0,0.5,0,1,0,1.5c0,0.3,0,0.5-0.1,0.8c0.1-0.6,0-0.2-0.1,0.2c-0.1,0.6,0.1-0.2,0.1-0.2c-0.3,0.4-0.3,0.5-0.1,0.2
				c0.1-0.2,0.3-0.4,0.5-0.5c-0.2,0.1-0.8,0.4,0.2,0c-0.6,0.3,0.2,0,0.5,0c0.3,0,0.6,0.1,0.8,0.3c0.5,0.3,0.9,0.7,1,1.2
				c0.1,0.3,0.1,0.3,0-0.1c0,0.2,0,0.9,0.1,0.1c0-0.3,0-0.6,0-0.9c0.2-3.3-0.5-6.4-1.8-9.4c-0.8-1.8-3.3-2.6-5.1-2.1
				c-2.5,0.7-4.3,2.7-4.8,5.2c-0.3,1.3-0.2,2.5,0,3.8c0.1,0.4,0.2,0.8,0.3,1.3c0.1,0.2,0.1,0.4,0.2,0.6c0,0.1,0.1,0.3,0.1,0.4
				c0.1,0.3,0.1,0.3,0-0.1c0.2,0.2-0.3,0.6,0,0.2c0.1-0.1,0.2-0.5,0.3-0.7c-0.3,0.6,0.5-0.3-0.1,0.1c0.3-0.3,0.4-0.3,0.8-0.5
				c-0.2,0.1-0.5,0,0,0.1c0.3,0,0.5,0,0.8,0.1c-0.5-0.1-0.2-0.1,0.2,0.1c0.2,0.1,0.5,0.6,0.1,0.1c0.1,0.2,0.3,0.4,0.4,0.6
				c0.3,0.4,0,0.2,0-0.1c0,0.2,0,0.6,0,0.8c0.1,0.4-0.1,0.1,0.1-0.2c-0.1,0.2-0.3,0.7,0-0.1c0.3-0.7,0.6-1.4,0.9-2
				c0.9-2.4,0.4-5.3-1.4-7.2c-2-2.1-5.3-2.3-7.7-0.7c-2.4,1.6-3.5,4.4-3.2,7.3c0,0.5,0.2,1,0.2,1.6c0,0.2,0,0.5,0,0.7
				c0,0.6,0-0.2,0-0.3c0.1-0.5,0.5-0.8,0.9-1c1.3-0.8,2.3-0.3,3.3,0.3c0.3,0.2,0.3,0.5,0.1,0c-0.3-0.8,0,0.4-0.2-0.5
				c-0.1-0.5-0.2-0.9-0.3-1.4c-0.1-0.5,0,0.1,0,0.2c0-0.2,0-0.4,0-0.6c0-0.6,0-1.1,0-1.7c0-0.9,0.1-1.8,0.1-2.7c0-0.2,0-0.4,0-0.6
				c0-0.5,0,0.3,0,0.3c-0.2,0.4-0.5,1-0.8,1.2c-0.1,0.1-0.8,0.4-0.5,0.3c1-0.2,1.9-0.6,2.8-0.8c0.5-0.1,1-0.2,1.6-0.3
				c0.5-0.1,0,0-0.1,0c0.3,0,0.6-0.1,0.9-0.1c2.1-0.2,4.1-0.2,6.2-0.1c1,0,2,0.1,3,0.3c0.2,0,1.3,0.2,0.6,0.1
				c0.6,0.1,1.3,0.2,1.9,0.3c2.1,0.4,4.1,0.8,6.2,1.3c4.2,1,8.3,2.2,12.6,3c4.6,0.8,9,0.5,13.5-0.9c4-1.2,7.9-2.8,11.9-4
				c2-0.6,4-1.1,6-1.5c0.5-0.1,1.1-0.2,1.6-0.3c0.2,0,1.3-0.2,0.7-0.1c1.1-0.1,2.2-0.2,3.2-0.3c1,0,2-0.1,3,0c0.5,0,0.9,0,1.4,0.1
				c0.3,0,0.6,0,0.9,0.1c0.1,0,0.9,0.1,0.6,0.1c-0.4-0.1,0.3,0.1,0.3,0.1c0.2,0,0.5,0.1,0.7,0.1c0.5,0.1,1,0.2,1.5,0.3
				c1.5,0.2,2.9,0.4,4.5,0c2.6-0.6,4.6-2.5,5.5-4.9c1-2.7-0.2-5.6-2.3-7.3c-1.7-1.3-4-1.9-6.1-2.4c-2.2-0.6-4.3-1-6.5-1.3
				c-4.4-0.6-8.9-0.5-13.2,0.6c-4.1,1.1-8.1,3-12,4.6c-1.9,0.8-3.8,1.5-5.7,2.2c-0.9,0.3-1.9,0.6-2.8,0.9c-0.4,0.1-0.9,0.2-1.3,0.3
				c-0.3,0.1-0.6,0.1-0.9,0.2c-0.7,0.2,0.6,0-0.2,0c-1,0.1-1.9,0.1-2.9,0.1c-0.2,0-1.3-0.1-0.5,0c-0.6-0.1-1.2-0.2-1.7-0.3
				c-1.9-0.4-3.7-1-5.5-1.6c-4.2-1.3-8.3-2.4-12.7-2.5c-4.4-0.1-8.8,0.3-13.2,1.1c-2.1,0.4-4.1,0.9-6.2,1.5
				c-2.2,0.7-3.9,3.2-3.1,5.5C542.3,410.1,544.7,411.8,547.1,411L547.1,411z"/>
		</g>
	</g>
	<g>
		<g>
			<path class="st0" d="M392,641.4c10.9-1.9,21.9-2.9,33-2.8c5.5,0,10.9,0.3,16.3,0.8c5.6,0.5,11.1,1,16.7,0.7
				c10.7-0.5,21-4,31.6-5.1c10.8-1.1,21.6-0.2,32.3,1c12,1.4,24.1,3.4,36.2,3.7c1.9,0,1.9-3,0-3c-21.6-0.6-43-6.4-64.7-5
				c-10.8,0.7-21.1,4-31.9,5.1c-11,1.2-22.1-0.9-33.2-1.2c-12.5-0.3-24.9,0.7-37.2,2.9C389.3,638.8,390.1,641.7,392,641.4L392,641.4
				z"/>
		</g>
	</g>
	<g>
		<g>
			<path class="st0" d="M584,640.9c7.7,0.8,15.5,0.7,23.2-0.3c0.8-0.1,1.5-0.6,1.5-1.5c0-0.7-0.7-1.6-1.5-1.5
				c-7.7,1-15.5,1.1-23.2,0.3C582,637.7,582.1,640.7,584,640.9L584,640.9z"/>
		</g>
	</g>
	<g>
		<g>
			<path class="st0" d="M634.1,637.3c18.7-3.4,37.6-5.7,56.5-6.8c19-1.2,38-1,57.1-0.1c10.7,0.5,21.4,1,32-0.4c1.9-0.2,1.9-3.3,0-3
				c-9.5,1.2-19,1-28.6,0.6c-9.5-0.4-19.1-0.9-28.7-1c-19.1-0.1-38.3,0.9-57.3,3.1c-10.7,1.2-21.3,2.8-31.9,4.7
				C631.4,634.7,632.3,637.6,634.1,637.3L634.1,637.3z"/>
		</g>
	</g>
</g>
<g id="Lag_3">
	<g>
		<g>
			<path class="st2" d="M729-120c4.9-8.2,9.8-16.3,14.7-24.5c-4.3,0-8.6,0-13,0c1.4,2.4,2.7,4.7,3.8,7.3c-0.3-0.6-0.5-1.2-0.8-1.8
				c1,2.3,1.7,4.7,2,7.3c-0.1-0.7-0.2-1.3-0.3-2c0.2,1.8,0.2,3.7,0,5.5c0.1-0.7,0.2-1.3,0.3-2c-0.2,1.4-0.5,2.8-1.1,4.1
				c0.3-0.6,0.5-1.2,0.8-1.8c-0.2,0.5-0.5,1-0.7,1.5c4.3,0,8.6,0,13,0c-0.1-0.1-0.2-0.3-0.3-0.5c0.3,0.6,0.5,1.2,0.8,1.8
				c-0.1-0.3-0.2-0.5-0.2-0.8c0.1,0.7,0.2,1.3,0.3,2c-0.1-0.8,0-1.7-0.1-2.5c-0.1-2.3-0.7-4.3-2-6.1c-1.7-2.2-4.4-3.6-7.3-3.5
				c-2.4,0.1-4.5,1.1-6.6,2.3c-6,3.4-14.8,8.3-12.6,16.5c1.2,4.4,5.4,6.6,9.5,7.7c3.3,0.8,6.5,0.9,9.8,0.3
				c6.5-1.3,11.3-7.1,12.4-13.4c1.3-7.1-0.9-14.1-1.9-21c0.1,0.7,0.2,1.3,0.3,2c-1.2-8.7-1.5-17.5-1-26.3c0.2-3.9-3.6-7.7-7.5-7.5
				c-4.3,0.2-7.3,3.3-7.5,7.5c-0.3,6.3-0.3,12.7,0.2,19c0.3,3.6,0.7,7.2,1.3,10.7c0.5,3.2,1.1,6.3,1.6,9.4c-0.1-0.7-0.2-1.3-0.3-2
				c0.3,1.9,0.4,3.8,0.1,5.8c0.1-0.7,0.2-1.3,0.3-2c-0.2,1.1-0.5,2.2-0.9,3.3c0.3-0.6,0.5-1.2,0.8-1.8c-0.2,0.5-0.4,0.9-0.7,1.3
				c-0.1,0.2-0.3,0.4-0.4,0.6c0.8-1,1-1.2,0.5-0.7c-0.2,0.2-0.3,0.3-0.5,0.5c-0.6,0.5-0.4,0.3,0.6-0.5c-0.4,0.1-0.9,0.5-1.3,0.7
				c0.6-0.3,1.2-0.5,1.8-0.8c-0.8,0.3-1.7,0.6-2.5,0.7c0.7-0.1,1.3-0.2,2-0.3c-1,0.1-2.1,0.1-3.1,0c0.7,0.1,1.3,0.2,2,0.3
				c-1.4-0.2-2.8-0.6-4.2-1.1c0.6,0.3,1.2,0.5,1.8,0.8c-0.3-0.1-0.6-0.3-0.8-0.4c-0.3-0.2-0.2-0.1,0.3,0.3c0.5,0.3,0.9,0.8,1.3,1.3
				c0.3,0.6,0.5,1.2,0.8,1.8c0-0.1-0.1-0.2-0.1-0.3c0.1,0.7,0.2,1.3,0.3,2c0-0.2,0-0.5,0-0.7c-0.1,0.7-0.2,1.3-0.3,2
				c0-0.1,0.1-0.2,0.1-0.3c-0.3,0.6-0.5,1.2-0.8,1.8c0.1-0.2,0.2-0.4,0.3-0.7c-0.8,1-1,1.2-0.4,0.6c1-1-1.5,1-0.2,0.2
				c1-0.7,1.9-1.3,2.9-2c1.8-1.2,3.8-2.5,5.8-3.4c-0.6,0.3-1.2,0.5-1.8,0.8c0.3-0.1,0.5-0.2,0.8-0.2c-0.7,0.1-1.3,0.2-2,0.3
				c0.1,0,0.3,0,0.4,0c-0.7-0.1-1.3-0.2-2-0.3c0.1,0,0.3,0.1,0.4,0.1c-0.6-0.3-1.2-0.5-1.8-0.8c0.7,0.4,0.4,0.1-0.9-1
				c-1-1.3-1.3-1.5-1-0.9c-0.3-0.6-0.5-1.2-0.8-1.8c0.1,0.3,0.1,0.5,0.2,0.7c-0.1-0.7-0.2-1.3-0.3-2c0.3,2.8,0,5.5,1.6,7.9
				c1.5,2.2,3.7,3.7,6.5,3.7c2.5,0,5.3-1.4,6.5-3.7c3-5.7,3.5-11.9,2.3-18.2c-1-5.3-3.6-10.4-6.3-15c-2.9-4.9-10-4.8-13,0
				c-4.9,8.2-9.8,16.3-14.7,24.5c-2,3.4-0.9,8.4,2.7,10.3C722.3-115.4,726.8-116.4,729-120L729-120z"/>
		</g>
	</g>
	<g>
		<g>
			<path d="M735.1-170.2c-0.8,5.2-1.8,10.3-3.5,15.3c-1.8,5-4.5,9.4-7.8,13.5c-3.2,3.9-6.5,8-7.8,13c-1.1,4.5-0.3,9.3,3.1,12.7
				c2.9,2.9,6.9,4.3,10.8,5.1c4.4,0.9,9.5,1.4,13.8-0.1c4.4-1.6,7.3-5.5,8.2-10.1c1.1-5.5-0.5-11.1-1.9-16.4
				c-3.2-12.2-7.5-24.3-7-37.1c0.1-1.9-2.9-1.9-3,0c-0.4,10.5,2.3,20.6,5.1,30.6c1.4,5,3,10,3.8,15.1c0.7,4.5,0.5,9.8-3,13.1
				c-3.3,3.2-8.5,2.8-12.7,2.3c-3.7-0.4-7.5-1.4-10.6-3.5c-3.5-2.5-4.8-6.6-3.8-10.8c1.1-4.8,4.3-8.5,7.3-12.2
				c3.4-4.2,6.2-8.6,8-13.6c1.9-5.2,3-10.6,3.8-16.1C738.3-171.3,735.4-172.1,735.1-170.2L735.1-170.2z"/>
		</g>
	</g>
	<g>
		<g>
			<path class="st2" d="M608.7-186c0.4,1.5,0.7,3.1,1,4.6c-0.1-0.7-0.2-1.3-0.3-2c0.4,3.3,0.4,6.6,0,9.8c0.1-0.7,0.2-1.3,0.3-2
				c-0.5,3.1-1.3,6.2-2.5,9.1c0.3-0.6,0.5-1.2,0.8-1.8c-2.2,5.2-6,9.5-8.4,14.6c-1.7,3.5-3.1,7.4-3,11.4c0.1,4.4,1.9,8.6,5.3,11.4
				c5.7,4.6,13.1,6.6,20.3,5.3c6.9-1.3,12.3-7.3,13.4-14.1c0.6-3.9,0.5-7.7-0.6-11.5c-1.1-3.9-2.9-7.5-4.5-11.2
				c0.3,0.6,0.5,1.2,0.8,1.8c-1.3-3.1-2.2-6.3-2.7-9.6c0.1,0.7,0.2,1.3,0.3,2c-0.4-3.2-0.5-6.5-0.6-9.7c-0.1-3.8-2.8-6.9-6.5-7.4
				c-1.6-0.2-3.4,0-4.8,0.9c-1.8,1.1-2.7,2.6-3.5,4.5c-3,7.3-4.7,15-5.6,22.8c-0.4,3.6-0.6,7.3-0.5,10.9c0.1,3.2,0.5,6.4,2.9,8.8
				c3,3,7.3,3.4,11,1.5c3.5-1.8,4.8-7,2.7-10.3c-2.3-3.6-6.5-4.6-10.3-2.7c-0.1,0-0.2,0.1-0.3,0.1c0.6-0.3,1.2-0.5,1.8-0.8
				c-0.1,0-0.2,0-0.3,0.1c0.7-0.1,1.3-0.2,2-0.3c-0.1,0-0.2,0-0.3,0c0.7,0.1,1.3,0.2,2,0.3c-0.1,0-0.2,0-0.3-0.1
				c0.6,0.3,1.2,0.5,1.8,0.8c-0.5-0.2-0.4-0.1,0.2,0.3c0.5,0.4,1,0.8,1.3,1.3c0.3,0.6,0.5,1.2,0.8,1.8c-0.1-0.4-0.2-0.7-0.3-1.2
				c0.1,0.7,0.2,1.3,0.3,2c-0.4-4.7,0-9.6,0.7-14.2c-0.1,0.7-0.2,1.3-0.3,2c0.9-6.6,2.6-13,5.1-19.2c-4.9-0.7-9.8-1.3-14.7-2
				c0.1,4.8,0.3,9.7,1.3,14.4c1,4.6,3.1,8.9,5,13.3c-0.3-0.6-0.5-1.2-0.8-1.8c1,2.4,1.9,4.9,2.3,7.5c-0.1-0.7-0.2-1.3-0.3-2
				c0.2,1.6,0.2,3.1,0.1,4.7c0.1-0.7,0.2-1.3,0.3-2c-0.2,1.2-0.5,2.3-0.9,3.4c0.3-0.6,0.5-1.2,0.8-1.8c-0.2,0.5-0.4,0.9-0.7,1.4
				c-0.7,1.1,0.5-0.4,0.5-0.5c0,0.2-0.5,0.5-0.6,0.6c-0.2,0.2-0.3,0.3-0.5,0.5c-0.6,0.6,1.5-1,0.5-0.4c-0.5,0.3-1,0.6-1.5,0.8
				c0.6-0.3,1.2-0.5,1.8-0.8c-0.9,0.4-1.8,0.6-2.7,0.7c0.7-0.1,1.3-0.2,2-0.3c-1.3,0.2-2.7,0.1-4,0c0.7,0.1,1.3,0.2,2,0.3
				c-1.6-0.2-3.1-0.7-4.6-1.3c0.6,0.3,1.2,0.5,1.8,0.8c-0.3-0.1-3.5-1.6-3.4-1.8c0-0.1,1.4,1.2,0.6,0.4c-0.2-0.2-0.5-0.5-0.7-0.7
				c-0.6-0.6,0.9,1.5,0.4,0.5c-0.2-0.3-0.4-0.7-0.5-1c0.3,0.6,0.5,1.2,0.8,1.8c-0.3-0.7-0.5-1.4-0.5-2.1c0.1,0.7,0.2,1.3,0.3,2
				c-0.1-0.9,0-1.8,0.1-2.7c-0.1,0.7-0.2,1.3-0.3,2c0.3-1.6,0.7-3.2,1.3-4.7c-0.3,0.6-0.5,1.2-0.8,1.8c1.4-3.3,3.4-6.2,5.3-9.1
				c2.2-3.4,4-7.1,5.3-11c2.7-8,2.8-16.8,0.6-24.9c-1-3.8-5.4-6.5-9.2-5.2C610-194,607.6-190.1,608.7-186L608.7-186z"/>
		</g>
	</g>
	<g>
		<g>
			<path class="st2" d="M534.6-122.8c0,0.3,0.1,0.6,0.1,0.9c-0.1-0.7-0.2-1.3-0.3-2c0.4,3,0.2,5.9-0.2,8.9c0.1-0.7,0.2-1.3,0.3-2
				c-1.7,11.8-6.9,23.8-3,35.8c1.2,3.7,3.1,7.1,6.4,9.3c3.7,2.5,8.9,2.3,12.6-0.1c6.2-4,7.9-12.3,8.1-19.1c0.1-3.4-0.4-7-1.3-10.3
				c-1-3.5-2.7-6.8-4.1-10.1c0.3,0.6,0.5,1.2,0.8,1.8c-0.8-2-1.5-4-1.8-6.1c0.1,0.7,0.2,1.3,0.3,2c-0.4-3.1-0.3-6.3-0.1-9.4
				c0.2-3.9-3.6-7.7-7.5-7.5c-4.3,0.2-7.3,3.3-7.5,7.5c-0.2,4.2-0.3,8.3,0.5,12.5c0.8,4,2.8,7.6,4.4,11.3c-0.3-0.6-0.5-1.2-0.8-1.8
				c1,2.5,1.7,5,2.1,7.7c-0.1-0.7-0.2-1.3-0.3-2c0.3,2.5,0.3,5,0,7.5c0.1-0.7,0.2-1.3,0.3-2c-0.3,2.1-0.8,4.3-1.6,6.3
				c0.3-0.6,0.5-1.2,0.8-1.8c-0.2,0.4-0.3,0.7-0.5,1.1c-0.2,0.3-0.9,1.3-0.1,0.2c0.9-1.3-0.2,0.2-0.2,0.1c-0.1-0.1,1.8-1.1,0.2-0.4
				c0.6-0.3,1.2-0.5,1.8-0.8c-0.5,0.2-0.9,0.3-1.5,0.4c0.7-0.1,1.3-0.2,2-0.3c-0.3,0-0.5,0-0.8,0c0.7,0.1,1.3,0.2,2,0.3
				c-0.4-0.1-0.7-0.1-1.1-0.3c0.6,0.3,1.2,0.5,1.8,0.8c-0.8-0.4-0.7-0.8,0.3,0.4c0-0.1-0.7-0.8-0.8-0.8c0.4,0,1.1,1.7,0.3,0.3
				c-0.2-0.3-0.3-0.7-0.5-1c0.3,0.6,0.5,1.2,0.8,1.8c-0.7-1.7-1.2-3.6-1.5-5.4c0.1,0.7,0.2,1.3,0.3,2c-0.4-3.1-0.3-6.2,0.1-9.3
				c-0.1,0.7-0.2,1.3-0.3,2c0.7-4.9,2-9.6,3-14.5c0.6-3,1.1-6,1.3-9c0.2-3-0.1-6-0.5-9c-0.3-1.7-2-3.6-3.5-4.5
				c-1.6-0.9-4-1.3-5.8-0.8c-1.8,0.6-3.6,1.7-4.5,3.4C534.4-126.7,534.3-124.9,534.6-122.8L534.6-122.8z"/>
		</g>
	</g>
	<g>
		<g>
			<path class="st2" d="M652.4-91.1c0.2,0.7,0.3,1.5,0.5,2.3c-0.1-0.7-0.2-1.3-0.3-2c0.2,1.8,0.2,3.6,0,5.5c0.1-0.7,0.2-1.3,0.3-2
				c-0.7,5.4-2.8,10.4-3.6,15.8c-0.5,3.6-0.7,6.9-0.1,10.5c0.5,3.3,1.9,6.7,4.2,9.1c3.4,3.7,9.2,3.8,13.2,1.2c3.2-2,5.3-5.1,6.4-8.6
				c2-6.5-0.9-13-2.6-19.1c-1.7-6.3-3-12.8-3.9-19.3c0.1,0.7,0.2,1.3,0.3,2c-0.1-0.9-0.3-1.9-0.4-2.8c-0.2-2.1-0.7-3.8-2.2-5.3
				c-1.3-1.3-3.4-2.3-5.3-2.2c-1.9,0.1-4,0.7-5.3,2.2c-1.3,1.4-2.4,3.4-2.2,5.3c0.7,6.1,1.7,12.3,3.1,18.3c0.6,2.7,1.3,5.4,2.1,8.1
				c0.8,2.8,1.8,5.5,2.2,8.3c-0.1-0.7-0.2-1.3-0.3-2c0.1,1.1,0.2,2.1,0,3.2c0.1-0.7,0.2-1.3,0.3-2c-0.1,0.7-0.3,1.4-0.5,2
				c0.3-0.6,0.5-1.2,0.8-1.8c-0.2,0.4-0.4,0.8-0.6,1.3c-0.5,1.1,1.3-1.3,0.3-0.4c-0.7,0.7-0.8,0.3,0.5-0.3c-0.4,0.2-0.8,0.5-1.2,0.7
				c0.6-0.3,1.2-0.5,1.8-0.8c-0.3,0.1-0.6,0.2-1,0.3c0.7-0.1,1.3-0.2,2-0.3c-0.3,0-0.5,0.1-0.8,0c0.7,0.1,1.3,0.2,2,0.3
				c-0.3,0-0.5-0.1-0.7-0.2c0.6,0.3,1.2,0.5,1.8,0.8c0.7,0.5,1.3,1,1.7,1.8c-0.1-0.2-0.3-0.4-0.4-0.6c-0.3-0.5-0.5-1-0.7-1.5
				c0.3,0.6,0.5,1.2,0.8,1.8c-0.4-1.1-0.7-2.3-0.9-3.5c0.1,0.7,0.2,1.3,0.3,2c-0.3-2.1-0.2-4.1,0.1-6.1c-0.1,0.7-0.2,1.3-0.3,2
				c0.6-4.1,1.9-8,2.9-12c1.2-5.2,1.8-10.6,0.4-15.8c-1-3.8-5.4-6.5-9.2-5.2C653.8-99,651.3-95.1,652.4-91.1L652.4-91.1z"/>
		</g>
	</g>
	<g>
		<g>
			<path d="M613-189.6c-0.3,5.8-1.3,11.5-2.9,17.1c-1.6,5.6-3.9,10.8-6.5,16c-2.4,4.9-4.7,9.9-5.3,15.3c-0.6,5,0.3,10.3,3.6,14.3
				c3,3.7,7.5,5.9,12.1,6.8c4.6,0.8,9.9,0.6,13.5-2.8c3.5-3.3,4.1-8.6,3.1-13.1c-1.2-5.5-4.3-10.5-6.5-15.6
				c-5.1-11.5-8.7-24.4-6-37.1c0.4-1.9-2.5-2.7-2.9-0.8c-2.2,10.5-0.4,21.2,3.1,31.1c1.8,5.1,4,10,6.4,14.9
				c2.1,4.3,4.3,9.2,3.2,14.1c-2.4,9.9-16.3,7.4-22.1,2.2c-8.3-7.5-3.5-19.4,0.6-27.7c2.6-5.4,5-10.8,6.7-16.5
				c1.7-5.9,2.7-12,3-18.1C616.1-191.6,613.1-191.6,613-189.6L613-189.6z"/>
		</g>
	</g>
	<g>
		<g>
			<path d="M541.2-134c0.9,9.6-0.6,19.1-4.1,28.1c-3.1,8-6.8,16.1-5.5,24.9c0.5,3.7,2,7.2,4.5,9.9c2.6,2.7,6.5,4.6,10.2,3.2
				c3.2-1.2,5.3-4.3,6.3-7.4c1.2-3.9,0.2-8.1-1-11.9c-0.8-2.4-1.7-4.8-2.3-7.2c-0.6-2.6-0.9-5.3-1-7.9c-0.1-5.4,0.7-10.9,1.5-16.2
				c0.3-1.9-2.6-2.7-2.9-0.8c-1.3,8.6-2.7,17.6-0.4,26.2c1.7,6.5,6.7,15.1,1,21c-2.5,2.6-6,2.1-8.6-0.3c-2.5-2.4-3.9-5.7-4.4-9
				c-1.2-8.1,2.5-15.7,5.4-23.1c3.6-9.4,5.3-19.3,4.3-29.3C544.1-135.9,541-135.9,541.2-134L541.2-134z"/>
		</g>
	</g>
	<g>
		<g>
			<path d="M656.9-108.1c0.6,9.4-0.4,18.8-2.9,27.9c-1.3,4.5-3.3,8.9-4.1,13.5c-0.8,4.5-0.6,9,0.5,13.4c1,3.8,2.7,7.3,7,8
				c3.4,0.6,7.6-0.1,10.7-1.6c4-1.9,4.3-7.2,3.8-11c-0.6-4.6-2.4-8.9-3.5-13.3c-2.7-10.3-3.4-21-2.2-31.6c0.2-1.9-2.8-1.9-3,0
				c-1,8.6-0.7,17.3,0.8,25.8c0.8,4.3,1.9,8.5,3.2,12.6c1.2,3.9,2.6,8.3,1.5,12.4c-0.6,2-1.9,2.6-3.8,3.1c-1.6,0.4-3.2,0.8-4.8,0.8
				c-1.5,0-3-0.1-4.2-1c-1.5-1.2-2-3.4-2.5-5.2c-1-4.1-1.1-8.4-0.3-12.5c0.9-4.3,2.8-8.4,3.9-12.6c2.6-9.3,3.6-19.1,3-28.7
				C659.7-110,656.7-110,656.9-108.1L656.9-108.1z"/>
		</g>
	</g>
</g>
</svg>
