<?xml version="1.0" encoding="utf-8"?>
<!-- Generator: Adobe Illustrator 24.1.2, SVG Export Plug-In . SVG Version: 6.00 Build 0)  -->
<svg version="1.1" xmlns="http://www.w3.org/2000/svg" xmlns:xlink="http://www.w3.org/1999/xlink" x="0px" y="0px"
	 viewBox="0 0 1200 800" style="enable-background:new 0 0 1200 800;" xml:space="preserve">
<style type="text/css">
	.st0{fill:none;stroke:#000000;stroke-width:5;stroke-miterlimit:10;}
	.st1{fill:#66B3DD;}
</style>
<g id="Lag_1">
	<g>
		<path d="M633.14,307.06c5.3,0.82,8.22-2.68,11.27-5.87c0.58-0.61,1.13-1.6,1.1-2.4c-0.07-1.96-0.31-3.96-0.84-5.85
			c-0.26-0.94-1.3-1.66-1.99-2.48c-2.88,0.62-6.07-1.15-8.41,1.77c-1.5-3.93,2.03-4.49,4.02-6.22c-2.3-5.3-4.25-10.74-6.99-15.74
			c-1.5-2.72-2.78-6.09-6.26-7.3c-1.62-2.23-3.97-3.57-6.38-4.61c-2.1-0.91-4.25-2.1-6.71-1.78c-1,0.13-1.75-0.26-2.58-0.79
			c-1.38-0.87-2.92-1.49-4.4-2.22c-0.14-2.22-2.58-2.01-3.59-3.4c-1.04-1.43-2.52-2.54-3.73-3.87c-0.3-0.33-0.31-0.92-0.53-1.64
			c-3.79,2.11-7.29,4.29-10.98,6.06c-5.52,2.65-11.16,5.06-16.78,7.49c-3.4,1.47-6.81,2.92-10.32,4.08
			c-1.18,0.39-1.62,0.96-2.18,1.93c-3.08,5.33-5.98,10.75-8.61,16.32c-1.25,2.66-2.27,5.48-3.89,7.89
			c-1.22,1.81-1.39,3.37-0.73,5.26c0.07,0.21-0.1,0.5-0.16,0.75c-0.9,1.1-2.1-1.58-2.94,0.24c-0.51-0.46-1.02-0.91-1.64-1.46
			c-3.43,3.06-5.21,7.07-5.22,11.95c0,1.57,0.42,3.09,1.63,3.83c1.17,0.71,2.84,1.14,4.18,0.94c2.52-0.39,5.17-0.55,7.45-1.96
			c0.3-0.19,0.81-0.03,1.25-0.03c0.88,1.03,0.66,1.96-0.29,2.8c-1.26,1.11-1.13,2.05-0.15,3.45c2.59,3.72,5.09,7.52,7.33,11.45
			c2.22,3.89,5.65,6.12,9.49,7.99c3.21,1.56,6.59,1.93,10.09,1.66c0.55-0.04,1.11-0.04,1.66,0c1.78,0.15,3.74,1.88,3.76,3.61
			c0.01,1.41,0.69,3.04-0.75,4.22c0.31,2.31-0.64,4.46-0.82,6.69c-0.2,2.52,0.02,5.03-0.79,7.55c-0.7,2.21-0.74,4.63-1.08,7.09
			c-3.69-0.94-1.61-3.97-2.55-5.83c-4.02,2.16-7.98,4.43-12.08,6.45c-3.08,1.52-6.29,2.82-9.52,4.01
			c-3.48,1.29-7.04,2.35-10.57,3.47c-2.88,0.92-5.89,1.18-8.85,1.56c-0.94,0.12-2,1.43-3.06,0.15c-0.12-0.14-0.69-0.15-0.77-0.03
			c-1.52,2.3-3.86,1.54-5.97,1.64c-0.28,0.01-0.63-0.11-0.82,0.02c-2.14,1.52-4.35,0.6-6.34-0.09c-2.78-0.95-5.58-0.67-8.34-0.77
			c-2.59-1.84-4.3-4.36-5.5-7.19c-0.74-1.76-1.6-3.67-1.59-5.51c0.02-3.19-0.28-6.35,0.54-9.65c0.9-3.62,2.7-6.46,4.86-9.19
			c3.58-4.53,8.67-5.7,14.25-5.85c0-1.22,0-2.43,0-3.76c-3.01-3.04-6.16-8.29-7.18-12.18c-0.17-0.64-0.13-1.34-0.13-2.02
			c-0.02-2.07,0.01-4.14-0.01-6.21c-0.03-2.15,0.61-3.99,1.47-6.02c1.42-3.37,3.09-6.5,5.17-9.45c0.53-0.76,1.08-1.53,1.75-2.17
			c3.72-3.59,7.47-7.14,11.51-10.99c0-6.04,0.04-12.51-0.02-18.98c-0.02-2.42,0.25-4.75,0.8-7.12c1.15-4.89,2.45-9.69,4.91-14.13
			c2.73-4.96,5.26-10.09,9.71-13.77c5.51-4.55,11.42-8.31,18.25-10.93c7.1-2.73,14.22-2.11,21.4-2.3c0.38-0.01,0.84,0.05,1.12,0.26
			c1.43,1.08,3.07,1.24,4.78,1.53c2.47,0.42,4.36,2.29,6.25,3.8c1.66,1.33,3.19,1.36,4.82,0.64c2.37-1.04,4.8-1.33,7.35-1.29
			c4.14,0.08,8.29,0.12,12.42-0.03c1.43-0.05,2.62,0.4,3.78,0.93c1.41,0.64,2.64,1.47,4.28,1.74c1.15,0.19,2.22,1.35,3.17,2.25
			c2.21,2.09,4.51,4.12,6.41,6.47c2.26,2.78,7.56,10.26,9.19,15.24c1.07,3.25,2.51,6.42,3.43,9.75c0.82,2.98,1.4,6.04,2.27,9.01
			c0.62,2.11,0.43,4.39,1.5,6.42c0.34,0.65,0.12,1.61,0.12,2.43c0.01,3.04-0.21,6.09,0.07,9.11c0.24,2.63-0.99,4.98-0.93,7.53
			c0.01,0.57-0.8,1.19-0.74,1.72c0.56,4.78-1.2,9.4-0.9,14.16c0.23,3.66,1.54,6.85,3.92,9.56c3.04,3.47,6.23,6.82,9.35,10.22
			c1.89,2.05,1.86,4.78,2.45,7.26c0.36,1.51,0.19,3.07,0.71,4.67c0.45,1.39-0.29,3.36-0.98,4.85c-0.58,1.26-0.23,3.09-1.97,3.74
			c-0.32,2.21-2.72,2.86-3.55,4.74c-0.77,1.74-2.39,2.67-3.96,3.73c-1.69,1.14-3.04,2.8-4.43,4.34c-1.37,1.52-2.86,2.72-4.89,3.23
			c-0.87,0.22-1.82,0.5-3.73,0.31c-1.78-0.18-3.37,0.5-5.05,0.78c-2.34,0.4-4.85-0.41-7.1,0.89c-1.98-0.94-4.12,0.72-5.9-0.08
			c-2.91-1.31-6.11-1.89-8.85-3.65c-3.29-2.1-6.37-4.41-8.97-7.34c-1.32-1.48-2.89-2.71-3.48-4.79c-0.2-0.71-1.15-1.21-2.13-2.17
			c-0.5,2.35-0.04,4.28-1.05,5.97c-0.29,0.48,0.29,1.47,0.46,2.22c0.44,1.98,0.83,3.96-0.8,5.66c-1.61-1.09-2.17-2.43-2.35-4.38
			c-0.18-1.94-0.84-3.86-0.71-5.88c0.06-0.96-0.28-2.05,0.06-2.88c1.12-2.68,0.89-5.65,1.96-8.3c0.82-2.03,0.49-4.29,1.94-6.27
			c1.38-1.88,2.27-3.78,5.07-3.82c1.62-0.03,3.1-1.22,4.6-1.83c1.53-0.62,3.31-1.56,4.64-2.76c3.97-3.59,7.35-7.68,10.08-12.36
			c1.08-1.85,1.62-3.57,1.5-5.61C633.11,308.7,633.14,308.03,633.14,307.06z"/>
	</g>
	<g>
		<path d="M590.83,327.74c-1.91,0-3.83-0.04-5.74,0.02c-0.84,0.03-1.54-0.07-1.89-0.91c-0.35-0.85-0.04-1.9,0.8-2.52
			c1.17-0.86,2.62-1.11,3.97-1.11c1.83,0.01,3.61-0.61,5.51-0.18c1.01,0.23,2.19-0.38,3.3-0.42c1.43-0.05,1.86,0.43,1.95,1.81
			c0.03,0.38,0.01,0.77-0.01,1.15c-0.07,1.85-0.37,2.18-2.16,2.21c-1.91,0.03-3.82,0.01-5.74,0.01
			C590.83,327.78,590.83,327.76,590.83,327.74z"/>
	</g>
	<g>
		<path d="M583.23,289.86c-2.48,0.19-4.65,0.35-6.82,0.52c-0.16,2.47-0.31,4.82-0.46,7.18c-0.02,0.33,0.14,0.75-0.02,0.97
			c-0.46,0.67-0.21,1.83-1.4,2c-1.47,0.21-1.11-1.11-1.41-1.77c-0.82-1.83-1.7-3.66-0.94-5.8c0.2-0.56-0.06-1.27-0.13-2.24
			c-1.13,0.19-2.26,0.09-3.28,0.27c-2.2,0.38-3.56,0.28-5.96,0.42c-1.29,0.08-2.72,0.1-4.02,0.11c-1.34,0.01-1.98,0.07-2.02-0.95
			c-0.04-1.04,1.08-0.34,2.04-0.55c1.69-0.35,3.62-0.22,5.33-0.44c5.2-0.67,10.14-0.51,15.35-1.12c0.55-0.06,1.5-0.42,2.05-0.44
			c1.21-0.04,1.7-0.57,1.98,0.98C583.64,289.63,583.2,288.85,583.23,289.86z"/>
		<g>
			<path d="M583.23,288.36c-2.27,0.17-4.55,0.35-6.82,0.52c-0.85,0.06-1.44,0.64-1.5,1.5c-0.12,1.92-0.25,3.84-0.37,5.76
				c-0.05,0.74,0.02,1.53-0.17,2.2c-0.06,0.21-0.25,0.51-0.23,0.73c-0.05,0.16-0.03,0.15,0.06-0.03c0.25,0.41,0.44,0.52,0.57,0.33
				c0.41-0.41-1.09-3.15-1.21-3.6c-0.26-0.96-0.1-1.62,0.1-2.57c0.18-0.85-0.02-1.64-0.11-2.49c-0.11-1.06-0.86-1.59-1.9-1.45
				c-1.01,0.14-2.04,0.09-3.06,0.24c-0.79,0.11-1.57,0.22-2.36,0.26c-1.73,0.1-3.47,0.16-5.2,0.21c-0.86,0.02-1.73,0.04-2.59,0.04
				c0.03,0-0.65-0.03-0.66-0.01c0.63,0.35,0.65,0.69,0.06,1.01c-0.55,0.35-0.61,0.51-0.18,0.48c0.55,0.25,1.42-0.04,1.97-0.11
				c0.98-0.13,1.97-0.14,2.96-0.19c1.96-0.1,3.91-0.4,5.88-0.53c1.9-0.12,3.81-0.19,5.71-0.3c1.89-0.1,3.83-0.16,5.69-0.48
				c0.56-0.1,1.09-0.3,1.65-0.39c0.26-0.04,0.74,0.02,0.97-0.11c0.56-0.31-0.68,0.05-0.44-0.54c0.35-0.35,0.7-0.7,1.05-1.05
				c-1,0.29-1.34,1.05-1.39,2.04c-0.09,1.93,2.91,1.93,3,0c-0.01,0.13-1.03,0.82-0.81,0.85c0.14,0.02,0.41-0.19,0.51-0.27
				c0.27-0.21,0.48-0.52,0.57-0.86c0.18-0.67-0.08-1.59-0.43-2.16c-0.75-1.23-2.06-1.03-3.28-0.88c-0.72,0.08-1.4,0.33-2.11,0.45
				c-1.16,0.19-2.37,0.23-3.55,0.31c-2.14,0.14-4.29,0.21-6.43,0.34c-2.2,0.13-4.39,0.46-6.59,0.57c-1.04,0.05-2.09,0.07-3.13,0.2
				c-0.76,0.1-1.42,0.06-2.17,0.08c-1.64,0.04-2.44,1.67-1.82,3.12c0.62,1.46,2.17,1.43,3.53,1.42c4.47-0.04,9.01-0.25,13.44-0.85
				c-0.63-0.48-1.27-0.96-1.9-1.45c0.06,0.55,0.25,1.18,0.2,1.73c-0.06,0.61-0.31,1.21-0.34,1.84c-0.07,1.27,0.28,2.52,0.76,3.69
				c0.33,0.81,0.53,1.57,0.78,2.39c0.29,0.92,1.04,1.54,2,1.65c2.11,0.24,3.01-1.48,3.47-3.23c0.14-0.54,0.04-1.14,0.06-1.7
				c0.03-0.71,0.09-1.42,0.13-2.12c0.1-1.53,0.2-3.06,0.29-4.58c-0.5,0.5-1,1-1.5,1.5c2.27-0.17,4.55-0.35,6.82-0.52
				C585.14,291.21,585.15,288.21,583.23,288.36z"/>
		</g>
	</g>
	<path d="M600.44,274.87c-1.28,0.82-2.15,1.77-1.71,3.42c0.05,0.21,0,0.44,0,0.66c0.01,0.98-0.35,1.89-1.36,1.9
		c-1.05,0.01-1.37-0.93-1.33-1.89c0.17-4.56,2.19-8.09,6-10.58c0.54-0.35,1.19-0.52,1.75-0.84c4.04-2.24,8.35-0.23,10.77,2.79
		c1.14,1.42,2.65,2.75,1.99,4.89c-0.2,0.65-0.65,1.23-1.06,1.99c-1.26-1.42-2.12-2.39-2.99-3.37c-2.76-3.12-5.82-2.6-9.19-1.08"/>
	<path d="M581.69,310.04c-0.56-1.96,0.62-2.7,1.61-3.22c4.09-2.14,8.45-3.24,13.1-2.74c1.46,0.16,2.61,1.58,2.29,3
		c-0.2,0.9-0.69,1.81-1.28,2.53c-0.69,0.85-1.52,0.08-2.34-0.01c-2.16-0.24-4.45-0.51-6.51-0.01
		C586.25,310.15,584.05,309.88,581.69,310.04z"/>
	<path d="M607.98,295.49c0,1.53,0.04,3.07-0.01,4.6c-0.04,1.09-0.28,2.2-1.45,2.62c-0.87,0.31-1.98-0.64-2.48-2.13
		c-0.51-1.51-1.05-2.97-0.3-4.68c0.45-1.02,0.11-2.37,0.28-3.55c0.21-1.36,0.5-2.73,0.95-4.03c0.29-0.85,1.15-0.9,1.87-0.3
		c0.79,0.66,1.27,1.41,1.21,2.54c-0.09,1.64-0.02,3.29-0.02,4.93C608.01,295.49,607.99,295.49,607.98,295.49z"/>
</g>
<g id="Lag_2">
	<g>
		<path d="M522.2,383.88c-0.96,8.96-0.95,18.07-0.44,27.16c0.51,9.1,1.5,18.22,2.49,27.35c0.99,9.14,1.98,18.31,2.47,27.53
			c0.49,9.22,0.47,18.51-0.57,27.7l-1.66-0.16c0.75-9.1,0.5-18.26-0.26-27.37c-0.76-9.12-2.01-18.19-3.28-27.3
			c-1.26-9.1-2.54-18.24-3.34-27.47c-0.79-9.23-1.1-18.57-0.38-27.92L522.2,383.88z"/>
	</g>
	<g>
		<g>
			<path d="M524.75,491.91c-6.05,3.58-12.97,8.19-13.36,15.97c-0.08,1.63,0.19,3.34,1.88,4.02c1.55,0.62,3.5,0.44,5.09,0.12
				c3.62-0.73,6.78-2.95,9.7-5.09c-0.61-0.79-1.21-1.57-1.82-2.36c-2.37,2.96-4.09,6.38-4.89,10.1c-0.4,1.85-0.6,3.75-0.56,5.64
				c0.04,1.57,0.1,3.91,2.21,3.95c1.55,0.03,3.26-1.48,4.37-2.42c1.29-1.1,2.39-2.41,3.36-3.8c2.01-2.86,3.38-6.11,4.72-9.31
				c-0.96-0.27-1.93-0.53-2.89-0.8c-1.23,3.82-2.06,7.74-2.5,11.72c-0.17,1.54-0.44,3.49,1.2,4.38c1.51,0.82,3.33-0.11,4.67-0.87
				c5.71-3.23,8.67-9.53,11.09-15.33c0.74-1.78-2.16-2.56-2.89-0.8c-1.88,4.52-4.13,9.4-8.09,12.47c-0.46,0.36-0.96,0.68-1.46,0.97
				c-0.44,0.26-1.23,0.45-1.59,0.78c-0.1,0.03-0.2,0.06-0.31,0.09c0.19,0.31,0.27,0.36,0.24,0.13c0.08-0.26,0.04-0.63,0.06-0.91
				c0.07-0.79,0.16-1.58,0.27-2.37c0.45-3.22,1.21-6.39,2.21-9.48c0.61-1.89-2.17-2.52-2.89-0.8c-1.98,4.75-4.29,10.17-8.91,12.92
				c-0.12,0.07-0.75,0.3-0.8,0.44c0.76,0.76,1.1,0.89,1.01,0.39c-0.02-0.18-0.03-0.37-0.04-0.55c-0.04-0.68-0.05-1.35-0.03-2.03
				c0.05-1.49,0.26-2.97,0.63-4.42c0.73-2.9,2.07-5.65,3.94-7.99c0.96-1.2-0.32-3.46-1.82-2.36c-2.24,1.65-4.58,3.37-7.22,4.3
				c-1.28,0.45-2.61,0.72-3.97,0.63c-0.77-0.05-0.97,0-0.98-0.78c-0.01-0.75,0.08-1.48,0.26-2.2c1.41-5.75,6.9-8.98,11.63-11.78
				C527.92,493.52,526.41,490.92,524.75,491.91L524.75,491.91z"/>
		</g>
	</g>
	<g>
		<g>
			<path d="M540.25,395.2c-0.24,11.07,0.79,22.17,1.68,33.19c0.89,11.1,2.22,22.31,2.08,33.46c-0.1,7.59-0.98,15.52,2.7,22.49
				c0.9,1.71,3.49,0.19,2.59-1.51c-3.18-6.03-2.47-13.11-2.31-19.68c0.12-5.27-0.22-10.56-0.58-15.82
				c-0.79-11.62-1.92-23.22-2.63-34.84c-0.35-5.75-0.64-11.53-0.51-17.29C543.29,393.27,540.29,393.27,540.25,395.2L540.25,395.2z"
				/>
		</g>
	</g>
	<g>
		<g>
			<path d="M539.97,404.93c6.74-2.21,13.64-4.33,20.76-4.79c3.27-0.22,6.58-0.11,9.8,0.49c3.32,0.63,6.27,1.84,9.28,3.34
				c2.94,1.46,5.83,2.06,9.08,1.48c3.15-0.56,6.08-2.05,8.92-3.44c5.88-2.87,12.01-4.79,18.57-5.2c7.18-0.45,14.34,0.73,20.99,3.47
				c1.78,0.74,2.56-2.17,0.8-2.89c-12.02-4.96-25.96-4.87-37.93,0.2c-5.77,2.44-11.94,7.08-18.36,4.08
				c-3.06-1.43-5.95-2.88-9.27-3.64c-3.31-0.76-6.73-1.05-10.12-0.96c-8.02,0.22-15.77,2.51-23.34,4.99
				C537.34,402.63,538.13,405.53,539.97,404.93L539.97,404.93z"/>
		</g>
	</g>
	<g>
		<g>
			<path d="M542.91,427.83c13.39,1.18,26.88,2.92,40.33,2.85c11.59-0.07,23.05-1.5,34.36-4.02c6.66-1.49,13.25-3.26,19.85-5.01
				c1.86-0.5,1.07-3.39-0.8-2.89c-11.22,2.98-22.47,6.03-34,7.61c-12.43,1.7-24.9,1.5-37.38,0.44c-7.46-0.63-14.91-1.31-22.37-1.97
				C540.99,424.66,541,427.66,542.91,427.83L542.91,427.83z"/>
		</g>
	</g>
	<g>
		<g>
			<path d="M583.85,604.64c1.38-13.84,2.42-27.72,2.9-41.63c0.42-12.28,0.41-24.57,0.37-36.86c-0.03-8.2-0.06-16.4-0.04-24.6
				c0-1.93-3-1.93-3,0c-0.06,26.02,0.51,52.05-1.14,78.04c-0.53,8.36-1.25,16.71-2.09,25.04
				C580.66,606.56,583.66,606.55,583.85,604.64L583.85,604.64z"/>
		</g>
	</g>
	<g>
		<g>
			<path d="M605.11,504.14c-1.99,31.85-2.2,63.8-0.63,95.67c0.44,8.92,1.03,17.83,1.74,26.72c0.15,1.91,3.16,1.93,3,0
				c-2.57-31.8-3.37-63.75-2.37-95.64c0.28-8.92,0.7-17.84,1.26-26.75C608.23,502.21,605.23,502.22,605.11,504.14L605.11,504.14z"/>
		</g>
	</g>
	<g>
		<path d="M658.99,385.46c-0.41,2.26-0.74,4.52-1.11,6.78l-0.94,6.81c-0.61,4.54-1.09,9.1-1.52,13.66c-0.95,9.12-1,18.31-1.2,27.46
			c0,4.58-0.23,9.15-0.46,13.73l-0.27,6.86l-0.2,6.87c-0.26,9.16-0.39,18.32-0.43,27.49l-1.28,0.03c-0.53-9.17-0.8-18.36-0.87-27.55
			l0.01-6.89l0.07-6.9c0.05-2.3,0.07-4.6,0.16-6.89c0.08-2.3,0.29-4.59,0.45-6.88c0.68-9.17,1.86-18.3,2.47-27.46l0.55-6.87
			c0.2-2.29,0.38-4.58,0.54-6.87c0.38-4.58,0.75-9.16,1.06-13.75L658.99,385.46z"/>
	</g>
	<g>
		<g>
			<path d="M651.3,496.63c2.62,1.3,5.45,1.7,8.34,1.69c1.43,0,2.87-0.09,4.3-0.16c1.45-0.07,3.14-0.23,4.46,0.48
				c0.8,0.43,1.74,1.57,1.14,2.5c-0.55,0.85-1.97,1.05-2.87,1.25c-3.27,0.73-6.54,1.41-9.81,2.11c-1.77,0.38-1.17,2.79,0.4,2.95
				c3.08,0.31,7.46,0.8,8.88,4.05c0.39,0.89,0.49,1.88,0.51,2.84c0.01,0.35,0.13,1.18-0.07,1.49c0.35-0.53-0.9-0.24-1.26-0.24
				c-1.1,0-2.21-0.07-3.31-0.24c-1.07-0.16-2.2-0.62-3.27-0.58c-1.92,0.08-2.48,2.14-1.63,3.61c0.19,0.33,0.51,0.8,0.85,0.99
				c0.29,0.44,0.42,0.34,0.38-0.31c-0.22,0.05-0.44,0.08-0.66,0.1c-0.86,0.09-1.73,0.08-2.59,0c-3.72-0.35-7.1-2.3-9.42-5.2
				c-1.2-1.51-3.31,0.63-2.12,2.12c2.24,2.81,5.45,4.82,8.95,5.66c2.22,0.54,9.49,1.5,8.73-2.67c-0.11-0.61-0.79-1.84-1.42-2.07
				c-0.02-0.02-0.04-0.05-0.05-0.07c-0.26-0.37-0.54-0.1-0.82,0.83c0.07,0.09,0.57,0.14,0.68,0.16c0.61,0.14,1.21,0.25,1.83,0.34
				c1.93,0.29,4.47,0.72,6.36,0.1c1.96-0.63,1.92-2.98,1.82-4.66c-0.12-1.92-0.65-3.74-1.88-5.25c-2.5-3.06-6.81-3.66-10.49-4.02
				c0.13,0.98,0.27,1.96,0.4,2.95c3.68-0.79,7.56-1.32,11.14-2.45c2.93-0.92,4.97-3.64,3.34-6.66c-1.76-3.25-5.61-3.26-8.84-3.09
				c-3.51,0.18-7.25,0.46-10.49-1.15C651.09,493.18,649.57,495.77,651.3,496.63L651.3,496.63z"/>
		</g>
	</g>
	<g>
		<g>
			<path d="M544.12,470.08c1.78,10.07,3.16,20.2,4.13,30.38c0.97,10.2,1.58,20.44,2.28,30.66c1.42,20.49,2.85,40.97,4.2,61.47
				c0.77,11.57,1.51,23.15,2.23,34.72c0.12,1.92,3.12,1.93,3,0c-1.27-20.67-2.65-41.34-4.07-62c-1.41-20.54-2.57-41.13-4.35-61.64
				c-1-11.52-2.52-23-4.53-34.39C546.68,467.39,543.79,468.19,544.12,470.08L544.12,470.08z"/>
		</g>
	</g>
	<g>
		<g>
			<path d="M635.55,407.95c0.22,28.12-1.13,56.22-2.49,84.3c-1.35,28.07-2.67,56.16-2.92,84.26c-0.14,15.74,0.06,31.49,0.76,47.22
				c0.09,1.92,3.09,1.93,3,0c-1.25-28.07-0.89-56.19,0.1-84.27c0.99-28.1,2.67-56.16,3.72-84.26c0.59-15.75,0.96-31.5,0.83-47.26
				C638.53,406.02,635.53,406.01,635.55,407.95L635.55,407.95z"/>
		</g>
	</g>
	<g>
		<g>
			<path d="M638.72,407.55c0.06-1.64-0.22-3.31-0.45-4.93c-0.33-2.32-0.73-4.63-1.12-6.94c-0.38-2.24-0.76-4.49-1.05-6.74
				c-0.2-1.6-0.45-3.27-0.27-4.88c0.21-1.92-2.79-1.9-3,0c-0.17,1.57,0.06,3.2,0.26,4.76c0.3,2.37,0.68,4.73,1.08,7.09
				c0.38,2.3,0.78,4.59,1.12,6.9c0.23,1.56,0.49,3.17,0.43,4.75C635.65,409.48,638.65,409.48,638.72,407.55L638.72,407.55z"/>
		</g>
	</g>
	<g>
		<g>
			<path d="M547.12,478.37c22.65,1.19,45.41,2.15,68.04,0.1c6.36-0.58,12.7-1.4,18.99-2.49c1.9-0.33,1.09-3.22-0.8-2.89
				c-22.17,3.85-44.77,4-67.19,3.17c-6.35-0.24-12.69-0.55-19.03-0.88C545.19,475.27,545.2,478.27,547.12,478.37L547.12,478.37z"/>
		</g>
	</g>
	<path class="st0" d="M519.71,384.06c0.08-5.5,3.34-10.84,8.2-13.42c3.29-1.75,7.08-2.26,10.77-2.73c4.11-0.53,8.22-1.06,12.34-1.59
		"/>
	<g>
		<g>
			<path d="M659.01,385.67c1.17-7.36,0.54-16.39-4.32-22.43c-2.38-2.96-5.69-4.31-9.42-4.58c-4.37-0.31-8.84-0.04-13.23-0.02
				c-5.11,0.03-10.23,0.05-15.34,0.08c-1.93,0.01-1.93,3.01,0,3c5.28-0.03,10.56-0.05,15.84-0.08c2.64-0.01,5.28-0.03,7.92-0.04
				c2.33-0.01,4.74-0.16,7.02,0.39c4.02,0.98,6.33,4.53,7.56,8.26c1.54,4.68,1.85,9.78,1.08,14.63
				C655.82,386.76,658.71,387.57,659.01,385.67L659.01,385.67z"/>
		</g>
	</g>
	<g>
		<g>
			<path d="M557.03,620.86c0.37,15.85,1.56,31.68,3.57,47.41c0.24,1.89,3.24,1.91,3,0c-2.01-15.73-3.2-31.55-3.57-47.41
				C559.99,618.93,556.99,618.92,557.03,620.86L557.03,620.86z"/>
		</g>
	</g>
	<g>
		<g>
			<path d="M580.85,604.64c0.01,18.29,1.53,36.56,2,54.84c0.11,4.1,0.19,8.21,0.05,12.31c-0.07,1.93,2.93,1.93,3,0
				c0.29-8.14-0.13-16.31-0.47-24.44c-0.4-9.74-0.9-19.48-1.26-29.22c-0.17-4.49-0.31-8.99-0.32-13.49
				C583.85,602.71,580.85,602.71,580.85,604.64L580.85,604.64z"/>
		</g>
	</g>
	<g>
		<g>
			<path d="M605.74,626.33c1.79,15.6,3.59,31.21,5.38,46.81c0.22,1.9,3.22,1.92,3,0c-1.79-15.6-3.59-31.21-5.38-46.81
				C608.52,624.43,605.51,624.41,605.74,626.33L605.74,626.33z"/>
		</g>
	</g>
	<g>
		<g>
			<path d="M631.2,621.53c-0.4,17.43-0.46,34.87-0.2,52.31c0.03,1.93,3.03,1.93,3,0c-0.26-17.44-0.2-34.88,0.2-52.31
				C634.25,619.6,631.25,619.6,631.2,621.53L631.2,621.53z"/>
		</g>
	</g>
	<g>
		<g>
			<path d="M582.06,673.47c0.43,3.06,0.85,6.12,1.28,9.19c0.31,2.28,0.59,4.63,0.32,6.94c-0.25,2.15-1.11,4.25-3.01,5.43
				c-2.19,1.36-5.04,1.6-7.53,2.03c-11.63,1.96-23.35,3.22-34.65,6.74c-2.53,0.79-6.17,2.11-8.62,0.45
				c-1.44-0.98-2.68-3.37-1.14-4.77c1.13-1.02-0.06-2.9-1.46-2.51c-0.76,0.21-1.92,0.22-2.45-0.51c-0.43-0.6,0.08-1.6,0.83-1.32
				c0.13-0.98,0.27-1.96,0.4-2.95c-0.82-0.1-0.98-1.33-0.95-1.96c0.06-1.36,0.87-2.22,2.09-2.74c1.62-0.69,3.46-0.67,5.19-0.69
				c1.93-0.02,3.85-0.1,5.77-0.32c7.12-0.84,13.76-3.87,19.48-8.17c2.74-2.06,5.29-4.69,5.95-8.18c0.36-1.89-2.53-2.7-2.89-0.8
				c-0.63,3.33-3.34,5.62-6.03,7.42c-3.06,2.05-6.45,4.07-9.94,5.26c-4.13,1.4-8.4,1.73-12.73,1.8c-3.36,0.06-7.76,0.48-9.33,4
				c-1.34,3.01-0.18,6.95,3.4,7.39c1.79,0.22,1.86-2.4,0.4-2.95c-2.68-1-5.33,1.93-4.73,4.54c0.64,2.76,3.89,3.77,6.35,3.08
				c-0.49-0.84-0.97-1.67-1.46-2.51c-1.77,1.6-1.93,4.06-1.03,6.17c0.99,2.31,3.01,3.88,5.48,4.3c3.27,0.56,6.45-0.6,9.53-1.54
				c3.3-1.01,6.66-1.82,10.05-2.51c6.79-1.38,13.66-2.27,20.5-3.36c5.59-0.89,12.42-1.3,14.79-7.39c1.08-2.78,0.97-5.94,0.63-8.85
				c-0.44-3.84-1.05-7.66-1.58-11.49C584.69,670.76,581.8,671.57,582.06,673.47L582.06,673.47z"/>
		</g>
	</g>
	<g>
		<g>
			<path d="M612.4,673.84c-0.12,3.23-0.14,6.47-0.03,9.71c0.09,2.89,0.11,5.89,0.71,8.74c0.52,2.45,1.75,4.58,3.76,6.09
				c1.94,1.46,4.29,2.22,6.56,2.98c6.08,2.04,12.16,4.08,18.23,6.12c2.9,0.97,5.79,2,8.71,2.91c2.51,0.78,5.29,1.38,7.88,0.63
				c4.31-1.24,7-7.51,2.73-10.45c-1.39-0.96-3.15,1.28-1.82,2.36c1.45,1.18,2.96,2.37,4.87,2.64c1.64,0.23,3.43-0.32,4.47-1.65
				c2.13-2.72-1.09-7.18-4.22-5.14c-1.18,0.77-0.81,2.85,0.76,2.8c1.44-0.05,2.88-0.1,4.31-0.16c0.51-0.02,1.05-0.27,1.3-0.74
				c1.68-3.26-0.41-6.97-3.49-8.48c-1.99-0.97-4.19-1.15-6.34-1.43c-2.21-0.29-4.31-0.86-6.31-1.85c-3.91-1.94-7.28-4.82-10.69-7.49
				c-3.91-3.07-7.83-6.14-11.74-9.21c-1.5-1.18-3.64,0.93-2.12,2.12c3.59,2.82,7.18,5.64,10.78,8.46c3.18,2.49,6.29,5.14,9.72,7.28
				c3.38,2.12,6.86,3.26,10.81,3.75c1.85,0.23,4.01,0.41,5.49,1.65c1.02,0.85,1.99,2.36,1.31,3.69c0.43-0.25,0.86-0.5,1.3-0.74
				c-1.44,0.05-2.88,0.1-4.31,0.16c0.25,0.93,0.5,1.86,0.76,2.8c0.1-0.07,0.1-0.23,0.22,0.01c0.06,0.12,0.28,0.23,0.28,0.4
				c0,0.48-0.79,0.75-1.12,0.82c-1.45,0.29-2.85-0.94-3.89-1.79c-0.61,0.79-1.21,1.57-1.82,2.36c1.07,0.74,0.69,2.33,0.15,3.28
				c-0.99,1.75-3.01,2.06-4.86,1.88c-2.37-0.22-4.68-1.18-6.92-1.93c-2.57-0.86-5.14-1.73-7.71-2.59
				c-4.99-1.67-9.97-3.35-14.96-5.02c-1.99-0.67-4.07-1.26-5.87-2.37c-1.92-1.18-2.9-2.94-3.33-5.12c-0.53-2.67-0.51-5.52-0.58-8.24
				c-0.09-3.07-0.06-6.14,0.05-9.21C615.47,671.91,612.47,671.91,612.4,673.84L612.4,673.84z"/>
		</g>
	</g>
	<g>
		<g>
			<path d="M591.99,461.86c-0.12,1.26-0.25,2.52-0.37,3.78c-0.04,0.36,0.19,0.81,0.44,1.06c0.26,0.26,0.69,0.46,1.06,0.44
				c0.39-0.02,0.79-0.14,1.06-0.44c0.28-0.31,0.4-0.64,0.44-1.06c0.12-1.26,0.25-2.52,0.37-3.78c0.04-0.36-0.19-0.81-0.44-1.06
				c-0.26-0.26-0.69-0.46-1.06-0.44c-0.39,0.02-0.79,0.14-1.06,0.44C592.14,461.11,592.03,461.45,591.99,461.86L591.99,461.86z"/>
		</g>
	</g>
	<g>
		<g>
			<path d="M546.23,481.93c8.97,9.07,20.33,15.74,32.65,19.08c6.97,1.89,14.37,2.96,21.57,3.47c6.85,0.48,13.87-0.11,20.15-3.04
				c6.88-3.21,10.93-9.23,14.68-15.56c0.99-1.66-1.61-3.18-2.59-1.51c-3.18,5.37-6.5,10.67-12.14,13.74
				c-5.61,3.06-12.14,3.75-18.43,3.47c-6.96-0.31-14.09-1.39-20.85-3.05c-5.88-1.44-11.55-3.66-16.86-6.57
				c-5.92-3.25-11.32-7.34-16.07-12.14C546.99,478.44,544.87,480.56,546.23,481.93L546.23,481.93z"/>
		</g>
	</g>
	<g>
		<g>
			<path d="M549.17,484.03c5.19,3.87,10.23,8.28,16.21,10.88c6.12,2.65,12.47,5.13,18.92,6.84c6.51,1.73,13.34,2.56,20.07,2.37
				c6.54-0.18,12.73-1.73,18.03-5.69c5.82-4.35,9.98-10.32,12.98-16.88c0.81-1.78,0.86-4.02-0.7-5.45c-1.41-1.29-3.76-1.85-5.45-0.7
				c-4.09,2.76-8.28,5.37-12.57,7.81c-2.13,1.21-4.27,2.44-6.48,3.5c-0.18,0.09-1.44,0.6-0.75,0.34c-0.56,0.21-1.12,0.4-1.69,0.56
				c-0.58,0.16-1.17,0.27-1.77,0.38c0.09-0.02,0.61-0.06,0.08-0.01c-0.38,0.04-0.75,0.08-1.13,0.1c-2.46,0.17-4.94,0.1-7.4,0
				c-1.18-0.05-2.36-0.12-3.54-0.22c-0.55-0.05-1.1-0.1-1.65-0.16c-0.31-0.03-0.63-0.07-0.94-0.11c0.68,0.09-0.32-0.06-0.44-0.07
				c-4.96-0.79-9.76-2.38-14.56-3.82c-2.77-0.83-5.54-1.64-8.3-2.51c-1.27-0.4-2.54-0.82-3.79-1.28c-0.66-0.24-1.32-0.49-1.97-0.76
				c-0.86-0.35-0.41-0.18-0.22-0.09c-0.43-0.19-0.86-0.39-1.28-0.59c-0.36,2.74-0.72,5.48-1.07,8.22c0.53-0.1,1.07-0.2,1.6-0.28
				c0.76-0.12-0.59,0.03,0.18-0.02c0.23-0.01,0.46-0.05,0.69-0.07c1.22-0.11,2.45-0.15,3.68-0.13c1.08,0.01,2.16,0.06,3.23,0.15
				c0.62,0.05,1.23,0.11,1.85,0.17c0.23,0.02,0.46,0.05,0.69,0.08c0.23,0.03,1.05,0.13,0.42,0.05c4.67,0.63,9.28,1.67,13.94,2.4
				c4.96,0.77,9.88,1.13,14.89,1.08c4.41-0.04,8.81-0.15,13.19-0.8c4.96-0.73,9.48-2.52,13.41-5.66c1.38-1.1,1.56-3.43,0.93-4.92
				c-0.65-1.54-2.34-2.91-4.11-2.77c-14.26,1.12-28.66,2.6-42.94,0.84c-2.35-0.29-4.6,2.28-4.5,4.5c0.12,2.68,1.99,4.19,4.5,4.5
				c14.27,1.75,28.67,0.28,42.94-0.84c-1.06-2.56-2.12-5.12-3.18-7.68c0.66-0.53-0.28,0.18-0.5,0.33c-0.38,0.25-0.76,0.48-1.15,0.7
				c-0.39,0.22-0.79,0.42-1.2,0.61c-0.12,0.06-0.87,0.36-0.34,0.16c0.49-0.19-0.27,0.09-0.36,0.12c-1.78,0.65-3.62,1.05-5.49,1.36
				c-0.87,0.14-0.16,0.03,0.02,0c-0.26,0.03-0.53,0.06-0.79,0.09c-0.4,0.04-0.79,0.08-1.19,0.11c-1.06,0.09-2.13,0.15-3.19,0.19
				c-2.09,0.08-4.18,0.11-6.27,0.13c-2.31,0.02-4.61-0.01-6.91-0.16c-1.1-0.07-2.19-0.18-3.28-0.31c-0.31-0.04-0.62-0.07-0.93-0.12
				c0.1,0.01,0.56,0.09,0.03,0c-0.62-0.1-1.24-0.19-1.86-0.29c-4.57-0.74-9.11-1.72-13.7-2.35c-5.61-0.76-11.09-0.98-16.68,0.12
				c-3.67,0.72-4.52,6.6-1.07,8.22c4.94,2.33,10.15,3.86,15.37,5.43c5.05,1.52,10.1,3.24,15.28,4.24
				c5.37,1.04,10.94,1.39,16.41,1.25c2.71-0.07,5.51-0.36,8.07-1.27c2.56-0.92,4.96-2.22,7.33-3.53c5.15-2.83,10.15-5.9,15.02-9.19
				c-2.05-2.05-4.1-4.1-6.16-6.16c-1.2,2.63-2.57,5.2-4.2,7.59c-0.16,0.24-0.33,0.48-0.5,0.71c0.06-0.08-0.79,1.06-0.42,0.59
				c0.36-0.47-0.52,0.64-0.46,0.56c-0.18,0.22-0.37,0.44-0.56,0.66c-0.91,1.05-1.89,2.04-2.94,2.95c-0.26,0.22-0.53,0.43-0.78,0.66
				c-0.57,0.52,0.83-0.58-0.22,0.17c-0.5,0.36-1,0.71-1.52,1.04c-0.52,0.33-1.05,0.64-1.59,0.93c-0.3,0.16-0.6,0.31-0.91,0.46
				c-0.18,0.09-0.37,0.18-0.55,0.26c0.45-0.18,0.43-0.18-0.05,0.02c-1.21,0.44-2.43,0.82-3.69,1.07c-0.31,0.06-0.61,0.11-0.92,0.17
				c-1.46,0.25,0.82-0.03-0.66,0.08c-0.78,0.06-1.55,0.13-2.33,0.16c-3.09,0.14-6.19,0.04-9.27-0.27c-0.4-0.04-0.79-0.08-1.18-0.13
				c-0.94-0.1-0.43-0.05-0.22-0.02c-0.79-0.1-1.57-0.23-2.35-0.37c-1.57-0.28-3.12-0.61-4.66-0.99c-5.91-1.48-11.65-3.73-17.29-6.02
				c-0.28-0.11-0.56-0.23-0.84-0.34c0.7,0.3-0.46-0.21-0.59-0.27c-0.82-0.38-1.63-0.79-2.42-1.23c-1.49-0.85-2.89-1.84-4.27-2.85
				c-2.84-2.09-5.66-4.22-8.48-6.33c-1.89-1.41-5.11-0.37-6.16,1.61C546.31,480.24,547.15,482.53,549.17,484.03L549.17,484.03z"/>
		</g>
	</g>
	<g>
		<g>
			<path d="M547.09,411.01c2.02-0.64,4.07-1.15,6.16-1.53c0.46-0.08,0.93-0.16,1.39-0.23c0.23-0.04,0.47-0.07,0.7-0.1
				c-0.68,0.09,0.11-0.01,0.2-0.02c1.09-0.11,2.19-0.22,3.28-0.29c2.03-0.12,4.08-0.17,6.12-0.07c0.55,0.03,1.1,0.06,1.64,0.12
				c0.23,0.02,0.47,0.04,0.7,0.08c-0.1-0.01-0.55-0.08-0.05,0.01c1.01,0.19,2.01,0.41,3.01,0.68c3.75,1.02,7.38,2.53,11.24,3.13
				c4.62,0.71,9.06,0.12,13.46-1.44c3.98-1.41,7.86-3.12,11.77-4.69c1.94-0.78,3.89-1.57,5.92-2.1c0.45-0.12,0.9-0.22,1.35-0.32
				c0.3-0.06,0.6-0.11,0.91-0.17c0.01,0,0.76-0.1,0.31-0.05c-0.45,0.05,0.3-0.02,0.31-0.03c0.23-0.02,0.46-0.04,0.69-0.05
				c0.61-0.04,1.22-0.06,1.84-0.07c1-0.01,2,0.04,3,0.12c0.46,0.04,0.92,0.09,1.38,0.14c-0.1-0.01-0.58-0.09-0.05,0
				c0.38,0.06,0.77,0.12,1.15,0.19c1.99,0.35,3.95,0.84,5.89,1.4c0.46,0.13,0.91,0.31,1.38,0.43c0.48,0.12-0.22-0.09-0.27-0.12
				c0.24,0.18,0.27,0.31,0.11,0.01c-0.11-0.2-0.37-0.34-0.49-0.56c-0.26-0.52-0.42-1.37-0.28-1.94c0.07-0.26,0.18-0.48,0.34-0.69
				c0.1-0.13,0.76-0.56,0.41-0.38c-0.46,0.24,0.3-0.1,0.32-0.11c-0.11,0.06-0.69,0.06-0.23,0.06c0.61-0.01-1.34-0.2-0.33-0.04
				c-1.29-0.21-2.56-0.45-3.85-0.61c-8.56-1.11-17.24,1-25.29,3.76c-1.9,0.65-3.78,1.36-5.68,2c-0.94,0.31-1.89,0.61-2.86,0.86
				c-0.52,0.13-1.03,0.26-1.56,0.36c-0.22,0.05-1.53,0.24-0.82,0.16c-0.99,0.11-1.98,0.14-2.97,0.1c-0.46-0.02-0.92-0.07-1.38-0.11
				c-0.76-0.06,0.57,0.13-0.18-0.03c-0.3-0.06-0.61-0.1-0.91-0.16c-2.1-0.39-4.17-0.93-6.24-1.44c-8.37-2.07-17.03-4.32-25.73-3.51
				c-4.48,0.42-10.97,1.03-12.74,5.93c-0.66,1.83-0.61,4.27-0.6,6.21c0.01,2.1,0.23,4.32,1,6.28c0.97,2.46,2.5,4.9,5.32,5.44
				c3.2,0.61,6.03-1.24,7.26-4.15c0.49-1.16,0.71-2.39,0.62-3.65c-0.03-0.45-0.11-0.9-0.16-1.36c-0.03-0.23-0.05-0.45-0.07-0.68
				c-0.02-0.22-0.03-0.45-0.02-0.68c-0.02,0.14-0.04,0.27-0.06,0.41c-0.27,0.43-0.39,0.79-0.88,1.03c-1.15,0.56-1.61,0.2-2.7-0.43
				c-0.9-0.51-1.32-0.47-1.54-1.29c-0.24-0.85-0.07-0.65-0.08-0.27c0-0.01,0.01-0.91,0.01-0.42c0,0.32,0.02-0.01,0.08-0.15
				c-0.11,0.26-0.25,0.51-0.37,0.77c-1.21,2.61-1.59,5.28-0.15,7.9c1.29,2.34,3.76,3.83,6.4,3.99c2.51,0.15,4.96-1.17,6.46-3.12
				c1.66-2.14,1.92-4.74,1.29-7.33c-0.12-0.49-0.28-0.97-0.42-1.45c-0.14-0.51-0.2-1.21-0.12-0.26c-0.02-0.3-0.18-0.4-0.05-0.04
				c0.29,0.77-0.27-0.5-0.09,0.23c0.07,0.29-0.23,0.3,0.03,0c-0.42,0.49-0.9,1.07-1.54,1.26c-1.69-0.69-3.39-1.38-5.08-2.07
				c-0.27-0.61,0.02,0.08,0.05,0.18c0.09,0.29,0.19,0.57,0.27,0.86c0.06,0.22,0.11,0.44,0.16,0.66c0.02,0.11,0.19,1.02,0.12,0.51
				c-0.08-0.51,0.03,0.41,0.04,0.52c0.01,0.22,0.02,0.45,0.02,0.67c0.01,0.6-0.05,1.19-0.07,1.79c-0.13,2.85,0.91,5.86,3.59,7.23
				c2.81,1.44,6.12,0.78,8.45-1.24c2.15-1.86,2.86-4.88,2.93-7.61c0.01-0.42,0.01-0.85,0.01-1.28c0-0.83,0.01,0.04-0.04,0.2
				c-0.15,0.51-0.78,1.17-1.22,1.43c-0.37,0.06-0.73,0.12-1.1,0.17c-0.84,0.37-1.57,0.21-2.21-0.48c-0.13-0.15-0.22-0.41-0.34-0.54
				c-0.41-0.42,0.14,0.56,0-0.03c-0.15-0.59,0.02,0.47,0.02,0.61c0.01,0.52-0.04,1.04-0.05,1.56c-0.03,0.72,0.17-0.56-0.02,0.13
				c-0.08,0.28-0.12,0.58-0.19,0.87c-0.37,1.48-0.69,3.04-0.22,4.54c1.26,4,5.62,4.96,9.1,3.28c2.34-1.13,3.86-3.28,4.76-5.64
				c0.46-1.21,0.6-2.57,0.61-3.86c0-0.27,0.05-0.58,0-0.84c0.02-0.33-0.01-0.28-0.08,0.17c0.03-0.13,0.06-0.27,0.1-0.4
				c-0.51,0.75-0.59,1.42-1.71,1.59c-0.98-0.26-1.97-0.51-2.95-0.77c-0.12-0.15-0.24-0.29-0.36-0.44c-0.52-0.88-0.14-0.52-0.12-0.21
				c0.05,1.03,0.04-0.74,0.01,0.03c-0.03,0.62,0.03,1.24-0.03,1.86c0.02-0.21,0.18-0.81-0.03,0.03c-0.07,0.27-0.12,0.54-0.2,0.8
				c-0.08,0.26-0.17,0.53-0.26,0.79c0.27-0.73-0.13,0.22-0.24,0.43c-0.86,1.61-0.87,4.19,0.7,5.45c2.53,2.04,5.69,2.42,8.48,0.54
				c2.75-1.86,3.58-4.77,3.8-7.92c0.04-0.55,0.03-1.12,0.11-1.67c-0.09,0.56-0.08,0.6,0.03,0.12c-2.59,2.3-4.51,2.59-5.74,0.87
				c-0.2-0.56-0.23-0.61-0.07-0.15c0.08,0.29,0.15,0.58,0.22,0.87c0.14,0.58,0.26,1.17,0.34,1.76c-0.12-0.85,0.06,0.87,0.06,1.03
				c0.03,0.51,0.02,1.02,0.06,1.53c0.13,1.71,0.59,3.34,1.82,4.6c2.7,2.78,7.25,1.79,9.07-1.45c1.24-2.21,1.37-4.86,1.88-7.3
				c0.05-0.28,0.12-0.56,0.19-0.84c0.17-0.5,0.16-0.54-0.02-0.12c0.29-0.48,0.28-0.49-0.03-0.05c-0.21,0.19-0.45,0.33-0.72,0.4
				c-0.7,0.18-1.35,0.09-1.94-0.26c-0.53-0.46-0.62-0.52-0.28-0.18c-0.4-0.54-0.47-0.6-0.22-0.18c-0.24-0.61-0.27-0.68-0.1-0.21
				c0.1,0.41,0.21,0.82,0.3,1.24c0.07,0.46,0.07,0.41-0.02-0.16c0.03,0.29,0.07,0.57,0.09,0.86c0.05,0.58,0.04,1.15,0.07,1.72
				c-0.04,0.54-0.03,0.57,0.03,0.07c-0.05,0.28-0.12,0.56-0.21,0.83c1.85-1.05,3.69-2.1,5.54-3.14c0.68,1,1.37,1.99,2.05,2.99
				c-0.74,1.3-1.49,2.59-2.23,3.89c2.39-1.07,4.52-3.19,5.63-5.56c0.7-1.5,1.03-2.86,1.23-4.5c0.03-0.26,0.02-0.57,0.09-0.83
				c-0.09,0.29-0.16,0.75-0.01,0.19c0.06-0.2,0.41-0.92,0.06-0.37c-0.24,0.39-0.4,0.84-0.85,1.08c-2.05-0.54-4.1-1.08-6.16-1.61
				c0.06,0.1,0.47,1.08,0.29,0.56c-0.16-0.46,0.08,0.34,0.11,0.42c0.09,0.33,0.17,0.66,0.22,0.99c-0.11-0.65-0.04-0.17-0.03,0.22
				c0.01,0.27-0.04,0.55-0.01,0.81c0.04,0.48,0.18-0.6-0.02,0.21c-0.06,0.26-0.12,0.53-0.2,0.79c-0.04,0.12-0.53,1.25-0.14,0.44
				c-0.71,1.49-0.87,3.06,0,4.54c0.77,1.32,2.32,2.31,3.89,2.23c5.53-0.28,9.04-4.79,9.46-10.06c0.08-0.93-0.03-1.81-0.07-2.74
				c-0.02-0.43,0.16-1.07-0.09,0.06c-5.21-2.06-7.43-1.91-6.66,0.45c-0.08-0.75-0.1-0.8-0.06-0.15c-0.01,1.05,0,2.09-0.14,3.14
				c0.11-0.79-0.1,0.43-0.13,0.58c-0.12,0.59-0.27,1.17-0.44,1.74c-0.6,2.09,0.45,3.89,2.07,5.08c2.36,1.75,6.05,1.06,8.04-0.95
				c1.89-1.92,2.22-4.33,2.54-6.88c0.13-1.06,0.27-2.13,0.4-3.19c0.04-0.3,0.08-0.61,0.11-0.91c-0.07,0.47-0.08,0.56-0.03,0.26
				c0.03-0.16,0.06-0.32,0.11-0.47c-1.66,2.38-3.3,2.88-4.92,1.48c-0.56-1.15-0.71-1.36-0.47-0.62c-0.02-0.14-0.03-0.28-0.05-0.42
				c0.02,0.17-0.04,1.87,0.05,1.11c-0.11,1-0.41,1.99-0.64,2.96c-0.32,1.36-0.65,2.77-0.27,4.16c0.59,2.13,2.6,3.6,4.77,3.66
				c2.37,0.06,4.72-1.12,6.38-2.75c3.43-3.37,3.71-8.17,3.3-12.68c-1.9,1.45-3.8,2.89-5.7,4.34c0.67,0.15,0.03-0.14-0.26-0.26
				c-0.21-0.19-0.23-0.2-0.04-0.03c0.22,0.23,0.19,0.15-0.12-0.24c0.14,0.2,0.24,0.42,0.37,0.62c-0.45-0.67-0.09-0.2,0,0.16
				c0.06,0.24,0.15,1.03,0.09,0.4c0.04,0.39,0.05,0.78,0.07,1.16c0.03,0.66,0.06,1.33,0.13,1.99c0.27,2.52,1.65,4.93,4.31,5.54
				c1.91,0.44,3.94-0.08,5.54-1.18c2.56-1.76,4.36-4.5,4.98-7.56c0.08-0.38,0.42-1.27,0.32-1.62c-0.09,0.37-0.31,0.67-0.64,0.88
				c-0.62,0.9-1.5,0.88-2.64-0.07c-1.31,0.28-2.1-0.06-2.38-1.01c0.03,0.1,0.06,0.21,0.09,0.31c0.21,1.45,0.8,2.94,1.19,4.35
				c0.62,2.27,3.23,3.89,5.54,3.14c2.32-0.75,3.81-3.1,3.14-5.54c-0.94-3.44-1.48-8.13-5.6-9.15c-2.62-0.65-5.25,0.71-6.63,2.94
				c-0.86,1.38-0.85,2.93-1.33,4.42c-0.1,0.3-0.48,0.82-0.02,0.12c-0.16,0.24-0.33,0.53-0.45,0.79c-0.19,0.43,0.51-0.46-0.07,0.09
				c-0.12,0.13-0.25,0.26-0.38,0.38c-0.24,0.21-0.17,0.16,0.21-0.15c-0.8,0.33,0.51-0.01-0.03,0.08c-1.72,0.45-0.44,1.41,3.83,2.86
				c-0.01-0.15-0.02-0.31-0.03-0.46c0-0.85-0.07-1.72-0.15-2.56c-0.39-3.99-2.33-8.16-6.63-9.11c-2.61-0.58-5.98,1.27-5.7,4.34
				c0.09,1.04,0.19,2.08,0.19,3.13c0,0.17-0.11,1.89,0.01,1.02c-0.07,0.5-0.27,0.97-0.36,1.46c-0.11,0.31-0.07,0.23,0.12-0.25
				c-0.1,0.21-0.22,0.42-0.34,0.63c-0.39,0.82,0.35-0.61-0.29,0.34c-0.24,0.22-0.16,0.18,0.25-0.14c-0.19,0.13-0.38,0.26-0.59,0.36
				c0.56-0.21,0.6-0.23,0.12-0.08c-0.82,0.16-0.44,0.17,1.13,0.02c0.9,0.69,1.79,1.38,2.69,2.07c-0.05-0.08-0.11-0.16-0.16-0.24
				c0.2,0.76,0.41,1.51,0.61,2.27c0.04,0.39-0.2,0.83-0.05,0.11c0.07-0.3,0.14-0.61,0.21-0.91c0.16-0.68,0.33-1.36,0.46-2.05
				c0.29-1.5,0.52-3.05,0.36-4.57c-0.21-1.9-0.77-3.67-2.2-5.04c-1.48-1.41-3.76-2.12-5.77-1.58c-2.01,0.54-3.38,1.98-4.11,3.88
				c-0.48,1.26-0.5,2.7-0.67,4.03c-0.09,0.68-0.17,1.37-0.26,2.05c-0.04,0.3-0.08,0.61-0.11,0.91c-0.05,0.43-0.12,0.55-0.01,0.06
				c-0.06,0.26-0.11,0.53-0.17,0.79c-0.14,0.63-0.1,0.19,0.13-0.16c0.32-0.47,0.63-0.54,1.19-0.68c0.46-0.25,0.92-0.24,1.37,0.03
				c0.76,0.31,0.91,0.32,0.44,0.02c0.69,1.69,1.38,3.39,2.07,5.08c0.77-2.68,1.24-5.65,1-8.45c-0.14-1.7-0.63-3.45-1.9-4.67
				c-1.67-1.6-4.36-2.1-6.41-0.88c-1.59,0.95-2.51,2.52-2.75,4.32c-0.15,1.15,0.03,2.23,0.02,3.38c0,0.12-0.12,1.21-0.02,0.63
				c0.09-0.52-0.09,0.31-0.12,0.4c-0.03,0.1-0.32,0.83-0.12,0.42c0.24-0.48-0.25,0.36-0.3,0.45c0.19-0.33,0.38-0.42,0.01-0.09
				c-0.4,0.36-0.22,0.1,0.08-0.04c-0.78,0.35,0.5-0.03-0.03,0.07c-0.3,0.05-1.01,0.09-0.01,0.04c1.3,2.26,2.59,4.51,3.89,6.77
				c2.09-4.4,2.1-9.21-0.22-13.53c-1.18-2.19-4.08-2.74-6.16-1.61c-1.58,0.85-2.66,2.35-3.19,4.04c-0.19,0.62-0.27,1.25-0.35,1.89
				c-0.05,0.37-0.1,0.74-0.14,1.1c-0.1,0.86,0.07,0.01,0.01-0.02c0.13,0.06-0.61,1.73-0.09,0.64c-0.13,0.27-0.27,0.54-0.42,0.8
				c-0.05,0.09-0.49,0.73-0.16,0.29c0.37-0.49-0.27,0.27-0.36,0.36c-0.17,0.17-0.35,0.33-0.54,0.48c0.47-0.39,0.27-0.21-0.13,0.01
				c-0.26,0.15-0.53,0.28-0.81,0.4c-1.27,0.57-2.41,2.49-2.23,3.89c0.34,2.65,1.71,5.11,4.56,5.69c2.41,0.49,4.82-0.68,5.54-3.14
				c0.61-2.08,0.55-4.18,0.29-6.3c-0.26-2.13-0.66-4.19-2.01-5.94c-1.65-2.14-4.2-3.19-6.89-2.58c-2.81,0.64-4.73,3.03-5.57,5.67
				c-0.62,1.95-0.76,4.04-1.21,6.03c-0.02,0.08-0.11,0.59-0.15,0.59c-0.05,0,0.44-0.79,0.15-0.36c-0.28,0.43,0.29-0.31,0.29-0.31
				c0.87,0.13,1.75,0.25,2.62,0.38c1.48-0.54,2.39-0.33,2.74,0.64c0.17,0.43,0.16,1.17,0.14,0.34c-0.01-0.58-0.03-1.15-0.08-1.72
				c-0.18-2.21-0.49-4.49-1.36-6.55c-1.17-2.78-4.14-4.77-7.21-3.73c-3.33,1.13-4.12,4.35-4.3,7.48c-0.02,0.28-0.03,0.56-0.05,0.84
				c-0.01,0.11-0.15,0.92-0.04,0.43c0.12-0.51-0.06,0.16-0.08,0.21c-0.17,0.51-0.19,0.3,0.03-0.03c0.01-0.02,0.57-0.63,0.21-0.29
				c-0.38,0.37,0.73-0.42,0.01-0.04c1.06-0.56,2.04-0.22,2.97,0.53c0.23,1.82,0.47,3.64,0.7,5.45c2.36-4.43,3.78-12.97-2.08-15.44
				c-3.62-1.53-7.59,0.91-8.52,4.6c-0.33,1.3-0.33,2.73-0.32,4.06c0,0.55,0-0.35,0.04-0.34c0.04,0.01-0.17,0.59-0.18,0.67
				c0.08-0.65,0.25-0.46,0.05-0.11c-0.22,0.37-0.71,0.77-0.07,0.22c-0.12,0.1-0.26,0.24-0.36,0.36c-0.4,0.47,0.62-0.43,0.1-0.1
				c-0.44,0.27,0.4-0.09,0.56-0.12c1.57-0.24,3.79,3.26,3.14,3.38c-0.01,0.08-0.03,0.16-0.04,0.24c0.04-0.18,0.08-0.36,0.13-0.54
				c0.07-0.28,0.14-0.55,0.21-0.83c0.2-0.9,0.32-1.82,0.41-2.74c0.28-2.8-0.08-6.15-2.24-8.19c-2.85-2.69-7.48-2.45-9.68,0.92
				c-0.8,1.23-1.05,2.69-1.12,4.13c-0.02,0.49,0,0.99-0.02,1.48c-0.01,0.27-0.02,0.55-0.06,0.81c0.09-0.65-0.05-0.2-0.12,0.18
				c-0.09,0.59,0.07-0.2,0.08-0.16c-0.25,0.4-0.27,0.45-0.08,0.16c0.12-0.21,0.3-0.37,0.53-0.47c-0.19,0.13-0.77,0.38,0.19-0.05
				c-0.64,0.29,0.17-0.04,0.54,0.01c0.28,0.04,0.56,0.11,0.81,0.25c0.52,0.27,0.87,0.66,1.03,1.17c0.12,0.34,0.12,0.31,0.01-0.1
				c0.05,0.23,0.01,0.91,0.08,0.15c0.03-0.3,0.02-0.6,0.04-0.9c0.2-3.31-0.5-6.36-1.83-9.37c-0.78-1.76-3.34-2.59-5.08-2.07
				c-2.45,0.73-4.27,2.73-4.75,5.24c-0.25,1.32-0.24,2.48,0.03,3.81c0.09,0.42,0.21,0.84,0.33,1.25c0.06,0.21,0.13,0.41,0.18,0.62
				c0.04,0.14,0.08,0.28,0.11,0.42c0.07,0.33,0.08,0.28,0.03-0.15c0.24,0.18-0.28,0.63,0.05,0.2c0.09-0.12,0.18-0.51,0.25-0.67
				c-0.3,0.65,0.47-0.29-0.12,0.15c0.33-0.25,0.41-0.31,0.83-0.47c-0.24,0.09-0.52,0.01-0.05,0.06c0.27,0.03,0.52,0,0.79,0.06
				c-0.53-0.1-0.15-0.06,0.15,0.08c0.22,0.1,0.55,0.65,0.14,0.06c0.13,0.18,0.26,0.44,0.39,0.6c0.27,0.35,0.02,0.16-0.01-0.09
				c0.03,0.2-0.01,0.59,0.05,0.76c0.12,0.37-0.07,0.1,0.08-0.18c-0.09,0.16-0.34,0.73,0.05-0.08c0.32-0.67,0.64-1.35,0.89-2.04
				c0.89-2.41,0.41-5.31-1.36-7.2c-1.99-2.14-5.35-2.29-7.69-0.71c-2.39,1.61-3.48,4.44-3.19,7.26c0.05,0.53,0.15,1.05,0.19,1.58
				c0.01,0.22,0,0.46,0.02,0.68c0.05,0.59,0-0.18,0.03-0.29c0.13-0.48,0.48-0.8,0.89-1.05c1.34-0.82,2.31-0.31,3.34,0.33
				c0.31,0.19,0.28,0.47,0.09-0.01c-0.3-0.78,0.04,0.36-0.16-0.46c-0.12-0.47-0.22-0.93-0.33-1.4c-0.12-0.51,0.01,0.08,0.02,0.17
				c-0.01-0.21-0.04-0.42-0.05-0.62c-0.04-0.56-0.05-1.12-0.04-1.68c0.01-0.91,0.07-1.83,0.13-2.74c0.01-0.2,0.03-0.4,0.05-0.6
				c0.04-0.54-0.01,0.25-0.02,0.29c-0.17,0.4-0.49,0.95-0.82,1.24c-0.14,0.12-0.84,0.37-0.46,0.29c0.95-0.19,1.87-0.56,2.82-0.76
				c0.52-0.11,1.05-0.18,1.57-0.3c0.51-0.11,0.04-0.02-0.06,0c0.3-0.04,0.61-0.07,0.91-0.1c2.06-0.21,4.14-0.23,6.2-0.12
				c1,0.05,1.99,0.14,2.99,0.25c0.2,0.02,1.31,0.17,0.63,0.07c0.64,0.09,1.28,0.19,1.92,0.3c2.07,0.36,4.13,0.8,6.17,1.28
				c4.19,0.98,8.34,2.24,12.59,2.95c4.61,0.77,8.99,0.48,13.47-0.89c4.02-1.23,7.9-2.82,11.94-3.99c1.96-0.57,3.95-1.06,5.95-1.45
				c0.54-0.1,1.08-0.2,1.61-0.29c0.18-0.03,1.31-0.19,0.65-0.11c1.08-0.14,2.16-0.23,3.24-0.28c1-0.05,2.01-0.06,3.01-0.03
				c0.46,0.01,0.93,0.04,1.39,0.07c0.31,0.02,0.62,0.05,0.93,0.08c0.08,0.01,0.93,0.11,0.56,0.06c-0.44-0.06,0.32,0.06,0.33,0.06
				c0.22,0.04,0.45,0.08,0.67,0.12c0.5,0.09,0.99,0.19,1.49,0.26c1.55,0.23,2.94,0.35,4.51,0.01c2.56-0.56,4.64-2.47,5.52-4.91
				c0.97-2.69-0.15-5.58-2.34-7.27c-1.73-1.33-4-1.86-6.08-2.4c-2.15-0.56-4.33-0.97-6.53-1.27c-4.42-0.59-8.9-0.54-13.24,0.6
				c-4.13,1.08-8.07,2.97-12.02,4.56c-1.88,0.76-3.76,1.55-5.67,2.23c-0.94,0.33-1.89,0.64-2.85,0.9c-0.44,0.12-0.89,0.23-1.33,0.32
				c-0.3,0.06-0.6,0.1-0.89,0.17c-0.71,0.16,0.57-0.02-0.16,0.02c-0.97,0.06-1.93,0.12-2.91,0.06c-0.24-0.02-1.28-0.13-0.54-0.03
				c-0.57-0.08-1.15-0.19-1.71-0.32c-1.87-0.41-3.69-1-5.5-1.58c-4.16-1.34-8.27-2.36-12.66-2.46c-4.4-0.11-8.82,0.28-13.15,1.07
				c-2.08,0.38-4.14,0.89-6.16,1.53c-2.24,0.71-3.91,3.16-3.14,5.54C542.28,410.11,544.69,411.77,547.09,411.01L547.09,411.01z"/>
		</g>
	</g>
	<g>
		<g>
			<path d="M391.98,641.41c10.89-1.92,21.93-2.87,32.99-2.83c5.45,0.02,10.89,0.3,16.31,0.76c5.56,0.47,11.13,1.02,16.72,0.73
				c10.71-0.54,20.99-3.98,31.63-5.08c10.75-1.11,21.58-0.24,32.28,1.03c12.05,1.43,24.07,3.36,36.22,3.7c1.93,0.05,1.93-2.95,0-3
				c-21.64-0.61-42.98-6.4-64.7-5.04c-10.8,0.67-21.15,3.97-31.88,5.11c-11.03,1.17-22.13-0.93-33.17-1.17
				c-12.46-0.26-24.92,0.74-37.19,2.9C389.29,638.85,390.09,641.74,391.98,641.41L391.98,641.41z"/>
		</g>
	</g>
	<g>
		<g>
			<path d="M583.97,640.92c7.72,0.78,15.49,0.69,23.18-0.28c0.81-0.1,1.49-0.62,1.5-1.5c0.01-0.73-0.7-1.6-1.5-1.5
				c-7.7,0.97-15.47,1.06-23.18,0.28C582.05,637.73,582.06,640.73,583.97,640.92L583.97,640.92z"/>
		</g>
	</g>
	<g>
		<g>
			<path d="M634.14,637.27c18.69-3.39,37.57-5.67,56.52-6.81c19.03-1.15,38.05-1,57.09-0.06c10.66,0.53,21.38,0.97,32-0.4
				c1.89-0.24,1.91-3.25,0-3c-9.48,1.22-19.05,1-28.57,0.56c-9.55-0.44-19.09-0.9-28.66-0.96c-19.12-0.12-38.25,0.91-57.25,3.07
				c-10.69,1.22-21.34,2.79-31.92,4.71C631.44,634.72,632.25,637.61,634.14,637.27L634.14,637.27z"/>
		</g>
	</g>
</g>
<g id="Lag_3">
	<g>
		<g>
			<path class="st1" d="M728.99-119.99c4.9-8.16,9.79-16.31,14.69-24.47c-4.32,0-8.63,0-12.95,0c1.39,2.35,2.68,4.74,3.75,7.25
				c-0.25-0.6-0.5-1.19-0.76-1.79c0.96,2.34,1.69,4.74,2.04,7.25c-0.09-0.66-0.18-1.33-0.27-1.99c0.22,1.84,0.24,3.68,0.01,5.52
				c0.09-0.66,0.18-1.33,0.27-1.99c-0.21,1.4-0.55,2.75-1.07,4.07c0.25-0.6,0.5-1.19,0.76-1.79c-0.22,0.52-0.46,1.03-0.73,1.53
				c4.32,0,8.63,0,12.95,0c-0.11-0.14-0.2-0.3-0.28-0.46c0.25,0.6,0.5,1.19,0.76,1.79c-0.1-0.27-0.17-0.52-0.22-0.8
				c0.09,0.66,0.18,1.33,0.27,1.99c-0.1-0.83-0.04-1.66-0.08-2.49c-0.11-2.28-0.65-4.27-2.05-6.09c-1.7-2.2-4.44-3.59-7.27-3.49
				c-2.42,0.09-4.52,1.12-6.59,2.28c-5.95,3.37-14.84,8.31-12.56,16.53c1.22,4.41,5.36,6.64,9.49,7.69c3.25,0.82,6.5,0.92,9.77,0.25
				c6.45-1.32,11.28-7.11,12.41-13.44c1.26-7.07-0.91-14.05-1.87-21.03c0.09,0.66,0.18,1.33,0.27,1.99
				c-1.17-8.71-1.51-17.51-1.02-26.29c0.22-3.92-3.61-7.67-7.5-7.5c-4.25,0.19-7.26,3.3-7.5,7.5c-0.35,6.34-0.29,12.69,0.23,19.01
				c0.29,3.59,0.74,7.16,1.26,10.72c0.46,3.16,1.14,6.28,1.6,9.44c-0.09-0.66-0.18-1.33-0.27-1.99c0.25,1.92,0.37,3.85,0.12,5.78
				c0.09-0.66,0.18-1.33,0.27-1.99c-0.17,1.13-0.46,2.21-0.89,3.27c0.25-0.6,0.5-1.19,0.76-1.79c-0.2,0.46-0.42,0.9-0.68,1.33
				c-0.13,0.21-0.26,0.42-0.41,0.62c0.81-1.02,0.97-1.23,0.47-0.66c-0.17,0.18-0.34,0.35-0.53,0.52c-0.58,0.49-0.37,0.33,0.63-0.48
				c-0.42,0.11-0.92,0.54-1.33,0.73c0.6-0.25,1.19-0.5,1.79-0.76c-0.83,0.34-1.67,0.55-2.55,0.68c0.66-0.09,1.33-0.18,1.99-0.27
				c-1.04,0.11-2.06,0.1-3.1-0.01c0.66,0.09,1.33,0.18,1.99,0.27c-1.44-0.19-2.82-0.57-4.17-1.09c0.6,0.25,1.19,0.5,1.79,0.76
				c-0.28-0.12-0.56-0.3-0.85-0.4c-0.33-0.2-0.23-0.11,0.31,0.27c0.51,0.33,0.93,0.76,1.25,1.28c0.25,0.6,0.5,1.19,0.76,1.79
				c-0.03-0.12-0.07-0.23-0.1-0.35c0.09,0.66,0.18,1.33,0.27,1.99c-0.04-0.23-0.04-0.46,0-0.69c-0.09,0.66-0.18,1.33-0.27,1.99
				c0.03-0.11,0.06-0.22,0.09-0.34c-0.25,0.6-0.5,1.19-0.76,1.79c0.08-0.23,0.19-0.45,0.33-0.65c-0.81,0.99-0.95,1.2-0.42,0.63
				c1-1.01-1.45,0.99-0.24,0.15c0.96-0.67,1.92-1.35,2.9-1.99c1.85-1.21,3.78-2.46,5.81-3.37c-0.6,0.25-1.19,0.5-1.79,0.76
				c0.26-0.11,0.53-0.18,0.8-0.21c-0.66,0.09-1.33,0.18-1.99,0.27c0.13,0,0.27,0,0.4,0c-0.66-0.09-1.33-0.18-1.99-0.27
				c0.13,0.03,0.26,0.07,0.39,0.1c-0.6-0.25-1.19-0.5-1.79-0.76c0.68,0.37,0.39,0.05-0.87-0.98c-1.02-1.25-1.35-1.54-1-0.88
				c-0.25-0.6-0.5-1.19-0.76-1.79c0.09,0.25,0.14,0.47,0.18,0.73c-0.09-0.66-0.18-1.33-0.27-1.99c0.26,2.75-0.03,5.52,1.63,7.95
				c1.52,2.23,3.69,3.71,6.48,3.71c2.55,0,5.26-1.41,6.48-3.71c3.01-5.69,3.51-11.91,2.34-18.17c-1-5.34-3.6-10.39-6.34-15.03
				c-2.89-4.89-10.05-4.83-12.95,0c-4.9,8.16-9.79,16.31-14.69,24.47c-2.02,3.37-0.86,8.38,2.69,10.26
				C722.35-115.38,726.83-116.39,728.99-119.99L728.99-119.99z"/>
		</g>
	</g>
	<g>
		<g>
			<path d="M735.13-170.19c-0.81,5.16-1.8,10.31-3.54,15.25c-1.78,5.04-4.5,9.35-7.85,13.47c-3.21,3.94-6.52,7.97-7.76,13.01
				c-1.11,4.51-0.27,9.29,3.07,12.65c2.87,2.89,6.93,4.35,10.85,5.12c4.41,0.86,9.5,1.44,13.82-0.1c4.44-1.58,7.31-5.49,8.18-10.06
				c1.06-5.51-0.52-11.13-1.93-16.43c-3.22-12.16-7.54-24.33-7.04-37.08c0.08-1.93-2.92-1.93-3,0c-0.41,10.46,2.34,20.65,5.14,30.63
				c1.4,4.99,2.99,10.02,3.83,15.14c0.73,4.47,0.49,9.75-3,13.08c-3.3,3.15-8.49,2.82-12.69,2.32c-3.67-0.44-7.53-1.36-10.6-3.51
				c-3.54-2.49-4.76-6.62-3.8-10.76c1.11-4.76,4.3-8.52,7.31-12.23c3.4-4.19,6.17-8.56,8.05-13.64c1.92-5.18,2.98-10.62,3.83-16.06
				C738.32-171.28,735.43-172.09,735.13-170.19L735.13-170.19z"/>
		</g>
	</g>
	<g>
		<g>
			<path class="st1" d="M608.69-186.02c0.41,1.52,0.73,3.06,0.95,4.62c-0.09-0.66-0.18-1.33-0.27-1.99
				c0.42,3.28,0.41,6.57-0.03,9.84c0.09-0.66,0.18-1.33,0.27-1.99c-0.45,3.13-1.28,6.16-2.5,9.08c0.25-0.6,0.5-1.19,0.76-1.79
				c-2.24,5.2-5.96,9.53-8.38,14.62c-1.68,3.54-3.06,7.39-2.98,11.37c0.09,4.35,1.87,8.6,5.28,11.39
				c5.65,4.63,13.06,6.62,20.25,5.32c6.87-1.25,12.32-7.29,13.37-14.1c0.6-3.88,0.47-7.69-0.61-11.5c-1.09-3.88-2.94-7.51-4.5-11.21
				c0.25,0.6,0.5,1.19,0.76,1.79c-1.3-3.12-2.21-6.28-2.67-9.64c0.09,0.66,0.18,1.33,0.27,1.99c-0.4-3.22-0.49-6.46-0.56-9.7
				c-0.08-3.75-2.79-6.87-6.5-7.37c-1.6-0.21-3.39-0.01-4.78,0.89c-1.75,1.13-2.67,2.57-3.45,4.48c-2.97,7.34-4.7,14.97-5.61,22.82
				c-0.42,3.61-0.6,7.25-0.52,10.88c0.07,3.21,0.55,6.38,2.93,8.78c2.97,3,7.29,3.41,10.97,1.54c3.5-1.78,4.8-6.99,2.69-10.26
				c-2.31-3.58-6.51-4.6-10.26-2.69c-0.09,0.04-0.17,0.09-0.26,0.13c0.6-0.25,1.19-0.5,1.79-0.76c-0.09,0.02-0.19,0.04-0.28,0.06
				c0.66-0.09,1.33-0.18,1.99-0.27c-0.1,0-0.19,0-0.29-0.01c0.66,0.09,1.33,0.18,1.99,0.27c-0.1-0.02-0.19-0.04-0.29-0.06
				c0.6,0.25,1.19,0.5,1.79,0.76c-0.47-0.23-0.39-0.13,0.24,0.29c0.52,0.35,0.96,0.8,1.31,1.34c0.25,0.6,0.5,1.19,0.76,1.79
				c-0.14-0.4-0.22-0.74-0.28-1.16c0.09,0.66,0.18,1.33,0.27,1.99c-0.37-4.71,0.02-9.56,0.65-14.22c-0.09,0.66-0.18,1.33-0.27,1.99
				c0.92-6.6,2.64-13.04,5.14-19.22c-4.91-0.66-9.82-1.33-14.73-1.99c0.1,4.83,0.31,9.67,1.28,14.43c0.95,4.65,3.1,8.92,4.95,13.26
				c-0.25-0.6-0.5-1.19-0.76-1.79c1.02,2.43,1.94,4.91,2.34,7.53c-0.09-0.66-0.18-1.33-0.27-1.99c0.21,1.56,0.24,3.11,0.06,4.67
				c0.09-0.66,0.18-1.33,0.27-1.99c-0.17,1.16-0.45,2.28-0.9,3.37c0.25-0.6,0.5-1.19,0.76-1.79c-0.21,0.47-0.44,0.93-0.72,1.37
				c-0.7,1.13,0.46-0.39,0.47-0.54c-0.01,0.18-0.47,0.53-0.58,0.64c-0.17,0.17-0.35,0.32-0.52,0.48c-0.63,0.61,1.55-1.03,0.52-0.42
				c-0.51,0.3-1.01,0.58-1.55,0.81c0.6-0.25,1.19-0.5,1.79-0.76c-0.88,0.35-1.78,0.58-2.72,0.72c0.66-0.09,1.33-0.18,1.99-0.27
				c-1.33,0.16-2.65,0.14-3.99-0.03c0.66,0.09,1.33,0.18,1.99,0.27c-1.59-0.24-3.13-0.67-4.62-1.27c0.6,0.25,1.19,0.5,1.79,0.76
				c-0.32-0.14-3.47-1.59-3.36-1.82c0.03-0.05,1.41,1.22,0.61,0.45c-0.23-0.22-0.45-0.46-0.68-0.67c-0.62-0.57,0.93,1.54,0.36,0.48
				c-0.18-0.34-0.38-0.66-0.54-1c0.25,0.6,0.5,1.19,0.76,1.79c-0.28-0.7-0.45-1.38-0.55-2.12c0.09,0.66,0.18,1.33,0.27,1.99
				c-0.08-0.9-0.05-1.77,0.06-2.66c-0.09,0.66-0.18,1.33-0.27,1.99c0.25-1.63,0.72-3.18,1.35-4.71c-0.25,0.6-0.5,1.19-0.76,1.79
				c1.4-3.25,3.4-6.17,5.29-9.14c2.19-3.45,4.02-7.09,5.32-10.98c2.66-7.96,2.78-16.84,0.59-24.92c-1.02-3.79-5.38-6.48-9.23-5.24
				C610.05-193.99,607.59-190.08,608.69-186.02L608.69-186.02z"/>
		</g>
	</g>
	<g>
		<g>
			<path class="st1" d="M534.61-122.83c0.05,0.31,0.1,0.62,0.14,0.93c-0.09-0.66-0.18-1.33-0.27-1.99c0.36,2.97,0.23,5.93-0.16,8.89
				c0.09-0.66,0.18-1.33,0.27-1.99c-1.67,11.81-6.89,23.82-2.95,35.78c1.23,3.73,3.1,7.05,6.41,9.3c3.69,2.51,8.88,2.31,12.57-0.07
				c6.18-3.98,7.92-12.26,8.08-19.13c0.08-3.44-0.37-7.01-1.28-10.33c-0.96-3.52-2.66-6.77-4.1-10.11c0.25,0.6,0.5,1.19,0.76,1.79
				c-0.84-1.99-1.46-3.99-1.77-6.13c0.09,0.66,0.18,1.33,0.27,1.99c-0.4-3.12-0.25-6.26-0.07-9.39c0.22-3.92-3.61-7.67-7.5-7.5
				c-4.25,0.19-7.26,3.3-7.5,7.5c-0.24,4.23-0.27,8.35,0.53,12.54c0.76,3.99,2.78,7.6,4.36,11.3c-0.25-0.6-0.5-1.19-0.76-1.79
				c1.03,2.48,1.74,5.03,2.1,7.69c-0.09-0.66-0.18-1.33-0.27-1.99c0.3,2.51,0.3,5.01-0.01,7.52c0.09-0.66,0.18-1.33,0.27-1.99
				c-0.3,2.14-0.77,4.27-1.6,6.28c0.25-0.6,0.5-1.19,0.76-1.79c-0.17,0.37-0.34,0.74-0.55,1.1c-0.15,0.26-0.88,1.27-0.12,0.24
				c0.93-1.25-0.15,0.18-0.22,0.08c-0.11-0.14,1.79-1.13,0.23-0.36c0.6-0.25,1.19-0.5,1.79-0.76c-0.48,0.19-0.94,0.32-1.45,0.39
				c0.66-0.09,1.33-0.18,1.99-0.27c-0.25,0.02-0.5,0.02-0.75,0c0.66,0.09,1.33,0.18,1.99,0.27c-0.38-0.06-0.7-0.14-1.06-0.26
				c0.6,0.25,1.19,0.5,1.79,0.76c-0.83-0.38-0.73-0.75,0.32,0.43c-0.05-0.05-0.72-0.78-0.76-0.78c0.38,0.03,1.12,1.67,0.34,0.28
				c-0.18-0.33-0.34-0.66-0.5-1c0.25,0.6,0.5,1.19,0.76,1.79c-0.73-1.74-1.2-3.55-1.48-5.42c0.09,0.66,0.18,1.33,0.27,1.99
				c-0.41-3.09-0.29-6.19,0.11-9.28c-0.09,0.66-0.18,1.33-0.27,1.99c0.67-4.89,2.02-9.64,3-14.47c0.6-2.97,1.08-5.99,1.29-9.01
				c0.22-3.04-0.06-6-0.54-9.01c-0.27-1.74-2-3.63-3.45-4.48c-1.61-0.94-3.98-1.34-5.78-0.76c-1.81,0.59-3.57,1.71-4.48,3.45
				C534.37-126.72,534.28-124.94,534.61-122.83L534.61-122.83z"/>
		</g>
	</g>
	<g>
		<g>
			<path class="st1" d="M652.41-91.07c0.2,0.74,0.35,1.48,0.46,2.25c-0.09-0.66-0.18-1.33-0.27-1.99c0.22,1.83,0.17,3.64-0.05,5.47
				c0.09-0.66,0.18-1.33,0.27-1.99c-0.73,5.36-2.79,10.41-3.61,15.75c-0.55,3.63-0.68,6.92-0.13,10.55c0.5,3.26,1.91,6.7,4.16,9.15
				c3.38,3.68,9.15,3.76,13.23,1.19c3.15-1.99,5.34-5.08,6.43-8.62c1.98-6.46-0.9-12.98-2.58-19.14
				c-1.72-6.32-3.02-12.75-3.91-19.25c0.09,0.66,0.18,1.33,0.27,1.99c-0.13-0.95-0.25-1.9-0.36-2.85c-0.24-2.06-0.68-3.78-2.2-5.3
				c-1.3-1.3-3.44-2.28-5.3-2.2c-1.94,0.09-3.95,0.72-5.3,2.2c-1.25,1.37-2.42,3.37-2.2,5.3c0.72,6.14,1.68,12.25,3.07,18.28
				c0.63,2.73,1.33,5.43,2.11,8.12c0.8,2.75,1.8,5.46,2.21,8.3c-0.09-0.66-0.18-1.33-0.27-1.99c0.12,1.07,0.15,2.11,0.03,3.17
				c0.09-0.66,0.18-1.33,0.27-1.99c-0.11,0.71-0.29,1.37-0.54,2.04c0.25-0.6,0.5-1.19,0.76-1.79c-0.19,0.44-0.42,0.84-0.63,1.26
				c-0.55,1.1,1.25-1.33,0.35-0.4c-0.68,0.69-0.82,0.35,0.51-0.26c-0.4,0.19-0.76,0.47-1.18,0.65c0.6-0.25,1.19-0.5,1.79-0.76
				c-0.33,0.12-0.64,0.21-0.99,0.28c0.66-0.09,1.33-0.18,1.99-0.27c-0.25,0.05-0.5,0.06-0.76,0.05c0.66,0.09,1.33,0.18,1.99,0.27
				c-0.25-0.01-0.5-0.07-0.73-0.17c0.6,0.25,1.19,0.5,1.79,0.76c0.72,0.45,1.3,1.04,1.72,1.78c-0.14-0.21-0.27-0.42-0.39-0.64
				c-0.27-0.47-0.49-0.96-0.71-1.45c0.25,0.6,0.5,1.19,0.76,1.79c-0.44-1.13-0.74-2.28-0.93-3.47c0.09,0.66,0.18,1.33,0.27,1.99
				c-0.27-2.06-0.19-4.1,0.07-6.15c-0.09,0.66-0.18,1.33-0.27,1.99c0.58-4.1,1.93-8.01,2.89-12.03c1.24-5.22,1.77-10.59,0.36-15.83
				c-1.02-3.79-5.39-6.48-9.23-5.24C653.76-99.04,651.32-95.13,652.41-91.07L652.41-91.07z"/>
		</g>
	</g>
	<g>
		<g>
			<path d="M612.97-189.64c-0.33,5.79-1.28,11.52-2.87,17.1c-1.59,5.6-3.91,10.83-6.46,16.04c-2.39,4.87-4.7,9.85-5.35,15.29
				c-0.6,5.04,0.33,10.27,3.57,14.3c2.95,3.67,7.52,5.92,12.1,6.75c4.6,0.84,9.92,0.57,13.49-2.83c3.48-3.32,4.09-8.59,3.14-13.09
				c-1.17-5.49-4.31-10.47-6.55-15.57c-5.06-11.54-8.72-24.45-6.04-37.07c0.4-1.88-2.49-2.69-2.89-0.8
				c-2.22,10.46-0.44,21.16,3.07,31.13c1.79,5.09,4.01,10,6.36,14.85c2.09,4.32,4.35,9.17,3.17,14.08
				c-2.37,9.88-16.31,7.41-22.06,2.19c-8.26-7.5-3.48-19.4,0.59-27.72c2.63-5.37,5.05-10.77,6.7-16.53
				c1.69-5.9,2.69-11.99,3.04-18.12C616.07-191.57,613.07-191.56,612.97-189.64L612.97-189.64z"/>
		</g>
	</g>
	<g>
		<g>
			<path d="M541.23-134.02c0.89,9.64-0.62,19.07-4.08,28.08c-3.08,8.02-6.84,16.08-5.55,24.9c0.53,3.65,1.99,7.19,4.53,9.9
				c2.56,2.73,6.45,4.56,10.15,3.15c3.19-1.22,5.33-4.25,6.29-7.44c1.19-3.95,0.24-8.1-1-11.92c-0.77-2.39-1.67-4.75-2.28-7.2
				c-0.64-2.6-0.93-5.25-0.99-7.92c-0.12-5.45,0.68-10.86,1.5-16.23c0.29-1.89-2.6-2.7-2.89-0.8c-1.32,8.64-2.65,17.58-0.41,26.19
				c1.69,6.47,6.65,15.06,0.97,20.98c-2.54,2.64-6,2.11-8.56-0.26c-2.54-2.36-3.9-5.65-4.39-9.04c-1.17-8.08,2.52-15.74,5.36-23.07
				c3.63-9.37,5.27-19.26,4.35-29.3C544.06-135.92,541.05-135.94,541.23-134.02L541.23-134.02z"/>
		</g>
	</g>
	<g>
		<g>
			<path d="M656.87-108.1c0.6,9.41-0.36,18.85-2.92,27.92c-1.27,4.52-3.3,8.86-4.11,13.49c-0.78,4.45-0.63,9.03,0.51,13.4
				c0.99,3.81,2.73,7.31,6.95,8.05c3.39,0.59,7.62-0.13,10.73-1.59c4.01-1.87,4.25-7.22,3.75-11.03c-0.6-4.58-2.39-8.9-3.54-13.35
				c-2.66-10.29-3.36-21.01-2.18-31.57c0.21-1.92-2.79-1.9-3,0c-0.95,8.58-0.65,17.25,0.85,25.75c0.76,4.3,1.91,8.47,3.2,12.63
				c1.22,3.93,2.58,8.27,1.45,12.39c-0.56,2.05-1.91,2.63-3.84,3.14c-1.58,0.41-3.19,0.77-4.82,0.82c-1.45,0.05-3.03-0.11-4.23-1.02
				c-1.54-1.18-2.05-3.44-2.5-5.23c-1.02-4.06-1.14-8.37-0.28-12.48c0.9-4.31,2.75-8.37,3.94-12.6c2.63-9.31,3.64-19.07,3.03-28.72
				C659.74-110.01,656.74-110.03,656.87-108.1L656.87-108.1z"/>
		</g>
	</g>
</g>
</svg>
