<?xml version="1.0" encoding="utf-8"?>
<!-- Generator: Adobe Illustrator 24.1.2, SVG Export Plug-In . SVG Version: 6.00 Build 0)  -->
<svg version="1.1" xmlns="http://www.w3.org/2000/svg" xmlns:xlink="http://www.w3.org/1999/xlink" x="0px" y="0px"
	 viewBox="0 0 1600 1200" style="enable-background:new 0 0 1600 1200;" xml:space="preserve">
<style type="text/css">
	.st0{fill:none;stroke:#000000;stroke-width:8;stroke-miterlimit:10;}
</style>
<g id="Lag_2">
</g>
<g id="Lag_1">
	<g>
		<path d="M896.73,776.49c-5.07,0-10.15-0.11-15.21,0.05c-2.23,0.07-4.09-0.2-5-2.41c-0.93-2.26-0.11-5.05,2.12-6.69
			c3.09-2.27,6.95-2.95,10.52-2.94c4.86,0.02,9.58-1.63,14.6-0.48c2.68,0.62,5.8-1.01,8.75-1.11c3.79-0.13,4.93,1.13,5.18,4.8
			c0.07,1.01,0.03,2.03-0.01,3.04c-0.19,4.91-0.98,5.79-5.73,5.87c-5.07,0.09-10.14,0.02-15.21,0.02
			C896.73,776.6,896.73,776.55,896.73,776.49z"/>
	</g>
	<g>
		<path d="M1000.38,733.91c14.05,2.17,21.8-7.1,29.88-15.56c1.55-1.62,2.98-4.25,2.91-6.36c-0.19-5.21-0.82-10.51-2.22-15.52
			c-0.69-2.48-3.45-4.39-5.29-6.57c-7.63,1.64-16.09-3.05-22.29,4.69c-3.98-10.43,5.39-11.9,10.66-16.49
			c-6.1-14.07-11.26-28.49-18.54-41.74c-3.97-7.21-7.36-16.14-16.6-19.35c-4.31-5.9-10.53-9.48-16.91-12.23
			c-5.57-2.4-11.26-5.56-17.81-4.72c-2.65,0.34-4.63-0.7-6.85-2.11c-3.66-2.32-7.75-3.95-11.66-5.88c-0.36-5.89-6.84-5.33-9.52-9.01
			c-2.77-3.8-6.69-6.75-9.9-10.25c-0.79-0.86-0.82-2.43-1.41-4.34c-10.05,5.6-19.32,11.37-29.11,16.07
			c-14.64,7.03-29.59,13.41-44.5,19.85c-9,3.89-18.06,7.73-27.35,10.82c-3.14,1.04-4.29,2.56-5.77,5.12
			c-8.16,14.15-15.87,28.52-22.84,43.28c-3.33,7.05-6.02,14.53-10.32,20.93c-3.23,4.81-3.7,8.93-1.95,13.94
			c0.19,0.55-0.26,1.32-0.41,1.99c-2.38,2.91-5.58-4.19-7.8,0.64c-1.35-1.21-2.7-2.42-4.34-3.88c-9.08,8.11-13.82,18.75-13.84,31.68
			c0,4.17,1.12,8.2,4.32,10.15c3.1,1.89,7.54,3.04,11.07,2.49c6.68-1.04,13.7-1.45,19.77-5.2c0.79-0.49,2.16-0.07,3.31-0.07
			c2.34,2.73,1.74,5.19-0.78,7.41c-3.35,2.95-2.99,5.45-0.41,9.16c6.87,9.86,13.49,19.94,19.44,30.37
			c5.88,10.32,14.99,16.24,25.17,21.2c8.5,4.14,17.47,5.12,26.75,4.39c1.46-0.11,2.94-0.12,4.39,0c4.71,0.39,9.92,4.98,9.97,9.58
			c0.04,3.75,1.82,8.06-1.99,11.2c0.83,6.11-1.69,11.82-2.17,17.74c-0.54,6.69,0.04,13.33-2.09,20.02
			c-1.87,5.86-1.96,12.29-2.88,18.81c-9.79-2.49-4.26-10.54-6.77-15.46c-10.66,5.73-21.17,11.76-32.02,17.1
			c-8.18,4.03-16.68,7.48-25.24,10.65c-9.22,3.41-18.67,6.22-28.04,9.21c-7.62,2.44-15.62,3.14-23.47,4.14
			c-2.5,0.32-5.29,3.79-8.12,0.39c-0.31-0.37-1.84-0.4-2.04-0.08c-4.03,6.11-10.23,4.09-15.82,4.35c-0.73,0.03-1.68-0.3-2.16,0.05
			c-5.67,4.03-11.53,1.59-16.82-0.23c-7.38-2.53-14.78-1.78-22.11-2.04c-6.87-4.88-11.41-11.56-14.59-19.08
			c-1.97-4.67-4.25-9.74-4.22-14.61c0.05-8.46-0.75-16.83,1.42-25.58c2.38-9.61,7.15-17.12,12.88-24.38
			c9.5-12.02,22.99-15.12,37.8-15.51c0-3.23,0-6.43,0-9.96c-7.99-8.06-16.34-21.98-19.05-32.29c-0.45-1.7-0.34-3.56-0.35-5.35
			c-0.04-5.49,0.04-10.99-0.03-16.48c-0.07-5.7,1.63-10.58,3.9-15.97c3.77-8.93,8.2-17.23,13.71-25.07
			c1.41-2.01,2.87-4.06,4.63-5.76c9.86-9.52,19.81-18.94,30.51-29.13c0-16.02,0.1-33.18-0.05-50.33
			c-0.05-6.42,0.65-12.61,2.13-18.89c3.05-12.97,6.51-25.69,13.01-37.48c7.25-13.14,13.94-26.76,25.75-36.51
			c14.61-12.07,30.28-22.03,48.39-28.99c18.82-7.24,37.7-5.6,56.76-6.11c1-0.03,2.23,0.12,2.98,0.68c3.79,2.85,8.13,3.28,12.67,4.05
			c6.55,1.12,11.56,6.07,16.57,10.08c4.39,3.52,8.46,3.6,12.79,1.7c6.29-2.77,12.72-3.53,19.48-3.41
			c10.98,0.2,21.98,0.32,32.95-0.09c3.78-0.14,6.95,1.07,10.02,2.46c3.73,1.69,7,3.91,11.35,4.62c3.06,0.5,5.9,3.58,8.41,5.96
			c5.85,5.53,11.95,10.92,17,17.14c5.99,7.37,20.05,27.2,24.38,40.41c2.83,8.62,6.67,17.03,9.1,25.85
			c2.18,7.91,3.72,16.01,6.02,23.88c1.64,5.61,1.13,11.64,3.98,17.03c0.91,1.72,0.31,4.27,0.32,6.44
			c0.02,8.06-0.54,16.16,0.18,24.15c0.63,6.96-2.63,13.19-2.48,19.98c0.03,1.51-2.13,3.14-1.96,4.57
			c1.47,12.68-3.19,24.92-2.38,37.55c0.62,9.7,4.09,18.17,10.39,25.35c8.07,9.21,16.51,18.08,24.8,27.1
			c5.01,5.45,4.93,12.68,6.49,19.26c0.95,4.01,0.49,8.13,1.88,12.39c1.19,3.68-0.77,8.9-2.59,12.87c-1.53,3.34-0.62,8.2-5.23,9.92
			c-0.85,5.87-7.21,7.57-9.42,12.57c-2.04,4.61-6.35,7.08-10.51,9.88c-4.47,3.01-8.06,7.42-11.74,11.5
			c-3.62,4.02-7.59,7.2-12.97,8.57c-2.32,0.59-4.82,1.32-9.89,0.81c-4.72-0.48-8.95,1.32-13.4,2.08
			c-6.21,1.05-12.86-1.09-18.83,2.37c-5.25-2.49-10.93,1.91-15.66-0.22c-7.73-3.48-16.2-5.01-23.48-9.67
			c-8.72-5.58-16.9-11.68-23.8-19.46c-3.49-3.94-7.67-7.19-9.22-12.69c-0.53-1.88-3.05-3.2-5.66-5.74
			c-1.33,6.24-0.1,11.34-2.78,15.83c-0.76,1.27,0.77,3.89,1.22,5.9c1.18,5.25,2.19,10.49-2.11,15c-4.26-2.89-5.75-6.44-6.23-11.61
			c-0.48-5.15-2.24-10.24-1.88-15.6c0.17-2.55-0.74-5.45,0.17-7.63c2.98-7.1,2.37-14.98,5.21-22.01c2.17-5.37,1.29-11.38,5.14-16.62
			c3.66-4.99,6.03-10.02,13.43-10.14c4.3-0.07,8.21-3.24,12.2-4.85c4.07-1.65,8.78-4.14,12.29-7.31
			c10.54-9.53,19.5-20.36,26.72-32.77c2.86-4.91,4.31-9.45,3.99-14.87C1000.3,738.27,1000.38,736.49,1000.38,733.91z"/>
	</g>
	<g>
		<path d="M876.57,676.02c-6.57,0.5-12.34,0.94-18.09,1.37c-0.42,6.56-0.83,12.79-1.21,19.03c-0.05,0.87,0.36,1.99-0.04,2.58
			c-1.21,1.77-0.56,4.85-3.71,5.3c-3.9,0.55-2.95-2.94-3.73-4.69c-2.17-4.85-4.52-9.72-2.49-15.39c0.53-1.47-0.16-3.38-0.35-5.94
			c-3,0.51-5.98,0.25-8.7,0.72c-5.84,1.02-9.44,0.75-15.8,1.12c-3.41,0.2-7.2,0.26-10.66,0.28c-3.56,0.02-5.24,0.18-5.35-2.52
			c-0.11-2.75,2.86-0.91,5.41-1.45c4.47-0.94,9.61-0.58,14.13-1.17c13.78-1.77,26.9-1.35,40.7-2.98c1.45-0.17,3.98-1.11,5.43-1.17
			c3.21-0.12,4.52-1.51,5.26,2.59C877.67,675.41,876.51,673.37,876.57,676.02z"/>
		<g>
			<path d="M876.57,674.52c-6.03,0.46-12.06,0.92-18.09,1.37c-0.85,0.06-1.44,0.64-1.5,1.5c-0.3,4.63-0.6,9.25-0.89,13.88
				c-0.13,2.03-0.46,4.17-0.25,6.2c0.08,0.8-0.11,1.05-0.4,1.77c-0.24,0.58-0.38,1.19-0.56,1.8c-0.33,1.15-0.93,2.08-2.34,1.82
				c-0.81-0.15-0.79-1.05-0.9-1.77c-0.5-3.3-2.54-6.18-3.28-9.46c-0.57-2.52-0.23-4.69,0.42-7.14c0.54-2.02-0.16-4.16-0.34-6.19
				c-0.09-1.05-0.88-1.61-1.9-1.45c-2.24,0.35-4.52,0.27-6.77,0.47c-2.02,0.19-4.02,0.61-6.04,0.79c-3.9,0.35-7.83,0.34-11.73,0.55
				c-4.17,0.23-8.43,0.44-12.61,0.25c-0.94-0.04-1.71-0.13-1.45-1.33c-0.01,0.05-0.18,0.24-0.19,0.24c0.22,0,0.44,0.01,0.65,0.03
				c0.73,0.05,1.46,0.18,2.2,0.19c2,0.02,4.03-0.57,6.04-0.7c2.17-0.14,4.34-0.17,6.51-0.31c4.6-0.29,9.17-0.98,13.78-1.29
				c9.34-0.62,18.71-0.76,28.02-1.75c3.4-0.36,6.62-1.43,10.03-1.67c0.42-0.03,0.35-0.06,0.4,0.01c0.36,0.53,0.21,1.34,0.53,1.83
				c-0.15-0.23,2.14-1.54,0.62-1.06c-0.37,0.12-0.65,0.32-0.9,0.61c-0.54,0.64-0.57,1.51-0.57,2.31c0,1.93,3,1.93,3,0
				c0,0.27,0.02-0.56,0.01-0.58c0,0-0.69,0.51-0.7,0.53c-0.04,0.06-0.51,0.2,0.3-0.05c0.77-0.23,1.21-0.92,1.23-1.7
				c0.05-1.33-0.51-3.19-1.51-4.12c-0.96-0.9-2.2-0.84-3.41-0.67c-1.57,0.21-3.11,0.3-4.66,0.7c-4.74,1.22-9.72,1.39-14.6,1.67
				c-5.21,0.31-10.43,0.49-15.64,0.8c-5.26,0.31-10.48,1.06-15.73,1.41c-2.39,0.16-4.79,0.18-7.18,0.35
				c-2.1,0.16-4.26,0.8-6.36,0.63c-1.41-0.12-3.08-0.5-4.18,0.67c-1.05,1.11-0.89,3.23-0.15,4.47c0.76,1.3,2.21,1.65,3.61,1.75
				c2.11,0.15,4.27,0.02,6.38-0.02c5.32-0.09,10.67-0.32,15.99-0.61c2.41-0.13,4.79-0.45,7.17-0.81c2.88-0.44,5.81-0.27,8.7-0.72
				c-0.63-0.48-1.27-0.96-1.9-1.45c0.1,1.14,0.3,2.26,0.45,3.4c0.15,1.17-0.02,1.94-0.33,3.05c-0.65,2.31-0.66,4.72-0.21,7.06
				c0.45,2.37,1.39,4.6,2.36,6.8c0.32,0.74,0.72,1.45,0.88,2.24c0.13,0.59,0.16,1.19,0.29,1.78c0.3,1.39,1.1,2.62,2.52,3.05
				c1.59,0.49,3.65,0.11,4.88-1.03c1.12-1.04,1.37-2.51,1.81-3.9c0.21-0.65,0.63-1.19,0.76-1.86c0.21-1.08-0.08-2.28-0.02-3.39
				c0.37-6.03,0.76-12.06,1.15-18.1c-0.5,0.5-1,1-1.5,1.5c6.03-0.46,12.06-0.92,18.09-1.37
				C878.49,677.38,878.5,674.38,876.57,674.52z"/>
		</g>
	</g>
	<path d="M922.22,636.29c-3.38,2.18-5.7,4.68-4.53,9.06c0.15,0.54,0.01,1.16,0.01,1.75c0.03,2.59-0.92,5.02-3.61,5.05
		c-2.78,0.03-3.62-2.47-3.53-5.02c0.45-12.1,5.81-21.45,15.92-28.06c1.42-0.93,3.15-1.39,4.65-2.22c10.71-5.94,22.15-0.61,28.57,7.4
		c3.02,3.77,7.04,7.3,5.28,12.98c-0.53,1.73-1.71,3.25-2.82,5.28c-3.34-3.77-5.63-6.35-7.92-8.93c-7.32-8.28-15.43-6.89-24.37-2.86"
		/>
	<path d="M872.49,729.55c-1.48-5.19,1.64-7.16,4.26-8.53c10.84-5.69,22.4-8.6,34.75-7.26c3.86,0.42,6.92,4.2,6.07,7.95
		c-0.54,2.39-1.84,4.8-3.4,6.71c-1.82,2.24-4.04,0.2-6.2-0.04c-5.72-0.64-11.81-1.35-17.27-0.03
		C884.6,729.83,878.77,729.12,872.49,729.55z"/>
	<path d="M942.21,690.96c0,4.07,0.1,8.14-0.03,12.21c-0.09,2.9-0.74,5.84-3.84,6.95c-2.31,0.83-5.25-1.7-6.58-5.65
		c-1.35-4.01-2.79-7.87-0.79-12.42c1.19-2.71,0.28-6.29,0.76-9.4c0.55-3.61,1.33-7.25,2.51-10.7c0.78-2.26,3.05-2.39,4.96-0.79
		c2.09,1.76,3.37,3.75,3.2,6.73c-0.24,4.35-0.06,8.72-0.06,13.08C942.29,690.96,942.25,690.96,942.21,690.96z"/>
	<g>
		<g>
			<path d="M842.93,872.8c0-0.01,0-0.01,0.01-0.01c0-0.01,0.01-0.01,0.01-0.02c0,0,0,0,0,0c0,0,0,0,0,0c0.1-0.12,0.08-0.21,0-0.27
				c-0.02-0.03-0.04-0.07-0.08-0.09c0.03-0.04,0.07-0.08,0.1-0.11c-0.03,0.04-0.09,0.06-0.14,0.09c-0.01,0-0.01-0.01-0.02-0.01
				c0.01-0.06,0-0.11-0.04-0.15c0.03-0.03,0.06-0.07,0.09-0.1c-0.01,0.01-0.08,0.04-0.15,0.07c-0.03-0.01-0.05-0.02-0.08-0.02
				c-0.01-0.01-0.02-0.01-0.03-0.02c0.02-0.02,0.03-0.04,0.05-0.06c0.12-0.14,0-0.18-0.12-0.15c-0.07-0.13-0.2-0.2-0.32-0.12
				c-0.21-0.18-0.52-0.31-0.64-0.17c-0.01,0.01-0.01,0.02-0.02,0.02c-0.32-0.15-0.64-0.24-0.75-0.11c-0.05,0.06-0.1,0.11-0.14,0.17
				c-0.35-0.09-0.66-0.11-0.78,0.03c-2.92,3.76-6.17,7.21-9.77,10.33c-5.2,4.28-10.64,8.22-16.29,11.81
				c-0.17,0.1-0.34,0.21-0.51,0.31c-22.49,13.27-46.13,24.45-69.69,35.63c0.02-0.01,0.13,0.1,0.29,0.26
				c-0.17,0.08-0.33,0.16-0.5,0.24c-0.26,0.13,0.07,0.32,0.3,0.43c-0.19,0.09-0.38,0.18-0.57,0.27c-0.29,0.14,0.15,0.28,0.42,0.35
				c-0.09,0.04-0.19,0.09-0.28,0.13c-0.33,0.16,0.32,0.26,0.57,0.29c-0.11,0.05-0.22,0.1-0.33,0.16c-0.43,0.2-0.15,0.2,0.05,0.32
				c0.09,0.05,0.29,0.05,0.53,0.03c-0.1,0.07-0.14,0.15-0.05,0.29c0.08,0.12,0.54-0.06,0.87-0.2c-0.05,0.12-0.01,0.18,0.25,0.06
				c0.01,0,0.02-0.01,0.03-0.01c0.02,0.09,0.09,0.14,0.24,0.07c9.5-4.51,18.99-9.01,28.41-13.66c2.66-1.31,5.31-2.62,7.95-3.96
				c15.72-5.88,29.73-13.9,42.02-24.05c0.15-0.1,0.29-0.21,0.44-0.32c1.04-0.73,2.07-1.47,3.08-2.23c2.31-1.69,4.5-3.52,6.57-5.48
				c1.12-1.01,2.21-2.05,3.26-3.12c0.22-0.21,0.42-0.43,0.64-0.64c0.19-0.19,0.38-0.39,0.56-0.58c1.32-1.38,2.56-2.82,3.74-4.33
				c0.24-0.3,0.49-0.59,0.73-0.89c0.04-0.05,0.03-0.1,0-0.15c0.03-0.04,0.06-0.07,0.1-0.11c0.01-0.02,0-0.03,0-0.05
				c0.02-0.02,0.04-0.05,0.05-0.07C843,872.87,842.97,872.84,842.93,872.8z"/>
		</g>
	</g>
	<g>
		<g>
			<path d="M980.17,887.47c-0.02-0.02-0.04-0.06-0.06-0.09c0.03,0.01,0.07,0.02,0.1,0.02c0.41,0.09,0.08-0.28-0.31-0.61
				c0.44,0.09,0.23-0.22-0.04-0.39c0-0.09-0.06-0.19-0.21-0.23c-0.05-0.01-0.1-0.02-0.14-0.03c-0.01-0.05-0.04-0.1-0.08-0.11
				l-0.26-0.06c0,0,0-0.01,0-0.01c-7.45-1.63-14.9-3.26-22.27-5.21c-2.42-0.64-4.84-1.32-7.25-2.04c-0.6-0.17-1.19-0.35-1.78-0.53
				c-0.78-0.28-1.57-0.55-2.34-0.85c-1.23-0.48-2.46-0.98-3.68-1.52c-0.02-0.01-0.04-0.01-0.07-0.02c-0.16-0.07-0.32-0.13-0.48-0.2
				c-2.35-0.64-4.64-1.39-6.9-2.23c-0.23-0.1-0.47-0.19-0.71-0.29c-0.4-0.17-0.8-0.35-1.19-0.52c-0.9-0.4-1.81-0.8-2.7-1.22
				c-0.44-0.21-0.89-0.42-1.33-0.64c-0.71-0.34-1.42-0.7-2.12-1.06c-0.44-0.23-0.88-0.45-1.32-0.68c-1.16-0.61-2.32-1.24-3.47-1.9
				c-0.01-0.01-0.03,0.01-0.04,0.04c-0.07-0.04-0.14-0.07-0.2-0.11c0.01,0,0,0.04-0.01,0.08c-0.04-0.02-0.08-0.04-0.11-0.06
				c0,0-0.02,0.05-0.04,0.1c-0.01-0.01-0.02-0.01-0.03-0.02c-0.02-0.01-0.04-0.01-0.06-0.02c-0.01-0.01-0.02-0.01-0.03-0.02
				c-0.11-0.06-0.16,0-0.19,0.1c-0.01,0.01-0.01,0.01-0.02,0.02c-0.03,0.02-0.05,0.04-0.07,0.07c-0.05-0.03-0.1-0.05-0.15-0.08
				c0.04,0.02,0.07,0.07,0.09,0.12c-0.01,0-0.01,0.01-0.02,0.02c-0.03,0.01-0.05,0.02-0.07,0.04c-0.02-0.01-0.05-0.03-0.08-0.04
				c-0.08-0.04-0.03,0.05,0.03,0.14c0,0.02,0,0.03,0.01,0.05c-0.03,0.01-0.05,0.01-0.08,0.03c-0.03-0.02-0.05-0.03-0.08-0.04
				c-0.11-0.06-0.09,0.04-0.04,0.15c-0.05,0.07-0.09,0.15-0.08,0.23c-0.11,0.17-0.17,0.37-0.1,0.49c-0.13,0.31-0.19,0.64-0.04,0.72
				c0.06,0.04,0.13,0.07,0.19,0.1c-0.03,0.28-0.01,0.51,0.12,0.57c0.03,0.02,0.06,0.03,0.09,0.05c0,0.29,0.06,0.51,0.2,0.58
				c5.05,2.89,10.29,5.38,15.72,7.47c4.07,1.61,8.22,3,12.43,4.19c9.84,2.95,19.84,5.15,29.87,7.34c0.04,0.01,0.08-0.14,0.12-0.37
				c0.15,0.03,0.3,0.07,0.45,0.1c0,0,0-0.05,0-0.13c0.19,0.04,0.37,0.08,0.56,0.12c0.08,0.02,0.05-0.17-0.01-0.4
				c0.14,0.03,0.28,0.06,0.43,0.09c0.1,0.02-0.02-0.36-0.22-0.81c0.09,0.02,0.17,0.04,0.26,0.06
				C980.76,888.17,980.13,887.42,980.17,887.47z"/>
		</g>
	</g>
	<g>
		<g>
			<path d="M766.34,895.74c1.93,0,1.93-3,0-3C764.41,892.74,764.4,895.74,766.34,895.74L766.34,895.74z"/>
		</g>
	</g>
	<g>
		<g>
			<path d="M1257.37,932.52c10.55-17.82,19.63-36.5,27.13-55.81c2.13-5.48,4.13-11.01,6-16.58c0.62-1.83-2.28-2.62-2.89-0.8
				c-6.55,19.46-14.67,38.37-24.31,56.5c-2.72,5.12-5.57,10.18-8.52,15.17C1253.8,932.67,1256.39,934.18,1257.37,932.52
				L1257.37,932.52z"/>
		</g>
	</g>
	<g>
		<path d="M1287.47,866.7c-1.13-0.68-2.26-1.39-3.34-2.15c-1.09-0.77-2.1-1.46-3.26-1.94c-2.35-0.96-4.91-1.65-7.41-2.39
			c-5.02-1.49-10.13-2.72-15.14-4.41c-2.5-0.83-4.98-1.72-7.45-2.63c-2.48-0.88-4.95-1.94-7.32-3.11c-2.38-1.17-4.7-2.45-6.96-3.87
			c-2.25-1.42-4.44-2.96-6.44-4.8c-1-0.93-1.95-1.93-2.74-3.13c-0.39-0.61-0.74-1.26-0.98-2.01c-0.23-0.74-0.33-1.62-0.14-2.44
			c0.16-0.8,0.58-1.62,1.18-2.22c0.6-0.61,1.33-0.99,2.03-1.26c1.43-0.52,2.85-0.63,4.22-0.66c2.75-0.02,5.4,0.37,8.02,0.83
			c2.61,0.47,5.19,1.05,7.74,1.6c5.03,1.08,10.26,1.56,15.46,2.12c5.22,0.54,10.43,0.95,15.72,1.77l-0.44,2.59
			c-5.08-0.84-10.33-1.32-15.54-1.92c-5.22-0.61-10.47-1.15-15.69-2.33c-2.57-0.58-5.11-1.19-7.65-1.67
			c-2.54-0.48-5.1-0.88-7.6-0.88c-1.24,0.01-2.48,0.12-3.53,0.49c-1.06,0.38-1.76,1.01-1.95,1.97c-0.23,0.89,0.17,1.97,0.8,2.96
			c0.64,1,1.49,1.93,2.4,2.8c1.84,1.73,3.94,3.25,6.11,4.66c2.17,1.4,4.44,2.68,6.75,3.86c2.32,1.18,4.67,2.22,7.12,3.12
			c2.44,0.93,4.9,1.84,7.37,2.69c4.91,1.73,10.01,3.01,15.03,4.57c2.51,0.78,5.03,1.48,7.53,2.53c1.27,0.53,2.43,1.35,3.47,2.1
			c1.06,0.75,2.15,1.46,3.25,2.14L1287.47,866.7z"/>
	</g>
	<g>
		<path d="M1280.38,835.96c12.76,1.65,25.63,2.46,38.46,1.94l2.41-0.07l2.4-0.18l4.8-0.36c1.6-0.09,3.19-0.32,4.79-0.5l4.78-0.56
			c3.18-0.46,6.36-0.96,9.53-1.48c3.16-0.61,6.33-1.15,9.49-1.82c12.62-2.6,25.18-5.72,37.85-8.43c12.67-2.74,25.44-5.06,38.28-6.87
			l0.41,2.97c-12.77,1.78-25.46,4.06-38.08,6.76c-12.63,2.67-25.18,5.77-37.9,8.36c-3.17,0.67-6.38,1.21-9.57,1.82
			c-3.21,0.52-6.42,1.02-9.64,1.48l-4.85,0.56c-1.62,0.18-3.23,0.41-4.86,0.49l-4.87,0.35l-2.44,0.18l-2.44,0.07
			c-13.02,0.49-26.05-0.36-38.93-2.04L1280.38,835.96z"/>
	</g>
	<g>
		<g>
			<path d="M1350.17,869.09c-10.33-0.65-20.7,1.57-28.67,8.46c-6.47,5.59-10.51,13.36-13.56,21.22c-1.56,4.01-2.86,8.11-4.23,12.18
				c-0.62,1.83,2.28,2.62,2.89,0.8c4.91-14.56,10.22-31.48,26.04-37.44c5.6-2.11,11.6-2.59,17.54-2.22
				C1352.1,872.21,1352.09,869.21,1350.17,869.09L1350.17,869.09z"/>
		</g>
	</g>
	<g>
		<path d="M1350.86,869.02c9.71,2.82,19.76,4.5,29.88,5.54c10.12,1.03,20.33,1.43,30.54,1.71c2.56,0.03,5.12,0.27,7.46-0.21
			c1.17-0.25,2.26-0.68,3.13-1.41c0.87-0.73,1.56-1.71,1.8-2.77c0.26-1.05-0.02-2.17-0.72-3.02c-0.69-0.86-1.78-1.43-2.91-1.85
			c-1.15-0.42-2.36-0.67-3.62-0.9c-1.26-0.24-2.52-0.49-3.77-0.75c-10.02-2.1-19.94-4.61-29.96-6.54l0.11-0.63
			c10.09,1.79,20.04,4.15,30.06,6.1c1.25,0.24,2.51,0.48,3.76,0.69c1.26,0.21,2.56,0.44,3.83,0.87c1.25,0.44,2.55,1.05,3.51,2.17
			c0.96,1.1,1.4,2.71,1.07,4.15c-0.31,1.45-1.15,2.67-2.21,3.6c-1.08,0.95-2.43,1.5-3.74,1.81c-2.69,0.6-5.29,0.38-7.83,0.41
			c-10.23-0.06-20.48-0.24-30.73-1.07c-10.24-0.83-20.47-2.32-30.47-4.99L1350.86,869.02z"/>
	</g>
	<g>
		<path d="M1381.88,858.16c12.54-1.14,25.12-1.07,37.64-1.71c6.26-0.35,12.55-0.59,18.73-1.35c3.09-0.38,6.15-0.95,9.13-1.75
			c2.97-0.82,5.92-1.86,8.39-3.53c1.18-0.82,2.17-1.94,2.18-3.13c0.04-1.17-0.93-2.35-2.12-2.93c-1.22-0.59-2.73-0.69-4.26-0.68
			l-4.7,0.05l-18.85,0.13c-12.56,0.04-25.11,0.16-37.66,0.6l-0.04-1.07c12.55-0.58,25.13-0.94,37.69-1.05l18.84-0.18l4.72-0.06
			c1.59,0,3.32,0.05,4.96,0.83c0.81,0.4,1.54,0.97,2.1,1.71c0.56,0.73,0.95,1.68,0.93,2.68c-0.01,0.99-0.42,1.92-0.96,2.64
			c-0.54,0.73-1.2,1.3-1.89,1.79c-2.76,1.87-5.82,2.93-8.89,3.79c-3.08,0.84-6.21,1.42-9.35,1.82c-6.3,0.79-12.57,1.05-18.85,1.42
			c-12.58,0.68-25.14,0.77-37.7,0.63L1381.88,858.16z"/>
	</g>
	<g>
		<path d="M1433.19,817.65c3.18-0.37,6.46-0.89,9.69-1.38l9.75-1.52l9.77-1.47c1.63-0.23,3.27-0.46,4.91-0.67
			c1.63-0.21,3.35-0.38,5.05-0.41c3.4-0.05,6.85,0.25,10.18,1.51c0.83,0.33,1.65,0.72,2.43,1.26c0.77,0.54,1.53,1.23,2.05,2.21
			c0.25,0.49,0.42,1.05,0.46,1.63c0.03,0.31,0.01,0.52,0,0.75c0,0.23-0.02,0.46-0.05,0.69c-0.1,0.92-0.33,1.87-0.75,2.74
			c-0.82,1.78-2.34,3.08-3.86,3.96c-1.55,0.9-3.17,1.48-4.78,1.99c-3.24,0.98-6.49,1.6-9.74,2.21l-19.41,3.58
			c-6.49,1.13-13,2.23-19.6,2.83c-13.03,1.2-25.85,4.37-38.9,6.32l-0.17-1.13c12.95-2.08,25.73-5.4,38.92-6.78
			c6.5-0.66,12.97-1.83,19.42-3.04l19.36-3.81c3.21-0.64,6.42-1.3,9.47-2.26c1.51-0.49,3-1.06,4.29-1.83c1.29-0.77,2.37-1.76,2.91-3
			c0.28-0.62,0.45-1.29,0.51-2c0.02-0.18,0.03-0.36,0.03-0.54c0.01-0.18,0.01-0.38,0-0.48c-0.02-0.25-0.1-0.48-0.22-0.73
			c-0.53-0.98-1.88-1.79-3.26-2.31c-2.85-1.05-6.08-1.33-9.24-1.24c-1.59,0.05-3.15,0.22-4.78,0.45c-1.62,0.22-3.24,0.46-4.86,0.72
			l-9.72,1.58l-9.73,1.63c-3.26,0.53-6.47,1.09-9.82,1.51L1433.19,817.65z"/>
	</g>
	<g>
		<g>
			<path d="M727.68,995.58c1.93,0,1.93-3,0-3C725.75,992.58,725.75,995.58,727.68,995.58L727.68,995.58z"/>
		</g>
	</g>
	<g>
		<g>
			<path d="M1017.05,980.44c-14.24,5.07-27.85,12.67-38.42,23.61c-3.01,3.11-5.73,6.49-8.14,10.08c-1.08,1.61,1.52,3.11,2.59,1.51
				c8.17-12.15,20.15-21.17,33.23-27.5c3.76-1.82,7.61-3.4,11.54-4.8C1019.65,982.69,1018.87,979.79,1017.05,980.44L1017.05,980.44z
				"/>
		</g>
	</g>
	<g>
		<g>
			<path d="M813.86,886.66c-11.46,5.55-22.92,11.09-34.39,16.64c-5.4,2.61-10.83,5.17-16.2,7.86c-4.29,2.15-8.52,4.49-12.34,7.41
				c-4.61,3.53-8.71,7.75-11.14,13.1c2.74,1.16,5.48,2.31,8.22,3.47c0.03-0.23,0.07-0.46,0.12-0.69c0.02-0.07,0.38-1.02,0.11-0.46
				c-0.25,0.53,0.11-0.15,0.17-0.25c0.19-0.31,0.63-0.59,0.03-0.08c0.16-0.14,0.36-0.33,0.5-0.5c-0.21,0.26-0.54,0.33-0.08,0.06
				c0.11-0.07,0.99-0.53,0.39-0.26c-0.58,0.26,0.41-0.09,0.46-0.11c2.28-0.59,3.88-3.25,3.14-5.54c-0.76-2.35-3.09-3.78-5.54-3.14
				c-3.93,1.02-7.4,4.46-7.99,8.56c-0.32,2.25,0.37,4.36,2.61,5.31c1.89,0.8,4.69,0.2,5.62-1.84c0.46-1.01,0.97-1.99,1.56-2.94
				c0.32-0.52,0.66-1.03,1.01-1.52c0.14-0.2,0.29-0.39,0.43-0.59c-0.63,0.84,0.12-0.12,0.21-0.23c1.46-1.74,3.12-3.3,4.89-4.72
				c0.18-0.15,0.86-0.65,0.12-0.1c0.2-0.15,0.4-0.3,0.6-0.45c0.45-0.33,0.92-0.66,1.38-0.98c0.99-0.68,2-1.32,3.03-1.94
				c2.07-1.25,4.2-2.39,6.36-3.48c10.69-5.43,21.59-10.48,32.38-15.71c6.29-3.04,12.59-6.09,18.88-9.13
				c2.12-1.03,2.86-4.22,1.61-6.16C818.62,886.09,816.14,885.56,813.86,886.66L813.86,886.66z"/>
		</g>
	</g>
	<g>
		<g>
			<path d="M742.99,926.59c-6.71,22.49-11.84,45.45-15.2,68.68c-3.33,23.07-4.94,46.38-4.74,69.69c0.11,13.25,0.81,26.49,2.06,39.67
				c0.18,1.91,3.18,1.92,3,0c-2.2-23.28-2.66-46.72-1.31-70.07c1.35-23.16,4.48-46.21,9.3-68.91c2.73-12.89,6.01-25.65,9.78-38.27
				C746.44,925.53,743.54,924.74,742.99,926.59L742.99,926.59z"/>
		</g>
	</g>
	<g>
		<g>
			<path d="M1075.52,1101.09c0.15-15.29,0.05-30.59-0.23-45.89c-0.3-16.13-0.73-32.28-1.9-48.38c-1.31-18.08-3.52-36.39-8.57-53.84
				c-5.17-17.85-13.77-34.93-27.68-47.55c-12.63-11.46-29.3-19.43-46.64-18.67c-2.16,0.09-4.3,0.34-6.44,0.68
				c-1.9,0.31-1.09,3.2,0.8,2.89c16.83-2.71,33.79,3.78,46.77,14.31c14.27,11.59,23.45,27.67,29.03,45
				c5.61,17.43,8.01,35.87,9.48,54.07c1.25,15.47,1.71,31.02,2.04,46.54c0.33,15.42,0.46,30.86,0.37,46.28
				c-0.01,1.52-0.02,3.03-0.04,4.55C1072.5,1103.02,1075.5,1103.02,1075.52,1101.09L1075.52,1101.09z"/>
		</g>
	</g>
	<g>
		<g>
			<path d="M831.36,861.88c-3.41,4.35-7.27,8.35-11.6,11.8c-0.39,0.31-1.35,0.97,0.4-0.3c-0.22,0.16-0.43,0.32-0.64,0.48
				c-0.54,0.4-1.08,0.79-1.63,1.17c-1.09,0.75-2.2,1.47-3.33,2.15c-2.22,1.33-4.53,2.5-6.9,3.52c0.6-0.25,1.19-0.5,1.79-0.76
				c-1.52,0.64-3.06,1.21-4.63,1.71c-3.73,1.19-6.52,5.26-5.24,9.23c1.21,3.74,5.22,6.52,9.23,5.24
				c13.19-4.21,24.66-12.79,33.17-23.64c1.28-1.63,2.2-3.14,2.2-5.3c0-1.84-0.82-4.04-2.2-5.3c-1.43-1.31-3.31-2.29-5.3-2.2
				C834.81,859.76,832.55,860.35,831.36,861.88L831.36,861.88z"/>
		</g>
	</g>
	<g>
		<g>
			<path d="M939.9,869.73c-0.23-0.34-0.44-0.68-0.64-1.04c-0.08-0.14-0.62-1.35-0.46-0.93c0.17,0.46-0.21-0.66-0.25-0.8
				c-0.12-0.39-0.23-0.78-0.32-1.18c-0.11-0.47-0.19-0.94-0.28-1.41c-0.19-0.97,0.03,0.64-0.06-0.44c-0.07-0.83-0.14-1.66-0.17-2.49
				c-0.06-1.63-0.08-3.26,0.02-4.89c0.06-1.01-0.24,0.51,0.08-0.36c0.06-0.25,0.13-0.5,0.22-0.74c-0.05,0.12-0.09,0.24-0.14,0.37
				c0.29-0.47,0.25-0.46-0.12,0.05c0.08-0.08,0.15-0.16,0.23-0.24c-0.49,0.34-0.54,0.38-0.12,0.11c0.37-0.19,0.39-0.21,0.05-0.05
				c-0.34,0.14-0.31,0.15,0.07,0.03c-0.29,0.11-0.58,0.13-0.87,0.05c-0.29-0.02-0.55-0.11-0.78-0.29c-0.4-0.37-0.47-0.44-0.23-0.2
				c0.22,0.23,0.17,0.16-0.15-0.22c0.1,0.15,0.19,0.31,0.27,0.46c0.23,0.42,0.44,0.86,0.66,1.3c0.4,0.82,0.79,1.66,1.14,2.5
				c-0.29-0.67,0.22,0.56,0.24,0.62c0.17,0.43,0.33,0.86,0.49,1.29c1.32,3.59,2.28,7.3,2.91,11.07c2.2-1.69,4.41-3.39,6.61-5.08
				c-0.7-0.47,0.44,0.49-0.14-0.1c-0.12-0.13-0.67-0.52-0.67-0.69c0-0.04,0.47,0.74,0.21,0.28c-0.1-0.19-0.24-0.36-0.35-0.54
				c-0.14-0.23-0.54-0.73-0.53-1c0-0.01,0.27,0.83,0.14,0.31c-0.04-0.16-0.12-0.31-0.17-0.47c-0.11-0.32-0.2-0.64-0.29-0.97
				c-0.09-0.33-0.16-0.67-0.23-1c-0.04-0.2-0.21-1.36-0.14-0.77c0.07,0.61,0.01,0.01,0-0.1c-0.02-0.23-0.05-0.47-0.06-0.7
				c-0.03-0.35-0.05-0.7-0.07-1.05c-0.04-0.75-0.05-1.51-0.05-2.26c0-0.34,0-0.68,0.01-1.02c0.01-0.23,0.19-1.16,0.03-0.61
				c-0.18,0.58,0.02,0.03,0.05-0.07c0.25-0.79-0.03,0.05-0.09,0.16c-0.33,0.55-0.95,0.83-1.56,0.88c-0.32,0.03-0.62-0.01-0.93-0.09
				c0.13,0.03,0.62,0.1,0.03-0.04c-0.51-0.12-0.16-0.06,0.02,0.05c-0.04-0.03-0.59-0.56-0.25-0.2c0.24,0.25,0.5,0.51,0.74,0.76
				c0.35,0.35-0.11-0.13-0.14-0.19c0.12,0.21,0.27,0.41,0.4,0.62c0.95,1.57,1.61,3.39,2.33,5.08c-0.27-0.65-0.07-0.07,0.05,0.24
				c0.08,0.22,0,0.56,0.03,0.03c0.02-0.3-0.06-0.6,0.06-0.91c0.65-0.36,1.31-0.72,1.96-1.09c0.75-1.08,1.55-1.38,2.39-0.91
				c0.1,0.03,0.48,0.49,0.17,0.12c-0.31-0.37-0.67-0.71-0.99-1.07c-1.24-1.41-2.44-2.86-3.6-4.34c-0.47-0.59,0.33,0.44-0.13-0.16
				c-0.18-0.24-0.36-0.48-0.54-0.72c-0.32-0.42-0.63-0.84-0.94-1.27c-0.62-0.85-1.22-1.71-1.82-2.59c-1.27-1.87-2.47-3.78-3.61-5.72
				c-2.36,1.82-4.71,3.64-7.07,5.45c0.3,0.26,0.67,0.94,0.12,0.04c-0.48-0.78-0.19-0.58-0.13-0.24c-0.22-1.37,0.07,0.35-0.09,0.72
				c0.02-0.17,0.04-0.34,0.06-0.51c-0.04,0.24-0.09,0.47-0.14,0.7c-0.05,0.24-0.11,0.48-0.17,0.71c-0.17,0.71-0.37,1.42-0.54,2.14
				c-0.82,3.59-0.45,7.11,0.76,10.56c1.14,3.25,2.38,6.64,4.7,9.26c2.11,2.38,5.15,3.69,8.08,4.73c6.37,2.24,12.84,4.23,19.25,6.33
				c1.62,0.53,3.3,1.25,5.03,1.25c2.24,0,4.14-1.15,5.42-2.93c2.21-3.1,1.3-7.35-1.25-9.93c-1.31-1.33-3-2.2-4.62-3.06
				c-1.6-0.85-3.2-1.69-4.8-2.54c-3.49-1.85-6.99-3.7-10.48-5.54c-1.71-0.9-4.07-0.8-5.45,0.7c-1.31,1.43-1.82,3.74-0.7,5.45
				c1.53,2.35,3.06,4.7,4.59,7.05c1.3-2.26,2.59-4.51,3.89-6.77c-0.25,0-0.5-0.02-0.76-0.01c0.89-0.01,0.2,0.01-0.1-0.07
				c-0.1-0.03-0.83-0.32-0.35-0.1c0.49,0.23-0.22-0.15-0.31-0.2c-0.38-0.23-0.57-0.51-0.15-0.08c-0.17-0.18-0.35-0.38-0.53-0.54
				c0.19,0.16,0.41,0.62,0.16,0.15c0.08,0.18,0.16,0.36,0.23,0.54c-0.09-0.38-0.1-0.37-0.04,0.04c0.03,0.37,0.05,0.43,0.04,0.18
				c0.01-0.4-0.06-0.19-0.21,0.64c-0.05,0.89-0.58,1.41-1.58,1.56c-0.43,0.56-0.95,0.82-1.54,0.79c-0.24-0.02-0.23,0,0.02,0.06
				c0.2,0.06,0.39,0.13,0.58,0.2c-0.42-0.13-0.28-0.14,0.06,0.03c0.49,0.24,0.97,0.5,1.43,0.8c-0.02-0.01,0.94,0.67,0.55,0.36
				c-0.4-0.31,0.5,0.46,0.48,0.44c1.74,1.58,4.67,1.85,6.36,0c1.58-1.73,1.86-4.67,0-6.36c-2.02-1.83-4.29-3.22-6.88-4.08
				c-3.61-1.19-7.63,0.57-8.17,4.57c-0.8,5.94,5.28,10.13,10.69,10.07c3.27-0.04,5.79-3.84,3.89-6.77c-1.53-2.35-3.06-4.7-4.59-7.05
				c-2.05,2.05-4.1,4.1-6.16,6.16c5.31,2.81,10.63,5.62,15.94,8.43c0.52,0.28,1.05,0.55,1.56,0.86c0.22,0.13,0.43,0.27,0.64,0.42
				c-0.79-0.58-0.13-0.02-0.05,0.02c0.08,0.09,0.17,0.18,0.25,0.27c-0.28-0.38-0.34-0.43-0.17-0.15c0.03,0.05,0.06,0.11,0.09,0.16
				c-0.23-0.35-0.34-0.73-0.32-1.15c0.01,0.37-0.12,0.61,0.11-0.32c-0.21,0.83,0.52-0.78,0.04-0.02c0.39-0.62,0.8-1.05,1.64-1.24
				c0.01,0,0.87-0.15,0.99-0.01c-0.25-0.3-1.57-0.49-1.91-0.6c-1.48-0.49-2.96-0.97-4.44-1.46c-5.5-1.81-11.1-3.45-16.53-5.46
				c-0.25-0.09-0.49-0.19-0.73-0.28c-0.7-0.26,0.9,0.49-0.18-0.09c-0.45-0.24-0.92-0.46-1.36-0.73c-0.22-0.13-0.43-0.28-0.64-0.42
				c0.73,0.51,0.06,0.03-0.12-0.14c-0.23-0.22-0.46-0.45-0.66-0.69c0.39,0.48-0.03-0.09-0.17-0.31c-0.34-0.56-0.61-1.14-0.89-1.72
				c0.31,0.65,0,0-0.05-0.12c-0.11-0.27-0.22-0.55-0.33-0.82c-0.57-1.43-1.12-2.87-1.49-4.36c-0.07-0.3-0.14-0.59-0.2-0.89
				c-0.26-1.27-0.04,0.7-0.07-0.59c-0.01-0.3-0.01-0.6-0.01-0.9c-0.01-1.24-0.17,0.48,0.03-0.49c0.25-1.19,0.6-2.36,0.85-3.54
				c0.71-3.33,0.66-7.07-2.14-9.48c-1.71-1.48-4.05-1.79-5.91-0.35c-1.75,1.35-2.31,3.86-1.16,5.81c2.87,4.87,6.14,9.49,9.72,13.86
				c1.84,2.25,3.76,5.01,6.7,5.85c1.98,0.56,4.24-0.08,5.68-1.54c1.56-1.58,1.87-3.76,1.5-5.86c-0.23-1.29-0.83-2.46-1.36-3.66
				c-0.56-1.27-1.06-2.58-1.7-3.81c-1.25-2.41-3.42-4.87-6.11-5.65c-3.48-1.02-7.06,0.71-8.47,4.05c-0.97,2.31-0.91,4.88-0.8,7.34
				c0.26,5.74,1.75,11.4,6.77,14.76c1.49,1,3.66,0.69,5-0.35c1.53-1.18,1.92-2.89,1.61-4.73c-0.78-4.69-2.1-9.24-3.92-13.63
				c-1-2.39-1.97-5.36-3.83-7.24c-2.17-2.18-5.33-2.78-8.15-1.58c-2.63,1.11-4.4,3.24-5.23,5.97c-0.67,2.21-0.6,4.68-0.55,6.97
				c0.09,4.79,0.75,9.79,3.45,13.87c1.3,1.96,4.04,2.98,6.16,1.61C940.25,874.63,941.29,871.83,939.9,869.73L939.9,869.73z"/>
		</g>
	</g>
	<g>
		<g>
			<path d="M807.96,883.9c-4.9,1.35-8.91,4.28-12.84,7.37c-0.85,0.67-1.7,1.35-2.56,2.02c0.71-0.56-0.37,0.28-0.61,0.46
				c-0.51,0.38-1.02,0.75-1.55,1.12c-0.88,0.61-1.79,1.19-2.73,1.72c-0.51,0.29-1.04,0.54-1.56,0.81c-0.11,0.06-0.79,0.36-0.11,0.07
				c-0.33,0.14-0.67,0.27-1.01,0.39c-1.15,0.42-2.32,0.76-3.51,1.03c-0.56,0.13-1.13,0.25-1.69,0.35c-0.36,0.06-0.71,0.12-1.07,0.18
				c-0.31,0.05-0.97,0.12-0.31,0.05c-2.61,0.3-5.23,0.42-7.86,0.48c-5.64,0.12-11.28,0.15-16.92,0.22
				c-6.58,0.08-13.15,0.16-19.73,0.24c-2.35,0.03-4.61,2.05-4.5,4.5c0.11,2.41,1.98,4.53,4.5,4.5c11.71-0.14,23.41-0.27,35.12-0.43
				c5.38-0.08,10.89-0.29,16.11-1.72c5.19-1.42,9.46-4.21,13.64-7.47c1.01-0.78,2.01-1.57,3.01-2.37c0.59-0.47-0.84,0.62,0.15-0.11
				c0.25-0.19,0.51-0.38,0.76-0.57c0.51-0.37,1.02-0.74,1.54-1.1c1.03-0.7,2.09-1.36,3.2-1.93c0.28-0.14,0.56-0.27,0.84-0.41
				c0.76-0.38-0.38,0.11,0.12-0.06c0.66-0.22,1.29-0.46,1.96-0.64c2.27-0.63,3.89-3.22,3.14-5.54
				C812.74,884.73,810.39,883.23,807.96,883.9L807.96,883.9z"/>
		</g>
	</g>
	<g>
		<g>
			<path d="M768.68,904.22c-15.27,0.61-30.58-0.39-45.63-3.03c-1.89-0.33-2.7,2.56-0.8,2.89c15.32,2.69,30.88,3.76,46.42,3.14
				C770.6,907.15,770.61,904.15,768.68,904.22L768.68,904.22z"/>
		</g>
	</g>
	<g>
		<g>
			<path d="M773.62,903.6c-16.33,5.51-34.24,5.3-50.44-0.56c-1.82-0.66-2.6,2.24-0.8,2.89c16.66,6.03,35.25,6.22,52.03,0.56
				C776.23,905.88,775.45,902.98,773.62,903.6L773.62,903.6z"/>
		</g>
	</g>
	<g>
		<g>
			<path d="M764.89,918.79c2.33,7.5,7.48,13.63,13.8,18.17c7.16,5.14,15.71,7.92,24.27,9.68c9.38,1.93,18.97,3.04,28.47,4.2
				c9.9,1.21,19.83,2.21,29.8,2.79c19.68,1.15,39.54,0.66,58.97-2.9c15.82-2.9,31.31-7.99,45.56-15.48
				c14.13-7.43,27.09-17.37,37.23-29.75c1.24-1.51,2.43-3.06,3.59-4.63c1.15-1.56-1.46-3.05-2.59-1.51
				c-9.24,12.54-21.33,22.76-34.77,30.56c-13.54,7.85-28.39,13.31-43.65,16.69c-18.3,4.05-37.16,5.04-55.85,4.43
				c-19.2-0.64-38.38-2.88-57.37-5.77c-15.83-2.41-33.98-6.94-42.37-22.09c-0.91-1.65-1.64-3.37-2.2-5.16
				C767.21,916.16,764.31,916.94,764.89,918.79L764.89,918.79z"/>
		</g>
	</g>
	<polyline points="1077.06,1107.64 723.92,1107.64 727.28,1006.06 714.31,1047.35 703.37,1068.15 672.58,1102.92 644.6,1119.55 
		598.13,1126.48 566.46,1121.15 547.17,1108.53 514.27,1074.22 495.01,1042.55 482.59,1010.09 475.53,971.64 478.15,955.38 
		492.76,947.9 523.76,941.22 556.18,934.95 571.44,936.42 574.84,939.87 571.86,954.38 567.78,968.26 561.78,994.08 561.81,1015.81 
		572.64,1039.43 591.76,1050.74 607.03,1049.77 631.01,1032.08 653.28,984.7 661.13,941.49 667.19,900.1 763.67,909.11 
		768.68,920.95 776.3,933.94 792.28,940.11 822.68,945.92 859.59,949.52 902.92,951.6 939.86,941.5 977.64,926.39 1002.04,904.27 
		1005.29,896.62 1008.43,890.54 1039.12,884.17 1059.75,884.17 1063.5,902.64 1080.48,943.97 1109,998.38 1136.77,1035.13 
		1157.8,1041.59 1187.41,1032.45 1210.24,1005.33 1224.45,961.49 1225.77,915.71 1227.4,906.21 1250.84,900.1 1284.01,902.64 
		1304.05,908.89 1319.7,918.72 1322.11,934.95 1311.63,956.83 1286.18,1007.44 1261.56,1056.37 1242.79,1092.46 1220.56,1114.38 
		1188.23,1127.58 1155.06,1129.77 1115.99,1119.54 1085.34,1099.51 1076.38,1087.79 	"/>
	<g>
		<g>
			<path d="M707.63,914.46c-7.64,6.28-15.85,11.84-24.5,16.64c-1.7,0.94-0.2,3.47,1.51,2.59c9.16-4.69,18.31-9.38,27.47-14.07
				c1.49-0.76,0.45-3.35-1.16-2.74c-5.07,1.94-9.61,4.97-13.26,9c-1.3,1.44,0.67,3.4,2.12,2.12c2.23-1.97,4.47-3.94,6.7-5.91
				c-0.84-0.49-1.67-0.97-2.51-1.46c-1.1,3.29-4.58,5.15-5.41,8.61c-0.68,2.81,0.13,6.16,3.18,7.06c0.74,0.22,1.68-0.26,1.85-1.05
				c0.83-4,0.02-8.18-2.44-11.48c-0.45-0.6-1.33-1.05-2.05-0.54c-4.05,2.88-7.36,6.61-9.65,11.03c0.79-0.1,1.57-0.2,2.36-0.3
				c-0.91-0.86-1.83-1.73-2.74-2.59c-0.76-0.72-2.3-0.5-2.51,0.66c-0.43,2.35-0.57,4.69-0.37,7.06c0.16,1.89,3.01,1.96,3,0
				c-0.01-2.24-0.8-4.22-2.26-5.9c-0.82-0.94-2.68-0.22-2.56,1.06c0.34,3.59,1.8,6.85,4.34,9.42c0.86,0.87,2.67,0.27,2.56-1.06
				c-0.31-3.74,3.58-3.59,6.22-3.9c2.67-0.31,5.74-1.62,5.86-4.71c0.09-2.35-1.86-4.66-4.36-3.9c-1.08,0.33-1.82,1.17-2.44,2.07
				c-0.57,0.83-0.98,1.89-1.88,2.42c0.75,0.43,1.5,0.86,2.26,1.3c0.1-1.43,0.19-2.87,0.29-4.3c-1,0-2,0-3,0
				c-0.01,2.24-0.41,4.44-1.29,6.5c0.91,0.12,1.83,0.24,2.74,0.36c-0.53-1.3-0.01-2.84,1.42-3.25c-0.62-0.62-1.23-1.23-1.85-1.85
				c-0.45,2.26-1.25,4.34-2.46,6.31c-0.66,1.07,0.44,2.63,1.69,2.2c3.49-1.2,6.98-2.4,10.47-3.6c-0.49-0.84-0.97-1.67-1.46-2.51
				c-1.63,1.7-3.26,3.39-4.89,5.09c-1.08,1.12,0.02,2.8,1.46,2.51c5.31-1.08,10.61-2.17,15.92-3.25c-0.39-0.91-0.77-1.83-1.16-2.74
				c-4.15,1.81-8.68,2.38-13.16,1.86c0.13,0.98,0.27,1.96,0.4,2.95c13.73-4.6,27.85-7.94,42.19-9.97c-0.39-0.91-0.77-1.83-1.16-2.74
				c-6.5,4.26-14.03,6.62-21.81,6.79c0.35,0.85,0.71,1.71,1.06,2.56c4.37-4.07,9.9-6.52,15.31-8.9c-0.5-0.86-1.01-1.73-1.51-2.59
				c-7.32,3.74-15.32,6.07-23.5,6.81c0.35,0.85,0.71,1.71,1.06,2.56c7.93-6.77,18.98-7.78,28.95-8.63c-0.13-0.98-0.27-1.96-0.4-2.95
				c-12.57,1.79-25.24,2.88-37.93,3.3c0.13,0.98,0.27,1.96,0.4,2.95c11.16-2.81,22.67-3.87,34.16-3.18
				c-0.13-0.98-0.27-1.96-0.4-2.95c-9.74,3.05-19.48,6.11-29.22,9.16c-1.5,0.47-1.34,2.36,0,2.89c4.18,1.65,8.96,1.19,12.8-1.12
				c1.25-0.75,0.76-2.83-0.76-2.8c-5.18,0.12-10.36,0.24-15.54,0.36c0.25,0.93,0.5,1.86,0.76,2.8c4.1-1.75,8.7-2.37,13.12-1.77
				c0-0.96,0-1.93,0-2.89c-5.75,1.06-11.5,2.12-17.26,3.18c0.27,0.96,0.53,1.93,0.8,2.89c6.29-2.33,12.58-4.65,18.87-6.98
				c1.79-0.66,1.11-3.37-0.8-2.89c-4.42,1.1-8.91,1.78-13.46,2.03c0.43,0.75,0.86,1.5,1.3,2.26c1.88-3.26,4.53-5.9,7.79-7.77
				c-0.61-0.79-1.21-1.57-1.82-2.36c-2.75,2.68-5.92,4.8-9.44,6.35c0.5,0.86,1.01,1.73,1.51,2.59c3.19-1.57,6.49-2.84,9.89-3.85
				c-0.39-0.91-0.77-1.83-1.16-2.74c-4.45,2.35-8.91,4.69-13.36,7.04c0.68,0.68,1.37,1.37,2.05,2.05c2.57-4.13,5.84-7.72,9.68-10.7
				c1.33-1.03-0.47-3.4-1.82-2.36c-3.6,2.77-7.58,4.94-11.88,6.41c0.62,0.35,1.23,0.7,1.85,1.05c-0.76-3.06,2.05-5.63,4.49-6.92
				c2.97-1.57,6.29-2.35,9.06-4.31c-0.61-0.79-1.21-1.57-1.82-2.36c-4.25,4.68-8.88,8.99-13.86,12.9c-1.33,1.04,0.42,3.32,1.82,2.36
				c8.2-5.66,16.55-11.1,25.04-16.33c-0.73-0.56-1.47-1.13-2.2-1.69c-1.83,5.82-4.4,11.35-7.66,16.5c0.86,0.5,1.73,1.01,2.59,1.51
				c2.59-5.95,6.35-11.24,11.12-15.64c-0.79-0.61-1.57-1.21-2.36-1.82c-2.48,4.28-5.48,8.18-8.99,11.66
				c0.79,0.61,1.57,1.21,2.36,1.82c3.54-5.68,8.63-10.17,14.68-13.03c-0.68-0.68-1.37-1.37-2.05-2.05
				c-2.13,4.11-4.25,8.22-6.38,12.34c-0.89,1.73,1.51,3.1,2.59,1.51c3.56-5.21,7.62-10.04,12.12-14.46
				c-0.84-0.49-1.67-0.97-2.51-1.46c-2,5.08-4.46,9.95-7.32,14.6c-0.74,1.2,0.82,3,2.05,2.05c6.9-5.3,13.8-10.6,20.69-15.9
				c-0.68-0.68-1.37-1.37-2.05-2.05c-2.59,5.05-5.99,9.57-10.13,13.46c-1.44,1.35,0.65,3.29,2.12,2.12
				c3.71-2.94,7.77-5.43,12.05-7.46c-0.73-0.56-1.47-1.13-2.2-1.69c-0.68,1.97-1.78,3.7-3.24,5.19c-1.35,1.38,0.75,3.49,2.12,2.12
				c3.7-3.7,7.89-6.79,12.51-9.25c-0.68-0.68-1.37-1.37-2.05-2.05c-2.49,3.81-5.67,7.12-9.38,9.75c0.73,0.56,1.47,1.13,2.2,1.69
				c1.17-3.55,2.36-7.08,3.52-10.64c0.41-1.25,0.74-2.64-0.17-3.76c-0.99-1.22-2.71-1.01-4.1-0.93c-6.78,0.42-13.19,2.75-19.65,4.68
				c-3.16,0.94-6.36,1.8-9.63,2.25c-3.65,0.51-7.34,0.58-11.02,0.72c-6.37,0.24-12.79,0.69-18.66,3.39
				c-5.45,2.51-10.25,6.95-11.59,12.98c0.96,0,1.93,0,2.89,0c-1.58-5.33-0.5-11.3,3.04-15.63c-0.79-0.61-1.57-1.21-2.36-1.82
				c-1.71,3.6-2.68,7.4-2.88,11.38c-0.07,1.43,2.17,2.12,2.8,0.76c1.37-2.99,2.74-5.98,4.11-8.97c0.61-1.33-0.65-2.81-2.05-2.05
				c-4.75,2.57-7.78,7.53-8.77,12.76c-1.24,6.55,0.51,13.17,2.92,19.24c0.7,1.76,3.56,1.04,2.89-0.8
				c-3.33-9.26-2.3-19.68,2.84-28.08c0.35-0.58,0.22-1.34-0.23-1.82c-1.66-1.73-4.45-1.52-6.19,0.01c-1.8,1.59-2.25,4.13-2.67,6.38
				c-0.9,4.75-1.43,9.65-0.6,14.45c0.38,2.21,1.13,4.4,2.31,6.31c1.17,1.91,2.94,4.05,5.16,4.73c2.67,0.81,4.42-1.17,5.14-3.5
				c0.92-2.98,1.56-6.08,2.15-9.14c1.32-6.83,2.05-13.78,2.2-20.73c0.03-1.44-2.12-2.11-2.8-0.76c-0.8,1.6-1.73,3.13-2.85,4.53
				c0.71,0,1.41,0,2.12,0c-0.29-0.29-0.47-0.78-0.17-1.15c-0.79-0.1-1.57-0.2-2.36-0.3c2.82,3.74,5.38,7.68,7.63,11.8
				c1.09,1.99,2.1,4.02,3.05,6.08c0.77,1.69,1.39,3.89,3.45,4.39c2.13,0.52,3.86-1.2,5.25-2.54c1.77-1.71,3.55-3.42,5.32-5.12
				c3.66-3.53,7.33-7.06,10.99-10.59c-0.84-0.22-1.67-0.44-2.51-0.66c1.18,4.21,0.25,8.61-2.4,12.07c0.91,0.12,1.83,0.24,2.74,0.36
				c-1.91-5.62-3.59-11.31-5.01-17.08c-0.25-1-1.36-1.3-2.2-0.9c-3.17,1.51-5.94,3.73-8.1,6.5c-0.96,1.23,0.25,3.35,1.82,2.36
				c5.35-3.4,10.91-6.45,16.66-9.14c-0.73-0.3-1.47-0.6-2.2-0.9c0.7,3.31,0.84,6.74,0.38,10.1c-0.2,1.41,1.33,2.58,2.51,1.46
				c4.4-4.21,9.42-7.65,14.9-10.3c-0.73-0.3-1.47-0.6-2.2-0.9c1.53,3.85,2.45,7.88,2.69,12.02c0.12,1.97,2.76,1.88,3,0
				c0.43-3.44,0.86-6.88,1.3-10.32c-1,0-2,0-3,0c-0.08,3.14-0.7,6.25-1.93,9.16c-0.32,0.75-0.22,1.6,0.54,2.05
				c0.63,0.38,1.73,0.2,2.05-0.54c1.23-2.83,2.75-5.5,4.55-8c-0.93-0.25-1.86-0.5-2.8-0.76c-0.33,3.58-2.38,6.83-5.41,8.73
				c0.73,0.56,1.47,1.13,2.2,1.69c0.92-5.31,3.72-9.98,7.96-13.31c-0.84-0.22-1.67-0.44-2.51-0.66c1,2.38,0.92,4.93-0.37,7.18
				c0.91,0.39,1.83,0.77,2.74,1.16c0.86-4.08,2.46-7.87,4.79-11.33c-0.91-0.39-1.83-0.77-2.74-1.16c-0.59,3.91-2.23,7.52-4.89,10.46
				c0.79,0.61,1.57,1.21,2.36,1.82c3.71-6.27,9.06-11.36,15.49-14.78c-0.68-0.68-1.37-1.37-2.05-2.05
				c-1.51,2.85-3.02,5.69-4.53,8.54c-0.84,1.58,1.06,2.86,2.36,1.82c2.66-2.14,5.33-4.27,7.99-6.41c-0.79-0.61-1.57-1.21-2.36-1.82
				c-0.9,1.19-2,2.23-3.21,3.1c0.68,0.68,1.37,1.37,2.05,2.05c0.95-1.47,2.06-2.76,3.35-3.95c-0.79-0.61-1.57-1.21-2.36-1.82
				c-7.34,9.55-19.44,13.69-30.42,17.41c0.63,0.48,1.27,0.96,1.9,1.45c-0.17-1.61-0.34-3.21-0.51-4.82
				c-0.14-1.32-1.53-1.95-2.56-1.06c-1.92,1.64-3.29,3.68-4.23,6.02c-0.55,1.35,1.16,2.17,2.2,1.69c3.37-1.54,6.45-3.61,9.2-6.1
				c-0.79-0.61-1.57-1.21-2.36-1.82c-2.25,3.61-5.36,6.62-9.07,8.71c-0.7,0.39-1.64,1.2-2.22,0.36c-0.64-0.94-1.06-2.1-1.53-3.13
				c-1.05-2.31-1.98-4.68-2.8-7.08c-0.42-1.21-2.04-1.5-2.74-0.36c-1.08,1.76-2.15,3.52-3.23,5.28c0.91,0.12,1.83,0.24,2.74,0.36
				c-0.35-1.78-0.71-3.56-1.06-5.34c-0.26-1.29-2.13-1.43-2.74-0.36c-0.95,1.66-1.72,3.41-2.32,5.23c0.84-0.22,1.67-0.44,2.51-0.66
				c-0.68-0.55-0.94-1.09-0.88-1.96c-0.93,0.25-1.86,0.5-2.8,0.76c0.42,0.85,0.64,1.72,0.68,2.67c0.85-0.35,1.71-0.71,2.56-1.06
				c-1.31-1.19-2.13-2.6-2.53-4.33c-0.43-1.88-3.32-1.09-2.89,0.8c0.5,2.19,1.64,4.15,3.3,5.65c0.91,0.83,2.62,0.3,2.56-1.06
				c-0.06-1.49-0.42-2.84-1.08-4.18c-0.71-1.42-2.71-0.62-2.8,0.76c-0.1,1.57,0.54,3.09,1.76,4.08c0.89,0.72,2.13,0.48,2.51-0.66
				c0.53-1.58,1.2-3.07,2.02-4.51c-0.91-0.12-1.83-0.24-2.74-0.36c0.35,1.78,0.71,3.56,1.06,5.34c0.26,1.32,2.11,1.39,2.74,0.36
				c1.08-1.76,2.15-3.52,3.23-5.28c-0.91-0.12-1.83-0.24-2.74-0.36c1.01,2.94,2.18,5.84,3.5,8.65c1.14,2.41,2.52,5.08,5.67,3.88
				c4.94-1.89,9.19-6.26,11.93-10.66c0.93-1.49-1.13-2.93-2.36-1.82c-2.56,2.32-5.45,4.19-8.59,5.63c0.73,0.56,1.47,1.13,2.2,1.69
				c0.75-1.85,1.95-3.4,3.46-4.69c-0.85-0.35-1.71-0.71-2.56-1.06c0.17,1.61,0.34,3.21,0.51,4.82c0.1,0.9,0.89,1.79,1.9,1.45
				c11.85-4.01,24.32-8.51,32.21-18.79c1.08-1.4-1.16-2.91-2.36-1.82c-1.47,1.35-2.74,2.88-3.82,4.55
				c-0.79,1.22,0.82,2.93,2.05,2.05c1.66-1.19,3.05-2.55,4.29-4.18c1.11-1.46-1.15-2.79-2.36-1.82c-2.66,2.14-5.33,4.27-7.99,6.41
				c0.79,0.61,1.57,1.21,2.36,1.82c1.51-2.85,3.02-5.69,4.53-8.54c0.71-1.34-0.71-2.76-2.05-2.05c-6.87,3.65-12.61,9.17-16.57,15.86
				c-0.85,1.44,1.19,3.1,2.36,1.82c2.99-3.31,4.99-7.37,5.66-11.79c0.25-1.65-1.74-2.64-2.74-1.16c-2.46,3.65-4.19,7.74-5.09,12.05
				c-0.34,1.61,1.86,2.69,2.74,1.16c1.66-2.89,1.97-6.4,0.68-9.49c-0.46-1.1-1.56-1.41-2.51-0.66c-4.59,3.6-7.73,8.89-8.73,14.63
				c-0.21,1.2,1,2.45,2.2,1.69c3.99-2.5,6.47-6.65,6.9-11.32c0.15-1.63-2.02-1.83-2.8-0.76c-1.8,2.5-3.32,5.17-4.55,8
				c0.86,0.5,1.73,1.01,2.59,1.51c1.44-3.41,2.25-6.96,2.34-10.67c0.05-1.98-2.77-1.86-3,0c-0.43,3.44-0.86,6.88-1.3,10.32
				c1,0,2,0,3,0c-0.26-4.4-1.18-8.71-2.8-12.82c-0.37-0.95-1.26-1.35-2.2-0.9c-5.71,2.75-10.93,6.39-15.51,10.77
				c0.84,0.49,1.67,0.97,2.51,1.46c0.55-3.92,0.44-7.81-0.38-11.69c-0.22-1.02-1.39-1.28-2.2-0.9c-5.74,2.69-11.3,5.74-16.66,9.14
				c0.61,0.79,1.21,1.57,1.82,2.36c2.02-2.59,4.53-4.61,7.49-6.03c-0.73-0.3-1.47-0.6-2.2-0.9c1.43,5.76,3.1,11.46,5.01,17.08
				c0.45,1.31,1.96,1.38,2.74,0.36c3.11-4.06,4.07-9.47,2.7-14.38c-0.31-1.1-1.7-1.44-2.51-0.66c-3.19,3.07-6.38,6.15-9.57,9.22
				c-1.6,1.54-3.19,3.07-4.79,4.61c-0.77,0.74-1.53,1.48-2.3,2.22c-0.45,0.43-1.52,1.7-2.23,1.29c-0.57-0.33-0.97-1.93-1.21-2.46
				c-0.37-0.83-0.76-1.65-1.15-2.46c-0.93-1.9-1.91-3.78-2.96-5.61c-2.03-3.55-4.29-6.95-6.74-10.21c-0.52-0.69-1.68-1.14-2.36-0.3
				c-1.32,1.63-1.36,3.86,0.17,5.39c0.53,0.53,1.61,0.64,2.12,0c1.28-1.61,2.4-3.29,3.32-5.14c-0.93-0.25-1.86-0.5-2.8-0.76
				c-0.2,9.71-1.37,19.76-4.24,29.07c-0.24,0.78-0.48,1.66-1.45,1.41c-0.91-0.24-1.68-1.17-2.28-1.85c-1.14-1.31-1.96-2.9-2.48-4.55
				c-1.13-3.56-1.07-7.38-0.68-11.06c0.22-2.06,0.57-4.12,1.03-6.14c0.24-1.04,0.51-2.26,1.3-3.03c0.58-0.56,1.57-0.88,2.18-0.24
				c-0.08-0.61-0.16-1.21-0.23-1.82c-5.52,9.03-6.73,20.43-3.15,30.39c0.96-0.27,1.93-0.53,2.89-0.8
				c-2.15-5.4-3.99-11.41-2.99-17.28c0.79-4.64,3.22-9.04,7.46-11.33c-0.68-0.68-1.37-1.37-2.05-2.05
				c-1.37,2.99-2.74,5.98-4.11,8.97c0.93,0.25,1.86,0.5,2.8,0.76c0.17-3.42,1-6.77,2.47-9.87c0.67-1.42-1.2-3.23-2.36-1.82
				c-4.21,5.17-5.71,12.13-3.81,18.55c0.4,1.36,2.56,1.5,2.89,0c1.07-4.82,4.66-8.3,8.91-10.54c4.96-2.62,10.54-3.25,16.06-3.52
				c6.42-0.32,12.79-0.36,19.08-1.88c5.81-1.4,11.39-3.59,17.22-4.91c1.67-0.38,3.36-0.69,5.06-0.86c0.81-0.08,1.62-0.14,2.44-0.16
				c0.15,0,0.3-0.01,0.45-0.01c0.4,0.07,0.46,0.03,0.15-0.14c0.02,0.32-0.23,0.81-0.32,1.09c-1.16,3.55-2.35,7.09-3.52,10.64
				c-0.39,1.19,1.14,2.45,2.2,1.69c4.15-2.94,7.67-6.57,10.46-10.83c0.86-1.32-0.8-2.72-2.05-2.05c-4.83,2.57-9.25,5.85-13.12,9.72
				c0.71,0.71,1.41,1.41,2.12,2.12c1.83-1.86,3.16-4.05,4.01-6.51c0.47-1.34-1.12-2.21-2.2-1.69c-4.52,2.15-8.73,4.82-12.66,7.93
				c0.71,0.71,1.41,1.41,2.12,2.12c4.31-4.04,7.9-8.8,10.6-14.06c0.61-1.19-0.76-3.04-2.05-2.05c-6.9,5.3-13.8,10.6-20.69,15.9
				c0.68,0.68,1.37,1.37,2.05,2.05c3-4.87,5.53-9.99,7.62-15.31c0.57-1.46-1.51-2.44-2.51-1.46c-4.68,4.6-8.89,9.65-12.59,15.07
				c0.86,0.5,1.73,1.01,2.59,1.51c2.13-4.11,4.25-8.22,6.38-12.34c0.72-1.38-0.7-2.69-2.05-2.05c-6.49,3.08-11.96,8.02-15.75,14.11
				c-0.91,1.46,1.15,3.01,2.36,1.82c3.68-3.65,6.86-7.78,9.46-12.27c0.87-1.5-1.11-2.96-2.36-1.82
				c-4.94,4.55-8.91,10.09-11.59,16.24c-0.76,1.73,1.53,3.19,2.59,1.51c3.39-5.37,6.06-11.16,7.97-17.22
				c0.39-1.24-1.11-2.37-2.2-1.69c-8.49,5.23-16.83,10.67-25.04,16.33c0.61,0.79,1.21,1.57,1.82,2.36c4.98-3.9,9.61-8.21,13.86-12.9
				c1.08-1.19-0.36-3.39-1.82-2.36c-3.29,2.33-7.46,2.96-10.71,5.33c-2.94,2.14-5.15,5.54-4.22,9.29c0.19,0.75,1.09,1.31,1.85,1.05
				c4.54-1.55,8.79-3.78,12.59-6.71c-0.61-0.79-1.21-1.57-1.82-2.36c-4.04,3.13-7.45,6.97-10.15,11.3
				c-0.83,1.33,0.78,2.72,2.05,2.05c4.45-2.35,8.91-4.69,13.36-7.04c1.5-0.79,0.47-3.22-1.16-2.74c-3.65,1.08-7.19,2.48-10.61,4.16
				c-1.76,0.86-0.22,3.36,1.51,2.59c3.74-1.65,7.12-3.97,10.05-6.82c1.23-1.2-0.34-3.2-1.82-2.36c-3.69,2.12-6.74,5.16-8.87,8.84
				c-0.54,0.94,0.14,2.32,1.3,2.26c4.81-0.27,9.58-0.98,14.26-2.14c-0.27-0.96-0.53-1.93-0.8-2.89c-6.29,2.33-12.58,4.65-18.87,6.98
				c-1.81,0.67-1.11,3.24,0.8,2.89c5.75-1.06,11.5-2.12,17.26-3.18c1.4-0.26,1.46-2.69,0-2.89c-5.31-0.73-10.5-0.03-15.43,2.07
				c-1.41,0.6-0.64,2.83,0.76,2.8c5.18-0.12,10.36-0.24,15.54-0.36c-0.25-0.93-0.5-1.86-0.76-2.8c-3.22,1.94-7,2.19-10.49,0.82
				c0,0.96,0,1.93,0,2.89c9.74-3.05,19.48-6.1,29.22-9.16c1.64-0.51,1.29-2.84-0.4-2.95c-11.74-0.71-23.55,0.42-34.96,3.29
				c-1.63,0.41-1.31,3,0.4,2.95c12.96-0.43,25.89-1.57,38.72-3.4c1.66-0.24,1.28-3.09-0.4-2.95c-10.86,0.92-22.45,2.15-31.07,9.5
				c-0.95,0.81-0.21,2.68,1.06,2.56c8.74-0.79,17.2-3.22,25.02-7.22c1.75-0.89,0.21-3.35-1.51-2.59c-5.66,2.5-11.33,5.11-15.92,9.37
				c-0.95,0.88-0.22,2.59,1.06,2.56c8.28-0.18,16.39-2.67,23.32-7.2c1.5-0.98,0.48-2.97-1.16-2.74
				c-14.34,2.03-28.46,5.37-42.19,9.97c-1.68,0.56-1.25,2.75,0.4,2.95c5.04,0.59,10.04-0.25,14.67-2.27
				c1.64-0.71,0.41-3.06-1.16-2.74c-5.31,1.08-10.61,2.17-15.92,3.25c0.49,0.84,0.97,1.67,1.46,2.51c1.63-1.7,3.26-3.39,4.89-5.09
				c0.99-1.02,0.01-3.01-1.46-2.51c-3.49,1.2-6.98,2.4-10.47,3.6c0.56,0.73,1.13,1.47,1.69,2.2c1.33-2.17,2.27-4.53,2.76-7.03
				c0.21-1.09-0.68-2.18-1.85-1.85c-2.86,0.83-4.67,4.11-3.52,6.94c0.41,1.02,2.17,1.69,2.74,0.36c1.09-2.57,1.69-5.22,1.7-8.01
				c0.01-1.95-2.87-1.91-3,0c-0.1,1.43-0.19,2.87-0.29,4.3c-0.08,1.16,1.33,1.84,2.26,1.3c0.83-0.48,1.43-1.17,1.97-1.95
				c0.43-0.63,0.79-1.58,1.4-2.05c0.45-0.35,0.68-0.22,0.79,0.41c0.17,1-0.79,1.56-1.61,1.83c-2.36,0.78-4.93,0.22-7.22,1.35
				c-2.17,1.07-3.45,3.46-3.25,5.85c0.85-0.35,1.71-0.71,2.56-1.06c-1.95-1.98-3.2-4.53-3.46-7.3c-0.85,0.35-1.71,0.71-2.56,1.06
				c0.93,1.08,1.37,2.37,1.38,3.78c1,0,2,0,3,0c-0.18-2.1-0.11-4.19,0.27-6.27c-0.84,0.22-1.67,0.44-2.51,0.66
				c0.91,0.86,1.83,1.73,2.74,2.59c0.67,0.63,1.9,0.58,2.36-0.3c2.04-3.95,4.94-7.37,8.57-9.96c-0.68-0.18-1.37-0.36-2.05-0.54
				c1.98,2.65,2.81,5.91,2.13,9.17c0.62-0.35,1.23-0.7,1.85-1.05c-1.99-0.59-1.19-3.71-0.41-4.95c1.54-2.45,3.8-4.2,4.74-7.03
				c0.51-1.51-1.46-2.38-2.51-1.46c-2.23,1.97-4.47,3.94-6.7,5.91c0.71,0.71,1.41,1.41,2.12,2.12c3.3-3.63,7.35-6.47,11.94-8.22
				c-0.39-0.91-0.77-1.83-1.16-2.74c-9.16,4.69-18.31,9.38-27.47,14.07c0.5,0.86,1.01,1.73,1.51,2.59
				c8.88-4.92,17.27-10.66,25.11-17.11C711.24,915.36,709.11,913.25,707.63,914.46L707.63,914.46z"/>
		</g>
	</g>
	<g>
		<g>
			<path d="M722.53,1013.55c-4.56,28.48-17.98,55.32-37.88,76.18c-10.47,10.97-22.93,21.11-37,27.03
				c-15.63,6.57-33.24,7.38-49.96,8.09c-8.59,0.36-17.14,0.03-25.32-2.86c-7.37-2.6-14.08-6.84-20.3-11.52
				c-11.72-8.82-22.28-19.28-31.53-30.64c-18.2-22.34-31.36-48.79-38.26-76.76c-1.72-6.99-3.07-14.09-3.98-21.23
				c-0.46-3.64-0.82-7.3-1.06-10.96c-0.26-3.85-0.74-8.15,1.58-11.51c1.84-2.66,4.91-4.27,7.81-5.52c3.79-1.63,7.75-2.95,11.67-4.24
				c8.12-2.69,16.38-4.93,24.75-6.71c8.4-1.79,16.9-3.12,25.45-3.96c4.34-0.43,8.69-0.73,13.05-0.92c1.92-0.08,3.84-0.14,5.76-0.17
				c1.57-0.03,4.38-0.54,5.53,0.85c0.89,1.08,0.63,2.9,0.4,4.16c-0.4,2.18-0.99,4.33-1.55,6.47c-1.08,4.16-2.29,8.28-3.52,12.4
				c-2.53,8.51-5.15,17.02-6.82,25.76c-2.93,15.33-3.07,32.28,5.16,46.1c6.9,11.57,19.23,20.14,33.1,19.09
				c15.82-1.19,28.22-12.4,36.45-25.18c4.34-6.74,7.87-14.02,11.02-21.38c3.28-7.65,6.1-15.5,8.38-23.5
				c2.3-8.04,4.08-16.23,5.32-24.5c1.28-8.55,1.88-17.17,2.59-25.79c1.3-15.88,3.28-32.28,11.62-46.22
				c3.69-6.17,8.61-11.64,14.75-15.44c6.03-3.73,13.01-5.88,20.08-6.28c13.95-0.78,27.32,5.55,35.64,16.77
				c3.92,5.28,6.59,11.36,7.75,17.84c0.34,1.9,3.23,1.09,2.89-0.8c-2.41-13.47-11.36-25.57-23.47-31.93
				c-12.8-6.73-28.58-6.44-41.39,0.11c-13.38,6.84-21.54,20.25-25.78,34.24c-5.07,16.69-4.81,34.34-6.87,51.51
				c-2.05,17.06-6.46,33.86-12.97,49.76c-3.16,7.72-6.76,15.36-11.14,22.47c-4.14,6.72-9.19,13.11-15.62,17.78
				c-6.3,4.57-13.9,7.66-21.76,7.62c-6.92-0.03-13.56-2.69-18.88-7.05c-12.24-10.01-16.35-25.81-15.61-41.08
				c0.86-17.86,7.61-34.64,12.05-51.77c0.87-3.35,2.43-7.44,1.54-10.94c-1.02-4-4.92-4.15-8.36-4.09
				c-8.72,0.13-17.44,0.76-26.09,1.87c-17.36,2.22-34.46,6.33-50.91,12.33c-6.35,2.32-14.14,5.06-16.19,12.3
				c-1.07,3.77-0.53,7.9-0.23,11.74c0.29,3.65,0.69,7.28,1.18,10.91c2,14.62,5.71,29,10.96,42.78
				c5.25,13.78,12.01,26.98,20.15,39.28c8.13,12.28,17.63,23.68,28.32,33.82c5.5,5.22,11.31,10.17,17.47,14.62
				c6.39,4.62,13.33,8.63,20.89,11c8.48,2.66,17.41,2.72,26.21,2.28c8.57-0.43,17.16-0.96,25.66-2.14
				c8.47-1.18,16.81-3.16,24.67-6.59c7.53-3.29,14.46-7.83,20.95-12.84c11.61-8.97,21.75-19.73,30.14-31.75
				c8.43-12.07,15.04-25.43,19.52-39.46c2.15-6.75,3.79-13.65,4.91-20.64C725.72,1012.46,722.83,1011.65,722.53,1013.55
				L722.53,1013.55z"/>
		</g>
	</g>
	<g>
		<g>
			<path d="M1058.25,886.2c0.63,7.44,2.99,14.74,5.45,21.75c3.4,9.7,7.43,19.19,11.68,28.55c8.98,19.82,18.98,39.2,29.73,58.11
				c3.89,6.83,7.86,13.64,12.2,20.2c3.58,5.42,7.27,10.88,11.75,15.6c4.8,5.05,10.61,8.92,17.31,10.94
				c12.87,3.88,27.34,1.15,38.76-5.63c11.83-7.02,20.61-18.36,26.84-30.44c7.01-13.62,11.48-28.65,14-43.73
				c1.34-8.03,2.12-16.16,2.29-24.3c0.08-4.09,0.02-8.17-0.2-12.25c-0.21-3.89-0.75-7.75-0.98-11.63c-0.19-3.24,0.34-6.28,3.74-7.49
				c3.52-1.25,7.53-1.65,11.22-2.15c7.96-1.08,16.02-1.39,24.04-0.98c8.03,0.41,16,1.56,23.81,3.44c7.02,1.69,14.28,3.73,20.66,7.19
				c5.23,2.83,10.44,7.18,11.17,13.47c0.46,3.96-0.88,7.91-2.49,11.47c-1.67,3.69-3.59,7.28-5.41,10.9
				c-7.87,15.65-15.74,31.3-23.61,46.94c-7.87,15.65-15.74,31.3-23.61,46.94c-3.86,7.67-7.71,15.34-11.57,23
				c-3.72,7.4-7.27,14.93-11.4,22.12c-3.77,6.57-8.24,12.62-13.93,17.66c-5.25,4.65-11.27,8.38-17.61,11.35
				c-13.47,6.31-28.54,9.27-43.34,9.83c-16.04,0.61-32.18-1.76-47.32-7.09c-12.69-4.47-24.86-11.27-34.36-20.9
				c-4.51-4.58-8.31-9.77-11.21-15.51c-0.87-1.72-3.46-0.21-2.59,1.51c6.11,12.09,16.19,21.65,27.69,28.61
				c12.59,7.62,26.93,12.35,41.41,14.72c16.01,2.62,32.44,2.31,48.32-1.03c13.8-2.9,27.31-8.26,38.42-17.08
				c5.82-4.63,10.67-10.23,14.67-16.49c4.37-6.85,7.85-14.24,11.5-21.49c7.91-15.73,15.82-31.45,23.73-47.18
				c7.95-15.8,15.9-31.61,23.85-47.41c3.94-7.82,7.87-15.65,11.81-23.47c1.95-3.87,3.92-7.74,5.84-11.62
				c1.77-3.56,3.48-7.28,4.08-11.24c2.24-14.91-13.15-21.85-24.85-25.58c-15.29-4.88-31.52-6.92-47.55-6.04
				c-4.05,0.22-8.09,0.64-12.1,1.23c-3.6,0.53-7.58,0.9-10.94,2.34c-7.31,3.12-4.7,12.34-4.24,18.47
				c1.21,16.5-0.08,33.16-3.84,49.27c-3.38,14.47-8.51,28.9-16.69,41.39c-7.58,11.58-18.22,21.39-31.67,25.49
				c-13.02,3.98-27.76,2.57-38.29-6.63c-5.56-4.86-9.75-11.03-13.84-17.12c-1.89-2.81-3.68-5.68-5.44-8.56
				c-4.86-7.97-9.44-16.11-13.9-24.3c-5.34-9.83-10.48-19.77-15.4-29.82c-4.87-9.96-9.54-20.03-13.77-30.28
				c-3.47-8.42-6.77-17-9.04-25.83c-0.79-3.06-1.46-6.2-1.72-9.23C1061.09,884.29,1058.09,884.28,1058.25,886.2L1058.25,886.2z"/>
		</g>
	</g>
	<g>
		<path d="M483.96,883.79c0.99,0.2,1.81,0.74,2.51,1.33c0.7,0.6,1.32,1.28,1.88,1.99c1.12,1.43,2.07,2.96,2.92,4.54
			c1.7,3.16,3.05,6.49,4.2,9.88c2.28,6.78,3.76,13.83,4.46,20.96c0.69,7.13,0.58,14.38-0.66,21.51c-1.25,7.11-3.71,14.12-7.75,20.27
			l-2.48-1.68c3.92-5.64,6.46-12.22,7.84-19.04c1.38-6.83,1.68-13.9,1.19-20.9c-0.51-7.01-1.77-13.98-3.84-20.71
			c-1.05-3.36-2.28-6.67-3.87-9.8c-0.79-1.56-1.67-3.08-2.71-4.48c-0.52-0.7-1.09-1.35-1.71-1.92c-0.62-0.57-1.34-1.03-2.1-1.21
			L483.96,883.79z"/>
	</g>
	<g>
		<path d="M553.61,937.62c-1.73-10.65-5.51-20.94-8.93-31.38c-1.71-5.22-3.35-10.51-4.57-15.92c-1.24-5.41-2.01-10.98-1.95-16.59
			c0.03-2.8,0.28-5.62,0.8-8.38c0.55-2.8,1.26-5.38,1.83-8.06c1.16-5.32,2.08-10.71,2.94-16.11c0.85-5.41,1.65-10.84,2.61-16.26
			c1.01-5.32,1.43-10.76,0.26-15.93c-0.28-1.29-0.71-2.53-1.21-3.75c-0.53-1.2-1.16-2.34-1.9-3.41c-1.59-2.24-3.12-4.53-4.73-6.7
			c-1.61-2.18-3.33-4.26-5.33-5.99c-1.99-1.74-4.3-3.07-6.85-3.66c-5.31-1.28-10.66-2.39-16.06-3.08c-5.4-0.68-10.85-0.84-16.32-0.7
			c-5.46,0.14-10.96,0.42-16.4,0.66c-0.65,0.05-1.27,0.15-1.76,0.42c-0.49,0.25-0.83,0.69-1.05,1.23c-0.43,1.1-0.38,2.49-0.22,3.77
			c0.37,2.59,1.69,4.99,3.47,6.95c3.61,3.91,8.73,6.4,14,7.24c2.65,0.44,5.38,0.45,8.15,0.62c1.38,0.09,2.78,0.24,4.16,0.5
			c1.38,0.27,2.74,0.67,4.06,1.16l-0.49,1.24c-1.24-0.48-2.52-0.87-3.82-1.15c-1.31-0.27-2.64-0.43-3.99-0.54
			c-2.7-0.22-5.48-0.23-8.24-0.68c-5.52-0.89-10.83-3.45-14.68-7.61c-1.89-2.08-3.35-4.69-3.75-7.56c-0.16-1.42-0.26-2.87,0.3-4.36
			c0.28-0.72,0.83-1.44,1.57-1.82c0.73-0.39,1.5-0.5,2.21-0.57c5.51-0.29,10.96-0.62,16.46-0.8c5.49-0.18,11.03-0.08,16.52,0.58
			c5.48,0.66,10.9,1.74,16.25,2.98c2.82,0.62,5.42,2.08,7.57,3.92c2.17,1.84,3.98,3.99,5.66,6.2c1.68,2.21,3.22,4.47,4.83,6.68
			c0.84,1.17,1.54,2.43,2.13,3.74c0.55,1.32,1.03,2.67,1.35,4.06c1.3,5.56,0.88,11.31-0.1,16.72c-0.9,5.39-1.66,10.81-2.47,16.24
			c-0.81,5.43-1.69,10.87-2.83,16.27c-0.55,2.69-1.27,5.41-1.75,8c-0.48,2.63-0.69,5.3-0.7,7.98c-0.02,5.36,0.76,10.72,2.02,15.98
			c1.24,5.27,2.89,10.47,4.63,15.64c3.47,10.35,7.4,20.72,9.29,31.76L553.61,937.62z"/>
	</g>
	<g>
		<path d="M480.1,797.67c-1,0.19-1.96,0.67-2.82,1.28c-0.87,0.61-1.65,1.36-2.34,2.19c-1.4,1.64-2.5,3.57-3.24,5.59
			c-0.38,1.01-0.64,2.06-0.74,3.11c-0.1,1.06-0.1,2.17,0,3.23c0.18,2.13,1.01,4.17,2.65,5.51c1.6,1.36,3.69,2.11,5.8,2.64
			c2.12,0.52,4.34,0.88,6.52,1.32c4.37,0.84,8.74,1.67,13.13,2.41c4.38,0.75,8.78,1.42,13.18,1.96c2.21,0.25,4.41,0.61,6.46,0.22
			c1.02-0.19,1.95-0.62,2.69-1.29c0.74-0.67,1.28-1.57,1.63-2.54c0.7-1.96,0.59-4.15-0.1-6.15c-0.69-2-1.9-3.84-3.43-5.32
			c-3.12-3.01-7.27-4.72-11.36-6.39l0.48-1.18c4.09,1.68,8.4,3.44,11.74,6.68c1.66,1.62,2.97,3.6,3.73,5.81
			c0.76,2.2,0.89,4.7,0.08,6.95c-0.41,1.12-1.05,2.18-1.96,3.01c-0.92,0.83-2.09,1.35-3.26,1.57c-2.36,0.44-4.64,0.02-6.83-0.22
			c-4.43-0.55-8.84-1.24-13.23-2c-4.39-0.76-8.77-1.6-13.14-2.45c-2.18-0.44-4.37-0.81-6.57-1.35c-2.18-0.55-4.42-1.33-6.23-2.88
			c-0.9-0.76-1.65-1.73-2.14-2.82c-0.5-1.08-0.74-2.24-0.86-3.39c-0.1-1.16-0.11-2.28,0.01-3.43c0.12-1.17,0.4-2.29,0.81-3.36
			c0.8-2.15,1.95-4.15,3.44-5.89c0.74-0.88,1.57-1.68,2.53-2.35c0.95-0.67,2.02-1.22,3.22-1.44L480.1,797.67z"/>
	</g>
	<g>
		<path d="M473.81,820.19c-2.2-1.01-4.83-0.87-7.19-0.13c-2.38,0.75-4.61,2.07-6.42,3.8c-1.82,1.67-2.83,4.05-3.32,6.51
			c-0.48,2.46-0.44,5.05,0.24,7.44c0.65,2.38,2.21,4.44,4.14,6.03c1.94,1.6,4.24,2.76,6.63,3.65c4.82,1.74,9.98,2.6,15.12,3.28
			c5.16,0.62,10.35,1.36,15.48,1.26c2.57-0.05,5.12-0.35,7.58-1c2.44-0.66,4.79-1.71,6.85-3.16c2.06-1.44,3.85-3.29,5.03-5.48
			c1.19-2.16,1.84-4.71,1.41-7.06c-0.46-2.34-2.11-4.37-4.14-5.75c-2.04-1.38-4.5-2.23-6.94-2.28l0.02-1.44
			c2.78,0.07,5.46,1,7.73,2.54c2.25,1.53,4.17,3.83,4.73,6.66c0.5,2.82-0.26,5.62-1.57,8c-1.31,2.41-3.25,4.41-5.46,5.95
			c-2.21,1.55-4.7,2.67-7.29,3.36c-2.59,0.68-5.26,0.98-7.9,1.03c-5.31,0.09-10.51-0.66-15.69-1.29c-5.19-0.7-10.4-1.56-15.41-3.37
			c-2.49-0.93-4.92-2.15-7.01-3.88c-2.08-1.72-3.82-4.01-4.56-6.69c-0.75-2.64-0.78-5.41-0.26-8.06c0.26-1.33,0.67-2.63,1.27-3.87
			c0.58-1.23,1.45-2.4,2.43-3.32c1.97-1.87,4.35-3.28,6.94-4.1c2.57-0.8,5.51-0.99,8.11,0.2L473.81,820.19z"/>
	</g>
	<g>
		<path d="M463.65,847.64c-0.61-0.36-1.26-0.21-1.93,0.32c-0.66,0.51-1.23,1.25-1.72,2.02c-0.49,0.78-0.92,1.62-1.28,2.49
			c-0.18,0.43-0.35,0.87-0.49,1.31c-0.07,0.22-0.14,0.44-0.2,0.66c-0.04,0.21-0.09,0.4-0.12,0.61c-0.2,1.66,0.53,3.44,1.59,4.92
			c1.07,1.49,2.44,2.79,4.04,3.71c3.21,1.88,7.1,2.58,10.87,3.41c3.79,0.76,7.63,1.31,11.49,1.66c3.86,0.35,7.73,0.5,11.6,0.46
			c1.93-0.02,3.89-0.07,5.79-0.2c1.87-0.14,3.74-0.5,5.04-1.59c1.31-1.07,1.78-2.88,1.49-4.61c-0.27-1.74-1.18-3.42-2.5-4.57
			c-2.83-2.41-6.51-3.81-10.22-4.46l0.25-1.49c3.93,0.7,7.82,2.14,10.96,4.81c1.62,1.42,2.67,3.37,3.01,5.48
			c0.16,1.06,0.13,2.17-0.19,3.23c-0.31,1.06-0.96,2.05-1.82,2.77c-1.75,1.45-3.94,1.79-5.9,1.95c-1.99,0.13-3.93,0.18-5.89,0.2
			c-3.92,0.04-7.85-0.12-11.76-0.47c-3.91-0.35-7.8-0.92-11.65-1.69c-1.93-0.4-3.83-0.81-5.75-1.34c-1.91-0.53-3.83-1.21-5.59-2.25
			c-1.78-1.03-3.31-2.48-4.5-4.15c-1.17-1.66-2.11-3.73-1.85-5.99c0.03-0.28,0.1-0.55,0.16-0.82c0.07-0.25,0.15-0.49,0.23-0.74
			c0.16-0.48,0.35-0.96,0.55-1.42c0.4-0.93,0.87-1.83,1.42-2.69c0.56-0.86,1.2-1.69,2.09-2.38c0.45-0.33,0.99-0.62,1.63-0.72
			c0.64-0.11,1.35,0.07,1.86,0.4L463.65,847.64z"/>
	</g>
	<g>
		<path d="M480.01,869.44c-1.8-0.39-3.71-0.32-5.58-0.05c-1.87,0.28-3.75,0.76-5.52,1.39c-0.87,0.33-1.72,0.73-2.42,1.26
			c-0.35,0.27-0.66,0.56-0.79,0.85c-0.16,0.34-0.26,0.77-0.3,1.2c-0.09,0.87-0.02,1.82,0.25,2.61c0.24,0.73,0.91,1.29,1.7,1.79
			c3.18,2.05,6.95,3.03,10.73,3.69c3.81,0.63,7.68,1.12,11.53,1.61c3.86,0.48,7.72,0.91,11.58,1.3l2.9,0.28
			c0.97,0.09,1.92,0.21,2.76,0.08c1.66-0.17,2.87-1.81,3-3.49c0.14-1.72-0.64-3.49-1.8-4.9c-1.13-1.46-2.67-2.56-4.32-3.42
			c-3.37-1.68-7.22-2.34-11.03-2.9l0.19-1.3c3.85,0.57,7.81,1.24,11.43,3.04c1.78,0.93,3.49,2.14,4.75,3.77
			c1.28,1.57,2.24,3.61,2.07,5.81c-0.1,1.1-0.51,2.16-1.22,3.02c-0.68,0.87-1.78,1.5-2.88,1.63c-1.09,0.15-2.11,0.01-3.06-0.08
			l-2.91-0.28c-3.88-0.39-7.75-0.83-11.61-1.32c-3.87-0.5-7.72-0.99-11.59-1.63c-3.85-0.68-7.78-1.69-11.18-3.88
			c-0.83-0.53-1.8-1.26-2.19-2.41c-0.35-1.06-0.41-2.09-0.32-3.16c0.06-0.53,0.16-1.07,0.42-1.61c0.29-0.59,0.74-0.97,1.15-1.29
			c0.86-0.65,1.79-1.08,2.74-1.43c1.89-0.67,3.8-1.16,5.78-1.45c1.97-0.28,4.01-0.36,6.02,0.08L480.01,869.44z"/>
	</g>
	<path class="st0" d="M406.97,829.99c-16.61,24.46-13.62,60.37,6.82,81.74c3.98,4.16,8.57,7.83,13.83,10.15
		c12.24,5.4,27.13,2.76,38.07-4.95s18.18-19.87,21.93-32.71"/>
	<path class="st0" d="M514.2,782.59c43.3-150.33,62.89-259.67,101.88-417.52"/>
	<g>
		<path d="M118.88,318.32c3.95-27.31,14-53.46,27.79-77.18c6.9-11.88,14.73-23.2,23.27-33.94c2.18-2.65,4.35-5.31,6.55-7.93
			c2.27-2.57,4.49-5.19,6.81-7.72c4.65-5.06,9.37-9.99,14.08-14.93c4.72-4.94,9.43-9.9,14.2-14.8l7.17-7.34l7.31-7.22
			c9.84-9.52,20.2-18.62,31.6-26.33c11.37-7.75,23.74-13.96,36.5-18.99c3.21-1.2,6.41-2.45,9.64-3.61l9.78-3.18
			c3.24-1.12,6.57-1.95,9.85-2.91l4.94-1.4c1.64-0.48,3.29-0.93,4.96-1.33c6.65-1.63,13.26-3.42,19.95-4.84l10.01-2.25
			c3.33-0.77,6.71-1.38,10.06-2.07c13.47-2.52,27.07-4.27,40.71-5.46c27.28-2.36,54.73-2.43,82.03-0.67
			c27.3,1.79,54.5,5.43,81.23,11.34c26.69,5.93,53.01,14.19,77.58,26.34l-0.49,0.97c-24.5-12.03-50.75-20.19-77.38-26.02
			c-26.66-5.82-53.81-9.37-81.04-11.07c-27.24-1.67-54.6-1.52-81.77,0.9c-13.58,1.22-27.12,3-40.5,5.55
			c-3.33,0.7-6.68,1.31-10.01,2.09l-9.98,2.27c-6.67,1.44-13.25,3.24-19.87,4.88c-1.66,0.4-3.3,0.86-4.93,1.34l-4.91,1.41
			c-3.27,0.97-6.58,1.8-9.79,2.93l-9.7,3.19c-3.2,1.16-6.36,2.41-9.54,3.61c-12.63,5.03-24.81,11.19-36.01,18.87
			c-11.23,7.64-21.45,16.67-31.21,26.17l-7.25,7.21l-7.13,7.34c-4.74,4.9-9.43,9.88-14.14,14.83c-4.7,4.96-9.42,9.91-14,14.93
			c-2.29,2.51-4.48,5.12-6.73,7.67c-2.18,2.61-4.32,5.26-6.48,7.89c-8.44,10.67-16.16,21.91-22.95,33.68
			c-13.58,23.51-23.4,49.34-27.21,76.22L118.88,318.32z"/>
	</g>
	<g>
		<path d="M654.65,111.84l40.33,0c6.72-0.02,13.45,0.06,20.17,0.1c6.72,0.14,13.45,0.17,20.17,0.45c3.36,0.13,6.72,0.19,10.08,0.39
			l10.08,0.57c3.36,0.18,6.71,0.53,10.07,0.79l5.03,0.42l5.02,0.57c13.4,1.38,26.7,3.67,39.84,6.64c3.28,0.79,6.56,1.52,9.83,2.35
			l9.72,2.76c3.26,0.86,6.44,1.99,9.64,3.04l4.8,1.59c1.6,0.53,3.2,1.05,4.77,1.68c6.28,2.43,12.63,4.71,18.76,7.5
			c3.09,1.35,6.19,2.65,9.26,4.04c3.06,1.41,6.1,2.84,9.13,4.31c24.21,11.72,47.71,25.41,68.32,42.92
			c5.16,4.36,10.05,9.04,14.9,13.68c4.85,4.66,9.65,9.38,14.39,14.17c9.44,9.6,18.56,19.56,26.91,30.17
			c8.34,10.61,15.94,21.85,22.31,33.78c6.32,11.93,11.96,24.17,17.23,36.58c5.28,12.4,9.96,25.04,14.34,37.78
			c4.4,12.74,8.22,25.67,11.6,38.72c0.8,3.27,1.71,6.52,2.43,9.81l2.2,9.87c1.28,6.62,2.64,13.23,3.57,19.92
			c2,13.35,3.29,26.85,3.04,40.42l-3-0.07c0.28-13.33-0.95-26.69-2.89-39.92c-0.89-6.63-2.23-13.2-3.48-19.78l-2.16-9.81
			c-0.71-3.27-1.6-6.51-2.39-9.76c-3.32-12.98-7.09-25.87-11.42-38.56c-4.32-12.69-8.94-25.3-14.17-37.65
			c-5.2-12.36-10.79-24.57-17.02-36.42c-6.26-11.81-13.75-22.96-21.99-33.5c-8.25-10.55-17.29-20.47-26.66-30.07
			c-4.7-4.78-9.48-9.5-14.31-14.17c-4.84-4.67-9.66-9.31-14.76-13.64c-20.38-17.42-43.69-31.11-67.78-42.86
			c-3.01-1.47-6.05-2.91-9.09-4.32c-3.05-1.4-6.14-2.7-9.21-4.05c-6.1-2.8-12.41-5.08-18.65-7.52c-1.55-0.63-3.15-1.16-4.74-1.68
			l-4.77-1.6c-3.18-1.06-6.34-2.19-9.58-3.05l-9.67-2.77c-3.25-0.84-6.52-1.58-9.77-2.37c-13.07-3-26.3-5.32-39.65-6.73l-5-0.58
			l-5.01-0.43c-3.34-0.27-6.68-0.62-10.03-0.82l-10.05-0.59c-3.35-0.2-6.71-0.27-10.06-0.41c-6.71-0.3-13.43-0.35-20.14-0.51
			c-6.72-0.06-13.44-0.15-20.16-0.16l-40.33-0.12L654.65,111.84z"/>
	</g>
	<g>
		<g>
			<path d="M121,319.08c17.92-3.97,36.1-6.7,54.4-8.17c18.26-1.46,36.63-1.69,54.92-0.68c18.33,1.01,36.58,3.26,54.6,6.76
				c17.31,3.36,34.58,7.69,51.21,13.62c15.11,5.39,29.95,12.61,41.77,23.65c1.47,1.37,2.87,2.8,4.24,4.27
				c1.31,1.42,3.43-0.7,2.12-2.12c-11.11-12.01-25.54-20.15-40.61-26.16c-16.32-6.51-33.54-11.02-50.71-14.68
				c-18.21-3.88-36.69-6.5-55.26-7.87c-18.52-1.36-37.13-1.45-55.66-0.27c-18.5,1.18-36.92,3.62-55.09,7.32
				c-2.24,0.46-4.48,0.94-6.72,1.43C118.31,316.61,119.11,319.5,121,319.08L121,319.08z"/>
		</g>
	</g>
	<g>
		<g>
			<path d="M384.93,361.81c17.12-3.55,34.5-5.74,51.91-7.2c20.13-1.69,40.35-2.37,60.55-2.18c20.98,0.2,41.96,1.33,62.82,3.59
				c19.99,2.16,39.91,5.36,59.43,10.19c17.03,4.21,33.94,9.62,49.64,17.53c1.7,0.86,3.39,1.75,5.06,2.67
				c1.69,0.93,3.21-1.66,1.51-2.59c-15.24-8.39-31.82-14.21-48.58-18.73c-19.25-5.19-38.95-8.65-58.73-11.1
				c-21.08-2.61-42.31-4.01-63.54-4.44c-20.47-0.42-40.96,0.05-61.38,1.53c-18,1.3-35.98,3.35-53.72,6.69
				c-1.93,0.36-3.86,0.75-5.79,1.15C382.24,359.31,383.04,362.2,384.93,361.81L384.93,361.81z"/>
		</g>
	</g>
	<g>
		<g>
			<path d="M676.16,386.07c17.48-4.61,35.09-8.93,52.95-11.81c13.85-2.23,27.93-3.54,41.97-2.76c12.44,0.7,24.69,3.2,36.38,7.5
				c12.85,4.72,24.87,11.48,36.25,19.03c14.55,9.65,28.2,20.6,41.55,31.83c1.94,1.63,3.86,3.26,5.79,4.91
				c1.46,1.25,3.59-0.87,2.12-2.12c-13.92-11.89-28.11-23.55-43.18-33.98c-11.66-8.08-23.93-15.36-37.08-20.75
				c-11.78-4.83-24.18-7.88-36.85-9.05c-13.86-1.29-27.82-0.35-41.58,1.57c-17.47,2.44-34.71,6.45-51.79,10.83
				c-2.45,0.63-4.9,1.27-7.34,1.91C673.49,383.67,674.28,386.56,676.16,386.07L676.16,386.07z"/>
		</g>
	</g>
	<g>
		<g>
			<path d="M893.4,434.47c0.71-1.21,2.31-2.11,3.76-2.76c2.13-0.96,4.44-1.56,6.72-2.08c5.22-1.19,10.56-1.8,15.89-2.25
				c13.58-1.15,27.29-1.4,40.89-0.41c14.58,1.05,28.96,3.69,43.18,7.03c7.88,1.85,15.72,3.88,23.54,5.93
				c7.53,1.97,14.88,4.28,21.97,7.51c13.81,6.27,26.62,15.05,36.94,26.21c1.28,1.38,2.52,2.81,3.72,4.26
				c1.23,1.49,3.34-0.64,2.12-2.12c-9.88-11.98-22.58-21.58-36.39-28.6c-6.96-3.53-14.26-6.45-21.76-8.6
				c-8.08-2.32-16.28-4.32-24.45-6.31c-14.59-3.56-29.33-6.54-44.3-7.93c-14.41-1.34-28.92-1.21-43.34-0.13
				c-5.38,0.4-10.78,0.97-16.09,1.97c-4.5,0.85-9.72,1.89-13.35,4.89c-0.65,0.53-1.21,1.17-1.64,1.9
				C889.83,434.62,892.42,436.13,893.4,434.47L893.4,434.47z"/>
		</g>
	</g>
	<g>
		<path d="M382.91,360.56l11.46-50.88l5.73-25.44c1.93-8.48,3.78-16.96,5.81-25.46c2.04-8.49,4.34-16.96,7.26-25.25
			c2.89-8.31,6.56-16.37,10.89-24.03c8.64-15.34,20.02-29.12,33.42-40.51c13.4-11.46,28.92-20.08,44.89-27.09
			c16.02-7.03,32.5-12.64,48.91-18.41c8.24-2.83,16.57-5.51,25.11-7.46c4.26-0.98,8.6-1.78,12.92-2.35
			c4.32-0.6,8.66-1.12,13.01-1.48c17.4-1.52,34.96-1.1,52.26,1.24l-0.24,1.8c-17.18-2.19-34.59-2.47-51.82-0.83
			c-4.31,0.39-8.6,0.94-12.88,1.57c-4.29,0.61-8.5,1.41-12.7,2.41c-8.4,1.99-16.62,4.7-24.8,7.58
			c-16.34,5.89-32.76,11.62-48.55,18.69c-15.76,7.07-30.91,15.66-43.9,26.93c-13,11.23-24.01,24.76-32.32,39.78
			c-4.16,7.51-7.66,15.36-10.43,23.49c-2.79,8.13-4.99,16.48-6.95,24.91c-1.95,8.43-3.74,16.95-5.6,25.44l-5.54,25.48l-11.07,50.97
			L382.91,360.56z"/>
	</g>
	<g>
		<path d="M671.29,381.39c3.77-10.93,8.37-21.33,12.34-31.92c1.98-5.29,3.84-10.6,5.27-15.98c0.69-2.66,1.3-5.47,1.87-8.22
			c0.58-2.76,1.12-5.52,1.57-8.29c0.92-5.54,1.53-11.1,1.76-16.7c0.22-5.6,0.11-11.23-0.16-16.87c-0.59-11.28-1.77-22.59-2.88-33.91
			c-1.14-11.31-2.28-22.59-4.45-33.65c-2.15-11.08-5.25-22.01-8.01-33.06l-4.22-16.53c-1.43-5.5-2.86-10.99-4.58-16.36
			c-1.75-5.35-3.86-10.63-5.9-15.94l-6.08-15.96l1.69-0.66l6.45,15.79c2.16,5.26,4.4,10.5,6.32,15.93
			c1.88,5.43,3.45,10.93,5.01,16.4l4.61,16.44c1.54,5.47,3.04,10.97,4.47,16.49c1.42,5.53,2.79,11.08,3.92,16.71
			c2.29,11.27,3.5,22.66,4.72,33.98c1.18,11.32,2.42,22.65,3.08,34.1c0.31,5.72,0.45,11.48,0.25,17.25
			c-0.21,5.77-0.81,11.54-1.72,17.23c-0.44,2.85-0.99,5.67-1.56,8.48c-0.58,2.82-1.17,5.58-1.87,8.44
			c-1.43,5.64-3.29,11.09-5.23,16.48c-3.91,10.76-8.41,21.25-11.94,31.89L671.29,381.39z"/>
	</g>
	<g>
		<path d="M889.11,433.1c-0.38-18.25-0.79-36.47-1.9-54.64c-1.1-18.16-2.92-36.27-6.11-54.14c-3.22-17.85-7.81-35.47-14.48-52.32
			c-3.3-8.43-7.15-16.66-11.22-24.79c-2.03-4.07-4.12-8.11-6.24-12.15c-2.12-4.04-4.21-8.09-6.44-12.02
			c-2.22-3.93-4.6-7.75-7.29-11.31c-2.69-3.55-5.75-6.82-9.05-9.86c-6.61-6.08-14.1-11.25-21.59-16.45
			c-14.99-10.39-30.11-20.59-45.73-29.95c-15.61-9.36-31.74-17.89-48.58-24.79c-16.81-6.94-34.35-12.12-52.29-15.1l0.29-1.79
			c18.11,2.87,35.85,7.97,52.84,14.84c17.02,6.82,33.32,15.3,49.08,24.59c15.77,9.29,31.02,19.42,46.11,29.71
			c7.53,5.15,15.17,10.32,22.05,16.56c3.44,3.12,6.66,6.51,9.51,10.22c2.85,3.7,5.33,7.64,7.63,11.63c2.3,4,4.42,8.05,6.58,12.07
			c2.15,4.03,4.28,8.08,6.36,12.16c4.15,8.16,8.11,16.46,11.53,25.01c6.9,17.08,11.68,34.93,15.07,52.97
			c3.36,18.06,5.33,36.33,6.56,54.6c1.25,18.28,1.78,36.56,2.3,54.81L889.11,433.1z"/>
	</g>
	<g>
		<g>
			<path d="M652.47,110.94c-0.25,3.05,0.5,7.5,4.4,7.58c4.25,0.08,6.04-5.57,7.16-8.75c3.03-8.6,3.61-17.82,4.53-26.82
				c0.54-5.22,1.21-10.42,2.51-15.5c0.48-1.87-2.37-2.66-2.89-0.8c-4.28,15.32-8.56,30.65-12.84,45.97c0.96,0,1.93,0,2.89,0
				c-1.3-3.77-0.8-7.69,0.1-11.49c0.91-3.86,2.05-7.68,3.24-11.47c2.44-7.75,5.34-15.36,8.68-22.77c0.79-1.75-1.8-3.27-2.59-1.51
				c-3.51,7.79-6.57,15.78-9.12,23.94c-1.25,3.99-2.48,8.03-3.35,12.12c-0.85,3.96-1.2,8.09,0.15,11.98c0.47,1.36,2.48,1.49,2.89,0
				c4.28-15.32,8.56-30.65,12.84-45.97c-0.96-0.27-1.93-0.53-2.89-0.8c-1.97,7.68-2.52,15.62-3.34,23.48
				c-0.8,7.65-1.81,15.85-5.33,22.8c-0.47,0.93-1.94,3.46-3.28,2.34c-1.07-0.9-0.86-3.11-0.76-4.32
				C655.63,109.01,652.63,109.02,652.47,110.94L652.47,110.94z"/>
		</g>
	</g>
	<g>
		<g>
			<path d="M722.92,1108.81c5.44,7.7,14.72,10.54,23.81,10.65c11.18,0.14,22.05-4.17,33.26-2.96c5.46,0.59,10.69,2.59,15.92,4.13
				c5.46,1.61,11.05,2.6,16.74,2.99c11.49,0.79,22.98-0.77,34.37-2.16c11.63-1.42,23.19-2.49,34.9-1.49
				c11.82,1,23.51,3.31,35.38,3.84c12.23,0.55,24.45-0.63,36.62-1.76c12.22-1.13,24.44-2.27,36.66-3.4
				c24.3-2.25,48.61-4.48,72.81-7.68c3.11-0.41,6.21-0.83,9.31-1.27c3.4-0.48,2.5-5.9-0.8-5.89c-28.82,0.03-57.63,1.47-86.3,4.37
				c-8.19,0.83-16.37,1.77-24.54,2.83c-1.61,0.21-3,1.23-3,3c0,1.46,1.38,3.21,3,3c28.58-3.7,57.34-6,86.14-6.84
				c8.23-0.24,16.46-0.36,24.7-0.37c-0.27-1.96-0.53-3.93-0.8-5.89c-23.79,3.38-47.71,5.69-71.62,7.91
				c-11.88,1.11-23.75,2.2-35.63,3.3c-11.96,1.11-23.93,2.47-35.94,2.77c-11.91,0.3-23.56-1.23-35.33-2.74
				c-11.57-1.48-22.93-2.01-34.56-0.91c-11.3,1.07-22.53,2.99-33.89,3.49c-5.46,0.24-10.97,0.17-16.39-0.59
				c-5.48-0.77-10.69-2.44-15.96-4.03c-5.44-1.65-10.95-2.89-16.67-2.79c-5.72,0.09-11.38,1.19-17.02,2.09
				c-8.57,1.37-18.34,2.23-25.99-2.76c-1.56-1.02-2.94-2.33-4.02-3.85c-0.93-1.32-2.62-1.94-4.1-1.08
				C722.68,1105.47,721.98,1107.48,722.92,1108.81L722.92,1108.81z"/>
		</g>
	</g>
	<g>
		<g>
			<path d="M976.15,1084.7c-9.41,2.94-19.05,5.07-28.81,6.39c1.33-0.18,2.66-0.36,3.99-0.54c-15.43,2.04-31.07,2.04-46.5-0.02
				c1.33,0.18,2.66,0.36,3.99,0.54c-6.25-0.85-12.46-2.04-18.58-3.56c-3.67-0.91-8.29-0.59-11.56,1.51
				c-1.01,0.78-2.02,1.56-3.04,2.35c-1.46,1.36-2.5,2.97-3.1,4.83c-1.26,2.98-1.78,6.6-0.76,9.77c1.14,3.53,3.41,7.32,6.89,8.96
				c3.26,1.54,6.51,3.08,9.77,4.62c5.05-8.63,10.09-17.27,15.14-25.9c-3.19-1.37-6.32-2.74-9.7-3.57c-3.22-0.79-6.55-1.2-9.83-1.55
				c-4.35-0.47-8.73-0.34-13.08,0.07c-10.31,0.97-20.42,3.2-30.66,4.59c1.33-0.18,2.66-0.36,3.99-0.54
				c-8.29,1.1-16.47,1.13-24.76,0.04c1.33,0.18,2.66,0.36,3.99,0.54c-10.37-1.4-20.51-4.05-30.8-5.95
				c-6.29-1.16-12.66-2.11-19.04-2.51c-5.46-0.34-10.93-0.15-16.38,0.32c-7.48,0.66-14.91,1.78-22.34,2.88
				c-1.19,0.5-2.39,1.01-3.58,1.51c-1.75,0.94-3.15,2.23-4.21,3.86c-1.95,2.53-3.37,5.8-3.22,9.09c0.12,2.66,0.8,5.21,2.05,7.57
				c1.69,3.19,5.51,6,8.96,6.89c3.1,0.8,6.21,1.6,9.31,2.4c3.81,0.98,8.15,0.49,11.56-1.51c3.11-1.82,6.08-5.39,6.89-8.96
				c0.87-3.84,0.69-8.15-1.51-11.56c-2.1-3.26-5.13-5.9-8.96-6.89c-3.1-0.8-6.21-1.6-9.31-2.4c0,9.64,0,19.29,0,28.93
				c2.93-0.43,5.86-0.86,8.79-1.26c-1.33,0.18-2.66,0.36-3.99,0.54c11.09-1.47,22.13-2.14,33.26-0.68
				c-1.33-0.18-2.66-0.36-3.99-0.54c11.45,1.55,22.61,4.62,33.99,6.51c6.73,1.12,13.56,2.06,20.39,2.1
				c6.84,0.05,13.67-0.93,20.42-1.97c6.19-0.96,12.34-2.17,18.55-3.01c-1.33,0.18-2.66,0.36-3.99,0.54
				c6.28-0.83,12.62-1.26,18.92-0.44c-1.33-0.18-2.66-0.36-3.99-0.54c3.54,0.49,6.98,1.38,10.29,2.75c-1.19-0.5-2.39-1.01-3.58-1.51
				c0.13,0.06,0.27,0.11,0.4,0.17c1.72,1.1,3.58,1.69,5.58,1.78c1.99,0.45,3.99,0.36,5.98-0.27c3.48-0.96,7.25-3.65,8.96-6.89
				c1.84-3.48,2.76-7.7,1.51-11.56c-1.14-3.53-3.41-7.32-6.89-8.96c-3.26-1.54-6.51-3.08-9.77-4.62
				c-3.85,9.14-7.71,18.28-11.56,27.42c13.21,3.28,26.9,5.15,40.51,5.57c13.65,0.42,27.33-0.84,40.76-3.29
				c6.97-1.27,13.85-2.98,20.6-5.09c3.68-1.15,6.99-3.52,8.96-6.89c1.88-3.22,2.68-7.95,1.51-11.56c-1.17-3.63-3.42-7.13-6.89-8.96
				C984.21,1084.36,980.04,1083.48,976.15,1084.7L976.15,1084.7z"/>
		</g>
	</g>
	<g>
		<g>
			<path d="M756.74,1110.16c3.14,0,6.15-2.76,6-6c-0.15-3.25-2.64-6-6-6c-3.14,0-6.15,2.76-6,6
				C750.88,1107.41,753.37,1110.16,756.74,1110.16L756.74,1110.16z"/>
		</g>
	</g>
</g>
</svg>
