<?xml version="1.0" encoding="utf-8"?>
<!-- Generator: Adobe Illustrator 24.1.2, SVG Export Plug-In . SVG Version: 6.00 Build 0)  -->
<svg version="1.1" xmlns="http://www.w3.org/2000/svg" xmlns:xlink="http://www.w3.org/1999/xlink" x="0px" y="0px"
	 viewBox="0 0 400 400" style="enable-background:new 0 0 400 400;" xml:space="preserve">
<style type="text/css">
	.st0{display:none;fill:#3D3D3D;stroke:#000000;stroke-miterlimit:10;}
	.st1{fill:none;stroke:#FFFFFF;stroke-width:6;stroke-miterlimit:10;}
	.st2{fill:#FFFFFF;}
</style>
<g id="Lag_1">
	<rect class="st0" width="400" height="400"/>
	<rect x="8.7" y="8.8" class="st1" width="378.4" height="378.4"/>
	<g>
		<g>
			<path class="st2" d="M46.8,87.4l14.6-19.3c0.8-1,1.3-2,1.8-3.1c0.4-1.1,0.6-2,0.6-2.9V62c0-1.4-0.4-2.5-1.3-3.3
				c-0.9-0.8-2.1-1.2-3.7-1.2c-1.5,0-2.8,0.5-3.7,1.4c-0.9,0.9-1.5,2.3-1.7,4v0h-7.1v0c0.3-2.5,0.9-4.7,2-6.5
				c1.1-1.8,2.5-3.2,4.3-4.1s3.8-1.4,6.2-1.4c2.6,0,4.8,0.4,6.6,1.3c1.8,0.9,3.2,2.1,4.2,3.8c1,1.6,1.4,3.6,1.4,6v0
				c0,1.7-0.3,3.4-1,5.2s-1.5,3.4-2.7,4.9L56,86.9h15.2v6.6H46.8V87.4z"/>
			<path class="st2" d="M100.6,56.6L90.4,93.6h-7.5L93,58h-9v6.2H77V51.4h23.5V56.6z"/>
		</g>
	</g>
	<g>
		<g>
			<path class="st2" d="M65.2,244.3c-5.6-3.2-10-7.6-13-13.4c-3.1-5.8-4.6-12.5-4.6-20.1v-29.4c0-7.6,1.5-14.3,4.6-20.1
				c3.1-5.8,7.4-10.2,13-13.4c5.6-3.2,12.1-4.7,19.5-4.7c7.4,0,13.8,1.6,19.5,4.7c5.6,3.2,10,7.6,13,13.4c3.1,5.8,4.6,12.5,4.6,20.1
				v29.4c0,7.6-1.5,14.3-4.6,20.1c-3.1,5.8-7.4,10.2-13,13.4c-5.6,3.2-12.1,4.7-19.5,4.7C77.3,249,70.8,247.4,65.2,244.3z
				 M94.9,229.5c3-1.7,5.3-4.1,6.9-7.3c1.6-3.2,2.4-6.8,2.4-10.9v-30.4c0-4.1-0.8-7.8-2.4-10.9c-1.6-3.2-3.9-5.6-6.9-7.3
				c-3-1.7-6.4-2.6-10.3-2.6c-3.9,0-7.3,0.9-10.3,2.6c-3,1.7-5.3,4.1-6.9,7.3c-1.6,3.2-2.4,6.8-2.4,10.9v30.4
				c0,4.1,0.8,7.8,2.4,10.9c1.6,3.2,3.9,5.6,6.9,7.3c3,1.7,6.4,2.6,10.3,2.6C88.5,232.1,92,231.3,94.9,229.5z"/>
			<path class="st2" d="M142.4,144.3h17v103.6h-17V144.3z M165.7,245.7c-3.3-2.2-5.7-5.3-7.3-9.4l1-16.2c0,2.8,0.5,5.2,1.5,7.2
				c1,2,2.4,3.5,4.3,4.5c1.9,1,4.2,1.6,6.9,1.6c4.2,0,7.5-1.3,9.8-4c2.3-2.7,3.5-6.4,3.5-11.3v-13.9c0-5-1.2-8.8-3.5-11.6
				c-2.3-2.7-5.6-4.1-9.8-4.1c-2.7,0-5,0.5-6.9,1.5c-1.9,1-3.3,2.5-4.3,4.5c-1,2-1.5,4.4-1.5,7.2l-1.5-15.3c2.1-4.3,4.9-7.7,8.3-10
				c3.4-2.4,7.3-3.5,11.4-3.5c5.2,0,9.7,1.2,13.4,3.6c3.7,2.4,6.6,6,8.5,10.7c1.9,4.7,2.9,10.3,2.9,16.9v14c0,6.5-1,12.1-3,16.7
				c-2,4.6-4.9,8.2-8.7,10.6c-3.8,2.4-8.3,3.6-13.6,3.6C172.9,249,169,247.9,165.7,245.7z"/>
			<path class="st2" d="M236.4,247.8c-4-0.8-7.7-2.1-11.2-3.7c-3.5-1.6-6.6-3.6-9.4-5.9l10.3-12.8c3.8,2.7,7.6,4.7,11.5,6.1
				c3.9,1.4,7.7,2.1,11.4,2.1c5.2,0,9.1-0.7,11.8-2.1c2.7-1.4,4-3.4,4-6.1c0-2-0.7-3.6-2-4.6c-1.3-1-3-1.7-5-2.1
				c-2-0.4-4.9-0.7-8.5-1.1c-0.6,0-1.3-0.1-1.9-0.1c-0.7,0-1.3-0.1-1.9-0.2c-0.2,0-0.4,0-0.6,0c-0.2,0-0.4,0-0.6,0
				c-5.2-0.6-9.4-1.4-12.8-2.4s-6.1-3-8.4-5.9c-2.3-2.9-3.4-7.1-3.4-12.5c0-5.1,1.1-9.4,3.4-12.9c2.3-3.5,5.6-6.1,9.9-7.9
				c4.4-1.8,9.7-2.7,16.1-2.7c3.8,0,7.5,0.4,11.1,1.1c3.6,0.7,7.1,1.8,10.4,3.2c3.3,1.4,6.4,3.1,9.4,5.2l-10.2,12.4
				c-3.5-2.1-7-3.7-10.5-4.8c-3.5-1.1-7-1.6-10.3-1.6c-4.5,0-7.9,0.6-10.2,1.9c-2.3,1.3-3.5,3.2-3.5,5.7c0,1.6,0.6,2.9,1.9,3.7
				c1.3,0.9,2.9,1.4,4.8,1.7s4.7,0.6,8.4,1c0.4,0,0.7,0.1,1.1,0.1c0.4,0,0.7,0.1,1.1,0.1c0.1,0,0.3,0,0.5,0c0.2,0,0.4,0,0.6,0.1
				c5.5,0.5,10,1.3,13.6,2.4s6.7,3.1,9.2,6.2c2.5,3.1,3.8,7.6,3.8,13.6c0,5.2-1.2,9.6-3.6,13.2c-2.4,3.6-5.9,6.3-10.6,8.1
				c-4.7,1.8-10.4,2.7-17.2,2.7C244.6,249,240.4,248.6,236.4,247.8z"/>
		</g>
	</g>
	<g>
		<g>
			<path class="st2" d="M51.2,341.8c-1.5-0.8-2.7-2.1-3.5-3.7s-1.2-3.5-1.2-5.8v-4c0-2.2,0.4-4.1,1.2-5.7s2-2.8,3.5-3.6
				c1.5-0.8,3.3-1.2,5.5-1.2c2.1,0,4,0.4,5.5,1.2c1.5,0.8,2.7,2,3.5,3.6s1.2,3.5,1.2,5.7v4.1c0,2.2-0.4,4.2-1.2,5.8s-2,2.8-3.5,3.6
				c-1.5,0.8-3.3,1.3-5.5,1.3C54.5,343.1,52.7,342.6,51.2,341.8z M60.6,336.9c0.9-1.1,1.4-2.5,1.4-4.5v-4.1c0-1.9-0.5-3.4-1.4-4.4
				c-0.9-1-2.2-1.6-3.9-1.6c-1.7,0-3,0.5-3.9,1.6c-0.9,1-1.4,2.5-1.4,4.4v4.1c0,1.9,0.5,3.4,1.4,4.5c0.9,1.1,2.2,1.6,3.9,1.6
				C58.3,338.5,59.7,337.9,60.6,336.9z"/>
			<path class="st2" d="M73.7,308.2h4.8v34.5h-4.8V308.2z M80.7,342c-1.1-0.7-2-1.8-2.5-3.1l0.3-5.2c0,1.1,0.2,2,0.6,2.7
				s0.9,1.3,1.7,1.7c0.7,0.4,1.6,0.6,2.6,0.6c1.6,0,2.8-0.5,3.7-1.5s1.3-2.3,1.3-4.1v-5.3c0-1.8-0.4-3.2-1.3-4.2
				c-0.9-1-2.1-1.5-3.7-1.5c-1,0-1.9,0.2-2.6,0.6c-0.7,0.4-1.3,0.9-1.7,1.7s-0.6,1.6-0.6,2.6l-0.5-4.8c0.7-1.4,1.7-2.6,2.9-3.3
				c1.2-0.8,2.5-1.2,4-1.2c1.7,0,3.2,0.4,4.5,1.2c1.2,0.8,2.2,1.9,2.8,3.4c0.6,1.5,1,3.3,1,5.4v5.4c0,2.1-0.3,3.9-1,5.4
				c-0.7,1.5-1.6,2.6-2.9,3.4s-2.8,1.2-4.6,1.2C83.2,343.1,81.9,342.7,80.7,342z"/>
			<path class="st2" d="M104.8,342.6c-1.3-0.3-2.5-0.7-3.6-1.3c-1.1-0.6-2.1-1.3-3.1-2.1l2.9-3.5c1.3,1,2.7,1.8,4,2.3
				c1.3,0.5,2.6,0.8,3.9,0.8c1.9,0,3.4-0.3,4.3-0.9c1-0.6,1.4-1.5,1.4-2.7c0-0.8-0.3-1.4-0.8-1.8c-0.5-0.4-1.2-0.7-1.9-0.8
				c-0.8-0.1-1.9-0.3-3.3-0.4c-0.1,0-0.3,0-0.4,0c-0.1,0-0.3,0-0.4,0c-0.1,0-0.1,0-0.2,0c-0.1,0-0.1,0-0.2,0c-1.6-0.1-3-0.4-4.1-0.7
				c-1.1-0.3-2-1-2.8-1.9s-1.1-2.3-1.1-4s0.4-3.2,1.1-4.3c0.7-1.2,1.8-2,3.2-2.6c1.4-0.6,3.2-0.9,5.3-0.9c1.3,0,2.5,0.1,3.7,0.4
				s2.3,0.6,3.3,1.1c1.1,0.5,2.1,1.1,3.1,1.8l-2.9,3.5c-1.2-0.8-2.5-1.4-3.6-1.8s-2.4-0.6-3.5-0.6c-1.6,0-2.9,0.3-3.7,0.8
				c-0.8,0.6-1.2,1.4-1.2,2.5c0,0.7,0.2,1.2,0.7,1.5c0.5,0.3,1.1,0.6,1.8,0.7c0.7,0.1,1.7,0.2,3,0.3c0.1,0,0.2,0,0.3,0s0.2,0,0.3,0
				c0,0,0.1,0,0.1,0s0.1,0,0.1,0c1.7,0.1,3.2,0.3,4.4,0.7c1.2,0.3,2.2,1,3.1,2.1c0.8,1,1.2,2.5,1.2,4.5c0,1.8-0.4,3.2-1.1,4.4
				c-0.8,1.2-1.9,2-3.4,2.6c-1.5,0.6-3.4,0.9-5.8,0.9C107.4,343.1,106.1,342.9,104.8,342.6z"/>
			<path class="st2" d="M129.6,341.8c-1.6-0.9-2.8-2.1-3.7-3.8c-0.8-1.7-1.3-3.7-1.3-6v-2.8c0-2.4,0.4-4.5,1.2-6.2
				c0.8-1.7,2-3,3.6-3.9c1.6-0.9,3.4-1.4,5.6-1.4c2.1,0,3.8,0.5,5.3,1.5c1.5,1,2.6,2.5,3.3,4.5c0.8,1.9,1.2,4.3,1.2,7v1.6h-16.6
				v-3.9h12c-0.1-2-0.7-3.6-1.6-4.7s-2.1-1.7-3.6-1.7c-1.8,0-3.3,0.6-4.3,1.8c-1,1.2-1.5,2.9-1.5,5.1v3.1c0,2,0.5,3.6,1.6,4.7
				c1.1,1.1,2.6,1.6,4.6,1.6c1,0,2-0.2,2.9-0.6c1-0.4,1.8-1,2.6-1.7l3.2,3.2c-1.2,1.2-2.6,2.1-4.1,2.7c-1.5,0.6-3,1-4.6,1
				C133.2,343.1,131.3,342.6,129.6,341.8z"/>
			<path class="st2" d="M151.5,318h4.8v24.7h-4.8V318z M163.4,322.7c-0.6-0.3-1.4-0.4-2.3-0.4c-1.5,0-2.7,0.4-3.6,1.3
				c-0.8,0.8-1.3,2-1.3,3.5l-0.5-4.8c0.8-1.5,1.7-2.6,2.9-3.4s2.5-1.2,4-1.2c1.1,0,2.1,0.2,3.1,0.5c0.9,0.3,1.7,0.8,2.4,1.4
				l-3.2,4.3C164.6,323.4,164.1,323,163.4,322.7z"/>
			<path class="st2" d="M186.8,318h5.1l-9.3,24.7h-3.7l-9.3-24.7h5.1l6,17.6L186.8,318z"/>
			<path class="st2" d="M197.6,341.2c-1.5-1.3-2.3-3.2-2.3-5.7c0-2.4,0.7-4.3,2.1-5.5s3.5-1.8,6.2-1.8h7l0.3,3.9h-7.3
				c-1.3,0-2.2,0.3-2.8,0.8c-0.6,0.6-0.9,1.4-0.9,2.6c0,1.3,0.4,2.2,1.2,2.8c0.8,0.6,2.1,0.9,3.8,0.9c1.9,0,3.2-0.2,4.1-0.6
				s1.4-1,1.4-1.9l0.5,3.5c-0.4,0.7-1,1.2-1.6,1.6s-1.3,0.7-2.2,1c-0.8,0.2-1.8,0.3-2.8,0.3C201.4,343.1,199.1,342.4,197.6,341.2z
				 M210.5,327.1c0-1.6-0.4-2.9-1.3-3.8s-2.1-1.3-3.7-1.3c-1,0-1.9,0.2-2.9,0.5c-0.9,0.3-1.8,0.7-2.5,1.3l-3.5-2.4
				c0.9-1.1,2.2-2,3.7-2.6c1.5-0.6,3.2-0.9,5.1-0.9c2,0,3.8,0.4,5.3,1.1s2.6,1.8,3.3,3.1s1.1,3,1.1,5v15.8h-4.6V327.1z"/>
			<path class="st2" d="M220.6,318h11.1v4.4h-11.1V318z M224.5,341.2c-0.9-1.1-1.4-2.7-1.4-4.9v-25.4h4.8v25.5
				c0,0.6,0.1,1.1,0.4,1.4c0.2,0.3,0.6,0.5,1,0.5h2.3v4.6h-2.8C226.9,342.8,225.4,342.3,224.5,341.2z"/>
			<path class="st2" d="M238.3,308.2h4.8v4.8h-4.8V308.2z M238.3,318h4.8v24.7h-4.8V318z"/>
			<path class="st2" d="M254.5,341.8c-1.5-0.8-2.7-2.1-3.5-3.7c-0.8-1.6-1.2-3.5-1.2-5.8v-4c0-2.2,0.4-4.1,1.2-5.7
				c0.8-1.6,2-2.8,3.5-3.6c1.5-0.8,3.3-1.2,5.5-1.2s4,0.4,5.5,1.2c1.5,0.8,2.7,2,3.5,3.6c0.8,1.6,1.2,3.5,1.2,5.7v4.1
				c0,2.2-0.4,4.2-1.2,5.8c-0.8,1.6-2,2.8-3.5,3.6c-1.5,0.8-3.3,1.3-5.5,1.3S256,342.6,254.5,341.8z M263.9,336.9
				c0.9-1.1,1.4-2.5,1.4-4.5v-4.1c0-1.9-0.5-3.4-1.4-4.4c-0.9-1-2.2-1.6-3.9-1.6s-3,0.5-3.9,1.6c-0.9,1-1.4,2.5-1.4,4.4v4.1
				c0,1.9,0.5,3.4,1.4,4.5c0.9,1.1,2.2,1.6,3.9,1.6S263,337.9,263.9,336.9z"/>
			<path class="st2" d="M277,318h4.8v24.7H277V318z M292,327.8c0-1.7-0.5-3.1-1.4-4s-2.2-1.4-3.8-1.4c-1.6,0-2.8,0.4-3.7,1.3
				c-0.9,0.8-1.3,2-1.3,3.5l-0.5-4.8c0.8-1.5,1.8-2.6,3-3.4s2.6-1.2,4.1-1.2c2.7,0,4.7,0.9,6.2,2.6c1.5,1.8,2.2,4.2,2.2,7.4v15H292
				V327.8z"/>
		</g>
	</g>
	<g>
		<g>
			<path class="st2" d="M216,86h-4.8V56.7l-4.9,3v-5l4.9-3.3h4.8V86z"/>
			<path class="st2" d="M226.3,83.8c-1.7-1.7-2.5-4.1-2.5-7.2V60.8c0-3.1,0.8-5.5,2.5-7.2s4.1-2.6,7.3-2.6c3.2,0,5.7,0.9,7.4,2.6
				c1.7,1.7,2.5,4.1,2.5,7.2v15.7c0,3.1-0.8,5.5-2.5,7.2c-1.7,1.7-4.1,2.6-7.3,2.6C230.4,86.4,228,85.5,226.3,83.8z M237.4,80.4
				c0.8-0.9,1.2-2.2,1.2-3.9V60.8c0-1.7-0.4-3-1.2-3.9c-0.8-0.9-2.1-1.3-3.8-1.3c-1.7,0-3,0.4-3.8,1.3c-0.8,0.9-1.2,2.2-1.2,3.9
				v15.7c0,1.7,0.4,3,1.2,3.9c0.8,0.9,2.1,1.3,3.8,1.3C235.4,81.8,236.6,81.3,237.4,80.4z"/>
			<path class="st2" d="M255.6,85.3c-1.4-0.7-2.5-1.7-3.3-3c-0.8-1.3-1.4-2.9-1.7-4.7v0h4.8v0c0.2,1.3,0.7,2.3,1.5,3
				c0.8,0.7,1.9,1.1,3.3,1.1c1.6,0,2.8-0.5,3.6-1.6c0.8-1,1.3-2.5,1.3-4.4v-2.9c0-1.9-0.4-3.3-1.3-4.4c-0.8-1-2-1.6-3.6-1.6
				c-0.8,0-1.6,0.2-2.4,0.7c-0.8,0.5-1.5,1.1-2,2h-4.4V51.5H269v4.6h-12.8v7.8c0.6-0.5,1.3-0.9,2-1.1c0.7-0.3,1.5-0.4,2.3-0.4
				c2,0,3.7,0.4,5.1,1.2c1.4,0.8,2.5,2,3.2,3.6s1.1,3.5,1.1,5.7v2.9c0,2.2-0.4,4.1-1.1,5.7c-0.8,1.6-1.9,2.8-3.3,3.6
				c-1.5,0.8-3.2,1.2-5.3,1.2C258.5,86.4,257,86,255.6,85.3z"/>
			<path class="st2" d="M276.5,80.9h5.1V86h-5.1V80.9z"/>
			<path class="st2" d="M287.6,81.8l12-16.1c0.7-0.9,1.2-1.9,1.6-2.9c0.4-1,0.6-1.9,0.6-2.8v0c0-1.4-0.4-2.4-1.2-3.2
				c-0.8-0.8-2-1.1-3.4-1.1c-1.4,0-2.5,0.4-3.4,1.2c-0.9,0.8-1.4,2-1.6,3.5v0h-5v0c0.3-2,0.9-3.7,1.7-5.1s2-2.5,3.4-3.2
				c1.4-0.7,3-1.1,4.8-1.1c2.1,0,3.8,0.4,5.3,1.1c1.5,0.7,2.6,1.7,3.3,3.1c0.8,1.3,1.1,3,1.1,4.9v0c0,1.2-0.3,2.5-0.8,3.8
				c-0.5,1.3-1.2,2.6-2.1,3.8l-10,13.6h13.1V86h-19.5V81.8z"/>
			<path class="st2" d="M317.1,85.3c-1.5-0.7-2.7-1.7-3.6-3.1c-0.9-1.3-1.5-2.9-1.7-4.8h4.9c0.1,1,0.5,1.8,0.9,2.4
				c0.5,0.6,1.1,1.1,1.8,1.4c0.8,0.3,1.6,0.5,2.6,0.5c1.6,0,2.8-0.4,3.7-1.3c0.9-0.9,1.3-2.1,1.3-3.6v-1c0-1.7-0.4-3.1-1.3-4
				c-0.8-0.9-2-1.4-3.6-1.4H320v-4.6h2.4c1.3,0,2.4-0.4,3.1-1.2c0.7-0.8,1.1-1.9,1.1-3.4V60c0-1.4-0.4-2.4-1.2-3.2
				c-0.8-0.7-1.9-1.1-3.3-1.1c-0.8,0-1.6,0.2-2.2,0.5c-0.6,0.3-1.2,0.8-1.7,1.4c-0.5,0.6-0.8,1.4-1,2.4h-4.9
				c0.3-1.9,0.9-3.5,1.8-4.8s2-2.4,3.3-3.1s2.9-1,4.6-1c3,0,5.3,0.8,6.9,2.4c1.6,1.6,2.4,3.8,2.4,6.6v0.6c0,1.7-0.5,3.2-1.4,4.5
				s-2.3,2.2-4,2.8c1.9,0.4,3.3,1.3,4.4,2.8c1,1.4,1.6,3.3,1.6,5.5v0.6c0,2-0.4,3.7-1.2,5.2s-1.9,2.5-3.4,3.3
				c-1.5,0.7-3.3,1.1-5.4,1.1C320.3,86.4,318.6,86,317.1,85.3z"/>
			<path class="st2" d="M342.8,85.3c-1.5-0.7-2.7-1.7-3.6-3.1c-0.9-1.3-1.5-2.9-1.7-4.8h4.9c0.1,1,0.5,1.8,0.9,2.4
				c0.5,0.6,1.1,1.1,1.8,1.4c0.8,0.3,1.6,0.5,2.6,0.5c1.6,0,2.8-0.4,3.7-1.3c0.9-0.9,1.3-2.1,1.3-3.6v-1c0-1.7-0.4-3.1-1.3-4
				c-0.8-0.9-2-1.4-3.6-1.4h-2.4v-4.6h2.4c1.3,0,2.4-0.4,3.1-1.2c0.7-0.8,1.1-1.9,1.1-3.4V60c0-1.4-0.4-2.4-1.2-3.2
				c-0.8-0.7-1.9-1.1-3.3-1.1c-0.8,0-1.6,0.2-2.2,0.5c-0.6,0.3-1.2,0.8-1.7,1.4c-0.5,0.6-0.8,1.4-1,2.4h-4.9
				c0.3-1.9,0.9-3.5,1.8-4.8s2-2.4,3.3-3.1s2.9-1,4.6-1c3,0,5.3,0.8,6.9,2.4c1.6,1.6,2.4,3.8,2.4,6.6v0.6c0,1.7-0.5,3.2-1.4,4.5
				s-2.3,2.2-4,2.8c1.9,0.4,3.3,1.3,4.4,2.8c1,1.4,1.6,3.3,1.6,5.5v0.6c0,2-0.4,3.7-1.2,5.2s-1.9,2.5-3.4,3.3
				c-1.5,0.7-3.3,1.1-5.4,1.1C346,86.4,344.3,86,342.8,85.3z"/>
		</g>
	</g>
</g>
<g id="Lag_2">
</g>
</svg>
