<?xml version="1.0" encoding="utf-8"?>
<!-- Generator: Adobe Illustrator 24.1.2, SVG Export Plug-In . SVG Version: 6.00 Build 0)  -->
<svg version="1.1" id="Lag_1" xmlns="http://www.w3.org/2000/svg" xmlns:xlink="http://www.w3.org/1999/xlink" x="0px" y="0px"
	 viewBox="0 0 1600 1000" style="enable-background:new 0 0 1600 1000;" xml:space="preserve">
<style type="text/css">
	.st0{fill:#21519B;}
	.st1{fill:#FFFFFF;}
	.st2{fill:#C6201E;}
	.st3{fill:#1E1E1C;}
	.st4{fill:#F8BA32;}
</style>
<rect y="-0.2" class="st0" width="1600" height="1112.6"/>
<path class="st1" d="M179.1,712.3c-6.9,0-12.5-5.6-12.5-12.5V300.2c0-6.9,5.6-12.5,12.5-12.5h338.3c6.9,0,12.5,5.6,12.5,12.5v399.7
	c0,6.9-5.6,12.5-12.5,12.5H179.1z"/>
<path class="st2" d="M189.1,597.1c-6.9,0-12.5-5.6-12.5-12.5V309.9c0-6.9,5.6-12.5,12.5-12.5h318.4c6.9,0,12.5,5.6,12.5,12.5v274.8
	c0,6.9-5.6,12.5-12.5,12.5H189.1z"/>
<g>
	<g>
		<path class="st2" d="M177.5,608.2h1v7.3h-1V608.2z M178.2,614.5h1.7c0.5,0,1-0.1,1.3-0.4c0.3-0.3,0.4-0.7,0.4-1.2v-2.2
			c0-0.5-0.1-0.9-0.4-1.2c-0.3-0.3-0.7-0.4-1.3-0.4h-1.7v-1h1.6c0.6,0,1.1,0.1,1.5,0.3c0.4,0.2,0.7,0.5,1,0.9
			c0.2,0.4,0.3,0.9,0.3,1.4v2.1c0,0.6-0.1,1-0.3,1.4c-0.2,0.4-0.5,0.7-1,0.9s-0.9,0.3-1.5,0.3h-1.6V614.5z"/>
		<path class="st2" d="M185,615.3c-0.3-0.2-0.6-0.4-0.8-0.8s-0.3-0.8-0.3-1.3v-0.6c0-0.5,0.1-1,0.3-1.3c0.2-0.4,0.4-0.6,0.8-0.8
			s0.7-0.3,1.2-0.3c0.4,0,0.8,0.1,1.1,0.3s0.5,0.5,0.7,0.9c0.2,0.4,0.2,0.9,0.2,1.5v0.3h-3.5v-0.8h2.5c0-0.4-0.1-0.8-0.3-1
			s-0.4-0.4-0.8-0.4c-0.4,0-0.7,0.1-0.9,0.4c-0.2,0.3-0.3,0.6-0.3,1.1v0.7c0,0.4,0.1,0.8,0.3,1s0.6,0.3,1,0.3c0.2,0,0.4,0,0.6-0.1
			c0.2-0.1,0.4-0.2,0.5-0.4l0.7,0.7c-0.3,0.2-0.5,0.4-0.9,0.6s-0.6,0.2-1,0.2C185.8,615.6,185.4,615.5,185,615.3z"/>
		<path class="st2" d="M189.7,610.3h1v5.2h-1V610.3z M192.8,612.3c0-0.4-0.1-0.7-0.3-0.9c-0.2-0.2-0.5-0.3-0.8-0.3
			c-0.3,0-0.6,0.1-0.8,0.3c-0.2,0.2-0.3,0.4-0.3,0.8l-0.1-1c0.2-0.3,0.4-0.6,0.6-0.7s0.5-0.3,0.9-0.3c0.6,0,1,0.2,1.3,0.6
			c0.3,0.4,0.5,0.9,0.5,1.6v3.2h-1V612.3z"/>
		<path class="st2" d="M198.2,610.3h1v5.2h-1V610.3z M200.7,611.2c-0.1-0.1-0.3-0.1-0.5-0.1c-0.3,0-0.6,0.1-0.8,0.3
			c-0.2,0.2-0.3,0.4-0.3,0.7l-0.1-1c0.2-0.3,0.4-0.6,0.6-0.7c0.3-0.2,0.5-0.3,0.8-0.3c0.2,0,0.5,0,0.6,0.1s0.4,0.2,0.5,0.3l-0.7,0.9
			C201,611.4,200.9,611.3,200.7,611.2z"/>
		<path class="st2" d="M202.6,608.2h1v1h-1V608.2z M202.6,610.3h1v5.2h-1V610.3z"/>
		<path class="st2" d="M205.8,615.3c-0.3-0.2-0.5-0.4-0.6-0.7c-0.1-0.3-0.2-0.7-0.2-1.1v-1.2c0-0.4,0.1-0.8,0.2-1.2
			c0.1-0.3,0.3-0.6,0.6-0.7s0.6-0.2,0.9-0.2c0.3,0,0.6,0.1,0.8,0.2c0.3,0.2,0.5,0.4,0.6,0.7l-0.1,1.1c0-0.2,0-0.4-0.1-0.6
			c-0.1-0.2-0.2-0.3-0.3-0.4c-0.2-0.1-0.3-0.1-0.6-0.1c-0.3,0-0.6,0.1-0.8,0.3c-0.2,0.2-0.3,0.5-0.3,0.9v1.1c0,0.4,0.1,0.7,0.3,0.9
			c0.2,0.2,0.4,0.3,0.8,0.3c0.2,0,0.4,0,0.6-0.1c0.2-0.1,0.3-0.2,0.3-0.4s0.1-0.4,0.1-0.6l0.1,1.1c-0.1,0.3-0.3,0.5-0.5,0.6
			c-0.2,0.2-0.5,0.3-0.9,0.3C206.4,615.6,206.1,615.5,205.8,615.3z M205.9,617.4c-0.3-0.1-0.6-0.4-0.7-0.6l0.7-0.6
			c0.1,0.2,0.3,0.3,0.5,0.4s0.4,0.2,0.6,0.2c0.4,0,0.7-0.1,0.9-0.3c0.2-0.2,0.3-0.5,0.3-0.9v-5.2h1v5.1c0,0.5-0.1,0.9-0.3,1.2
			c-0.2,0.3-0.4,0.6-0.8,0.8s-0.7,0.3-1.2,0.3C206.5,617.6,206.2,617.5,205.9,617.4z"/>
		<path class="st2" d="M210.3,610.3h2.4v0.9h-2.4V610.3z M211.1,615.2c-0.2-0.2-0.3-0.6-0.3-1v-5.4h1v5.4c0,0.1,0,0.2,0.1,0.3
			c0.1,0.1,0.1,0.1,0.2,0.1h0.5v1h-0.6C211.7,615.5,211.3,615.4,211.1,615.2z"/>
		<path class="st2" d="M214.1,608.2h1v1h-1V608.2z M214.1,610.3h1v5.2h-1V610.3z"/>
		<path class="st2" d="M217.3,615.3c-0.3-0.2-0.5-0.4-0.6-0.7c-0.1-0.3-0.2-0.7-0.2-1.1v-1.2c0-0.4,0.1-0.8,0.2-1.2
			c0.1-0.3,0.3-0.6,0.6-0.7s0.6-0.2,0.9-0.2c0.3,0,0.6,0.1,0.8,0.2c0.3,0.2,0.5,0.4,0.6,0.7l-0.1,1.1c0-0.2,0-0.4-0.1-0.6
			c-0.1-0.2-0.2-0.3-0.3-0.4c-0.2-0.1-0.3-0.1-0.6-0.1c-0.3,0-0.6,0.1-0.8,0.3c-0.2,0.2-0.3,0.5-0.3,0.9v1.1c0,0.4,0.1,0.7,0.3,0.9
			c0.2,0.2,0.4,0.3,0.8,0.3c0.2,0,0.4,0,0.6-0.1c0.2-0.1,0.3-0.2,0.3-0.4s0.1-0.4,0.1-0.6l0.1,1.1c-0.1,0.3-0.3,0.5-0.5,0.6
			c-0.2,0.2-0.5,0.3-0.9,0.3C217.9,615.6,217.6,615.5,217.3,615.3z M217.4,617.4c-0.3-0.1-0.6-0.4-0.7-0.6l0.7-0.6
			c0.1,0.2,0.3,0.3,0.5,0.4s0.4,0.2,0.6,0.2c0.4,0,0.7-0.1,0.9-0.3c0.2-0.2,0.3-0.5,0.3-0.9v-5.2h1v5.1c0,0.5-0.1,0.9-0.3,1.2
			c-0.2,0.3-0.4,0.6-0.8,0.8s-0.7,0.3-1.2,0.3C218,617.6,217.7,617.5,217.4,617.4z"/>
		<path class="st2" d="M223.1,615.3c-0.3-0.2-0.6-0.4-0.8-0.8s-0.3-0.8-0.3-1.3v-0.6c0-0.5,0.1-1,0.3-1.3c0.2-0.4,0.4-0.6,0.8-0.8
			s0.7-0.3,1.2-0.3c0.4,0,0.8,0.1,1.1,0.3s0.5,0.5,0.7,0.9c0.2,0.4,0.2,0.9,0.2,1.5v0.3h-3.5v-0.8h2.5c0-0.4-0.1-0.8-0.3-1
			s-0.4-0.4-0.8-0.4c-0.4,0-0.7,0.1-0.9,0.4c-0.2,0.3-0.3,0.6-0.3,1.1v0.7c0,0.4,0.1,0.8,0.3,1s0.6,0.3,1,0.3c0.2,0,0.4,0,0.6-0.1
			c0.2-0.1,0.4-0.2,0.5-0.4l0.7,0.7c-0.3,0.2-0.5,0.4-0.9,0.6s-0.6,0.2-1,0.2C223.9,615.6,223.5,615.5,223.1,615.3z"/>
		<path class="st2" d="M230.1,610.3h2.6v0.9h-2.6V610.3z M230.7,609.6c0-0.5,0.1-0.8,0.3-1s0.5-0.3,1-0.3h0.8v1H232
			c-0.1,0-0.2,0-0.2,0.1c-0.1,0.1-0.1,0.2-0.1,0.3v5.9h-1V609.6z"/>
		<path class="st2" d="M234,615.2c-0.3-0.3-0.5-0.7-0.5-1.2c0-0.5,0.1-0.9,0.4-1.2c0.3-0.3,0.7-0.4,1.3-0.4h1.5l0.1,0.8h-1.5
			c-0.3,0-0.5,0.1-0.6,0.2c-0.1,0.1-0.2,0.3-0.2,0.5c0,0.3,0.1,0.5,0.3,0.6c0.2,0.1,0.4,0.2,0.8,0.2c0.4,0,0.7,0,0.9-0.1
			s0.3-0.2,0.3-0.4l0.1,0.7c-0.1,0.1-0.2,0.3-0.3,0.3c-0.1,0.1-0.3,0.2-0.5,0.2c-0.2,0-0.4,0.1-0.6,0.1
			C234.8,615.6,234.3,615.4,234,615.2z M236.7,612.2c0-0.3-0.1-0.6-0.3-0.8s-0.4-0.3-0.8-0.3c-0.2,0-0.4,0-0.6,0.1
			c-0.2,0.1-0.4,0.2-0.5,0.3l-0.7-0.5c0.2-0.2,0.5-0.4,0.8-0.6c0.3-0.1,0.7-0.2,1.1-0.2c0.4,0,0.8,0.1,1.1,0.2s0.5,0.4,0.7,0.7
			c0.2,0.3,0.2,0.6,0.2,1v3.4h-1V612.2z"/>
		<path class="st2" d="M239.2,610.3h1v5.2h-1V610.3z M241.8,611.2c-0.1-0.1-0.3-0.1-0.5-0.1c-0.3,0-0.6,0.1-0.8,0.3
			c-0.2,0.2-0.3,0.4-0.3,0.7l-0.1-1c0.2-0.3,0.4-0.6,0.6-0.7c0.3-0.2,0.5-0.3,0.8-0.3c0.2,0,0.5,0,0.6,0.1s0.4,0.2,0.5,0.3l-0.7,0.9
			C242,611.4,241.9,611.3,241.8,611.2z"/>
		<path class="st2" d="M246.7,610.3h1.1l-2,5.2h-0.8l-2-5.2h1.1l1.3,3.7L246.7,610.3z"/>
		<path class="st2" d="M249.7,615.3c-0.3-0.2-0.6-0.4-0.8-0.8s-0.3-0.8-0.3-1.3v-0.6c0-0.5,0.1-1,0.3-1.3c0.2-0.4,0.4-0.6,0.8-0.8
			s0.7-0.3,1.2-0.3c0.4,0,0.8,0.1,1.1,0.3s0.5,0.5,0.7,0.9c0.2,0.4,0.2,0.9,0.2,1.5v0.3h-3.5v-0.8h2.5c0-0.4-0.1-0.8-0.3-1
			s-0.4-0.4-0.8-0.4c-0.4,0-0.7,0.1-0.9,0.4c-0.2,0.3-0.3,0.6-0.3,1.1v0.7c0,0.4,0.1,0.8,0.3,1s0.6,0.3,1,0.3c0.2,0,0.4,0,0.6-0.1
			c0.2-0.1,0.4-0.2,0.5-0.4l0.7,0.7c-0.3,0.2-0.5,0.4-0.9,0.6s-0.6,0.2-1,0.2C250.4,615.6,250,615.5,249.7,615.3z"/>
		<path class="st2" d="M256.7,610.3h2.4v0.9h-2.4V610.3z M257.5,615.2c-0.2-0.2-0.3-0.6-0.3-1v-5.4h1v5.4c0,0.1,0,0.2,0.1,0.3
			c0.1,0.1,0.1,0.1,0.2,0.1h0.5v1h-0.6C258,615.5,257.7,615.4,257.5,615.2z"/>
		<path class="st2" d="M260.4,608.2h1v1h-1V608.2z M260.4,610.3h1v5.2h-1V610.3z"/>
		<path class="st2" d="M264.1,614.1c0,0.1,0,0.2,0.1,0.3c0.1,0.1,0.1,0.1,0.2,0.1h0.5v1h-0.6c-0.4,0-0.7-0.1-0.9-0.4s-0.3-0.6-0.3-1
			v-6h1V614.1z"/>
		<path class="st3" d="M182.2,650.8c-1.2-0.6-2-1.5-2.7-2.7c-0.6-1.2-0.9-2.6-0.9-4.3v-13.6h4v13.7c0,1.2,0.3,2.2,1,2.8
			c0.7,0.7,1.6,1,2.8,1c1.2,0,2.1-0.3,2.8-1c0.7-0.7,1-1.6,1-2.8v-13.7h4v13.6c0,1.7-0.3,3.1-0.9,4.3c-0.6,1.2-1.5,2.1-2.7,2.7
			s-2.6,0.9-4.2,0.9C184.8,651.8,183.4,651.4,182.2,650.8z"/>
		<path class="st3" d="M198.3,636.3h4v15.2h-4V636.3z M207.1,642.3c0-0.7-0.2-1.3-0.6-1.7c-0.4-0.4-1-0.6-1.8-0.6
			c-0.7,0-1.3,0.2-1.7,0.6s-0.6,1-0.6,1.8L202,639c0.5-1,1-1.7,1.7-2.2c0.6-0.5,1.4-0.7,2.4-0.7c1.6,0,2.8,0.5,3.7,1.6
			c0.9,1.1,1.3,2.6,1.3,4.6v9.2h-4V642.3z"/>
		<path class="st3" d="M217,651c-0.8-0.5-1.4-1.3-1.8-2.3c-0.4-1-0.6-2.2-0.6-3.6v-2.4c0-1.4,0.2-2.6,0.6-3.6c0.4-1,1-1.8,1.8-2.3
			c0.8-0.5,1.7-0.8,2.8-0.8c0.8,0,1.6,0.2,2.2,0.7c0.7,0.5,1.2,1.2,1.6,2.1l-0.3,3.4c0-0.5-0.1-1-0.3-1.3c-0.2-0.4-0.4-0.6-0.8-0.8
			c-0.3-0.2-0.7-0.3-1.2-0.3c-0.8,0-1.3,0.3-1.8,0.8c-0.4,0.5-0.6,1.2-0.6,2.2v2.4c0,0.9,0.2,1.6,0.6,2.1c0.4,0.5,1,0.7,1.8,0.7
			c0.5,0,0.9-0.1,1.2-0.3s0.6-0.5,0.8-0.8c0.2-0.4,0.3-0.8,0.3-1.3l0.2,3.5c-0.3,0.8-0.8,1.5-1.4,1.9c-0.6,0.5-1.4,0.7-2.3,0.7
			C218.7,651.8,217.8,651.5,217,651z M223.3,630.2h4v21.3h-4V630.2z"/>
		<path class="st3" d="M234.1,651c-1-0.5-1.8-1.3-2.4-2.3c-0.5-1-0.8-2.3-0.8-3.7v-1.7c0-1.5,0.3-2.8,0.8-3.9
			c0.5-1.1,1.3-1.9,2.3-2.4c1-0.6,2.2-0.8,3.6-0.8c1.3,0,2.5,0.3,3.4,1c0.9,0.7,1.7,1.6,2.2,2.9s0.7,2.8,0.7,4.6v1h-10.4v-2.7h6.7
			l0-0.4c-0.1-0.9-0.4-1.6-0.8-2c-0.4-0.5-1-0.7-1.8-0.7c-1,0-1.7,0.3-2.3,0.9c-0.5,0.6-0.8,1.4-0.8,2.5v1.9c0,1,0.3,1.8,0.9,2.4
			c0.6,0.6,1.4,0.9,2.4,0.9c0.5,0,1.1-0.1,1.6-0.3c0.5-0.2,1-0.5,1.4-0.8l2.6,2.3c-0.8,0.7-1.7,1.3-2.7,1.7c-1,0.4-2,0.6-3,0.6
			C236.4,651.8,235.1,651.5,234.1,651z"/>
		<path class="st3" d="M247.4,636.3h4.3v15.2h-4.3V636.3z M255.2,640.1c-0.3-0.1-0.6-0.1-1-0.1c-0.8,0-1.4,0.3-1.9,0.8
			c-0.4,0.5-0.7,1.2-0.7,2.2l-0.3-4c0.4-0.9,1-1.6,1.6-2.1c0.7-0.5,1.4-0.8,2.2-0.8c0.6,0,1.2,0.1,1.7,0.3c0.5,0.2,1,0.5,1.3,0.9
			l-2.3,3.3C255.8,640.3,255.5,640.2,255.2,640.1z"/>
		<path class="st3" d="M260.2,630.2h4v21.3h-4V630.2z M269,642.3c0-0.7-0.2-1.3-0.6-1.7c-0.4-0.4-1-0.6-1.8-0.6
			c-0.7,0-1.3,0.2-1.7,0.6s-0.6,1-0.6,1.8l-0.3-3.4c0.5-1,1-1.7,1.7-2.2c0.6-0.5,1.4-0.7,2.4-0.7c1.6,0,2.8,0.5,3.7,1.6
			c0.9,1.1,1.3,2.6,1.3,4.6v9.2h-4V642.3z"/>
		<path class="st3" d="M279.6,651c-1-0.5-1.7-1.3-2.2-2.3c-0.5-1-0.8-2.2-0.8-3.6v-2.5c0-1.4,0.3-2.6,0.8-3.5c0.5-1,1.3-1.7,2.2-2.2
			c1-0.5,2.2-0.8,3.6-0.8c1.4,0,2.6,0.3,3.6,0.8c1,0.5,1.7,1.3,2.2,2.2c0.5,1,0.8,2.2,0.8,3.5v2.5c0,1.4-0.3,2.6-0.8,3.6
			c-0.5,1-1.3,1.7-2.2,2.3c-1,0.5-2.2,0.8-3.6,0.8C281.7,651.8,280.6,651.5,279.6,651z M285,647.2c0.4-0.5,0.7-1.1,0.7-2v-2.5
			c0-0.9-0.2-1.5-0.7-2c-0.5-0.5-1.1-0.7-1.9-0.7c-0.8,0-1.4,0.2-1.9,0.7c-0.4,0.5-0.7,1.1-0.7,2v2.5c0,0.9,0.2,1.5,0.7,2
			c0.4,0.5,1.1,0.7,1.9,0.7C283.9,647.9,284.6,647.6,285,647.2z"/>
		<path class="st3" d="M297.4,646.5c0,0.4,0.1,0.7,0.3,0.9c0.2,0.2,0.5,0.3,0.9,0.3h0.7v3.9h-2.1c-1.2,0-2.2-0.4-2.8-1.1s-1-1.7-1-3
			v-17.3h4V646.5z"/>
		<path class="st3" d="M304,651c-0.8-0.5-1.4-1.3-1.8-2.3c-0.4-1-0.6-2.2-0.6-3.6v-2.4c0-1.4,0.2-2.6,0.6-3.6c0.4-1,1-1.8,1.8-2.3
			c0.8-0.5,1.7-0.8,2.8-0.8c0.8,0,1.6,0.2,2.2,0.7c0.7,0.5,1.2,1.2,1.6,2.1l-0.3,3.4c0-0.5-0.1-1-0.3-1.3c-0.2-0.4-0.4-0.6-0.8-0.8
			c-0.3-0.2-0.7-0.3-1.2-0.3c-0.8,0-1.3,0.3-1.8,0.8c-0.4,0.5-0.6,1.2-0.6,2.2v2.4c0,0.9,0.2,1.6,0.6,2.1c0.4,0.5,1,0.7,1.8,0.7
			c0.5,0,0.9-0.1,1.2-0.3s0.6-0.5,0.8-0.8c0.2-0.4,0.3-0.8,0.3-1.3l0.2,3.5c-0.3,0.8-0.8,1.5-1.4,1.9c-0.6,0.5-1.4,0.7-2.3,0.7
			C305.7,651.8,304.7,651.5,304,651z M310.3,630.2h4v21.3h-4V630.2z"/>
		<path class="st3" d="M318.3,636.3h4v15.2h-4V636.3z M327.1,642.3c0-0.7-0.2-1.3-0.6-1.7c-0.4-0.4-1-0.6-1.8-0.6
			c-0.7,0-1.3,0.2-1.7,0.6s-0.6,1-0.6,1.8L322,639c0.5-1,1-1.7,1.7-2.2c0.6-0.5,1.4-0.7,2.4-0.7c1.6,0,2.8,0.5,3.7,1.6
			c0.9,1.1,1.3,2.6,1.3,4.6v9.2h-4V642.3z"/>
		<path class="st3" d="M334.8,630.2h4v4h-4V630.2z M334.8,636.3h4v15.2h-4V636.3z"/>
		<path class="st3" d="M342.6,636.3h4v15.2h-4V636.3z M351.4,642.3c0-0.7-0.2-1.3-0.6-1.7c-0.4-0.4-1-0.6-1.8-0.6
			c-0.7,0-1.3,0.2-1.7,0.6s-0.6,1-0.6,1.8l-0.3-3.4c0.5-1,1-1.7,1.7-2.2c0.6-0.5,1.4-0.7,2.4-0.7c1.6,0,2.8,0.5,3.7,1.6
			c0.9,1.1,1.3,2.6,1.3,4.6v9.2h-4V642.3z"/>
		<path class="st3" d="M361.3,651c-0.8-0.5-1.4-1.3-1.8-2.3c-0.4-1-0.6-2.2-0.6-3.6v-2.4c0-1.4,0.2-2.6,0.6-3.6c0.4-1,1-1.8,1.8-2.3
			c0.8-0.5,1.7-0.8,2.8-0.8c0.8,0,1.6,0.2,2.2,0.7c0.7,0.5,1.2,1.2,1.6,2.1l-0.3,3.4c0-0.5-0.1-1-0.3-1.3c-0.2-0.4-0.4-0.6-0.8-0.8
			c-0.3-0.2-0.7-0.3-1.2-0.3c-0.8,0-1.3,0.3-1.8,0.8c-0.4,0.5-0.6,1.2-0.6,2.2v2.4c0,0.9,0.2,1.6,0.6,2.1c0.4,0.5,1,0.7,1.8,0.7
			c0.5,0,0.9-0.1,1.2-0.3s0.6-0.5,0.8-0.8c0.2-0.4,0.3-0.8,0.3-1.3l0.2,3.5c-0.3,0.8-0.8,1.5-1.4,1.9c-0.6,0.5-1.4,0.7-2.3,0.7
			C363,651.8,362,651.5,361.3,651z M361.5,657.1c-1-0.4-1.7-1-2.2-1.8l2.7-2.5c0.3,0.4,0.8,0.7,1.2,0.9c0.5,0.2,1,0.3,1.5,0.3
			c0.8,0,1.5-0.2,2.1-0.7c0.5-0.5,0.8-1.1,0.8-1.9v-15.1h4v14.8c0,1.4-0.3,2.6-0.8,3.6c-0.5,1-1.3,1.8-2.3,2.3
			c-1,0.5-2.3,0.8-3.7,0.8C363.5,657.7,362.5,657.5,361.5,657.1z"/>
		<path class="st3" d="M177.5,693.6h1v7.3h-1V693.6z M177.9,696.9h2.5c0.2,0,0.4,0,0.5-0.1s0.3-0.2,0.3-0.4c0.1-0.2,0.1-0.4,0.1-0.6
			s0-0.4-0.1-0.6c-0.1-0.2-0.2-0.3-0.3-0.4c-0.1-0.1-0.3-0.1-0.5-0.1h-2.5v-1h2.5c0.4,0,0.8,0.1,1.1,0.3c0.3,0.2,0.6,0.4,0.7,0.7
			c0.2,0.3,0.3,0.7,0.3,1.1s-0.1,0.8-0.3,1.1s-0.4,0.6-0.7,0.7c-0.3,0.2-0.7,0.3-1.1,0.3h-2.5V696.9z M179.9,697.6l1-0.2l1.9,3.6
			h-1.2L179.9,697.6z"/>
		<path class="st3" d="M188.6,701h-1v-6.2l-1,0.6v-1.1l1-0.7h1V701z"/>
		<path class="st3" d="M192.8,697.3l0,0.2c-0.1,0.2-0.2,0.3-0.4,0.3s-0.4,0.1-0.6,0.1c-0.3,0-0.7-0.1-0.9-0.3
			c-0.3-0.2-0.5-0.4-0.6-0.8s-0.2-0.7-0.2-1.1v0c0-0.5,0.1-0.9,0.2-1.2s0.4-0.6,0.7-0.8c0.3-0.2,0.7-0.3,1.1-0.3s0.8,0.1,1.1,0.3
			s0.5,0.4,0.7,0.8c0.2,0.3,0.2,0.7,0.2,1.2v0c0,0.3,0,0.5-0.1,0.8c-0.1,0.3-0.2,0.6-0.3,0.9c0,0,0,0.1-0.1,0.1c0,0,0,0.1-0.1,0.1
			l-1.6,3.1H191L192.8,697.3z M192.9,696.7c0.2-0.2,0.3-0.5,0.3-0.9v0c0-0.4-0.1-0.7-0.3-0.9c-0.2-0.2-0.4-0.3-0.7-0.3
			c-0.3,0-0.6,0.1-0.8,0.3c-0.2,0.2-0.3,0.5-0.3,0.9v0c0,0.4,0.1,0.7,0.3,0.9c0.2,0.2,0.4,0.3,0.8,0.3
			C192.5,697,192.7,696.9,192.9,696.7z"/>
		<path class="st3" d="M196.5,700.8c-0.3-0.2-0.6-0.4-0.8-0.7c-0.2-0.3-0.3-0.7-0.3-1.1v-0.1c0-0.4,0.1-0.7,0.3-1
			c0.2-0.3,0.4-0.6,0.7-0.7c-0.3-0.1-0.5-0.3-0.6-0.6c-0.2-0.3-0.2-0.5-0.2-0.8v-0.2c0-0.4,0.1-0.7,0.3-1c0.2-0.3,0.4-0.5,0.7-0.7
			c0.3-0.2,0.7-0.2,1.1-0.2c0.4,0,0.8,0.1,1.1,0.2c0.3,0.2,0.6,0.4,0.7,0.7s0.3,0.6,0.3,1v0.2c0,0.3-0.1,0.6-0.2,0.8
			s-0.4,0.5-0.6,0.6c0.3,0.2,0.6,0.4,0.7,0.7s0.3,0.7,0.3,1v0.1c0,0.4-0.1,0.8-0.3,1.1s-0.4,0.5-0.8,0.7c-0.3,0.2-0.7,0.3-1.2,0.3
			C197.2,701,196.8,701,196.5,700.8z M198.3,699.9c0.2-0.1,0.3-0.2,0.4-0.4c0.1-0.2,0.1-0.4,0.1-0.6v-0.1c0-0.2,0-0.4-0.1-0.6
			c-0.1-0.2-0.2-0.3-0.4-0.4c-0.2-0.1-0.4-0.1-0.6-0.1c-0.2,0-0.4,0-0.6,0.1s-0.3,0.2-0.4,0.4c-0.1,0.2-0.1,0.4-0.1,0.6v0.1
			c0,0.2,0,0.4,0.1,0.6c0.1,0.2,0.2,0.3,0.4,0.4c0.2,0.1,0.4,0.1,0.6,0.1C197.9,700.1,198.1,700,198.3,699.9z M198.2,696.6
			c0.2-0.1,0.3-0.2,0.4-0.4c0.1-0.2,0.1-0.4,0.1-0.6v-0.1c0-0.2,0-0.4-0.1-0.5c-0.1-0.2-0.2-0.3-0.4-0.4c-0.2-0.1-0.3-0.1-0.5-0.1
			s-0.4,0-0.5,0.1c-0.2,0.1-0.3,0.2-0.4,0.4c-0.1,0.2-0.1,0.3-0.1,0.5v0.1c0,0.2,0,0.4,0.1,0.6c0.1,0.2,0.2,0.3,0.4,0.4
			s0.3,0.1,0.5,0.1S198.1,696.7,198.2,696.6z"/>
		<path class="st3" d="M201.2,699.9h1.1v1.6l-1.1,1.1V699.9z"/>
		<path class="st3" d="M211.6,697v1.3c0,0.5-0.1,1-0.3,1.4c-0.2,0.4-0.5,0.7-0.9,1c-0.4,0.2-0.8,0.3-1.3,0.3c-0.5,0-1-0.1-1.4-0.3
			s-0.7-0.5-0.9-0.9s-0.3-0.8-0.3-1.4v-2.2c0-0.5,0.1-1,0.3-1.4c0.2-0.4,0.5-0.7,0.9-1s0.8-0.3,1.3-0.3c0.4,0,0.8,0.1,1.2,0.3
			c0.4,0.2,0.6,0.4,0.9,0.8c0.2,0.3,0.4,0.7,0.5,1.1h-1.1c-0.1-0.2-0.2-0.5-0.3-0.6c-0.1-0.2-0.3-0.3-0.5-0.4
			c-0.2-0.1-0.4-0.1-0.6-0.1c-0.3,0-0.6,0.1-0.8,0.2c-0.2,0.1-0.4,0.3-0.5,0.6s-0.2,0.6-0.2,0.9v2.2c0,0.3,0.1,0.6,0.2,0.8
			s0.3,0.4,0.5,0.6s0.5,0.2,0.8,0.2c0.3,0,0.6-0.1,0.8-0.2s0.4-0.3,0.5-0.6c0.1-0.3,0.2-0.6,0.2-0.9V698H209v-1H211.6z"/>
		<path class="st3" d="M216.7,700.8c-0.3-0.1-0.6-0.4-0.8-0.6s-0.3-0.6-0.4-1h1c0,0.2,0.1,0.4,0.2,0.5s0.2,0.2,0.4,0.3
			c0.2,0.1,0.3,0.1,0.6,0.1c0.3,0,0.6-0.1,0.8-0.3c0.2-0.2,0.3-0.4,0.3-0.8v-0.2c0-0.4-0.1-0.6-0.3-0.8s-0.4-0.3-0.8-0.3h-0.5v-1
			h0.5c0.3,0,0.5-0.1,0.7-0.3c0.2-0.2,0.2-0.4,0.2-0.7v-0.2c0-0.3-0.1-0.5-0.2-0.7c-0.2-0.2-0.4-0.2-0.7-0.2c-0.2,0-0.3,0-0.5,0.1
			c-0.1,0.1-0.3,0.2-0.3,0.3c-0.1,0.1-0.2,0.3-0.2,0.5h-1c0.1-0.4,0.2-0.7,0.4-1s0.4-0.5,0.7-0.6c0.3-0.1,0.6-0.2,1-0.2
			c0.6,0,1.1,0.2,1.5,0.5s0.5,0.8,0.5,1.4v0.1c0,0.4-0.1,0.7-0.3,1s-0.5,0.5-0.8,0.6c0.4,0.1,0.7,0.3,0.9,0.6
			c0.2,0.3,0.3,0.7,0.3,1.2v0.1c0,0.4-0.1,0.8-0.2,1.1c-0.2,0.3-0.4,0.5-0.7,0.7c-0.3,0.2-0.7,0.2-1.1,0.2
			C217.3,701,217,701,216.7,700.8z"/>
		<path class="st3" d="M221.8,700.5c-0.4-0.4-0.5-0.9-0.5-1.5v-3.3c0-0.7,0.2-1.2,0.5-1.5c0.4-0.4,0.9-0.5,1.6-0.5
			c0.7,0,1.2,0.2,1.6,0.5c0.4,0.4,0.5,0.9,0.5,1.5v3.3c0,0.7-0.2,1.2-0.5,1.5c-0.4,0.4-0.9,0.5-1.6,0.5
			C222.7,701,222.2,700.9,221.8,700.5z M224.2,699.8c0.2-0.2,0.3-0.5,0.3-0.8v-3.3c0-0.4-0.1-0.6-0.3-0.8s-0.4-0.3-0.8-0.3
			s-0.6,0.1-0.8,0.3s-0.3,0.5-0.3,0.8v3.3c0,0.4,0.1,0.6,0.3,0.8c0.2,0.2,0.4,0.3,0.8,0.3S224,700,224.2,699.8z"/>
		<path class="st3" d="M226.8,699.9h1.1v1.6l-1.1,1.1V699.9z"/>
		<path class="st3" d="M232.2,693.7h1v7.3h-1V693.7z M232.8,700h2c0.5,0,0.9-0.1,1.1-0.3c0.2-0.2,0.4-0.5,0.4-0.8v0
			c0-0.2,0-0.5-0.1-0.6s-0.2-0.3-0.4-0.4c-0.2-0.1-0.4-0.1-0.7-0.1h-2.2v-0.9h2.2c0.4,0,0.7-0.1,0.9-0.3c0.2-0.2,0.3-0.4,0.3-0.8
			c0-0.4-0.1-0.6-0.3-0.8c-0.2-0.2-0.5-0.3-1-0.3h-2.1v-1h2.3c0.5,0,0.9,0.1,1.2,0.2c0.3,0.2,0.6,0.4,0.7,0.7s0.2,0.6,0.2,1.1
			c0,0.3,0,0.5-0.1,0.7c-0.1,0.2-0.2,0.4-0.4,0.6c-0.2,0.2-0.4,0.3-0.7,0.3c0.3,0,0.5,0.1,0.8,0.3c0.2,0.2,0.4,0.4,0.5,0.6
			c0.1,0.2,0.2,0.5,0.2,0.8v0c0,0.4-0.1,0.7-0.3,1s-0.4,0.5-0.7,0.7s-0.7,0.2-1.1,0.2h-2.4V700z"/>
		<path class="st3" d="M241.4,700.1l2.5-3.4c0.1-0.2,0.3-0.4,0.3-0.6c0.1-0.2,0.1-0.4,0.1-0.6v0c0-0.3-0.1-0.5-0.3-0.7
			c-0.2-0.2-0.4-0.2-0.7-0.2c-0.3,0-0.5,0.1-0.7,0.3c-0.2,0.2-0.3,0.4-0.3,0.7v0h-1.1v0c0.1-0.4,0.2-0.8,0.4-1.1s0.4-0.5,0.7-0.7
			c0.3-0.2,0.6-0.2,1-0.2c0.4,0,0.8,0.1,1.1,0.2c0.3,0.1,0.5,0.4,0.7,0.7c0.2,0.3,0.2,0.6,0.2,1v0c0,0.3-0.1,0.5-0.2,0.8
			c-0.1,0.3-0.3,0.6-0.4,0.8l-2.1,2.9h2.8v1h-4.1V700.1z"/>
		<path class="st3" d="M249.4,697.3l0,0.2c-0.1,0.2-0.2,0.3-0.4,0.3s-0.4,0.1-0.6,0.1c-0.3,0-0.7-0.1-0.9-0.3
			c-0.3-0.2-0.5-0.4-0.6-0.8s-0.2-0.7-0.2-1.1v0c0-0.5,0.1-0.9,0.2-1.2s0.4-0.6,0.7-0.8c0.3-0.2,0.7-0.3,1.1-0.3s0.8,0.1,1.1,0.3
			s0.5,0.4,0.7,0.8c0.2,0.3,0.2,0.7,0.2,1.2v0c0,0.3,0,0.5-0.1,0.8c-0.1,0.3-0.2,0.6-0.3,0.9c0,0,0,0.1-0.1,0.1c0,0,0,0.1-0.1,0.1
			l-1.6,3.1h-1.1L249.4,697.3z M249.4,696.7c0.2-0.2,0.3-0.5,0.3-0.9v0c0-0.4-0.1-0.7-0.3-0.9c-0.2-0.2-0.4-0.3-0.7-0.3
			c-0.3,0-0.6,0.1-0.8,0.3c-0.2,0.2-0.3,0.5-0.3,0.9v0c0,0.4,0.1,0.7,0.3,0.9c0.2,0.2,0.4,0.3,0.8,0.3
			C249,697,249.3,696.9,249.4,696.7z"/>
	</g>
</g>
<path class="st1" d="M630.7,712.3c-6.9,0-12.5-5.6-12.5-12.5V300.2c0-6.9,5.6-12.5,12.5-12.5H969c6.9,0,12.5,5.6,12.5,12.5v399.7
	c0,6.9-5.6,12.5-12.5,12.5H630.7z"/>
<path class="st0" d="M640.7,597.1c-6.9,0-12.5-5.6-12.5-12.5V309.9c0-6.9,5.6-12.5,12.5-12.5h318.4c6.9,0,12.5,5.6,12.5,12.5v274.8
	c0,6.9-5.6,12.5-12.5,12.5H640.7z"/>
<g>
	<g>
		<path class="st0" d="M629.1,608.2h1v7.3h-1V608.2z M629.8,614.5h1.7c0.5,0,1-0.1,1.3-0.4c0.3-0.3,0.4-0.7,0.4-1.2v-2.2
			c0-0.5-0.1-0.9-0.4-1.2c-0.3-0.3-0.7-0.4-1.3-0.4h-1.7v-1h1.6c0.6,0,1.1,0.1,1.5,0.3c0.4,0.2,0.7,0.5,1,0.9
			c0.2,0.4,0.3,0.9,0.3,1.4v2.1c0,0.6-0.1,1-0.3,1.4c-0.2,0.4-0.5,0.7-1,0.9s-0.9,0.3-1.5,0.3h-1.6V614.5z"/>
		<path class="st0" d="M636.7,615.3c-0.3-0.2-0.6-0.4-0.8-0.8s-0.3-0.8-0.3-1.3v-0.6c0-0.5,0.1-1,0.3-1.3c0.2-0.4,0.4-0.6,0.8-0.8
			s0.7-0.3,1.2-0.3c0.4,0,0.8,0.1,1.1,0.3s0.5,0.5,0.7,0.9c0.2,0.4,0.2,0.9,0.2,1.5v0.3h-3.5v-0.8h2.5c0-0.4-0.1-0.8-0.3-1
			s-0.4-0.4-0.8-0.4c-0.4,0-0.7,0.1-0.9,0.4c-0.2,0.3-0.3,0.6-0.3,1.1v0.7c0,0.4,0.1,0.8,0.3,1s0.6,0.3,1,0.3c0.2,0,0.4,0,0.6-0.1
			c0.2-0.1,0.4-0.2,0.5-0.4l0.7,0.7c-0.3,0.2-0.5,0.4-0.9,0.6s-0.6,0.2-1,0.2C637.4,615.6,637,615.5,636.7,615.3z"/>
		<path class="st0" d="M641.3,610.3h1v5.2h-1V610.3z M644.4,612.3c0-0.4-0.1-0.7-0.3-0.9c-0.2-0.2-0.5-0.3-0.8-0.3
			c-0.3,0-0.6,0.1-0.8,0.3c-0.2,0.2-0.3,0.4-0.3,0.8l-0.1-1c0.2-0.3,0.4-0.6,0.6-0.7s0.5-0.3,0.9-0.3c0.6,0,1,0.2,1.3,0.6
			c0.3,0.4,0.5,0.9,0.5,1.6v3.2h-1V612.3z"/>
		<path class="st0" d="M649.8,610.3h1v5.2h-1V610.3z M652.3,611.2c-0.1-0.1-0.3-0.1-0.5-0.1c-0.3,0-0.6,0.1-0.8,0.3
			c-0.2,0.2-0.3,0.4-0.3,0.7l-0.1-1c0.2-0.3,0.4-0.6,0.6-0.7c0.3-0.2,0.5-0.3,0.8-0.3c0.2,0,0.5,0,0.6,0.1s0.4,0.2,0.5,0.3l-0.7,0.9
			C652.6,611.4,652.5,611.3,652.3,611.2z"/>
		<path class="st0" d="M654.2,608.2h1v1h-1V608.2z M654.2,610.3h1v5.2h-1V610.3z"/>
		<path class="st0" d="M657.5,615.3c-0.3-0.2-0.5-0.4-0.6-0.7c-0.1-0.3-0.2-0.7-0.2-1.1v-1.2c0-0.4,0.1-0.8,0.2-1.2
			c0.1-0.3,0.3-0.6,0.6-0.7s0.6-0.2,0.9-0.2c0.3,0,0.6,0.1,0.8,0.2c0.3,0.2,0.5,0.4,0.6,0.7l-0.1,1.1c0-0.2,0-0.4-0.1-0.6
			c-0.1-0.2-0.2-0.3-0.3-0.4c-0.2-0.1-0.3-0.1-0.6-0.1c-0.3,0-0.6,0.1-0.8,0.3c-0.2,0.2-0.3,0.5-0.3,0.9v1.1c0,0.4,0.1,0.7,0.3,0.9
			c0.2,0.2,0.4,0.3,0.8,0.3c0.2,0,0.4,0,0.6-0.1c0.2-0.1,0.3-0.2,0.3-0.4s0.1-0.4,0.1-0.6l0.1,1.1c-0.1,0.3-0.3,0.5-0.5,0.6
			c-0.2,0.2-0.5,0.3-0.9,0.3C658,615.6,657.7,615.5,657.5,615.3z M657.5,617.4c-0.3-0.1-0.6-0.4-0.7-0.6l0.7-0.6
			c0.1,0.2,0.3,0.3,0.5,0.4s0.4,0.2,0.6,0.2c0.4,0,0.7-0.1,0.9-0.3c0.2-0.2,0.3-0.5,0.3-0.9v-5.2h1v5.1c0,0.5-0.1,0.9-0.3,1.2
			c-0.2,0.3-0.4,0.6-0.8,0.8s-0.7,0.3-1.2,0.3C658.1,617.6,657.8,617.5,657.5,617.4z"/>
		<path class="st0" d="M661.9,610.3h2.4v0.9h-2.4V610.3z M662.8,615.2c-0.2-0.2-0.3-0.6-0.3-1v-5.4h1v5.4c0,0.1,0,0.2,0.1,0.3
			c0.1,0.1,0.1,0.1,0.2,0.1h0.5v1h-0.6C663.3,615.5,663,615.4,662.8,615.2z"/>
		<path class="st0" d="M665.7,608.2h1v1h-1V608.2z M665.7,610.3h1v5.2h-1V610.3z"/>
		<path class="st0" d="M668.9,615.3c-0.3-0.2-0.5-0.4-0.6-0.7c-0.1-0.3-0.2-0.7-0.2-1.1v-1.2c0-0.4,0.1-0.8,0.2-1.2
			c0.1-0.3,0.3-0.6,0.6-0.7s0.6-0.2,0.9-0.2c0.3,0,0.6,0.1,0.8,0.2c0.3,0.2,0.5,0.4,0.6,0.7l-0.1,1.1c0-0.2,0-0.4-0.1-0.6
			c-0.1-0.2-0.2-0.3-0.3-0.4c-0.2-0.1-0.3-0.1-0.6-0.1c-0.3,0-0.6,0.1-0.8,0.3c-0.2,0.2-0.3,0.5-0.3,0.9v1.1c0,0.4,0.1,0.7,0.3,0.9
			c0.2,0.2,0.4,0.3,0.8,0.3c0.2,0,0.4,0,0.6-0.1c0.2-0.1,0.3-0.2,0.3-0.4s0.1-0.4,0.1-0.6l0.1,1.1c-0.1,0.3-0.3,0.5-0.5,0.6
			c-0.2,0.2-0.5,0.3-0.9,0.3C669.5,615.6,669.2,615.5,668.9,615.3z M669,617.4c-0.3-0.1-0.6-0.4-0.7-0.6l0.7-0.6
			c0.1,0.2,0.3,0.3,0.5,0.4s0.4,0.2,0.6,0.2c0.4,0,0.7-0.1,0.9-0.3c0.2-0.2,0.3-0.5,0.3-0.9v-5.2h1v5.1c0,0.5-0.1,0.9-0.3,1.2
			c-0.2,0.3-0.4,0.6-0.8,0.8s-0.7,0.3-1.2,0.3C669.6,617.6,669.3,617.5,669,617.4z"/>
		<path class="st0" d="M674.7,615.3c-0.3-0.2-0.6-0.4-0.8-0.8s-0.3-0.8-0.3-1.3v-0.6c0-0.5,0.1-1,0.3-1.3c0.2-0.4,0.4-0.6,0.8-0.8
			s0.7-0.3,1.2-0.3c0.4,0,0.8,0.1,1.1,0.3s0.5,0.5,0.7,0.9c0.2,0.4,0.2,0.9,0.2,1.5v0.3h-3.5v-0.8h2.5c0-0.4-0.1-0.8-0.3-1
			s-0.4-0.4-0.8-0.4c-0.4,0-0.7,0.1-0.9,0.4c-0.2,0.3-0.3,0.6-0.3,1.1v0.7c0,0.4,0.1,0.8,0.3,1s0.6,0.3,1,0.3c0.2,0,0.4,0,0.6-0.1
			c0.2-0.1,0.4-0.2,0.5-0.4l0.7,0.7c-0.3,0.2-0.5,0.4-0.9,0.6s-0.6,0.2-1,0.2C675.5,615.6,675.1,615.5,674.7,615.3z"/>
		<path class="st0" d="M681.7,610.3h2.6v0.9h-2.6V610.3z M682.3,609.6c0-0.5,0.1-0.8,0.3-1s0.5-0.3,1-0.3h0.8v1h-0.7
			c-0.1,0-0.2,0-0.2,0.1c-0.1,0.1-0.1,0.2-0.1,0.3v5.9h-1V609.6z"/>
		<path class="st0" d="M685.6,615.2c-0.3-0.3-0.5-0.7-0.5-1.2c0-0.5,0.1-0.9,0.4-1.2c0.3-0.3,0.7-0.4,1.3-0.4h1.5l0.1,0.8h-1.5
			c-0.3,0-0.5,0.1-0.6,0.2c-0.1,0.1-0.2,0.3-0.2,0.5c0,0.3,0.1,0.5,0.3,0.6c0.2,0.1,0.4,0.2,0.8,0.2c0.4,0,0.7,0,0.9-0.1
			s0.3-0.2,0.3-0.4l0.1,0.7c-0.1,0.1-0.2,0.3-0.3,0.3c-0.1,0.1-0.3,0.2-0.5,0.2c-0.2,0-0.4,0.1-0.6,0.1
			C686.4,615.6,685.9,615.4,685.6,615.2z M688.3,612.2c0-0.3-0.1-0.6-0.3-0.8s-0.4-0.3-0.8-0.3c-0.2,0-0.4,0-0.6,0.1
			c-0.2,0.1-0.4,0.2-0.5,0.3l-0.7-0.5c0.2-0.2,0.5-0.4,0.8-0.6c0.3-0.1,0.7-0.2,1.1-0.2c0.4,0,0.8,0.1,1.1,0.2s0.5,0.4,0.7,0.7
			c0.2,0.3,0.2,0.6,0.2,1v3.4h-1V612.2z"/>
		<path class="st0" d="M690.9,610.3h1v5.2h-1V610.3z M693.4,611.2c-0.1-0.1-0.3-0.1-0.5-0.1c-0.3,0-0.6,0.1-0.8,0.3
			c-0.2,0.2-0.3,0.4-0.3,0.7l-0.1-1c0.2-0.3,0.4-0.6,0.6-0.7c0.3-0.2,0.5-0.3,0.8-0.3c0.2,0,0.5,0,0.6,0.1s0.4,0.2,0.5,0.3l-0.7,0.9
			C693.6,611.4,693.5,611.3,693.4,611.2z"/>
		<path class="st0" d="M698.3,610.3h1.1l-2,5.2h-0.8l-2-5.2h1.1l1.3,3.7L698.3,610.3z"/>
		<path class="st0" d="M701.3,615.3c-0.3-0.2-0.6-0.4-0.8-0.8s-0.3-0.8-0.3-1.3v-0.6c0-0.5,0.1-1,0.3-1.3c0.2-0.4,0.4-0.6,0.8-0.8
			s0.7-0.3,1.2-0.3c0.4,0,0.8,0.1,1.1,0.3s0.5,0.5,0.7,0.9c0.2,0.4,0.2,0.9,0.2,1.5v0.3H701v-0.8h2.5c0-0.4-0.1-0.8-0.3-1
			s-0.4-0.4-0.8-0.4c-0.4,0-0.7,0.1-0.9,0.4c-0.2,0.3-0.3,0.6-0.3,1.1v0.7c0,0.4,0.1,0.8,0.3,1s0.6,0.3,1,0.3c0.2,0,0.4,0,0.6-0.1
			c0.2-0.1,0.4-0.2,0.5-0.4l0.7,0.7c-0.3,0.2-0.5,0.4-0.9,0.6s-0.6,0.2-1,0.2C702.1,615.6,701.6,615.5,701.3,615.3z"/>
		<path class="st0" d="M708.3,610.3h2.4v0.9h-2.4V610.3z M709.1,615.2c-0.2-0.2-0.3-0.6-0.3-1v-5.4h1v5.4c0,0.1,0,0.2,0.1,0.3
			c0.1,0.1,0.1,0.1,0.2,0.1h0.5v1H710C709.6,615.5,709.3,615.4,709.1,615.2z"/>
		<path class="st0" d="M712,608.2h1v1h-1V608.2z M712,610.3h1v5.2h-1V610.3z"/>
		<path class="st0" d="M715.7,614.1c0,0.1,0,0.2,0.1,0.3c0.1,0.1,0.1,0.1,0.2,0.1h0.5v1h-0.6c-0.4,0-0.7-0.1-0.9-0.4s-0.3-0.6-0.3-1
			v-6h1V614.1z"/>
		<path class="st3" d="M630.5,630.2h4v21.3h-4V630.2z M632,630.2h12.5v3.9H632V630.2z M632,639.2h10.9v3.9H632V639.2z"/>
		<path class="st3" d="M646.8,630.2h4v4h-4V630.2z M646.8,636.3h4v15.2h-4V636.3z"/>
		<path class="st3" d="M654.6,636.3h4v15.2h-4V636.3z M663.4,642.3c0-0.7-0.2-1.3-0.6-1.7c-0.4-0.4-1-0.6-1.8-0.6
			c-0.7,0-1.3,0.2-1.7,0.6s-0.6,1-0.6,1.8l-0.3-3.4c0.5-1,1-1.7,1.7-2.2c0.6-0.5,1.4-0.7,2.4-0.7c1.6,0,2.8,0.5,3.7,1.6
			c0.9,1.1,1.3,2.6,1.3,4.6v9.2h-4V642.3z"/>
		<path class="st3" d="M671.8,650.6c-0.8-0.8-1.2-2-1.2-3.5c0-1.5,0.5-2.6,1.4-3.4c0.9-0.8,2.3-1.1,4.1-1.1h3.8l0.2,3.1h-4
			c-0.6,0-1.1,0.1-1.4,0.4c-0.3,0.2-0.5,0.6-0.5,1.1c0,0.5,0.2,0.9,0.6,1.1s1,0.4,1.7,0.4c1.1,0,1.9-0.1,2.4-0.4
			c0.5-0.2,0.8-0.6,0.8-1.1l0.3,2.2c-0.1,0.5-0.3,1-0.8,1.4c-0.4,0.4-1,0.7-1.7,0.9c-0.7,0.2-1.4,0.3-2.1,0.3
			C673.9,651.8,672.6,651.4,671.8,650.6z M679.7,641.9c0-0.7-0.2-1.2-0.7-1.6c-0.5-0.4-1.1-0.6-2-0.6c-0.6,0-1.1,0.1-1.7,0.3
			c-0.6,0.2-1.1,0.4-1.5,0.8l-2.5-2.5c0.6-0.7,1.4-1.2,2.4-1.6c1-0.4,2.1-0.6,3.3-0.6c1.3,0,2.5,0.2,3.4,0.7
			c0.9,0.4,1.7,1.1,2.1,1.9c0.5,0.8,0.7,1.9,0.7,3.1v9.8h-3.7V641.9z"/>
		<path class="st3" d="M687.3,636.3h4v15.2h-4V636.3z M696.1,642.3c0-0.7-0.2-1.3-0.6-1.7c-0.4-0.4-1-0.6-1.8-0.6
			c-0.7,0-1.3,0.2-1.7,0.6s-0.6,1-0.6,1.8l-0.3-3.4c0.5-1,1-1.7,1.7-2.2c0.6-0.5,1.4-0.7,2.4-0.7c1.6,0,2.8,0.5,3.7,1.6
			c0.9,1.1,1.3,2.6,1.3,4.6v9.2h-4V642.3z"/>
		<path class="st3" d="M707.3,651.5c-0.9-0.2-1.7-0.4-2.4-0.7c-0.8-0.3-1.4-0.7-2-1.1l2.5-3.1c0.7,0.5,1.5,0.8,2.3,1.1
			s1.6,0.4,2.3,0.4c0.9,0,1.7-0.1,2.2-0.3c0.5-0.2,0.8-0.5,0.8-0.9c0-0.3-0.1-0.6-0.3-0.8c-0.2-0.2-0.5-0.3-0.9-0.4
			s-0.8-0.1-1.5-0.2c-0.2,0-0.4,0-0.5-0.1c-0.2,0-0.4,0-0.5-0.1c0,0-0.1,0-0.1,0c0,0-0.1,0-0.1,0c-1.1-0.1-2-0.3-2.7-0.5
			c-0.7-0.2-1.3-0.6-1.7-1.2s-0.7-1.5-0.7-2.7c0-1,0.2-1.9,0.7-2.6s1.2-1.3,2.1-1.6c0.9-0.4,2.1-0.6,3.4-0.6c0.8,0,1.5,0.1,2.3,0.2
			s1.5,0.4,2.2,0.7c0.7,0.3,1.4,0.6,2,1.1L714,641c-0.7-0.4-1.4-0.7-2.1-0.9c-0.7-0.2-1.4-0.3-2.1-0.3c-0.8,0-1.4,0.1-1.9,0.3
			c-0.5,0.2-0.7,0.4-0.7,0.8c0,0.3,0.1,0.5,0.4,0.6c0.2,0.1,0.5,0.2,0.9,0.3c0.4,0.1,0.9,0.1,1.6,0.2c0.1,0,0.2,0,0.3,0s0.2,0,0.3,0
			c0,0,0.1,0,0.1,0s0.1,0,0.1,0c1.2,0.1,2.1,0.3,2.9,0.5s1.4,0.6,1.9,1.3s0.8,1.6,0.8,2.8c0,1.1-0.3,2-0.8,2.7s-1.3,1.3-2.2,1.7
			c-1,0.4-2.2,0.6-3.5,0.6C709,651.8,708.2,651.7,707.3,651.5z"/>
		<path class="st3" d="M722.9,651.5c-0.9-0.2-1.7-0.4-2.4-0.7c-0.8-0.3-1.4-0.7-2-1.1l2.5-3.1c0.7,0.5,1.5,0.8,2.3,1.1
			s1.6,0.4,2.3,0.4c0.9,0,1.7-0.1,2.2-0.3c0.5-0.2,0.8-0.5,0.8-0.9c0-0.3-0.1-0.6-0.3-0.8c-0.2-0.2-0.5-0.3-0.9-0.4
			s-0.8-0.1-1.5-0.2c-0.2,0-0.4,0-0.5-0.1c-0.2,0-0.4,0-0.5-0.1c0,0-0.1,0-0.1,0c0,0-0.1,0-0.1,0c-1.1-0.1-2-0.3-2.7-0.5
			c-0.7-0.2-1.3-0.6-1.7-1.2s-0.7-1.5-0.7-2.7c0-1,0.2-1.9,0.7-2.6s1.2-1.3,2.1-1.6c0.9-0.4,2.1-0.6,3.4-0.6c0.8,0,1.5,0.1,2.3,0.2
			s1.5,0.4,2.2,0.7c0.7,0.3,1.4,0.6,2,1.1l-2.4,2.9c-0.7-0.4-1.4-0.7-2.1-0.9c-0.7-0.2-1.4-0.3-2.1-0.3c-0.8,0-1.4,0.1-1.9,0.3
			c-0.5,0.2-0.7,0.4-0.7,0.8c0,0.3,0.1,0.5,0.4,0.6c0.2,0.1,0.5,0.2,0.9,0.3c0.4,0.1,0.9,0.1,1.6,0.2c0.1,0,0.2,0,0.3,0s0.2,0,0.3,0
			c0,0,0.1,0,0.1,0s0.1,0,0.1,0c1.2,0.1,2.1,0.3,2.9,0.5s1.4,0.6,1.9,1.3s0.8,1.6,0.8,2.8c0,1.1-0.3,2-0.8,2.7s-1.3,1.3-2.2,1.7
			c-1,0.4-2.2,0.6-3.5,0.6C724.6,651.8,723.7,651.7,722.9,651.5z"/>
		<path class="st3" d="M738,651c-1-0.5-1.8-1.3-2.4-2.3c-0.5-1-0.8-2.3-0.8-3.7v-1.7c0-1.5,0.3-2.8,0.8-3.9c0.5-1.1,1.3-1.9,2.3-2.4
			c1-0.6,2.2-0.8,3.6-0.8c1.3,0,2.5,0.3,3.4,1c0.9,0.7,1.7,1.6,2.2,2.9s0.7,2.8,0.7,4.6v1h-10.4v-2.7h6.7l0-0.4
			c-0.1-0.9-0.4-1.6-0.8-2c-0.4-0.5-1-0.7-1.8-0.7c-1,0-1.7,0.3-2.3,0.9c-0.5,0.6-0.8,1.4-0.8,2.5v1.9c0,1,0.3,1.8,0.9,2.4
			c0.6,0.6,1.4,0.9,2.4,0.9c0.5,0,1.1-0.1,1.6-0.3c0.5-0.2,1-0.5,1.4-0.8l2.6,2.3c-0.8,0.7-1.7,1.3-2.7,1.7c-1,0.4-2,0.6-3,0.6
			C740.3,651.8,739.1,651.5,738,651z"/>
		<path class="st3" d="M751.4,630.2h4v21.3h-4V630.2z M753.3,646l7.1-9.7h4.3l-10.8,14.2L753.3,646z M756.9,643.7l3.3-2l5.2,9.9
			h-4.6L756.9,643.7z"/>
		<path class="st3" d="M766.1,636.3h7.5v3.4h-7.5V636.3z M768.6,650.6c-0.6-0.7-0.9-1.7-0.9-3v-15.7h4v14.7c0,0.4,0.1,0.7,0.2,0.9
			c0.1,0.2,0.4,0.3,0.6,0.3h1v3.9h-2C770.2,651.6,769.2,651.3,768.6,650.6z"/>
		<path class="st3" d="M779.6,651c-1-0.5-1.7-1.3-2.2-2.3c-0.5-1-0.8-2.2-0.8-3.6v-2.5c0-1.4,0.3-2.6,0.8-3.5c0.5-1,1.3-1.7,2.2-2.2
			c1-0.5,2.2-0.8,3.6-0.8c1.4,0,2.6,0.3,3.6,0.8c1,0.5,1.7,1.3,2.2,2.2c0.5,1,0.8,2.2,0.8,3.5v2.5c0,1.4-0.3,2.6-0.8,3.6
			c-0.5,1-1.3,1.7-2.2,2.3c-1,0.5-2.2,0.8-3.6,0.8C781.8,651.8,780.6,651.5,779.6,651z M785.1,647.2c0.4-0.5,0.7-1.1,0.7-2v-2.5
			c0-0.9-0.2-1.5-0.7-2c-0.5-0.5-1.1-0.7-1.9-0.7c-0.8,0-1.4,0.2-1.9,0.7c-0.4,0.5-0.7,1.1-0.7,2v2.5c0,0.9,0.2,1.5,0.7,2
			c0.4,0.5,1.1,0.7,1.9,0.7C784,647.9,784.6,647.6,785.1,647.2z"/>
		<path class="st3" d="M793.4,636.3h4.3v15.2h-4.3V636.3z M801.3,640.1c-0.3-0.1-0.6-0.1-1-0.1c-0.8,0-1.4,0.3-1.9,0.8
			c-0.4,0.5-0.7,1.2-0.7,2.2l-0.3-4c0.4-0.9,1-1.6,1.6-2.1c0.7-0.5,1.4-0.8,2.2-0.8c0.6,0,1.2,0.1,1.7,0.3c0.5,0.2,1,0.5,1.3,0.9
			l-2.3,3.3C801.8,640.3,801.6,640.2,801.3,640.1z"/>
		<path class="st3" d="M809,651c-1-0.5-1.8-1.3-2.4-2.3c-0.5-1-0.8-2.3-0.8-3.7v-1.7c0-1.5,0.3-2.8,0.8-3.9c0.5-1.1,1.3-1.9,2.3-2.4
			c1-0.6,2.2-0.8,3.6-0.8c1.3,0,2.5,0.3,3.4,1s1.7,1.6,2.2,2.9c0.5,1.3,0.7,2.8,0.7,4.6v1h-10.4v-2.7h6.7l0-0.4
			c-0.1-0.9-0.4-1.6-0.8-2c-0.4-0.5-1-0.7-1.8-0.7c-1,0-1.7,0.3-2.3,0.9c-0.5,0.6-0.8,1.4-0.8,2.5v1.9c0,1,0.3,1.8,0.9,2.4
			c0.6,0.6,1.4,0.9,2.4,0.9c0.5,0,1.1-0.1,1.6-0.3c0.5-0.2,1-0.5,1.4-0.8l2.6,2.3c-0.8,0.7-1.7,1.3-2.7,1.7c-1,0.4-2,0.6-3,0.6
			C811.3,651.8,810.1,651.5,809,651z"/>
		<path class="st3" d="M822.4,636.3h4v15.2h-4V636.3z M831.2,642.3c0-0.7-0.2-1.3-0.6-1.7c-0.4-0.4-1-0.6-1.8-0.6
			c-0.7,0-1.3,0.2-1.7,0.6c-0.4,0.4-0.6,1-0.6,1.8l-0.3-3.4c0.5-1,1-1.7,1.7-2.2c0.6-0.5,1.4-0.7,2.4-0.7c1.6,0,2.8,0.5,3.7,1.6
			c0.9,1.1,1.3,2.6,1.3,4.6v9.2h-4V642.3z"/>
		<path class="st3" d="M629.1,693.6h1v7.3h-1V693.6z M629.5,696.9h2.5c0.2,0,0.4,0,0.5-0.1s0.3-0.2,0.3-0.4c0.1-0.2,0.1-0.4,0.1-0.6
			s0-0.4-0.1-0.6c-0.1-0.2-0.2-0.3-0.3-0.4c-0.1-0.1-0.3-0.1-0.5-0.1h-2.5v-1h2.5c0.4,0,0.8,0.1,1.1,0.3c0.3,0.2,0.6,0.4,0.7,0.7
			c0.2,0.3,0.3,0.7,0.3,1.1s-0.1,0.8-0.3,1.1s-0.4,0.6-0.7,0.7c-0.3,0.2-0.7,0.3-1.1,0.3h-2.5V696.9z M631.5,697.6l1-0.2l1.9,3.6
			h-1.2L631.5,697.6z"/>
		<path class="st3" d="M640.2,701h-1v-6.2l-1,0.6v-1.1l1-0.7h1V701z"/>
		<path class="st3" d="M644.4,697.3l0,0.2c-0.1,0.2-0.2,0.3-0.4,0.3s-0.4,0.1-0.6,0.1c-0.3,0-0.7-0.1-0.9-0.3
			c-0.3-0.2-0.5-0.4-0.6-0.8s-0.2-0.7-0.2-1.1v0c0-0.5,0.1-0.9,0.2-1.2s0.4-0.6,0.7-0.8c0.3-0.2,0.7-0.3,1.1-0.3s0.8,0.1,1.1,0.3
			s0.5,0.4,0.7,0.8c0.2,0.3,0.2,0.7,0.2,1.2v0c0,0.3,0,0.5-0.1,0.8c-0.1,0.3-0.2,0.6-0.3,0.9c0,0,0,0.1-0.1,0.1c0,0,0,0.1-0.1,0.1
			l-1.6,3.1h-1.1L644.4,697.3z M644.5,696.7c0.2-0.2,0.3-0.5,0.3-0.9v0c0-0.4-0.1-0.7-0.3-0.9c-0.2-0.2-0.4-0.3-0.7-0.3
			c-0.3,0-0.6,0.1-0.8,0.3c-0.2,0.2-0.3,0.5-0.3,0.9v0c0,0.4,0.1,0.7,0.3,0.9c0.2,0.2,0.4,0.3,0.8,0.3
			C644.1,697,644.3,696.9,644.5,696.7z"/>
		<path class="st3" d="M648.1,700.8c-0.3-0.2-0.6-0.4-0.8-0.7c-0.2-0.3-0.3-0.7-0.3-1.1v-0.1c0-0.4,0.1-0.7,0.3-1
			c0.2-0.3,0.4-0.6,0.7-0.7c-0.3-0.1-0.5-0.3-0.6-0.6c-0.2-0.3-0.2-0.5-0.2-0.8v-0.2c0-0.4,0.1-0.7,0.3-1c0.2-0.3,0.4-0.5,0.7-0.7
			c0.3-0.2,0.7-0.2,1.1-0.2c0.4,0,0.8,0.1,1.1,0.2c0.3,0.2,0.6,0.4,0.7,0.7s0.3,0.6,0.3,1v0.2c0,0.3-0.1,0.6-0.2,0.8
			s-0.4,0.5-0.6,0.6c0.3,0.2,0.6,0.4,0.7,0.7s0.3,0.7,0.3,1v0.1c0,0.4-0.1,0.8-0.3,1.1s-0.4,0.5-0.8,0.7c-0.3,0.2-0.7,0.3-1.2,0.3
			C648.8,701,648.4,701,648.1,700.8z M649.9,699.9c0.2-0.1,0.3-0.2,0.4-0.4c0.1-0.2,0.1-0.4,0.1-0.6v-0.1c0-0.2,0-0.4-0.1-0.6
			c-0.1-0.2-0.2-0.3-0.4-0.4c-0.2-0.1-0.4-0.1-0.6-0.1c-0.2,0-0.4,0-0.6,0.1s-0.3,0.2-0.4,0.4c-0.1,0.2-0.1,0.4-0.1,0.6v0.1
			c0,0.2,0,0.4,0.1,0.6c0.1,0.2,0.2,0.3,0.4,0.4c0.2,0.1,0.4,0.1,0.6,0.1C649.5,700.1,649.7,700,649.9,699.9z M649.8,696.6
			c0.2-0.1,0.3-0.2,0.4-0.4c0.1-0.2,0.1-0.4,0.1-0.6v-0.1c0-0.2,0-0.4-0.1-0.5c-0.1-0.2-0.2-0.3-0.4-0.4c-0.2-0.1-0.3-0.1-0.5-0.1
			s-0.4,0-0.5,0.1c-0.2,0.1-0.3,0.2-0.4,0.4c-0.1,0.2-0.1,0.3-0.1,0.5v0.1c0,0.2,0,0.4,0.1,0.6c0.1,0.2,0.2,0.3,0.4,0.4
			s0.3,0.1,0.5,0.1S649.7,696.7,649.8,696.6z"/>
		<path class="st3" d="M652.8,699.9h1.1v1.6l-1.1,1.1V699.9z"/>
		<path class="st3" d="M663.2,697v1.3c0,0.5-0.1,1-0.3,1.4c-0.2,0.4-0.5,0.7-0.9,1c-0.4,0.2-0.8,0.3-1.3,0.3c-0.5,0-1-0.1-1.4-0.3
			s-0.7-0.5-0.9-0.9s-0.3-0.8-0.3-1.4v-2.2c0-0.5,0.1-1,0.3-1.4c0.2-0.4,0.5-0.7,0.9-1s0.8-0.3,1.3-0.3c0.4,0,0.8,0.1,1.2,0.3
			c0.4,0.2,0.6,0.4,0.9,0.8c0.2,0.3,0.4,0.7,0.5,1.1H662c-0.1-0.2-0.2-0.5-0.3-0.6c-0.1-0.2-0.3-0.3-0.5-0.4
			c-0.2-0.1-0.4-0.1-0.6-0.1c-0.3,0-0.6,0.1-0.8,0.2c-0.2,0.1-0.4,0.3-0.5,0.6s-0.2,0.6-0.2,0.9v2.2c0,0.3,0.1,0.6,0.2,0.8
			s0.3,0.4,0.5,0.6s0.5,0.2,0.8,0.2c0.3,0,0.6-0.1,0.8-0.2s0.4-0.3,0.5-0.6c0.1-0.3,0.2-0.6,0.2-0.9V698h-1.5v-1H663.2z"/>
		<path class="st3" d="M668.3,700.8c-0.3-0.1-0.6-0.4-0.8-0.6s-0.3-0.6-0.4-1h1c0,0.2,0.1,0.4,0.2,0.5s0.2,0.2,0.4,0.3
			c0.2,0.1,0.3,0.1,0.6,0.1c0.3,0,0.6-0.1,0.8-0.3c0.2-0.2,0.3-0.4,0.3-0.8v-0.2c0-0.4-0.1-0.6-0.3-0.8s-0.4-0.3-0.8-0.3h-0.5v-1
			h0.5c0.3,0,0.5-0.1,0.7-0.3c0.2-0.2,0.2-0.4,0.2-0.7v-0.2c0-0.3-0.1-0.5-0.2-0.7c-0.2-0.2-0.4-0.2-0.7-0.2c-0.2,0-0.3,0-0.5,0.1
			c-0.1,0.1-0.3,0.2-0.3,0.3c-0.1,0.1-0.2,0.3-0.2,0.5h-1c0.1-0.4,0.2-0.7,0.4-1s0.4-0.5,0.7-0.6c0.3-0.1,0.6-0.2,1-0.2
			c0.6,0,1.1,0.2,1.5,0.5s0.5,0.8,0.5,1.4v0.1c0,0.4-0.1,0.7-0.3,1s-0.5,0.5-0.8,0.6c0.4,0.1,0.7,0.3,0.9,0.6
			c0.2,0.3,0.3,0.7,0.3,1.2v0.1c0,0.4-0.1,0.8-0.2,1.1c-0.2,0.3-0.4,0.5-0.7,0.7c-0.3,0.2-0.7,0.2-1.1,0.2
			C668.9,701,668.6,701,668.3,700.8z"/>
		<path class="st3" d="M673.4,700.5c-0.4-0.4-0.5-0.9-0.5-1.5v-3.3c0-0.7,0.2-1.2,0.5-1.5c0.4-0.4,0.9-0.5,1.6-0.5
			c0.7,0,1.2,0.2,1.6,0.5c0.4,0.4,0.5,0.9,0.5,1.5v3.3c0,0.7-0.2,1.2-0.5,1.5c-0.4,0.4-0.9,0.5-1.6,0.5
			C674.3,701,673.8,700.9,673.4,700.5z M675.8,699.8c0.2-0.2,0.3-0.5,0.3-0.8v-3.3c0-0.4-0.1-0.6-0.3-0.8s-0.4-0.3-0.8-0.3
			s-0.6,0.1-0.8,0.3s-0.3,0.5-0.3,0.8v3.3c0,0.4,0.1,0.6,0.3,0.8c0.2,0.2,0.4,0.3,0.8,0.3S675.6,700,675.8,699.8z"/>
		<path class="st3" d="M678.5,699.9h1.1v1.6l-1.1,1.1V699.9z"/>
		<path class="st3" d="M683.8,693.7h1v7.3h-1V693.7z M684.4,700h2c0.5,0,0.9-0.1,1.1-0.3c0.2-0.2,0.4-0.5,0.4-0.8v0
			c0-0.2,0-0.5-0.1-0.6s-0.2-0.3-0.4-0.4c-0.2-0.1-0.4-0.1-0.7-0.1h-2.2v-0.9h2.2c0.4,0,0.7-0.1,0.9-0.3c0.2-0.2,0.3-0.4,0.3-0.8
			c0-0.4-0.1-0.6-0.3-0.8c-0.2-0.2-0.5-0.3-1-0.3h-2.1v-1h2.3c0.5,0,0.9,0.1,1.2,0.2c0.3,0.2,0.6,0.4,0.7,0.7s0.2,0.6,0.2,1.1
			c0,0.3,0,0.5-0.1,0.7c-0.1,0.2-0.2,0.4-0.4,0.6c-0.2,0.2-0.4,0.3-0.7,0.3c0.3,0,0.5,0.1,0.8,0.3c0.2,0.2,0.4,0.4,0.5,0.6
			c0.1,0.2,0.2,0.5,0.2,0.8v0c0,0.4-0.1,0.7-0.3,1s-0.4,0.5-0.7,0.7s-0.7,0.2-1.1,0.2h-2.4V700z"/>
		<path class="st3" d="M693,700.1l2.5-3.4c0.1-0.2,0.3-0.4,0.3-0.6c0.1-0.2,0.1-0.4,0.1-0.6v0c0-0.3-0.1-0.5-0.3-0.7
			c-0.2-0.2-0.4-0.2-0.7-0.2c-0.3,0-0.5,0.1-0.7,0.3c-0.2,0.2-0.3,0.4-0.3,0.7v0h-1.1v0c0.1-0.4,0.2-0.8,0.4-1.1s0.4-0.5,0.7-0.7
			c0.3-0.2,0.6-0.2,1-0.2c0.4,0,0.8,0.1,1.1,0.2c0.3,0.1,0.5,0.4,0.7,0.7c0.2,0.3,0.2,0.6,0.2,1v0c0,0.3-0.1,0.5-0.2,0.8
			c-0.1,0.3-0.3,0.6-0.4,0.8l-2.1,2.9h2.8v1H693V700.1z"/>
		<path class="st3" d="M701,697.3l0,0.2c-0.1,0.2-0.2,0.3-0.4,0.3s-0.4,0.1-0.6,0.1c-0.3,0-0.7-0.1-0.9-0.3
			c-0.3-0.2-0.5-0.4-0.6-0.8s-0.2-0.7-0.2-1.1v0c0-0.5,0.1-0.9,0.2-1.2s0.4-0.6,0.7-0.8c0.3-0.2,0.7-0.3,1.1-0.3s0.8,0.1,1.1,0.3
			s0.5,0.4,0.7,0.8c0.2,0.3,0.2,0.7,0.2,1.2v0c0,0.3,0,0.5-0.1,0.8c-0.1,0.3-0.2,0.6-0.3,0.9c0,0,0,0.1-0.1,0.1c0,0,0,0.1-0.1,0.1
			l-1.6,3.1h-1.1L701,697.3z M701.1,696.7c0.2-0.2,0.3-0.5,0.3-0.9v0c0-0.4-0.1-0.7-0.3-0.9c-0.2-0.2-0.4-0.3-0.7-0.3
			c-0.3,0-0.6,0.1-0.8,0.3c-0.2,0.2-0.3,0.5-0.3,0.9v0c0,0.4,0.1,0.7,0.3,0.9c0.2,0.2,0.4,0.3,0.8,0.3
			C700.6,697,700.9,696.9,701.1,696.7z"/>
	</g>
</g>
<path class="st1" d="M1082.6,712.3c-6.9,0-12.5-5.6-12.5-12.5V300.2c0-6.9,5.6-12.5,12.5-12.5h338.3c6.9,0,12.5,5.6,12.5,12.5v399.7
	c0,6.9-5.6,12.5-12.5,12.5H1082.6z"/>
<path class="st4" d="M1092.5,597.1c-6.9,0-12.5-5.6-12.5-12.5V309.9c0-6.9,5.6-12.5,12.5-12.5h318.4c6.9,0,12.5,5.6,12.5,12.5v274.8
	c0,6.9-5.6,12.5-12.5,12.5H1092.5z"/>
<g>
	<g>
		<path class="st4" d="M1080.9,608.2h1v7.3h-1V608.2z M1081.6,614.5h1.7c0.5,0,1-0.1,1.3-0.4c0.3-0.3,0.4-0.7,0.4-1.2v-2.2
			c0-0.5-0.1-0.9-0.4-1.2c-0.3-0.3-0.7-0.4-1.3-0.4h-1.7v-1h1.6c0.6,0,1.1,0.1,1.5,0.3c0.4,0.2,0.7,0.5,1,0.9
			c0.2,0.4,0.3,0.9,0.3,1.4v2.1c0,0.6-0.1,1-0.3,1.4c-0.2,0.4-0.5,0.7-1,0.9s-0.9,0.3-1.5,0.3h-1.6V614.5z"/>
		<path class="st4" d="M1088.5,615.3c-0.3-0.2-0.6-0.4-0.8-0.8s-0.3-0.8-0.3-1.3v-0.6c0-0.5,0.1-1,0.3-1.3c0.2-0.4,0.4-0.6,0.8-0.8
			c0.3-0.2,0.7-0.3,1.2-0.3c0.4,0,0.8,0.1,1.1,0.3s0.5,0.5,0.7,0.9c0.2,0.4,0.2,0.9,0.2,1.5v0.3h-3.5v-0.8h2.5c0-0.4-0.1-0.8-0.3-1
			s-0.4-0.4-0.8-0.4c-0.4,0-0.7,0.1-0.9,0.4c-0.2,0.3-0.3,0.6-0.3,1.1v0.7c0,0.4,0.1,0.8,0.3,1c0.2,0.2,0.6,0.3,1,0.3
			c0.2,0,0.4,0,0.6-0.1c0.2-0.1,0.4-0.2,0.5-0.4l0.7,0.7c-0.3,0.2-0.5,0.4-0.9,0.6c-0.3,0.1-0.6,0.2-1,0.2
			C1089.3,615.6,1088.8,615.5,1088.5,615.3z"/>
		<path class="st4" d="M1093.1,610.3h1v5.2h-1V610.3z M1096.3,612.3c0-0.4-0.1-0.7-0.3-0.9c-0.2-0.2-0.5-0.3-0.8-0.3
			c-0.3,0-0.6,0.1-0.8,0.3c-0.2,0.2-0.3,0.4-0.3,0.8l-0.1-1c0.2-0.3,0.4-0.6,0.6-0.7c0.3-0.2,0.5-0.3,0.9-0.3c0.6,0,1,0.2,1.3,0.6
			c0.3,0.4,0.5,0.9,0.5,1.6v3.2h-1V612.3z"/>
		<path class="st4" d="M1101.6,610.3h1v5.2h-1V610.3z M1104.2,611.2c-0.1-0.1-0.3-0.1-0.5-0.1c-0.3,0-0.6,0.1-0.8,0.3
			s-0.3,0.4-0.3,0.7l-0.1-1c0.2-0.3,0.4-0.6,0.6-0.7s0.5-0.3,0.8-0.3c0.2,0,0.5,0,0.6,0.1c0.2,0.1,0.4,0.2,0.5,0.3l-0.7,0.9
			C1104.4,611.4,1104.3,611.3,1104.2,611.2z"/>
		<path class="st4" d="M1106,608.2h1v1h-1V608.2z M1106,610.3h1v5.2h-1V610.3z"/>
		<path class="st4" d="M1109.3,615.3c-0.3-0.2-0.5-0.4-0.6-0.7s-0.2-0.7-0.2-1.1v-1.2c0-0.4,0.1-0.8,0.2-1.2
			c0.1-0.3,0.3-0.6,0.6-0.7c0.3-0.2,0.6-0.2,0.9-0.2c0.3,0,0.6,0.1,0.8,0.2c0.3,0.2,0.5,0.4,0.6,0.7l-0.1,1.1c0-0.2,0-0.4-0.1-0.6
			c-0.1-0.2-0.2-0.3-0.3-0.4c-0.2-0.1-0.3-0.1-0.6-0.1c-0.3,0-0.6,0.1-0.8,0.3c-0.2,0.2-0.3,0.5-0.3,0.9v1.1c0,0.4,0.1,0.7,0.3,0.9
			c0.2,0.2,0.4,0.3,0.8,0.3c0.2,0,0.4,0,0.6-0.1c0.2-0.1,0.3-0.2,0.3-0.4c0.1-0.2,0.1-0.4,0.1-0.6l0.1,1.1c-0.1,0.3-0.3,0.5-0.5,0.6
			c-0.2,0.2-0.5,0.3-0.9,0.3C1109.9,615.6,1109.6,615.5,1109.3,615.3z M1109.3,617.4c-0.3-0.1-0.6-0.4-0.7-0.6l0.7-0.6
			c0.1,0.2,0.3,0.3,0.5,0.4c0.2,0.1,0.4,0.2,0.6,0.2c0.4,0,0.7-0.1,0.9-0.3c0.2-0.2,0.3-0.5,0.3-0.9v-5.2h1v5.1
			c0,0.5-0.1,0.9-0.3,1.2c-0.2,0.3-0.4,0.6-0.8,0.8s-0.7,0.3-1.2,0.3C1110,617.6,1109.6,617.5,1109.3,617.4z"/>
		<path class="st4" d="M1113.8,610.3h2.4v0.9h-2.4V610.3z M1114.6,615.2c-0.2-0.2-0.3-0.6-0.3-1v-5.4h1v5.4c0,0.1,0,0.2,0.1,0.3
			c0,0.1,0.1,0.1,0.2,0.1h0.5v1h-0.6C1115.1,615.5,1114.8,615.4,1114.6,615.2z"/>
		<path class="st4" d="M1117.5,608.2h1v1h-1V608.2z M1117.5,610.3h1v5.2h-1V610.3z"/>
		<path class="st4" d="M1120.8,615.3c-0.3-0.2-0.5-0.4-0.6-0.7s-0.2-0.7-0.2-1.1v-1.2c0-0.4,0.1-0.8,0.2-1.2
			c0.1-0.3,0.3-0.6,0.6-0.7c0.3-0.2,0.6-0.2,0.9-0.2c0.3,0,0.6,0.1,0.8,0.2c0.3,0.2,0.5,0.4,0.6,0.7l-0.1,1.1c0-0.2,0-0.4-0.1-0.6
			c-0.1-0.2-0.2-0.3-0.3-0.4c-0.2-0.1-0.3-0.1-0.6-0.1c-0.3,0-0.6,0.1-0.8,0.3c-0.2,0.2-0.3,0.5-0.3,0.9v1.1c0,0.4,0.1,0.7,0.3,0.9
			c0.2,0.2,0.4,0.3,0.8,0.3c0.2,0,0.4,0,0.6-0.1c0.2-0.1,0.3-0.2,0.3-0.4c0.1-0.2,0.1-0.4,0.1-0.6l0.1,1.1c-0.1,0.3-0.3,0.5-0.5,0.6
			c-0.2,0.2-0.5,0.3-0.9,0.3C1121.4,615.6,1121.1,615.5,1120.8,615.3z M1120.8,617.4c-0.3-0.1-0.6-0.4-0.7-0.6l0.7-0.6
			c0.1,0.2,0.3,0.3,0.5,0.4c0.2,0.1,0.4,0.2,0.6,0.2c0.4,0,0.7-0.1,0.9-0.3c0.2-0.2,0.3-0.5,0.3-0.9v-5.2h1v5.1
			c0,0.5-0.1,0.9-0.3,1.2c-0.2,0.3-0.4,0.6-0.8,0.8s-0.7,0.3-1.2,0.3C1121.5,617.6,1121.1,617.5,1120.8,617.4z"/>
		<path class="st4" d="M1126.6,615.3c-0.3-0.2-0.6-0.4-0.8-0.8s-0.3-0.8-0.3-1.3v-0.6c0-0.5,0.1-1,0.3-1.3c0.2-0.4,0.4-0.6,0.8-0.8
			c0.3-0.2,0.7-0.3,1.2-0.3c0.4,0,0.8,0.1,1.1,0.3s0.5,0.5,0.7,0.9c0.2,0.4,0.2,0.9,0.2,1.5v0.3h-3.5v-0.8h2.5c0-0.4-0.1-0.8-0.3-1
			s-0.4-0.4-0.8-0.4c-0.4,0-0.7,0.1-0.9,0.4c-0.2,0.3-0.3,0.6-0.3,1.1v0.7c0,0.4,0.1,0.8,0.3,1c0.2,0.2,0.6,0.3,1,0.3
			c0.2,0,0.4,0,0.6-0.1c0.2-0.1,0.4-0.2,0.5-0.4l0.7,0.7c-0.3,0.2-0.5,0.4-0.9,0.6c-0.3,0.1-0.6,0.2-1,0.2
			C1127.3,615.6,1126.9,615.5,1126.6,615.3z"/>
		<path class="st4" d="M1133.6,610.3h2.6v0.9h-2.6V610.3z M1134.1,609.6c0-0.5,0.1-0.8,0.3-1s0.5-0.3,1-0.3h0.8v1h-0.7
			c-0.1,0-0.2,0-0.2,0.1c0,0.1-0.1,0.2-0.1,0.3v5.9h-1V609.6z"/>
		<path class="st4" d="M1137.4,615.2c-0.3-0.3-0.5-0.7-0.5-1.2c0-0.5,0.1-0.9,0.4-1.2c0.3-0.3,0.7-0.4,1.3-0.4h1.5l0.1,0.8h-1.5
			c-0.3,0-0.5,0.1-0.6,0.2c-0.1,0.1-0.2,0.3-0.2,0.5c0,0.3,0.1,0.5,0.3,0.6c0.2,0.1,0.4,0.2,0.8,0.2c0.4,0,0.7,0,0.9-0.1
			c0.2-0.1,0.3-0.2,0.3-0.4l0.1,0.7c-0.1,0.1-0.2,0.3-0.3,0.3c-0.1,0.1-0.3,0.2-0.5,0.2c-0.2,0-0.4,0.1-0.6,0.1
			C1138.2,615.6,1137.8,615.4,1137.4,615.2z M1140.2,612.2c0-0.3-0.1-0.6-0.3-0.8s-0.4-0.3-0.8-0.3c-0.2,0-0.4,0-0.6,0.1
			c-0.2,0.1-0.4,0.2-0.5,0.3l-0.7-0.5c0.2-0.2,0.5-0.4,0.8-0.6c0.3-0.1,0.7-0.2,1.1-0.2c0.4,0,0.8,0.1,1.1,0.2
			c0.3,0.2,0.5,0.4,0.7,0.7c0.2,0.3,0.2,0.6,0.2,1v3.4h-1V612.2z"/>
		<path class="st4" d="M1142.7,610.3h1v5.2h-1V610.3z M1145.2,611.2c-0.1-0.1-0.3-0.1-0.5-0.1c-0.3,0-0.6,0.1-0.8,0.3
			s-0.3,0.4-0.3,0.7l-0.1-1c0.2-0.3,0.4-0.6,0.6-0.7s0.5-0.3,0.8-0.3c0.2,0,0.5,0,0.6,0.1c0.2,0.1,0.4,0.2,0.5,0.3l-0.7,0.9
			C1145.5,611.4,1145.4,611.3,1145.2,611.2z"/>
		<path class="st4" d="M1150.2,610.3h1.1l-2,5.2h-0.8l-2-5.2h1.1l1.3,3.7L1150.2,610.3z"/>
		<path class="st4" d="M1153.1,615.3c-0.3-0.2-0.6-0.4-0.8-0.8s-0.3-0.8-0.3-1.3v-0.6c0-0.5,0.1-1,0.3-1.3c0.2-0.4,0.4-0.6,0.8-0.8
			c0.3-0.2,0.7-0.3,1.2-0.3c0.4,0,0.8,0.1,1.1,0.3s0.5,0.5,0.7,0.9c0.2,0.4,0.2,0.9,0.2,1.5v0.3h-3.5v-0.8h2.5c0-0.4-0.1-0.8-0.3-1
			s-0.4-0.4-0.8-0.4c-0.4,0-0.7,0.1-0.9,0.4c-0.2,0.3-0.3,0.6-0.3,1.1v0.7c0,0.4,0.1,0.8,0.3,1c0.2,0.2,0.6,0.3,1,0.3
			c0.2,0,0.4,0,0.6-0.1c0.2-0.1,0.4-0.2,0.5-0.4l0.7,0.7c-0.3,0.2-0.5,0.4-0.9,0.6c-0.3,0.1-0.6,0.2-1,0.2
			C1153.9,615.6,1153.5,615.5,1153.1,615.3z"/>
		<path class="st4" d="M1160.1,610.3h2.4v0.9h-2.4V610.3z M1161,615.2c-0.2-0.2-0.3-0.6-0.3-1v-5.4h1v5.4c0,0.1,0,0.2,0.1,0.3
			c0,0.1,0.1,0.1,0.2,0.1h0.5v1h-0.6C1161.5,615.5,1161.2,615.4,1161,615.2z"/>
		<path class="st4" d="M1163.9,608.2h1v1h-1V608.2z M1163.9,610.3h1v5.2h-1V610.3z"/>
		<path class="st4" d="M1167.5,614.1c0,0.1,0,0.2,0.1,0.3c0.1,0.1,0.1,0.1,0.2,0.1h0.5v1h-0.6c-0.4,0-0.7-0.1-0.9-0.4
			s-0.3-0.6-0.3-1v-6h1V614.1z"/>
		<path class="st3" d="M1082.4,630.2h4v21.3h-4V630.2z M1083.9,630.2h12.5v3.9h-12.5V630.2z M1083.9,639.2h10.9v3.9h-10.9V639.2z"/>
		<path class="st3" d="M1098.7,630.2h4v4h-4V630.2z M1098.7,636.3h4v15.2h-4V636.3z"/>
		<path class="st3" d="M1106.4,636.3h4v15.2h-4V636.3z M1115.2,642.3c0-0.7-0.2-1.3-0.6-1.7c-0.4-0.4-1-0.6-1.8-0.6
			c-0.7,0-1.3,0.2-1.7,0.6c-0.4,0.4-0.6,1-0.6,1.8l-0.3-3.4c0.5-1,1-1.7,1.6-2.2c0.6-0.5,1.4-0.7,2.4-0.7c1.6,0,2.8,0.5,3.7,1.6
			c0.9,1.1,1.3,2.6,1.3,4.6v9.2h-4V642.3z"/>
		<path class="st3" d="M1123.7,650.6c-0.8-0.8-1.2-2-1.2-3.5c0-1.5,0.5-2.6,1.4-3.4c0.9-0.8,2.3-1.1,4.1-1.1h3.8l0.2,3.1h-4
			c-0.6,0-1.1,0.1-1.4,0.4c-0.3,0.2-0.5,0.6-0.5,1.1c0,0.5,0.2,0.9,0.6,1.1c0.4,0.2,1,0.4,1.7,0.4c1.1,0,1.9-0.1,2.4-0.4
			c0.5-0.2,0.8-0.6,0.8-1.1l0.3,2.2c-0.1,0.5-0.3,1-0.8,1.4c-0.4,0.4-1,0.7-1.7,0.9c-0.7,0.2-1.4,0.3-2.1,0.3
			C1125.7,651.8,1124.5,651.4,1123.7,650.6z M1131.6,641.9c0-0.7-0.2-1.2-0.7-1.6c-0.5-0.4-1.1-0.6-2-0.6c-0.6,0-1.1,0.1-1.7,0.3
			c-0.6,0.2-1.1,0.4-1.5,0.8l-2.5-2.5c0.6-0.7,1.4-1.2,2.4-1.6c1-0.4,2.1-0.6,3.3-0.6c1.3,0,2.5,0.2,3.4,0.7s1.7,1.1,2.1,1.9
			c0.5,0.8,0.7,1.9,0.7,3.1v9.8h-3.7V641.9z"/>
		<path class="st3" d="M1139.2,636.3h4v15.2h-4V636.3z M1148,642.3c0-0.7-0.2-1.3-0.6-1.7c-0.4-0.4-1-0.6-1.8-0.6
			c-0.7,0-1.3,0.2-1.7,0.6c-0.4,0.4-0.6,1-0.6,1.8l-0.3-3.4c0.5-1,1-1.7,1.6-2.2c0.6-0.5,1.4-0.7,2.4-0.7c1.6,0,2.8,0.5,3.7,1.6
			c0.9,1.1,1.3,2.6,1.3,4.6v9.2h-4V642.3z"/>
		<path class="st3" d="M1159.1,651.5c-0.9-0.2-1.7-0.4-2.4-0.7c-0.8-0.3-1.4-0.7-2-1.1l2.5-3.1c0.7,0.5,1.5,0.8,2.3,1.1
			s1.6,0.4,2.3,0.4c0.9,0,1.7-0.1,2.2-0.3c0.5-0.2,0.8-0.5,0.8-0.9c0-0.3-0.1-0.6-0.3-0.8c-0.2-0.2-0.5-0.3-0.9-0.4
			c-0.4-0.1-0.8-0.1-1.5-0.2c-0.2,0-0.4,0-0.5-0.1c-0.2,0-0.4,0-0.6-0.1c0,0-0.1,0-0.1,0s-0.1,0-0.1,0c-1.1-0.1-2-0.3-2.7-0.5
			s-1.3-0.6-1.7-1.2c-0.5-0.6-0.7-1.5-0.7-2.7c0-1,0.2-1.9,0.7-2.6s1.2-1.3,2.1-1.6c0.9-0.4,2.1-0.6,3.4-0.6c0.8,0,1.5,0.1,2.3,0.2
			s1.5,0.4,2.2,0.7c0.7,0.3,1.4,0.6,2,1.1l-2.4,2.9c-0.7-0.4-1.4-0.7-2.1-0.9c-0.7-0.2-1.4-0.3-2.1-0.3c-0.8,0-1.4,0.1-1.9,0.3
			c-0.5,0.2-0.7,0.4-0.7,0.8c0,0.3,0.1,0.5,0.4,0.6c0.2,0.1,0.5,0.2,0.9,0.3c0.4,0.1,0.9,0.1,1.6,0.2c0.1,0,0.2,0,0.3,0s0.2,0,0.3,0
			c0,0,0.1,0,0.1,0c0,0,0.1,0,0.1,0c1.2,0.1,2.1,0.3,2.9,0.5c0.7,0.2,1.4,0.6,1.9,1.3c0.5,0.6,0.8,1.6,0.8,2.8c0,1.1-0.3,2-0.8,2.7
			s-1.3,1.3-2.2,1.7s-2.2,0.6-3.5,0.6C1160.9,651.8,1160,651.7,1159.1,651.5z"/>
		<path class="st3" d="M1174.7,651.5c-0.9-0.2-1.7-0.4-2.4-0.7c-0.8-0.3-1.4-0.7-2-1.1l2.5-3.1c0.7,0.5,1.5,0.8,2.3,1.1
			s1.6,0.4,2.3,0.4c0.9,0,1.7-0.1,2.2-0.3c0.5-0.2,0.8-0.5,0.8-0.9c0-0.3-0.1-0.6-0.3-0.8c-0.2-0.2-0.5-0.3-0.9-0.4
			c-0.4-0.1-0.8-0.1-1.5-0.2c-0.2,0-0.4,0-0.5-0.1c-0.2,0-0.4,0-0.6-0.1c0,0-0.1,0-0.1,0s-0.1,0-0.1,0c-1.1-0.1-2-0.3-2.7-0.5
			s-1.3-0.6-1.7-1.2c-0.5-0.6-0.7-1.5-0.7-2.7c0-1,0.2-1.9,0.7-2.6s1.2-1.3,2.1-1.6c0.9-0.4,2.1-0.6,3.4-0.6c0.8,0,1.5,0.1,2.3,0.2
			s1.5,0.4,2.2,0.7c0.7,0.3,1.4,0.6,2,1.1l-2.4,2.9c-0.7-0.4-1.4-0.7-2.1-0.9c-0.7-0.2-1.4-0.3-2.1-0.3c-0.8,0-1.4,0.1-1.9,0.3
			c-0.5,0.2-0.7,0.4-0.7,0.8c0,0.3,0.1,0.5,0.4,0.6c0.2,0.1,0.5,0.2,0.9,0.3c0.4,0.1,0.9,0.1,1.6,0.2c0.1,0,0.2,0,0.3,0s0.2,0,0.3,0
			c0,0,0.1,0,0.1,0c0,0,0.1,0,0.1,0c1.2,0.1,2.1,0.3,2.9,0.5c0.7,0.2,1.4,0.6,1.9,1.3c0.5,0.6,0.8,1.6,0.8,2.8c0,1.1-0.3,2-0.8,2.7
			s-1.3,1.3-2.2,1.7s-2.2,0.6-3.5,0.6C1176.5,651.8,1175.6,651.7,1174.7,651.5z"/>
		<path class="st3" d="M1189.9,651c-1-0.5-1.8-1.3-2.4-2.3c-0.5-1-0.8-2.3-0.8-3.7v-1.7c0-1.5,0.3-2.8,0.8-3.9
			c0.5-1.1,1.3-1.9,2.3-2.4c1-0.6,2.2-0.8,3.6-0.8c1.3,0,2.5,0.3,3.4,1c0.9,0.7,1.7,1.6,2.2,2.9s0.7,2.8,0.7,4.6v1h-10.4v-2.7h6.7
			l0-0.4c-0.1-0.9-0.4-1.6-0.8-2c-0.4-0.5-1-0.7-1.8-0.7c-1,0-1.7,0.3-2.3,0.9c-0.5,0.6-0.8,1.4-0.8,2.5v1.9c0,1,0.3,1.8,0.9,2.4
			c0.6,0.6,1.4,0.9,2.4,0.9c0.5,0,1.1-0.1,1.6-0.3c0.5-0.2,1-0.5,1.4-0.8l2.6,2.3c-0.8,0.7-1.7,1.3-2.7,1.7c-1,0.4-2,0.6-3,0.6
			C1192.2,651.8,1190.9,651.5,1189.9,651z"/>
		<path class="st3" d="M1203.2,630.2h4v21.3h-4V630.2z M1205.1,646l7.1-9.7h4.3l-10.8,14.2L1205.1,646z M1208.7,643.7l3.3-2l5.2,9.9
			h-4.6L1208.7,643.7z"/>
		<path class="st3" d="M1217.9,636.3h7.5v3.4h-7.5V636.3z M1220.4,650.6c-0.6-0.7-0.9-1.7-0.9-3v-15.7h4v14.7c0,0.4,0.1,0.7,0.2,0.9
			s0.4,0.3,0.6,0.3h1v3.9h-2C1222,651.6,1221.1,651.3,1220.4,650.6z"/>
		<path class="st3" d="M1231.5,651c-1-0.5-1.7-1.3-2.2-2.3c-0.5-1-0.8-2.2-0.8-3.6v-2.5c0-1.4,0.3-2.6,0.8-3.5
			c0.5-1,1.3-1.7,2.2-2.2c1-0.5,2.2-0.8,3.6-0.8s2.6,0.3,3.6,0.8s1.7,1.3,2.2,2.2s0.8,2.2,0.8,3.5v2.5c0,1.4-0.3,2.6-0.8,3.6
			c-0.5,1-1.3,1.7-2.2,2.3c-1,0.5-2.2,0.8-3.6,0.8S1232.5,651.5,1231.5,651z M1236.9,647.2c0.5-0.5,0.7-1.1,0.7-2v-2.5
			c0-0.9-0.2-1.5-0.7-2c-0.4-0.5-1.1-0.7-1.9-0.7c-0.8,0-1.4,0.2-1.9,0.7c-0.4,0.5-0.7,1.1-0.7,2v2.5c0,0.9,0.2,1.5,0.7,2
			c0.4,0.5,1.1,0.7,1.9,0.7S1236.5,647.6,1236.9,647.2z"/>
		<path class="st3" d="M1245.3,636.3h4.3v15.2h-4.3V636.3z M1253.1,640.1c-0.3-0.1-0.6-0.1-1-0.1c-0.8,0-1.4,0.3-1.9,0.8
			c-0.4,0.5-0.7,1.2-0.7,2.2l-0.3-4c0.4-0.9,1-1.6,1.6-2.1c0.7-0.5,1.4-0.8,2.2-0.8c0.6,0,1.2,0.1,1.7,0.3c0.5,0.2,1,0.5,1.3,0.9
			l-2.3,3.3C1253.7,640.3,1253.4,640.2,1253.1,640.1z"/>
		<path class="st3" d="M1260.9,651c-1-0.5-1.8-1.3-2.4-2.3c-0.5-1-0.8-2.3-0.8-3.7v-1.7c0-1.5,0.3-2.8,0.8-3.9
			c0.5-1.1,1.3-1.9,2.3-2.4c1-0.6,2.2-0.8,3.6-0.8c1.3,0,2.5,0.3,3.4,1c0.9,0.7,1.7,1.6,2.2,2.9s0.7,2.8,0.7,4.6v1h-10.4v-2.7h6.7
			l0-0.4c-0.1-0.9-0.4-1.6-0.8-2c-0.4-0.5-1-0.7-1.8-0.7c-1,0-1.7,0.3-2.3,0.9c-0.5,0.6-0.8,1.4-0.8,2.5v1.9c0,1,0.3,1.8,0.9,2.4
			c0.6,0.6,1.4,0.9,2.4,0.9c0.5,0,1.1-0.1,1.6-0.3c0.5-0.2,1-0.5,1.4-0.8l2.6,2.3c-0.8,0.7-1.7,1.3-2.7,1.7c-1,0.4-2,0.6-3,0.6
			C1263.2,651.8,1261.9,651.5,1260.9,651z"/>
		<path class="st3" d="M1274.2,636.3h4v15.2h-4V636.3z M1283,642.3c0-0.7-0.2-1.3-0.6-1.7c-0.4-0.4-1-0.6-1.8-0.6
			c-0.7,0-1.3,0.2-1.7,0.6c-0.4,0.4-0.6,1-0.6,1.8l-0.3-3.4c0.5-1,1-1.7,1.6-2.2c0.6-0.5,1.4-0.7,2.4-0.7c1.6,0,2.8,0.5,3.7,1.6
			c0.9,1.1,1.3,2.6,1.3,4.6v9.2h-4V642.3z"/>
		<path class="st3" d="M1080.9,693.6h1v7.3h-1V693.6z M1081.4,696.9h2.5c0.2,0,0.4,0,0.5-0.1c0.2-0.1,0.3-0.2,0.3-0.4
			c0.1-0.2,0.1-0.4,0.1-0.6s0-0.4-0.1-0.6s-0.2-0.3-0.3-0.4c-0.1-0.1-0.3-0.1-0.5-0.1h-2.5v-1h2.5c0.4,0,0.8,0.1,1.1,0.3
			c0.3,0.2,0.6,0.4,0.7,0.7s0.3,0.7,0.3,1.1s-0.1,0.8-0.3,1.1s-0.4,0.6-0.7,0.7c-0.3,0.2-0.7,0.3-1.1,0.3h-2.5V696.9z M1083.4,697.6
			l1-0.2l1.9,3.6h-1.2L1083.4,697.6z"/>
		<path class="st3" d="M1092,701h-1v-6.2l-1,0.6v-1.1l1-0.7h1V701z"/>
		<path class="st3" d="M1096.3,697.3l0,0.2c-0.1,0.2-0.2,0.3-0.4,0.3c-0.2,0.1-0.4,0.1-0.6,0.1c-0.3,0-0.7-0.1-0.9-0.3
			s-0.5-0.4-0.6-0.8s-0.2-0.7-0.2-1.1v0c0-0.5,0.1-0.9,0.2-1.2c0.2-0.3,0.4-0.6,0.7-0.8c0.3-0.2,0.7-0.3,1.1-0.3
			c0.4,0,0.8,0.1,1.1,0.3c0.3,0.2,0.5,0.4,0.7,0.8c0.2,0.3,0.2,0.7,0.2,1.2v0c0,0.3,0,0.5-0.1,0.8c-0.1,0.3-0.2,0.6-0.3,0.9
			c0,0,0,0.1-0.1,0.1c0,0,0,0.1-0.1,0.1l-1.6,3.1h-1.1L1096.3,697.3z M1096.3,696.7c0.2-0.2,0.3-0.5,0.3-0.9v0
			c0-0.4-0.1-0.7-0.3-0.9c-0.2-0.2-0.4-0.3-0.7-0.3c-0.3,0-0.6,0.1-0.8,0.3s-0.3,0.5-0.3,0.9v0c0,0.4,0.1,0.7,0.3,0.9
			c0.2,0.2,0.4,0.3,0.8,0.3C1095.9,697,1096.2,696.9,1096.3,696.7z"/>
		<path class="st3" d="M1100,700.8c-0.3-0.2-0.6-0.4-0.8-0.7s-0.3-0.7-0.3-1.1v-0.1c0-0.4,0.1-0.7,0.3-1c0.2-0.3,0.4-0.6,0.7-0.7
			c-0.3-0.1-0.5-0.3-0.6-0.6s-0.2-0.5-0.2-0.8v-0.2c0-0.4,0.1-0.7,0.3-1s0.4-0.5,0.7-0.7s0.7-0.2,1.1-0.2s0.8,0.1,1.1,0.2
			c0.3,0.2,0.6,0.4,0.7,0.7s0.3,0.6,0.3,1v0.2c0,0.3-0.1,0.6-0.2,0.8s-0.4,0.5-0.6,0.6c0.3,0.2,0.6,0.4,0.7,0.7
			c0.2,0.3,0.3,0.7,0.3,1v0.1c0,0.4-0.1,0.8-0.3,1.1c-0.2,0.3-0.4,0.5-0.8,0.7c-0.3,0.2-0.7,0.3-1.2,0.3S1100.3,701,1100,700.8z
			 M1101.8,699.9c0.2-0.1,0.3-0.2,0.4-0.4c0.1-0.2,0.1-0.4,0.1-0.6v-0.1c0-0.2,0-0.4-0.1-0.6c-0.1-0.2-0.2-0.3-0.4-0.4
			c-0.2-0.1-0.4-0.1-0.6-0.1s-0.4,0-0.6,0.1c-0.2,0.1-0.3,0.2-0.4,0.4c-0.1,0.2-0.1,0.4-0.1,0.6v0.1c0,0.2,0,0.4,0.1,0.6
			c0.1,0.2,0.2,0.3,0.4,0.4c0.2,0.1,0.4,0.1,0.6,0.1S1101.6,700,1101.8,699.9z M1101.7,696.6c0.2-0.1,0.3-0.2,0.4-0.4
			c0.1-0.2,0.1-0.4,0.1-0.6v-0.1c0-0.2,0-0.4-0.1-0.5c-0.1-0.2-0.2-0.3-0.4-0.4c-0.2-0.1-0.3-0.1-0.5-0.1c-0.2,0-0.4,0-0.5,0.1
			c-0.2,0.1-0.3,0.2-0.4,0.4c-0.1,0.2-0.1,0.3-0.1,0.5v0.1c0,0.2,0,0.4,0.1,0.6c0.1,0.2,0.2,0.3,0.4,0.4s0.3,0.1,0.5,0.1
			C1101.3,696.8,1101.5,696.7,1101.7,696.6z"/>
		<path class="st3" d="M1104.7,699.9h1.1v1.6l-1.1,1.1V699.9z"/>
		<path class="st3" d="M1115,697v1.3c0,0.5-0.1,1-0.3,1.4s-0.5,0.7-0.9,1c-0.4,0.2-0.8,0.3-1.3,0.3c-0.5,0-1-0.1-1.4-0.3
			c-0.4-0.2-0.7-0.5-0.9-0.9s-0.3-0.8-0.3-1.4v-2.2c0-0.5,0.1-1,0.3-1.4s0.5-0.7,0.9-1c0.4-0.2,0.8-0.3,1.3-0.3
			c0.4,0,0.8,0.1,1.2,0.3c0.4,0.2,0.6,0.4,0.9,0.8c0.2,0.3,0.4,0.7,0.5,1.1h-1.1c-0.1-0.2-0.2-0.5-0.3-0.6c-0.1-0.2-0.3-0.3-0.5-0.4
			c-0.2-0.1-0.4-0.1-0.6-0.1c-0.3,0-0.6,0.1-0.8,0.2c-0.2,0.1-0.4,0.3-0.5,0.6s-0.2,0.6-0.2,0.9v2.2c0,0.3,0.1,0.6,0.2,0.8
			c0.1,0.2,0.3,0.4,0.5,0.6s0.5,0.2,0.8,0.2c0.3,0,0.6-0.1,0.8-0.2c0.2-0.1,0.4-0.3,0.5-0.6s0.2-0.6,0.2-0.9V698h-1.5v-1H1115z"/>
		<path class="st3" d="M1120.1,700.8c-0.3-0.1-0.6-0.4-0.8-0.6s-0.3-0.6-0.4-1h1c0,0.2,0.1,0.4,0.2,0.5s0.2,0.2,0.4,0.3
			c0.2,0.1,0.3,0.1,0.6,0.1c0.3,0,0.6-0.1,0.8-0.3c0.2-0.2,0.3-0.4,0.3-0.8v-0.2c0-0.4-0.1-0.6-0.3-0.8s-0.4-0.3-0.8-0.3h-0.5v-1
			h0.5c0.3,0,0.5-0.1,0.7-0.3s0.2-0.4,0.2-0.7v-0.2c0-0.3-0.1-0.5-0.2-0.7c-0.2-0.2-0.4-0.2-0.7-0.2c-0.2,0-0.3,0-0.5,0.1
			c-0.1,0.1-0.3,0.2-0.3,0.3s-0.2,0.3-0.2,0.5h-1c0.1-0.4,0.2-0.7,0.4-1c0.2-0.3,0.4-0.5,0.7-0.6c0.3-0.1,0.6-0.2,1-0.2
			c0.6,0,1.1,0.2,1.5,0.5s0.5,0.8,0.5,1.4v0.1c0,0.4-0.1,0.7-0.3,1c-0.2,0.3-0.5,0.5-0.8,0.6c0.4,0.1,0.7,0.3,0.9,0.6
			s0.3,0.7,0.3,1.2v0.1c0,0.4-0.1,0.8-0.2,1.1c-0.2,0.3-0.4,0.5-0.7,0.7c-0.3,0.2-0.7,0.2-1.1,0.2
			C1120.8,701,1120.4,701,1120.1,700.8z"/>
		<path class="st3" d="M1125.3,700.5c-0.4-0.4-0.5-0.9-0.5-1.5v-3.3c0-0.7,0.2-1.2,0.5-1.5c0.4-0.4,0.9-0.5,1.6-0.5
			c0.7,0,1.2,0.2,1.6,0.5s0.5,0.9,0.5,1.5v3.3c0,0.7-0.2,1.2-0.5,1.5c-0.4,0.4-0.9,0.5-1.6,0.5
			C1126.1,701,1125.6,700.9,1125.3,700.5z M1127.6,699.8c0.2-0.2,0.3-0.5,0.3-0.8v-3.3c0-0.4-0.1-0.6-0.3-0.8
			c-0.2-0.2-0.4-0.3-0.8-0.3c-0.4,0-0.6,0.1-0.8,0.3c-0.2,0.2-0.3,0.5-0.3,0.8v3.3c0,0.4,0.1,0.6,0.3,0.8s0.4,0.3,0.8,0.3
			C1127.2,700.1,1127.5,700,1127.6,699.8z"/>
		<path class="st3" d="M1130.3,699.9h1.1v1.6l-1.1,1.1V699.9z"/>
		<path class="st3" d="M1135.7,693.7h1v7.3h-1V693.7z M1136.3,700h2c0.5,0,0.9-0.1,1.1-0.3c0.2-0.2,0.4-0.5,0.4-0.8v0
			c0-0.2,0-0.5-0.1-0.6c-0.1-0.2-0.2-0.3-0.4-0.4c-0.2-0.1-0.4-0.1-0.7-0.1h-2.2v-0.9h2.2c0.4,0,0.7-0.1,0.9-0.3
			c0.2-0.2,0.3-0.4,0.3-0.8c0-0.4-0.1-0.6-0.3-0.8c-0.2-0.2-0.5-0.3-1-0.3h-2.1v-1h2.3c0.5,0,0.9,0.1,1.2,0.2
			c0.3,0.2,0.6,0.4,0.7,0.7s0.2,0.6,0.2,1.1c0,0.3,0,0.5-0.1,0.7c-0.1,0.2-0.2,0.4-0.4,0.6c-0.2,0.2-0.4,0.3-0.7,0.3
			c0.3,0,0.5,0.1,0.8,0.3c0.2,0.2,0.4,0.4,0.5,0.6s0.2,0.5,0.2,0.8v0c0,0.4-0.1,0.7-0.3,1c-0.2,0.3-0.4,0.5-0.7,0.7
			s-0.7,0.2-1.1,0.2h-2.4V700z"/>
		<path class="st3" d="M1144.8,700.1l2.5-3.4c0.1-0.2,0.3-0.4,0.3-0.6c0.1-0.2,0.1-0.4,0.1-0.6v0c0-0.3-0.1-0.5-0.3-0.7
			c-0.2-0.2-0.4-0.2-0.7-0.2c-0.3,0-0.5,0.1-0.7,0.3c-0.2,0.2-0.3,0.4-0.3,0.7v0h-1.1v0c0.1-0.4,0.2-0.8,0.4-1.1
			c0.2-0.3,0.4-0.5,0.7-0.7c0.3-0.2,0.6-0.2,1-0.2c0.4,0,0.8,0.1,1.1,0.2c0.3,0.1,0.5,0.4,0.7,0.7c0.2,0.3,0.2,0.6,0.2,1v0
			c0,0.3-0.1,0.5-0.2,0.8c-0.1,0.3-0.3,0.6-0.4,0.8l-2.1,2.9h2.8v1h-4.1V700.1z"/>
		<path class="st3" d="M1152.9,697.3l0,0.2c-0.1,0.2-0.2,0.3-0.4,0.3c-0.2,0.1-0.4,0.1-0.6,0.1c-0.3,0-0.7-0.1-0.9-0.3
			s-0.5-0.4-0.6-0.8s-0.2-0.7-0.2-1.1v0c0-0.5,0.1-0.9,0.2-1.2c0.2-0.3,0.4-0.6,0.7-0.8c0.3-0.2,0.7-0.3,1.1-0.3
			c0.4,0,0.8,0.1,1.1,0.3c0.3,0.2,0.5,0.4,0.7,0.8c0.2,0.3,0.2,0.7,0.2,1.2v0c0,0.3,0,0.5-0.1,0.8c-0.1,0.3-0.2,0.6-0.3,0.9
			c0,0,0,0.1-0.1,0.1c0,0,0,0.1-0.1,0.1l-1.6,3.1h-1.1L1152.9,697.3z M1152.9,696.7c0.2-0.2,0.3-0.5,0.3-0.9v0
			c0-0.4-0.1-0.7-0.3-0.9c-0.2-0.2-0.4-0.3-0.7-0.3c-0.3,0-0.6,0.1-0.8,0.3s-0.3,0.5-0.3,0.9v0c0,0.4,0.1,0.7,0.3,0.9
			c0.2,0.2,0.4,0.3,0.8,0.3C1152.5,697,1152.7,696.9,1152.9,696.7z"/>
	</g>
</g>
</svg>
