<?xml version="1.0" encoding="utf-8"?>
<!-- Generator: Adobe Illustrator 24.1.2, SVG Export Plug-In . SVG Version: 6.00 Build 0)  -->
<svg version="1.1" id="Lag_1" xmlns="http://www.w3.org/2000/svg" xmlns:xlink="http://www.w3.org/1999/xlink" x="0px" y="0px"
	 viewBox="0 0 1000 1000" style="enable-background:new 0 0 1000 1000;" xml:space="preserve">
<g>
	<g>
		<path d="M479.8,110c1.5,101.7,2,203.4,1.4,305.1c-0.6,101.2-2.3,202.4-5,303.5c-1.5,57.1-3.4,114.1-5.6,171.1
			c-0.2,5.2,4,10.9,9.2,12.1c5.9,1.3,10.6-1.1,14.1-5.7c-1.3,1.7,1.2-1.6,1.2-1.5c0.7-0.8,1.3-1.7,2-2.5c1.5-1.8,2.9-3.7,4.4-5.5
			c3-3.6,6-7.2,9-10.8c5.8-6.8,11.8-13.4,18-19.9c12.6-13.3,25.9-26,39.7-37.9c26.8-23.1,55.8-43.5,87.8-61.5
			c8.9-5,18-9.8,27.1-14.3c4.6-2.3,9.2-4.4,13.9-6.6c2.3-1.1,4.7-2.1,7-3.1c1-0.4,2-0.9,2.9-1.3c0.4-0.2,4.6-2,2.9-1.2
			c6-2.5,11-8.4,8.7-15.4c-1.9-5.8-8.9-11.4-15.4-8.7c-70.5,29.6-134.7,72.9-188,127.8c-15.3,15.8-29.5,32.5-42.9,49.9
			c7.8,2.1,15.5,4.2,23.3,6.3c3.9-101.6,6.8-203.3,8.6-305c1.8-101.2,2.5-202.4,2.2-303.5c-0.2-57.1-0.7-114.2-1.6-171.2
			c-0.1-6.5-5.7-12.8-12.5-12.5C485.6,97.8,479.7,103,479.8,110L479.8,110z"/>
	</g>
</g>
<g>
	<g>
		<path d="M490.6,883.7c-7.2-15.5-15.5-30.5-25-44.8c-10-15-21.1-29.3-33.2-42.7c-11.5-12.7-23.9-24.5-37.1-35.4
			c-13.9-11.4-28.6-21.9-44-31.2c-15.5-9.3-31.8-17.2-48.5-24c-2-0.8-3.9-1.6-5.9-2.3c-2.9-1.1-7.1-0.2-9.6,1.3
			c-2.6,1.5-5.1,4.5-5.7,7.5c-0.7,3.2-0.6,6.8,1.3,9.6c0.7,0.8,1.3,1.7,2,2.5c1.6,1.5,3.4,2.6,5.5,3.2c3.2,1.2,6.4,2.5,9.6,3.9
			c-1-0.4-2-0.8-3-1.3c20.9,8.8,41,19.8,59.7,32.7c5.3,3.6,10.4,7.4,15.5,11.3c-0.8-0.7-1.7-1.3-2.5-2c18.2,14.1,35,29.9,50.1,47.3
			c4.3,4.9,8.4,10,12.4,15.1c-0.7-0.8-1.3-1.7-2-2.5c12,15.5,22.6,32.1,31.7,49.4c2.6,4.9,5,9.9,7.4,15c1.2,2.7,4.7,5,7.5,5.7
			c3,0.8,7,0.5,9.6-1.3c2.7-1.7,5-4.3,5.7-7.5c0.1-1.1,0.3-2.2,0.4-3.3C492.3,887.8,491.8,885.6,490.6,883.7L490.6,883.7z"/>
	</g>
</g>
</svg>
