<?xml version="1.0" encoding="utf-8"?>
<!-- Generator: Adobe Illustrator 24.1.2, SVG Export Plug-In . SVG Version: 6.00 Build 0)  -->
<svg version="1.1" xmlns="http://www.w3.org/2000/svg" xmlns:xlink="http://www.w3.org/1999/xlink" x="0px" y="0px"
	 viewBox="0 0 1200 1000" style="enable-background:new 0 0 1200 1000;" xml:space="preserve">
<style type="text/css">
	.st0{display:none;}
	.st1{display:inline;fill:#FFFFFF;}
	.st2{fill:#FFFFFF;}
</style>
<g id="Lag_3">
</g>
<g id="Lag_2" class="st0">
	<polygon class="st1" points="55.3,172.2 128,149.8 148.8,138.9 161,106.2 456.5,59.5 913.2,30.4 991.1,41.1 1040.9,87.1 
		1055.7,136.7 1055.7,234.3 1069.4,385.8 1084.8,501 1100.1,653.9 1109.3,749.1 1116.9,814.7 1116.9,853 1040.9,888.3 957.6,911.2 
		855.9,926.6 671.6,954.1 525.6,954.1 301.7,972.5 225.1,972.5 167.1,955.7 136.6,931.1 69.3,465.4 38.6,256.7 	"/>
</g>
<g id="Lag_1">
	<g>
		<g>
			<path class="st2" d="M241.6,273.4c-4.9-2.5-8.9-6.4-12-11.6s-5-11.3-5.7-18.5l-2.8-27.6c-0.7-7.1-0.1-13.5,1.8-19.2
				c2-5.7,5.1-10.2,9.4-13.6c4.3-3.4,9.4-5.4,15.5-5.9c6-0.6,11.5,0.4,16.4,3c4.9,2.5,8.9,6.4,12,11.6c3.1,5.2,5,11.4,5.7,18.5
				l2.8,27.6c0.7,7.1,0.1,13.5-1.8,19.2c-2,5.7-5.1,10.2-9.4,13.6s-9.4,5.4-15.5,5.9C252,276.9,246.5,275.9,241.6,273.4z
				 M263.4,255.2c2-1.6,3.4-3.8,4.3-6.5s1.2-5.7,0.8-9.1l-2.9-28.5c-0.3-3.4-1.2-6.3-2.7-8.8c-1.4-2.5-3.3-4.3-5.6-5.5
				c-2.3-1.2-4.8-1.7-7.7-1.4c-2.8,0.3-5.2,1.2-7.2,2.8s-3.4,3.8-4.3,6.5c-0.9,2.7-1.2,5.7-0.8,9.1l2.9,28.5
				c0.3,3.4,1.2,6.3,2.7,8.8c1.4,2.5,3.3,4.3,5.6,5.5c2.3,1.2,4.8,1.7,7.7,1.4C259,257.8,261.4,256.8,263.4,255.2z"/>
			<path class="st2" d="M294.9,173.7l15.7-1.5l10,97.3l-15.7,1.5L294.9,173.7z M309.9,252.7l26.5-2.5c3.6-0.3,6.3-1.6,8-3.8
				c1.8-2.2,2.4-5.1,2.1-8.8v-0.2c-0.3-2.5-0.9-4.5-2-6.2s-2.5-2.9-4.3-3.6c-1.8-0.8-3.9-1-6.2-0.8l-26.5,2.5l-1.8-17.7l26.5-2.5
				c3.2-0.3,5.7-1.5,7.2-3.6c1.6-2.1,2.2-4.9,1.8-8.3c-0.3-3.1-1.5-5.5-3.4-7c-2-1.6-4.6-2.2-7.8-1.9l-26.5,2.5l-1.8-17.7l27.1-2.5
				c5.4-0.5,10.1,0.1,14.1,1.8s7.2,4.5,9.6,8.2c2.4,3.8,3.9,8.4,4.4,13.9c0.4,3.8,0.1,7.2-0.9,10.3c-1,3-2.6,5.6-4.8,7.7
				c-2.2,2.1-5.1,3.6-8.4,4.6c3.7,0.2,7,1.3,9.8,3c2.8,1.8,5.1,4.2,6.8,7.4c1.7,3.1,2.8,6.8,3.2,11.1v0.2c0.6,5.6,0.1,10.4-1.5,14.6
				s-4.2,7.5-7.8,9.9c-3.6,2.4-8.1,3.9-13.5,4.4l-28,2.6L309.9,252.7z"/>
			<path class="st2" d="M395,262.2c-3.9-0.6-7.6-1.6-11.1-3.1s-6.7-3.4-9.6-5.7l5.7-15.8c3.5,2.8,7.5,4.8,11.8,6.1
				c4.4,1.3,8.8,1.7,13.2,1.3c5.1-0.5,9-1.9,11.6-4.2s3.7-5.3,3.3-9v-0.1c-0.3-2.6-1.1-4.6-2.5-6s-3.2-2.4-5.3-2.9
				c-2.1-0.5-4.8-0.9-8-1.2c-0.1,0-0.2,0-0.3,0c-0.1,0-0.2,0-0.3,0l-1.3-0.1c-5.7-0.5-10.4-1.4-14.2-2.6c-3.8-1.2-7.2-3.6-10.2-7.2
				c-3-3.6-4.8-9-5.5-16.1v-0.1c-0.6-6.3,0-11.8,1.9-16.5s5.1-8.4,9.4-11.2s9.7-4.5,16.2-5.1c3-0.3,6.1-0.2,9.2,0.4
				c3.2,0.5,6.4,1.4,9.5,2.6c3.1,1.2,6.1,2.8,9,4.7l-5,16.1c-3.5-2.3-7-4-10.7-5.1c-3.6-1.1-7.1-1.5-10.3-1.2
				c-4.8,0.4-8.4,1.7-10.9,3.8c-2.4,2.1-3.5,4.8-3.1,8.2v0.1c0.3,2.8,1.2,5,2.7,6.5s3.4,2.5,5.5,3.1s5,1.1,8.8,1.6
				c0.2,0,0.3,0,0.5,0.1c0.2,0,0.3,0,0.5,0.1c0.2,0,0.5,0.1,0.7,0.1s0.4,0.1,0.7,0.1c5.4,0.7,9.9,1.8,13.6,3.2s6.9,3.9,9.7,7.5
				c2.8,3.6,4.5,8.7,5.2,15.3v0.1c0.6,6.2-0.1,11.6-2.1,16.3c-2,4.6-5.3,8.4-9.8,11.1c-4.5,2.8-10.1,4.5-16.8,5.1
				C402.8,262.9,398.9,262.8,395,262.2z"/>
			<path class="st2" d="M442.6,159.9l15.7-1.5l10,97.3l-15.7,1.5L442.6,159.9z M448.3,159.4l50.1-4.7l1.8,17.7l-50.1,4.7
				L448.3,159.4z M452.4,199.5l43.8-4.1l1.8,17.7l-43.8,4.1L452.4,199.5z M456.5,239l50.1-4.7l1.8,17.7l-50.1,4.7L456.5,239z"/>
			<path class="st2" d="M512.7,153.3l15.7-1.5l10,97.4l-15.7,1.5L512.7,153.3z M523.1,193.3l28.9-2.7c1.6-0.1,3-0.8,4.1-1.8
				c1.1-1.1,1.9-2.5,2.4-4.3s0.6-3.8,0.4-6.1c-0.2-2.3-0.8-4.3-1.6-5.9c-0.8-1.7-1.9-2.9-3.2-3.8c-1.3-0.8-2.8-1.2-4.4-1l-28.9,2.7
				l-1.8-17.7l30.2-2.8c4.6-0.4,8.7,0.4,12.4,2.5s6.8,5.2,9.1,9.5c2.4,4.2,3.8,9.2,4.4,15c0.6,5.8,0.2,11-1.3,15.6s-3.8,8.2-7,11
				c-3.2,2.7-7.1,4.3-11.7,4.7l-30.2,2.8L523.1,193.3z M542.1,206.3l16.4-4.6l27.1,43.2l-19,1.8L542.1,206.3z"/>
			<path class="st2" d="M580.4,147.1l16.1-1.5l24.4,63.3l11-66.6l16.1-1.5l-17.7,99.9l-12.2,1.1L580.4,147.1z"/>
			<path class="st2" d="M681.6,137.6l10-0.9l41.8,94.4l-16.9,1.6L689.7,168l-13.1,68.3l-16.9,1.6L681.6,137.6z M671.6,203.2
				l43.8-4.1l1.8,17.7l-43.8,4.1L671.6,203.2z"/>
			<path class="st2" d="M722.2,133.8l61-5.7l1.8,17.7l-61,5.7L722.2,133.8z M745.7,139.7l15.7-1.5l9.2,89.3l-15.7,1.5L745.7,139.7z"
				/>
			<path class="st2" d="M815.2,223.4l-16.2,1.5l-10-97.3l16.2-1.5L815.2,223.4z"/>
			<path class="st2" d="M844.7,217.2c-4.9-2.5-8.9-6.4-12-11.6c-3.1-5.2-5-11.3-5.7-18.5l-2.8-27.6c-0.7-7.1-0.1-13.5,1.8-19.2
				c2-5.7,5.1-10.2,9.4-13.6s9.4-5.4,15.5-5.9s11.5,0.4,16.4,3s8.9,6.4,12,11.6c3.1,5.2,5,11.4,5.7,18.5l2.8,27.6
				c0.7,7.1,0.1,13.5-1.8,19.2c-2,5.7-5.1,10.2-9.4,13.6c-4.3,3.4-9.4,5.4-15.5,5.9C855.1,220.7,849.6,219.7,844.7,217.2z
				 M866.4,199c2-1.6,3.4-3.8,4.3-6.5c0.9-2.7,1.2-5.7,0.8-9.1l-2.9-28.5c-0.3-3.4-1.2-6.3-2.7-8.8c-1.4-2.5-3.3-4.3-5.6-5.5
				s-4.8-1.7-7.7-1.4s-5.2,1.2-7.2,2.8s-3.4,3.8-4.3,6.5c-0.9,2.7-1.2,5.7-0.8,9.1l2.9,28.5c0.3,3.4,1.2,6.3,2.7,8.8
				c1.4,2.5,3.3,4.3,5.6,5.5s4.8,1.7,7.7,1.4S864.4,200.6,866.4,199z"/>
			<path class="st2" d="M897.9,117.5l19.2-1.8l38.6,71.7l-1.2,1.9l-7.9-76.3l15-1.4l10,97.2l-19.3,1.8L914,140l1.2-1.9l7.7,75.2
				l-15,1.4L897.9,117.5z"/>
		</g>
	</g>
	<g>
		<g>
			<path class="st2" d="M161.3,116c118.5-27.3,239.5-41.8,360.6-51.7C643.2,54.4,765,49.1,886.4,40.2c48.3-3.5,99.8,0.5,135.7,36.9
				c12.4,12.6,19.1,26.3,21.8,44c0.3,1.9,0.8,7.6,1,11.3c0.3,5,0.3,10,0.3,15c-0.1,10.4-0.6,20.8-0.9,31.3
				c-3.9,120.9,16.3,240.6,33.2,359.9c8.4,59.3,16,118.9,19.3,178.7c0.8,13.7,0.6,27.6,1.8,41.3c0.8,9.7,2.6,19.4,4.3,29.1
				c1.8,10.4,3.9,20.7,5.4,31.1c0.5,3.1,0.7,4.3,1,8.4c0.1,2.2,0.2,4.4,0.1,6.5c0,1-0.1,2-0.2,3.1c-0.1,1.2-0.1,1.3,0,0.3
				c-0.1,0.6-0.2,1.3-0.3,1.9c-0.4,1.8-0.9,3.5-1.4,5.3c-0.1,0.3-1.2,3-0.3,0.9c-0.3,0.8-0.7,1.6-1.1,2.3c-0.8,1.5-1.7,2.9-2.7,4.3
				c-1.6,2.3,1.3-1.4-0.5,0.6c-0.6,0.6-1.1,1.3-1.7,1.9c-1.2,1.2-2.4,2.4-3.7,3.5c-2.2,1.8,1.6-1.1-0.7,0.5c-0.7,0.5-1.4,1-2.2,1.5
				c-3.3,2.2-6.8,4-10.5,5.6c-2.8,1.3,1.8-0.7-1.1,0.5c-0.9,0.4-1.8,0.7-2.7,1c-1.9,0.7-3.8,1.3-5.7,1.9c-3.9,1.2-7.9,2.3-11.9,3.3
				c-8.8,2.2-17.7,3.9-26.5,5.6c-16.7,3.2-33.7,6.3-49.5,12.8c-25.2,10.3-51.8,15.9-78.7,19.5c-27.4,3.7-55,5.8-82.4,9.9
				c-28.6,4.2-56.8,11.1-85.4,15.4c-59,8.8-118.8,12.3-178.4,11.9c-59.6-0.4-118.6,4.5-178,9.4c-29.5,2.5-59,4.6-88.6,5.5
				c-14.6,0.4-29.3,0.9-43.8,0.2c-4.5-0.2-9.9-0.6-12.9-4.3c-3.3-4.1-3.5-11-4.1-16c-16.6-123.9-33.1-247.9-49.7-371.8
				c-8.3-62.1-17.5-124.2-23-186.6c-5.5-62.2-6.5-124.7-3.1-187c1.6-29.9,4.3-59.7,8-89.4c0.7-5.4-5.1-10-10-10c-6,0-9.3,4.6-10,10
				c-7.8,63.2-11.1,126.9-9.6,190.6c1.4,63.8,8.4,127.2,16.8,190.4c16.7,126.6,33.8,253.1,50.7,379.7c2.1,15.8,4.2,31.7,6.3,47.5
				c1,7.6,2,15.2,3,22.8c1,7.3,1.4,15,3.8,22c5,14.9,17.4,21.1,32.3,22.1c15,1,30.3,0.3,45.3-0.2c59.5-1.8,118.6-8.9,178-12.6
				c61.2-3.9,122.5-1,183.6-5.2c30.9-2.2,61.7-5.5,92.3-10.2c28.5-4.4,56.6-11.3,85.1-15.3c28.2-4,56.6-6.1,84.8-10.2
				c13.9-2,27.8-4.6,41.4-8.1c12.4-3.2,24-7.9,36-12.4c33.1-12.3,70.3-11.2,102.1-27.4c14.3-7.3,26-19.5,29.6-35.4
				c4.3-18.9-1.5-39.1-4.8-57.6c-1.7-9.6-3.6-19.6-4.4-28c-1.3-13.4-1-27-1.7-40.4c-1.7-31-4.5-61.9-8-92.7
				c-13.9-122.7-38.5-244.3-44-367.8c-1.3-29-1.4-57.9-0.4-86.9c0.7-20,1.8-40.3-2-60.1c-8.6-44.4-49.9-75-91.6-85.9
				c-25.4-6.7-52.2-7.7-78.3-5.9c-30.9,2.1-61.8,4.3-92.7,6.3c-61.6,3.9-123.2,7.3-184.8,11.4C491,46,366.6,56.9,243.8,79
				c-29.6,5.1-58.8,11-87.9,17.7C143.4,99.6,148.7,118.9,161.3,116L161.3,116z"/>
		</g>
	</g>
	<g>
		<g>
			<path class="st2" d="M148.8,138.9c-15.7,2.9-31.6,5.4-47.4,8c-8,1.3-15.9,2.7-23.8,4.2c-7.7,1.5-15.4,3.7-21.7,8.6
				c-11.4,8.7-16,22.2-17.8,35.9c-1.9,14.8-0.9,30.1-0.3,44.9c2.9,70.2,13.8,139.9,23.5,209.4c9.8,70,19.5,139.9,29.3,209.9
				s19.5,139.9,29.3,209.9c4.1,29.5,5.9,63.3,29.5,84.7c19.9,18.1,47.4,23,73.3,24.8c6.3,0.4,12.6,0.7,18.9,0.8
				c12.9,0.3,12.9-19.7,0-20c-23.4-0.6-48.3-1.6-68.4-13c-10.1-5.7-17.7-13.7-22.6-24.8c-5.7-13-7.2-27.7-9.2-41.6
				c-9.4-67.5-18.8-135.1-28.3-202.6S94.3,543,84.9,475.5c-9.3-66.8-20-133.7-25.1-201c-1.3-16.7-2.1-33.4-2.5-50.2
				c-0.3-13-1-25.5,2.9-37.3c1.4-4.3,3.8-8.7,7.9-11.8c-0.4,0.3,2-1.1,2.5-1.4c1.1-0.6,2.2-1,3.4-1.4c3.8-1.2,7.8-1.9,11.7-2.7
				c15-2.8,30.1-5.1,45.2-7.6c7.7-1.3,15.5-2.6,23.2-4c5.3-1,8.3-7.4,7-12.3C159.6,140.3,154.1,137.9,148.8,138.9L148.8,138.9z"/>
		</g>
	</g>
	<g>
		<g>
			<path class="st2" d="M74.2,169.5c1,0.6,2,1.3,2.9,1.9c0.9,0.6,0.1,0,0-0.1c0.4,0.3,0.8,0.6,1.1,0.9c1.8,1.6,3.5,3.2,5.1,5
				c0.3,0.4,1.8,2.1,0.8,0.9c0.7,0.9,1.3,1.8,1.9,2.7c1.2,1.8,2.3,3.8,3.3,5.7c0.5,1,1,2,1.4,3c-0.6-1.4,0.3,0.7,0.4,1.2
				c0.8,2.1,1.5,4.3,2.1,6.5c1.3,4.5,2.1,9.1,2.8,13.8c-0.2-1.5,0.1,1,0.2,1.4c0.1,1.2,0.3,2.4,0.4,3.6c0.2,2.4,0.4,4.8,0.6,7.3
				c0.3,4.9,0.5,9.7,0.6,14.6c0.3,11.9,0.5,23.8,0.8,35.7c1.5,51.1,4.5,102.2,8.8,153.1c4.2,49.3,9.6,98.5,15.7,147.7
				c6.2,49.6,13,99.1,20,148.6c7.2,50.7,14.5,101.3,21.5,152c0.9,6.4,1.8,12.8,2.6,19.1c0.7,5.4,7.6,8.3,12.3,7
				c5.8-1.6,7.7-6.9,7-12.3c-7-51.4-14.4-102.8-21.8-154.2c-7-49.1-13.9-98.3-20.1-147.5c-6.3-49.7-11.9-99.6-16.3-149.5
				c-4.5-51.3-7.8-102.6-9.5-154.1c-0.7-22.6-0.1-45.5-2.3-68.1c-1.9-19.3-6.5-39.3-20.3-53.8c-3.5-3.7-7.6-6.8-11.9-9.5
				c-4.6-2.9-11-1-13.7,3.6C67.8,160.6,69.6,166.7,74.2,169.5L74.2,169.5z"/>
		</g>
	</g>
	<g>
		<g>
			<path class="st2" d="M237.1,370.6c2,29.3,5,58.6,8.9,87.7c3.8,28.5,8.6,56.8,14.4,85c2.9,14.1,6,28.1,9.4,42.1
				c1.7,6.9,3.4,13.9,5.2,20.8c1.8,6.9,4.4,14.1,9.8,18.9c10.4,9.3,24.5,8.6,37.3,5.7c6.3-1.5,12.5-3.4,18.8-5
				c6.9-1.8,13.8-3.5,20.8-5.2c27.6-6.6,55.6-12,83.7-16.1c3.5-0.5,7.1-1,10.6-1.5c-0.9,0.1-1.8,0.2-2.7,0.4c22.6-3,45.3-5.3,68-6.7
				c11.3-0.7,22.5-1.2,33.8-1.5c5.8-0.2,11.5-0.2,17.3-0.3c5,0,10,0.2,15-0.2c6.8-0.6,12.9-2.3,18.2-6.8c4.4-3.7,7.2-9.5,8.3-15.1
				c2.2-11.1,0.8-22.8-2.3-33.6c-3-10.6-7.6-20.7-12.3-30.7c-2.3-4.8-4.5-9.7-6.7-14.6c-0.5-1.1-1.3-2.4-1.6-3.6
				c0.5,2.2,0.4,1,0.1,0.3c-0.2-0.5-0.4-1-0.6-1.5c-1.1-2.6-2.1-5.3-3.1-7.9c-8.6-22.7-14.6-46.4-17.8-70.5c0.1,0.9,0.2,1.8,0.4,2.7
				c-1.5-11.3-2.4-22.6-2.7-34c-0.1-5.6-0.1-11.2,0-16.7c0.2-6.4-0.1-12.7-3.1-18.5c-5.7-11.2-19-13.2-30.2-13.8
				c-11.4-0.6-22.8-0.9-34.3-0.9c-23.1,0.1-46.1,1.6-69,4.4c-23.5,2.9-46.7,7-69.7,12.6c-22.3,5.4-44.3,12.2-65.8,20.2
				c-2.7,1-5.4,2-8.1,3.1c-2.5,1-4.6,2.2-6,4.6c-1.3,2.1-1.8,5.3-1,7.7c1.5,4.7,7.1,9,12.3,7C326.1,376,361,366,396.5,359.3
				c10-1.9,20.1-3.5,30.2-4.9c-0.9,0.1-1.8,0.2-2.7,0.4c30.6-4.1,61.4-5.8,92.3-5c8.1,0.2,16.3,0.2,24.4,1.3
				c-0.9-0.1-1.8-0.2-2.7-0.4c1.7,0.2,3.4,0.5,5,1c0.8,0.2,1.6,0.5,2.4,0.8c-3.1-1.1-0.4-0.1,0.4,0.4c0.8,0.5,0.9,1.1-0.7-0.6
				c0.3,0.3,0.6,0.5,0.9,0.8c0.1,0.1,0.7,0.9,0.8,0.9c-0.3,0-1.5-2.2-0.5-0.6c0.1,0.2,0.7,1,0.7,1.2c0.1-0.3-0.9-2.4-0.3-0.6
				c0.3,1,0.5,2,0.7,3c-0.1-0.9-0.2-1.8-0.4-2.7c0.8,6.4,0,13.1,0.1,19.6c0.1,6.9,0.3,13.8,0.9,20.7c1.1,14.2,3,28.4,5.8,42.3
				c2.7,13.5,6.3,26.9,10.8,39.9c4.6,13.5,10.2,26.5,16.2,39.4c1.6,3.4,3.2,6.8,4.7,10.2c0.4,0.9,0.8,1.8,1.2,2.6
				c0.1,0.3,0.3,0.6,0.4,0.9c0.9,2.1-0.9-2.1,0,0c0.7,1.7,1.4,3.3,2,5c2.6,6.9,4.7,14.1,5.7,21.4c-0.1-0.9-0.2-1.8-0.4-2.7
				c0.6,5,0.8,10.1,0.1,15.1c0.1-0.9,0.2-1.8,0.4-2.7c-0.3,1.8-0.7,3.6-1.3,5.3c-0.6,1.9,1.1-2.1,0.2-0.4c-0.2,0.3-0.3,0.6-0.5,0.9
				c-0.1,0.1-0.7,1.4-0.9,1.3c0.1,0,1.7-2,0.4-0.6c-0.3,0.3-0.6,0.6-1,0.9c-1.2,1.2,1.5-1,0.5-0.4c-0.4,0.2-0.8,0.5-1.1,0.7
				c-0.4,0.2-1.9,0.9-0.3,0.2c1.7-0.7,0,0-0.3,0.1c-0.4,0.1-0.9,0.3-1.3,0.4c-1,0.2-2,0.4-3,0.6c0.9-0.1,1.8-0.2,2.7-0.4
				c-4,0.5-8.1,0.4-12.1,0.4c-4.7,0-9.4,0.1-14.1,0.2c-9.2,0.2-18.4,0.5-27.6,0.9c-18.6,0.9-37.2,2.3-55.7,4.3
				c-37.7,4-75.2,10.2-112.2,18.5c-10.1,2.3-20.2,4.7-30.2,7.4c-8.9,2.3-17.7,5.3-26.8,6.6c0.9-0.1,1.8-0.2,2.7-0.4
				c-3.5,0.5-7.1,0.6-10.6,0.1c0.9,0.1,1.8,0.2,2.7,0.4c-1-0.2-2-0.4-3-0.6c-0.5-0.1-0.9-0.3-1.3-0.4c-1.9-0.6,1.7,0.9,0.4,0.2
				c-0.9-0.5-1.7-1-2.6-1.6c-0.8-0.5,1.1,0.8,1.1,0.8c0-0.1-0.5-0.4-0.5-0.5c-0.4-0.4-0.8-0.8-1.2-1.2c-1.2-1.3,1.1,1.7,0.1,0.2
				c-0.4-0.6-0.7-1.1-1-1.7c-0.3-0.5-0.5-1-0.8-1.6c-0.5-1,0.5,1.1,0.4,1.1c-0.2-0.2-0.3-0.8-0.4-1.1c-0.9-2.5-1.5-5-2.2-7.5
				c-3-11.7-5.8-23.4-8.5-35.1c-5.3-23.5-10-47.2-14-70.9c-2.3-13.5-4.3-27-6.1-40.5c0.1,0.9,0.2,1.8,0.4,2.7
				c-3.8-28-6.6-56.2-8.4-84.4c-0.3-5.2-4.4-10.3-10-10C242,360.8,236.7,365,237.1,370.6L237.1,370.6z"/>
		</g>
	</g>
	<g>
		<g>
			<path class="st2" d="M638.7,357.9c21.1-1.2,42.2-2.4,63.3-3.6c21-1.2,42-2.4,63-3.6c20.8-1.2,41.6-2.3,62.4-3.6
				c20.2-1.2,40.4-2.7,60.5-5.1c20.8-2.5,41.6-5.8,61.9-10.7c2.5-0.6,4.9-1.2,7.3-1.9c5.1-1.3,8.6-7.2,7-12.3
				c-1.7-5.2-6.9-8.4-12.3-7c-18.5,4.9-37.4,8.4-56.4,10.9c0.9-0.1,1.8-0.2,2.7-0.4c-32.8,4.4-65.8,6.1-98.8,8
				c-34.2,1.9-68.4,3.9-102.6,5.8c-19.3,1.1-38.6,2.2-57.9,3.3c-5.2,0.3-10.3,4.4-10,10C628.9,353.1,633.1,358.3,638.7,357.9
				L638.7,357.9z"/>
		</g>
	</g>
	<g>
		<g>
			<path class="st2" d="M647.2,425.6c21.9-0.2,43.7-0.8,65.6-1.8c21.8-1,43.7-2.3,65.5-4c21.9-1.7,43.8-3.8,65.6-6.3
				c22.4-2.5,44.7-5.5,67-8.7c21.6-3.2,43.2-6.7,64.7-10.7c2.7-0.5,5.4-1,8.1-1.5c5.2-1,8.6-7.5,7-12.3c-1.8-5.5-6.8-8-12.3-7
				c-25.1,4.7-50.4,8.9-75.7,12.6c-7.1,1-14.3,2-21.4,3c0.9-0.1,1.8-0.2,2.7-0.4c-30.5,4.1-61.2,7.5-91.9,10.1
				c-30.8,2.6-61.7,4.6-92.6,5.7c-17.4,0.7-34.7,1.1-52.1,1.3c-5.2,0.1-10.2,4.6-10,10C637.4,420.9,641.6,425.6,647.2,425.6
				L647.2,425.6z"/>
		</g>
	</g>
	<g>
		<g>
			<path class="st2" d="M675.9,505.7c38-8.5,76-16.3,114.4-22.3c10.8-1.7,21.6-3.3,32.4-4.7c-0.9,0.1-1.8,0.2-2.7,0.4
				c22.7-3,45.4-5.6,68.2-7.6c22.7-2,45.4-3.5,68.2-4.5c12.9-0.6,25.8-0.9,38.7-1.2c5.2-0.1,10.2-4.5,10-10c-0.2-5.3-4.4-10.1-10-10
				c-21.2,0.4-42.4,1.2-63.6,2.4c-21.2,1.3-42.3,3-63.4,5.1c-21.7,2.2-43.3,4.9-64.9,8c-21,3-41.9,6.5-62.8,10.4
				c-20.9,3.9-41.6,8.3-62.4,13c-2.6,0.6-5.1,1.2-7.7,1.7c-5.1,1.1-8.6,7.3-7,12.3C665.4,504.1,670.4,507,675.9,505.7L675.9,505.7z"
				/>
		</g>
	</g>
	<g>
		<g>
			<path class="st2" d="M689.6,570.2c23-4.9,46.1-9.4,69.2-13.6c23.1-4.2,46.3-8.1,69.6-11.6c13.1-2,26.2-3.9,39.3-5.6
				c-0.9,0.1-1.8,0.2-2.7,0.4c38.5-5.2,77.2-9.4,116-12.7c10.9-0.9,21.7-1.8,32.6-2.5c2.7-0.2,5.1-1,7.1-2.9c1.7-1.7,3-4.6,2.9-7.1
				c-0.2-5.1-4.4-10.4-10-10c-21.4,1.5-42.8,3.3-64.2,5.4c-21.5,2.1-42.9,4.5-64.3,7.2c-22,2.8-43.9,5.8-65.8,9.2
				c-21.2,3.2-42.4,6.8-63.6,10.6c-21.2,3.8-42.4,8-63.6,12.4c-2.6,0.5-5.2,1.1-7.8,1.6c-5.1,1.1-8.6,7.4-7,12.3
				C679,568.6,684.1,571.4,689.6,570.2L689.6,570.2z"/>
		</g>
	</g>
	<g>
		<g>
			<path class="st2" d="M293.6,693.9c44.5-13.2,90.7-17.1,136.8-19.6c47.3-2.6,94.8-4,141.6-12c24.1-4.1,48-9.9,72-14.6
				c23.4-4.5,46.9-8.2,70.5-11.4c47.6-6.3,95.5-10.6,143.2-15.7c48.3-5.2,96.6-11.3,144.3-21.1c5.9-1.2,11.8-2.5,17.7-3.9
				c5.3-1.2,8.4-7.3,7-12.3c-1.5-5.4-7-8.2-12.3-7c-46.6,10.6-94,17.2-141.4,22.5c-48,5.4-96.1,9.6-144,15.5
				c-24.2,3-48.4,6.4-72.5,10.6c-24.2,4.3-48.2,9.8-72.3,14.6c-45.8,9.1-92.3,11.4-138.9,13.8c-46.9,2.4-94.3,5.2-140.1,16.5
				c-5.7,1.4-11.3,2.9-17,4.6c-5.2,1.5-8.4,7-7,12.3C282.7,692.1,288.4,695.5,293.6,693.9L293.6,693.9z"/>
		</g>
	</g>
	<g>
		<g>
			<path class="st2" d="M310.5,748.9c44.8-10,90.5-14.4,136.2-17.1c46.4-2.7,92.8-3.6,139.2-6.7c47.2-3.1,93.7-9.8,140.2-18.2
				c46.9-8.5,93.9-16.4,141-23.2c46.8-6.7,93.7-12.7,140.6-18.6c5.9-0.7,11.7-1.5,17.6-2.2c5.4-0.7,10-4.1,10-10
				c0-4.9-4.6-10.7-10-10c-48,6-95.9,12.1-143.8,18.8c-47.2,6.6-94.3,13.9-141.2,22.4c-23.4,4.2-46.8,8.6-70.3,12.2
				c-22.9,3.5-45.9,6-69,7.7c-46.3,3.6-92.8,4.6-139.2,6.9c-46.8,2.4-93.8,6.2-139.9,15.1c-5.6,1.1-11.2,2.3-16.8,3.5
				c-5.3,1.2-8.4,7.3-7,12.3C299.6,747.3,305.2,750,310.5,748.9L310.5,748.9z"/>
		</g>
	</g>
	<g>
		<g>
			<path class="st2" d="M313.1,803c93.5-0.6,187-6.9,279.7-19c46.3-6,92.3-13.8,138.3-22c45.6-8.2,91.2-14.9,137.3-19.4
				c52.1-5.1,104.3-8.2,156.5-11.3c5.4-0.3,10-4.4,10-10c0-5.2-4.6-10.3-10-10c-93.7,5.6-187.3,11.8-279.9,28
				c-45.6,8-91,16.3-136.9,22.7s-92,11.2-138.2,14.7c-52.2,3.9-104.6,6-157,6.4c-5.4,0-10,4.6-10,10
				C303.1,798.4,307.7,803,313.1,803L313.1,803z"/>
		</g>
	</g>
	<g>
		<g>
			<path class="st2" d="M343.4,866.4c22-4.3,44.2-8.8,66.6-10.1c22.8-1.3,45.1,2.3,67.8,3.7c22.6,1.4,44.7-2.5,66.7-7.4
				c21.4-4.7,41.7-9,63.7-8.7c22.3,0.3,44.5,3.5,66.8,3.2c11.6-0.2,23.2-1.4,34.5-3.9c10.8-2.3,21.4-5.7,31.9-8.8
				c21.2-6.3,42.5-10.1,64.4-12.2c22.6-2.1,45.2-3.2,67.9-4.6c46.7-2.9,93.3-5.9,140-8.8c5.7-0.4,11.4-0.7,17.2-1.1
				c5.4-0.3,10-4.4,10-10c0-5.2-4.6-10.3-10-10c-46.7,2.9-93.3,5.9-140,8.8c-23.1,1.4-46.2,2.8-69.2,4.4
				c-22.8,1.6-45.7,3.9-67.9,9.3c-20.9,5.1-41.5,13.6-62.9,15.9c-22.4,2.4-44.9-0.4-67.3-1.7c-11.2-0.6-22.5-0.9-33.7,0
				c-11.3,0.9-22.5,2.9-33.6,5.2c-21,4.4-41.6,10.1-62.8,10.7c-22.9,0.6-45.6-4.3-68.5-4.4c-23.4-0.1-46.6,3.5-69.5,7.9
				c-5.7,1.1-11.5,2.2-17.2,3.3c-5.3,1-8.3,7.4-7,12.3C332.6,864.9,338.1,867.4,343.4,866.4L343.4,866.4z"/>
		</g>
	</g>
</g>
</svg>
